<svg width="44" height="44" viewBox="0 0 44 44" fill="none" xmlns="http://www.w3.org/2000/svg">
<path d="M22 0.125C27.8016 0.125 33.3656 2.42968 37.468 6.53204C41.5703 10.6344 43.875 16.1984 43.875 22C43.875 27.8016 41.5703 33.3656 37.468 37.468C33.3656 41.5703 27.8016 43.875 22 43.875C16.1984 43.875 10.6344 41.5703 6.53204 37.468C2.42968 33.3656 0.125 27.8016 0.125 22C0.125 16.1984 2.42968 10.6344 6.53204 6.53204C10.6344 2.42968 16.1984 0.125 22 0.125ZM19.275 26.3156L14.4156 21.4531C14.2414 21.2789 14.0346 21.1407 13.807 21.0464C13.5794 20.9522 13.3354 20.9036 13.0891 20.9036C12.8427 20.9036 12.5987 20.9522 12.3711 21.0464C12.1435 21.1407 11.9367 21.2789 11.7625 21.4531C11.4107 21.805 11.213 22.2821 11.213 22.7797C11.213 23.2772 11.4107 23.7544 11.7625 24.1062L17.95 30.2938C18.1237 30.4688 18.3304 30.6078 18.5581 30.7026C18.7857 30.7975 19.0299 30.8463 19.2766 30.8463C19.5232 30.8463 19.7674 30.7975 19.9951 30.7026C20.2228 30.6078 20.4294 30.4688 20.6031 30.2938L33.4156 17.4781C33.5922 17.3046 33.7326 17.0979 33.8288 16.8699C33.9251 16.6419 33.9752 16.397 33.9764 16.1495C33.9775 15.902 33.9297 15.6567 33.8355 15.4278C33.7414 15.1989 33.6029 14.9909 33.428 14.8158C33.2531 14.6406 33.0452 14.5019 32.8164 14.4075C32.5876 14.3131 32.3424 14.265 32.0949 14.2658C31.8474 14.2667 31.6025 14.3165 31.3743 14.4125C31.1462 14.5085 30.9393 14.6487 30.7656 14.825L19.275 26.3156Z" fill="#293066"/>
</svg>
