<svg width="289" height="311" viewBox="0 0 289 311" fill="none" xmlns="http://www.w3.org/2000/svg">
<path d="M144.5 200C199.728 200 244.5 155.228 244.5 100C244.5 44.7715 199.728 0 144.5 0C89.2715 0 44.5 44.7715 44.5 100C44.5 155.228 89.2715 200 144.5 200Z" fill="url(#paint0_linear_5953_31269)"/>
<path d="M209.175 98.404C209.008 96.7902 208.523 95.2801 207.719 93.8727C207.494 93.5175 207.238 93.1863 206.949 92.88C206.662 92.5738 206.347 92.2973 206.007 92.0506C205.667 91.8048 205.307 91.5926 204.927 91.415C204.545 91.2384 204.152 91.0982 203.746 90.9965C203.561 90.935 203.34 90.8851 203.131 90.8304C202.585 85.1634 201.854 79.4974 200.312 74.01C199.083 69.6332 197.382 65.0597 193.88 61.9982C190.134 58.7448 185.22 57.7204 180.503 56.8564C174.62 55.7985 168.699 55.0429 162.74 54.5908C157.175 54.1463 151.592 53.8976 145.99 53.8439C145.934 52.1648 145.873 50.48 145.812 48.8009C145.751 47.1218 145.155 44.7391 143.822 45.0232C142.71 45.7519 142.292 49.4864 142.225 53.8439C136.697 53.8804 131.169 54.1088 125.641 54.5658C120.482 54.9536 115.363 55.6429 110.285 56.6337C105.328 57.6398 100.31 59.171 96.3915 62.5349C93.5357 65.0041 91.6496 68.4601 90.3664 71.9603C88.4746 77.1022 87.7551 82.6693 87.3376 88.1078C87.2888 88.7683 87.2516 89.4288 87.2086 90.095C83.2902 91.0397 81.343 92.9347 80.1458 95.5086C79.2906 97.4795 78.7852 99.5377 78.6285 101.681C78.3208 107.28 78.4689 113.607 80.1572 118.804C81.4232 122.687 84.3403 125.427 89.0144 126.458C89.3259 131.82 90.1141 137.11 91.3792 142.328C92.2391 145.569 93.572 148.439 96.1584 150.667C99.2665 153.34 103.253 154.58 107.214 155.414C110.92 156.173 114.663 156.638 118.442 156.808C118.48 157.353 118.595 157.879 118.786 158.389C118.856 158.548 118.944 158.696 119.05 158.833C119.156 158.97 119.278 159.093 119.413 159.201C119.55 159.308 119.696 159.398 119.854 159.47C120.012 159.541 120.176 159.592 120.346 159.623C121.623 159.877 125.93 160.377 128.614 159.519C128.985 159.428 129.319 159.261 129.615 159.018C129.91 158.697 130.115 158.324 130.229 157.901C130.452 156.884 130.536 155.855 130.481 154.815C130.395 153.939 130.229 153.272 129.522 152.827C128.983 152.545 128.41 152.41 127.802 152.42C125.801 152.296 123.792 152.235 121.79 152.229C121.214 152.19 120.651 152.258 120.1 152.433C119.878 152.54 119.671 152.675 119.483 152.836C119.294 152.996 119.129 153.179 118.987 153.383C118.845 153.587 118.731 153.806 118.645 154.039C118.558 154.271 118.504 154.512 118.479 154.76C115.429 154.621 112.401 154.287 109.394 153.759C105.672 153.093 101.68 152.173 98.5413 149.939C95.8144 147.995 94.3707 145.371 93.4984 142.21C92.6614 138.99 92.0681 135.725 91.7174 132.414C91.49 130.563 91.3056 128.711 91.146 126.822C92.2248 126.933 93.3054 126.97 94.3889 126.934L97.7798 89.5641C95.0911 89.3731 92.4072 89.4182 89.7272 89.7005C89.9383 85.0261 90.6167 80.4219 91.7604 75.8858C92.6882 72.4355 94.1376 68.8614 96.3667 66.2012C99.3831 62.5906 103.922 60.732 108.387 59.6644C112.977 58.6084 117.617 57.8615 122.306 57.4238C128.915 56.7508 135.572 56.4302 142.231 56.3927C142.231 59.5348 142.428 62.7567 142.605 65.2565L146.395 65.0098C146.297 62.1298 146.197 59.2612 146.094 56.4052C149.902 56.4465 153.707 56.5742 157.507 56.7882C163.397 57.1214 169.281 57.658 175.116 58.5345C177.832 58.9358 180.534 59.411 183.224 59.9851C185.48 60.4037 187.63 61.1362 189.674 62.1826C193.273 64.14 195.41 67.4915 196.78 71.2816C198.801 76.8362 199.728 82.7317 200.367 88.5955C200.435 89.2128 200.489 89.8857 200.552 90.527C198.162 90.287 195.776 90.3235 193.395 90.6384L190.208 127.575C193.862 127.452 197.484 127.04 201.073 126.34C203.966 125.723 206.159 122.903 207.32 119.94C208.395 116.769 209.06 113.515 209.316 110.175C209.602 106.247 209.555 102.324 209.175 98.404Z" fill="#525DA3"/>
<path d="M193.086 132.581C191.581 138.979 188.459 142.245 182.998 144.071C166.244 149.68 124.915 148.44 110.053 145.562C104.278 144.446 98.0912 141.247 96.2419 135.767C92.4516 127.464 92.0827 103.837 92.7956 93.4629C93.7045 80.2712 95.4553 72.8374 103.965 69.2624C109.377 66.9875 120.288 65.1573 125.621 64.7383C141.293 63.5045 156.94 63.7518 172.566 65.4775C178.98 66.1869 185.904 67.4198 190.241 72.2085C194.432 76.8381 195.113 83.594 195.316 89.8447C195.814 105.039 195.378 122.73 193.086 132.581ZM137.743 48.1318C140.969 48.243 146.221 48.2612 149.871 48.1874C150.97 48.1903 152.062 48.0973 153.145 47.9103C154.645 47.546 155.197 46.061 155.339 44.4954C155.455 43.3114 155.339 41.2895 154.11 40.7968C151.259 39.8841 142.037 39.5946 136.293 40.7968C135.306 40.9895 134.403 41.3777 133.584 41.9616C132.564 42.7075 132.484 44.3718 132.773 45.6046C133.283 47.731 135.427 48.033 137.743 48.1136V48.1318Z" fill="#F1F2F7"/>
<path d="M154.051 117.373C154.001 117.669 153.94 117.963 153.865 118.255C153.791 118.547 153.703 118.834 153.603 119.118C153.504 119.402 153.393 119.681 153.269 119.954C153.146 120.229 153.011 120.497 152.865 120.759C152.718 121.02 152.561 121.276 152.393 121.523C152.224 121.772 152.045 122.012 151.856 122.244C151.668 122.476 151.469 122.7 151.261 122.914C151.053 123.129 150.836 123.334 150.61 123.529C150.385 123.725 150.151 123.909 149.909 124.084C149.668 124.258 149.419 124.422 149.164 124.575C148.908 124.727 148.647 124.868 148.379 124.998C148.111 125.127 147.838 125.244 147.56 125.349C147.282 125.454 147.001 125.547 146.714 125.627C146.429 125.707 146.141 125.774 145.848 125.829C145.557 125.883 145.263 125.925 144.968 125.953C144.673 125.982 144.378 125.997 144.081 126C143.785 126.002 143.489 125.991 143.193 125.967C142.898 125.943 142.604 125.906 142.312 125.856C142.02 125.805 141.729 125.742 141.442 125.666C141.156 125.591 140.872 125.503 140.593 125.402C140.313 125.301 140.04 125.188 139.77 125.063C139.5 124.938 139.236 124.801 138.979 124.652C138.721 124.503 138.469 124.343 138.226 124.172C137.981 124.002 137.745 123.82 137.516 123.628C137.288 123.437 137.068 123.234 136.856 123.023C136.646 122.812 136.444 122.591 136.252 122.363C136.059 122.133 135.877 121.896 135.705 121.651C135.533 121.405 135.372 121.153 135.222 120.892C135.071 120.633 134.933 120.367 134.805 120.094C134.678 119.823 134.563 119.546 134.459 119.263C134.355 118.981 134.264 118.695 134.185 118.404C134.106 118.114 134.04 117.82 133.985 117.524C133.699 115.971 136.032 115.311 136.32 116.89C137.006 120.581 140.312 123.599 144.081 123.561C147.85 123.522 151.088 120.442 151.712 116.738C151.974 115.153 154.313 115.818 154.051 117.373ZM122.755 90.265C121.515 89.9494 120.267 89.9159 119.012 90.1634C115.68 91.2029 114.32 94.5323 114.519 98.0707C114.54 98.62 114.658 99.1467 114.873 99.6506C115.089 100.156 115.387 100.603 115.767 100.994C118.007 103.377 122.169 104.05 124.658 101.951C124.822 101.809 124.981 101.66 125.131 101.505C125.282 101.349 125.426 101.186 125.563 101.016C125.7 100.847 125.828 100.672 125.949 100.491C126.07 100.309 126.183 100.123 126.288 99.9317C126.392 99.7404 126.488 99.5441 126.574 99.3439C126.662 99.1437 126.739 98.9396 126.808 98.7325C126.877 98.5244 126.936 98.3143 126.987 98.1013C127.037 97.8883 127.078 97.6733 127.108 97.4573C127.139 97.2404 127.16 97.0224 127.172 96.8035C127.184 96.5855 127.186 96.3666 127.178 96.1477C127.17 95.9287 127.153 95.7108 127.125 95.4938C127.098 95.2759 127.061 95.0609 127.015 94.8469C126.968 94.6329 126.912 94.4218 126.847 94.2127C126.782 94.0046 126.707 93.7995 126.624 93.5973C126.54 93.3952 126.448 93.1979 126.347 93.0046C126.245 92.8114 126.136 92.623 126.018 92.4396C125.622 91.8883 125.143 91.4257 124.581 91.051C124.02 90.6762 123.41 90.4149 122.755 90.265ZM172.363 92.478C171.962 91.9169 171.477 91.4465 170.906 91.0678C170.335 90.6891 169.716 90.4248 169.051 90.2778C167.81 89.9622 166.562 89.9277 165.306 90.1762C161.975 91.2157 160.615 94.5451 160.814 98.0836C160.835 98.6329 160.953 99.1595 161.169 99.6634C161.384 100.168 161.682 100.615 162.063 101.007C164.302 103.39 168.463 104.063 170.96 101.964C171.124 101.823 171.281 101.675 171.432 101.519C171.584 101.365 171.727 101.203 171.864 101.034C172.001 100.866 172.13 100.691 172.251 100.511C172.373 100.331 172.486 100.145 172.591 99.9544C172.696 99.764 172.792 99.5688 172.879 99.3695C172.967 99.1703 173.045 98.9672 173.115 98.7601C173.185 98.554 173.245 98.3439 173.296 98.1319C173.347 97.9198 173.388 97.7058 173.42 97.4899C173.452 97.2739 173.474 97.0569 173.487 96.839C173.5 96.621 173.503 96.4021 173.497 96.1841C173.49 95.9662 173.473 95.7482 173.447 95.5313C173.422 95.3143 173.386 95.0993 173.341 94.8853C173.296 94.6723 173.241 94.4613 173.177 94.2522C173.114 94.0441 173.041 93.839 172.959 93.6368C172.877 93.4346 172.786 93.2374 172.687 93.0441C172.587 92.8498 172.48 92.6615 172.363 92.478Z" fill="#525DA3"/>
<path d="M180.666 119.16C179.939 119.808 179.092 120.24 178.126 120.456C176.797 120.858 175.437 121.037 174.045 120.993C173.575 121.006 173.117 120.944 172.67 120.804C172.223 120.664 171.814 120.456 171.442 120.18C171.266 119.99 171.162 119.768 171.136 119.514C171.115 119.157 171.145 118.804 171.228 118.455C171.311 118.106 171.443 117.775 171.625 117.462C171.805 117.149 172.027 116.866 172.292 116.614C172.556 116.362 172.852 116.15 173.18 115.978C173.84 115.643 174.535 115.393 175.263 115.229C175.99 115.064 176.728 114.989 177.476 115.006C178.985 114.953 180.827 115.248 181.385 116.597C181.457 116.821 181.495 117.051 181.5 117.286C181.503 117.521 181.474 117.752 181.411 117.978C181.347 118.204 181.252 118.419 181.125 118.62C180.999 118.82 180.847 119.001 180.666 119.16ZM115.797 115.978C115.14 115.646 114.451 115.397 113.728 115.233C113.007 115.068 112.274 114.993 111.532 115.006C110.016 114.953 108.175 115.248 107.622 116.597C107.549 116.82 107.509 117.048 107.501 117.282C107.494 117.515 107.521 117.745 107.581 117.973C107.641 118.199 107.733 118.413 107.855 118.615C107.978 118.817 108.128 118.999 108.304 119.16C109.034 119.807 109.883 120.239 110.851 120.456C112.179 120.859 113.539 121.037 114.932 120.993C115.402 121.006 115.86 120.943 116.307 120.804C116.754 120.664 117.162 120.456 117.534 120.18C117.711 119.99 117.811 119.768 117.834 119.514C117.856 119.157 117.827 118.804 117.744 118.455C117.662 118.106 117.53 117.776 117.349 117.462C117.169 117.15 116.947 116.866 116.683 116.614C116.42 116.362 116.124 116.15 115.797 115.978Z" fill="#B1C1DF"/>
<circle cx="66.5" cy="73.5" r="3.5" fill="#E1E7F5"/>
<ellipse cx="74.5" cy="84" rx="2.5" ry="3" fill="#E1E7F5"/>
<circle cx="214.5" cy="86.5" r="3.5" fill="#E1E7F5"/>
<ellipse cx="96.5" cy="35" rx="5.5" ry="5" fill="#E1E7F5"/>
<path d="M1.82852 253V238.605H4.80704V244.094H10.432V238.605H13.4203V253H10.432V246.574H4.80704V253H1.82852ZM21.6457 247.824C21.4699 247.935 21.2909 248.026 21.1086 248.098C20.9328 248.163 20.6887 248.225 20.3762 248.283L19.7512 248.4C19.1652 248.505 18.7453 248.632 18.4914 248.781C18.0617 249.035 17.8469 249.429 17.8469 249.963C17.8469 250.438 17.9771 250.783 18.2375 250.998C18.5044 251.206 18.8267 251.311 19.2043 251.311C19.8033 251.311 20.3534 251.135 20.8547 250.783C21.3625 250.432 21.6262 249.79 21.6457 248.859V247.824ZM19.9563 246.525C20.4706 246.46 20.8384 246.379 21.0598 246.281C21.4569 246.112 21.6555 245.848 21.6555 245.49C21.6555 245.054 21.5025 244.755 21.1965 244.592C20.897 244.423 20.4543 244.338 19.8684 244.338C19.2108 244.338 18.7453 244.501 18.4719 244.826C18.2766 245.067 18.1464 245.393 18.0813 245.803H15.3957C15.4543 244.872 15.7147 244.107 16.177 243.508C16.9126 242.57 18.1757 242.102 19.966 242.102C21.1314 242.102 22.1665 242.333 23.0715 242.795C23.9764 243.257 24.4289 244.13 24.4289 245.412V250.295C24.4289 250.633 24.4354 251.044 24.4484 251.525C24.468 251.89 24.5233 252.137 24.6145 252.268C24.7056 252.398 24.8423 252.505 25.0246 252.59V253H21.9973C21.9126 252.785 21.854 252.583 21.8215 252.395C21.7889 252.206 21.7629 251.991 21.7434 251.75C21.3593 252.167 20.9165 252.521 20.4152 252.814C19.8163 253.16 19.1392 253.332 18.384 253.332C17.4204 253.332 16.6229 253.059 15.9914 252.512C15.3664 251.958 15.0539 251.177 15.0539 250.168C15.0539 248.859 15.5585 247.912 16.5676 247.326C17.121 247.007 17.9348 246.779 19.009 246.643L19.9563 246.525ZM29.4512 253H26.668V238.605H29.4512V253ZM34.7176 253H31.9344V238.605H34.7176V253ZM41.9176 251.037C42.7314 251.037 43.3564 250.747 43.7926 250.168C44.2288 249.589 44.4469 248.765 44.4469 247.697C44.4469 246.63 44.2288 245.809 43.7926 245.236C43.3564 244.657 42.7314 244.367 41.9176 244.367C41.1038 244.367 40.4755 244.657 40.0328 245.236C39.5966 245.809 39.3785 246.63 39.3785 247.697C39.3785 248.765 39.5966 249.589 40.0328 250.168C40.4755 250.747 41.1038 251.037 41.9176 251.037ZM47.3668 247.697C47.3668 249.26 46.9176 250.598 46.0191 251.711C45.1207 252.818 43.7568 253.371 41.9273 253.371C40.0979 253.371 38.734 252.818 37.8356 251.711C36.9371 250.598 36.4879 249.26 36.4879 247.697C36.4879 246.161 36.9371 244.829 37.8356 243.703C38.734 242.577 40.0979 242.014 41.9273 242.014C43.7568 242.014 45.1207 242.577 46.0191 243.703C46.9176 244.829 47.3668 246.161 47.3668 247.697ZM60.2043 247.824C60.0285 247.935 59.8495 248.026 59.6672 248.098C59.4914 248.163 59.2473 248.225 58.9348 248.283L58.3098 248.4C57.7238 248.505 57.3039 248.632 57.05 248.781C56.6203 249.035 56.4055 249.429 56.4055 249.963C56.4055 250.438 56.5357 250.783 56.7961 250.998C57.063 251.206 57.3853 251.311 57.7629 251.311C58.3619 251.311 58.912 251.135 59.4133 250.783C59.9211 250.432 60.1848 249.79 60.2043 248.859V247.824ZM58.5149 246.525C59.0292 246.46 59.397 246.379 59.6184 246.281C60.0155 246.112 60.2141 245.848 60.2141 245.49C60.2141 245.054 60.0611 244.755 59.7551 244.592C59.4556 244.423 59.0129 244.338 58.427 244.338C57.7694 244.338 57.3039 244.501 57.0305 244.826C56.8352 245.067 56.705 245.393 56.6399 245.803H53.9543C54.0129 244.872 54.2733 244.107 54.7356 243.508C55.4712 242.57 56.7343 242.102 58.5246 242.102C59.69 242.102 60.7251 242.333 61.6301 242.795C62.535 243.257 62.9875 244.13 62.9875 245.412V250.295C62.9875 250.633 62.994 251.044 63.007 251.525C63.0266 251.89 63.0819 252.137 63.1731 252.268C63.2642 252.398 63.4009 252.505 63.5832 252.59V253H60.5559C60.4712 252.785 60.4126 252.583 60.3801 252.395C60.3475 252.206 60.3215 251.991 60.302 251.75C59.9178 252.167 59.4751 252.521 58.9738 252.814C58.3749 253.16 57.6978 253.332 56.9426 253.332C55.979 253.332 55.1815 253.059 54.55 252.512C53.925 251.958 53.6125 251.177 53.6125 250.168C53.6125 248.859 54.1171 247.912 55.1262 247.326C55.6796 247.007 56.4934 246.779 57.5676 246.643L58.5149 246.525ZM69.0938 242.102C69.7383 242.102 70.3112 242.245 70.8125 242.531C71.3138 242.811 71.7207 243.202 72.0332 243.703V238.625H74.8555V253H72.1504V251.525C71.7533 252.157 71.3008 252.616 70.793 252.902C70.2852 253.189 69.6537 253.332 68.8984 253.332C67.655 253.332 66.6068 252.831 65.7539 251.828C64.9076 250.819 64.4844 249.527 64.4844 247.951C64.4844 246.135 64.901 244.706 65.7344 243.664C66.5742 242.622 67.694 242.102 69.0938 242.102ZM69.6992 250.988C70.487 250.988 71.0859 250.695 71.4961 250.109C71.9063 249.523 72.1113 248.765 72.1113 247.834C72.1113 246.532 71.7826 245.601 71.125 245.041C70.7214 244.702 70.2526 244.533 69.7188 244.533C68.905 244.533 68.306 244.842 67.9219 245.461C67.5443 246.073 67.3555 246.835 67.3555 247.746C67.3555 248.729 67.5475 249.517 67.9316 250.109C68.3223 250.695 68.9115 250.988 69.6992 250.988ZM82.9637 247.824C82.7879 247.935 82.6089 248.026 82.4266 248.098C82.2508 248.163 82.0066 248.225 81.6941 248.283L81.0691 248.4C80.4832 248.505 80.0633 248.632 79.8094 248.781C79.3797 249.035 79.1648 249.429 79.1648 249.963C79.1648 250.438 79.2951 250.783 79.5555 250.998C79.8224 251.206 80.1447 251.311 80.5223 251.311C81.1212 251.311 81.6714 251.135 82.1727 250.783C82.6805 250.432 82.9441 249.79 82.9637 248.859V247.824ZM81.2742 246.525C81.7885 246.46 82.1564 246.379 82.3777 246.281C82.7749 246.112 82.9734 245.848 82.9734 245.49C82.9734 245.054 82.8204 244.755 82.5145 244.592C82.215 244.423 81.7723 244.338 81.1863 244.338C80.5288 244.338 80.0633 244.501 79.7898 244.826C79.5945 245.067 79.4643 245.393 79.3992 245.803H76.7137C76.7723 244.872 77.0327 244.107 77.4949 243.508C78.2306 242.57 79.4936 242.102 81.284 242.102C82.4494 242.102 83.4845 242.333 84.3895 242.795C85.2944 243.257 85.7469 244.13 85.7469 245.412V250.295C85.7469 250.633 85.7534 251.044 85.7664 251.525C85.7859 251.89 85.8413 252.137 85.9324 252.268C86.0236 252.398 86.1603 252.505 86.3426 252.59V253H83.3152C83.2306 252.785 83.172 252.583 83.1395 252.395C83.1069 252.206 83.0809 251.991 83.0613 251.75C82.6772 252.167 82.2345 252.521 81.7332 252.814C81.1342 253.16 80.4572 253.332 79.702 253.332C78.7384 253.332 77.9409 253.059 77.3094 252.512C76.6844 251.958 76.3719 251.177 76.3719 250.168C76.3719 248.859 76.8764 247.912 77.8856 247.326C78.4389 247.007 79.2527 246.779 80.327 246.643L81.2742 246.525ZM93.6234 255.041L93.975 255.061C94.2484 255.074 94.5089 255.064 94.7563 255.031C95.0037 254.999 95.212 254.924 95.3813 254.807C95.544 254.696 95.6938 254.465 95.8305 254.113C95.9737 253.762 96.0323 253.547 96.0063 253.469L92.1 242.355H95.1957L97.5199 250.207L99.7172 242.355H102.676L99.0238 252.824C98.3207 254.842 97.7641 256.092 97.3539 256.574C96.9438 257.062 96.1234 257.307 94.893 257.307C94.6456 257.307 94.447 257.303 94.2973 257.297C94.1475 257.297 93.9229 257.287 93.6234 257.268V255.041ZM109.896 247.824C109.72 247.935 109.541 248.026 109.359 248.098C109.183 248.163 108.939 248.225 108.626 248.283L108.001 248.4C107.415 248.505 106.995 248.632 106.741 248.781C106.312 249.035 106.097 249.429 106.097 249.963C106.097 250.438 106.227 250.783 106.488 250.998C106.754 251.206 107.077 251.311 107.454 251.311C108.053 251.311 108.603 251.135 109.105 250.783C109.613 250.432 109.876 249.79 109.896 248.859V247.824ZM108.206 246.525C108.721 246.46 109.088 246.379 109.31 246.281C109.707 246.112 109.905 245.848 109.905 245.49C109.905 245.054 109.752 244.755 109.446 244.592C109.147 244.423 108.704 244.338 108.118 244.338C107.461 244.338 106.995 244.501 106.722 244.826C106.527 245.067 106.396 245.393 106.331 245.803H103.646C103.704 244.872 103.965 244.107 104.427 243.508C105.163 242.57 106.426 242.102 108.216 242.102C109.381 242.102 110.417 242.333 111.321 242.795C112.226 243.257 112.679 244.13 112.679 245.412V250.295C112.679 250.633 112.685 251.044 112.698 251.525C112.718 251.89 112.773 252.137 112.864 252.268C112.956 252.398 113.092 252.505 113.275 252.59V253H110.247C110.163 252.785 110.104 252.583 110.071 252.395C110.039 252.206 110.013 251.991 109.993 251.75C109.609 252.167 109.167 252.521 108.665 252.814C108.066 253.16 107.389 253.332 106.634 253.332C105.67 253.332 104.873 253.059 104.241 252.512C103.616 251.958 103.304 251.177 103.304 250.168C103.304 248.859 103.808 247.912 104.818 247.326C105.371 247.007 106.185 246.779 107.259 246.643L108.206 246.525ZM120.758 242.102C121.858 242.102 122.757 242.391 123.453 242.971C124.156 243.544 124.508 244.497 124.508 245.832V253H121.656V246.525C121.656 245.965 121.581 245.536 121.432 245.236C121.158 244.689 120.637 244.416 119.869 244.416C118.925 244.416 118.277 244.816 117.926 245.617C117.743 246.04 117.652 246.581 117.652 247.238V253H114.879V242.375H117.564V243.928C117.923 243.381 118.261 242.987 118.58 242.746C119.153 242.316 119.879 242.102 120.758 242.102ZM131.356 250.715C132.007 250.715 132.557 250.471 133.007 249.982C133.456 249.488 133.68 248.703 133.68 247.629C133.68 246.62 133.466 245.852 133.036 245.324C132.613 244.797 132.043 244.533 131.327 244.533C130.35 244.533 129.677 244.992 129.305 245.91C129.11 246.398 129.013 247.001 129.013 247.717C129.013 248.335 129.117 248.885 129.325 249.367C129.703 250.266 130.38 250.715 131.356 250.715ZM130.663 242.102C131.197 242.102 131.662 242.183 132.059 242.346C132.736 242.626 133.283 243.14 133.7 243.889V242.355H136.405V252.453C136.405 253.827 136.174 254.862 135.712 255.559C134.917 256.757 133.394 257.355 131.141 257.355C129.781 257.355 128.671 257.089 127.811 256.555C126.952 256.021 126.477 255.223 126.386 254.162H129.413C129.491 254.488 129.618 254.722 129.794 254.865C130.093 255.119 130.598 255.246 131.307 255.246C132.31 255.246 132.981 254.911 133.319 254.24C133.54 253.811 133.651 253.088 133.651 252.072V251.389C133.384 251.844 133.098 252.186 132.792 252.414C132.238 252.837 131.519 253.049 130.634 253.049C129.266 253.049 128.173 252.57 127.352 251.613C126.539 250.65 126.132 249.348 126.132 247.707C126.132 246.125 126.526 244.797 127.313 243.723C128.101 242.642 129.218 242.102 130.663 242.102ZM149.731 242.121C151.131 242.121 152.224 242.626 153.012 243.635C153.806 244.644 154.204 245.946 154.204 247.541C154.204 249.195 153.813 250.565 153.032 251.652C152.25 252.74 151.16 253.283 149.76 253.283C148.881 253.283 148.175 253.107 147.641 252.756C147.322 252.548 146.977 252.183 146.606 251.662V253H143.881V238.625H146.655V243.742C147.006 243.247 147.394 242.87 147.817 242.609C148.318 242.284 148.956 242.121 149.731 242.121ZM149.018 250.988C149.734 250.988 150.291 250.699 150.688 250.119C151.085 249.54 151.284 248.778 151.284 247.834C151.284 247.079 151.186 246.454 150.991 245.959C150.62 245.021 149.936 244.553 148.94 244.553C147.931 244.553 147.237 245.012 146.86 245.93C146.664 246.418 146.567 247.049 146.567 247.824C146.567 248.736 146.769 249.491 147.172 250.09C147.576 250.689 148.191 250.988 149.018 250.988ZM158.767 241.086H155.945V238.518H158.767V241.086ZM155.945 242.355H158.767V253H155.945V242.355ZM163.34 249.602C163.398 250.096 163.525 250.448 163.721 250.656C164.066 251.027 164.704 251.213 165.635 251.213C166.182 251.213 166.615 251.132 166.934 250.969C167.259 250.806 167.422 250.562 167.422 250.236C167.422 249.924 167.292 249.686 167.031 249.523C166.771 249.361 165.804 249.081 164.131 248.684C162.926 248.384 162.077 248.01 161.582 247.561C161.087 247.118 160.84 246.48 160.84 245.646C160.84 244.663 161.224 243.82 161.992 243.117C162.767 242.408 163.854 242.053 165.254 242.053C166.582 242.053 167.663 242.32 168.496 242.854C169.336 243.381 169.818 244.296 169.941 245.598H167.158C167.119 245.24 167.018 244.956 166.855 244.748C166.549 244.37 166.029 244.182 165.293 244.182C164.688 244.182 164.255 244.276 163.994 244.465C163.74 244.654 163.613 244.875 163.613 245.129C163.613 245.448 163.75 245.679 164.023 245.822C164.297 245.972 165.264 246.229 166.924 246.594C168.031 246.854 168.861 247.248 169.414 247.775C169.961 248.309 170.234 248.977 170.234 249.777C170.234 250.832 169.84 251.695 169.053 252.365C168.271 253.029 167.061 253.361 165.42 253.361C163.747 253.361 162.51 253.01 161.709 252.307C160.915 251.597 160.518 250.695 160.518 249.602H163.34ZM177.874 247.824C177.698 247.935 177.519 248.026 177.337 248.098C177.161 248.163 176.917 248.225 176.604 248.283L175.979 248.4C175.393 248.505 174.973 248.632 174.72 248.781C174.29 249.035 174.075 249.429 174.075 249.963C174.075 250.438 174.205 250.783 174.466 250.998C174.733 251.206 175.055 251.311 175.432 251.311C176.031 251.311 176.582 251.135 177.083 250.783C177.591 250.432 177.854 249.79 177.874 248.859V247.824ZM176.184 246.525C176.699 246.46 177.067 246.379 177.288 246.281C177.685 246.112 177.884 245.848 177.884 245.49C177.884 245.054 177.731 244.755 177.425 244.592C177.125 244.423 176.682 244.338 176.096 244.338C175.439 244.338 174.973 244.501 174.7 244.826C174.505 245.067 174.374 245.393 174.309 245.803H171.624C171.682 244.872 171.943 244.107 172.405 243.508C173.141 242.57 174.404 242.102 176.194 242.102C177.36 242.102 178.395 242.333 179.3 242.795C180.205 243.257 180.657 244.13 180.657 245.412V250.295C180.657 250.633 180.664 251.044 180.677 251.525C180.696 251.89 180.751 252.137 180.843 252.268C180.934 252.398 181.07 252.505 181.253 252.59V253H178.225C178.141 252.785 178.082 252.583 178.05 252.395C178.017 252.206 177.991 251.991 177.971 251.75C177.587 252.167 177.145 252.521 176.643 252.814C176.044 253.16 175.367 253.332 174.612 253.332C173.649 253.332 172.851 253.059 172.22 252.512C171.595 251.958 171.282 251.177 171.282 250.168C171.282 248.859 171.787 247.912 172.796 247.326C173.349 247.007 174.163 246.779 175.237 246.643L176.184 246.525ZM190.272 249.602C190.33 250.096 190.457 250.448 190.653 250.656C190.998 251.027 191.636 251.213 192.567 251.213C193.114 251.213 193.547 251.132 193.866 250.969C194.191 250.806 194.354 250.562 194.354 250.236C194.354 249.924 194.224 249.686 193.963 249.523C193.703 249.361 192.736 249.081 191.063 248.684C189.858 248.384 189.009 248.01 188.514 247.561C188.019 247.118 187.772 246.48 187.772 245.646C187.772 244.663 188.156 243.82 188.924 243.117C189.699 242.408 190.786 242.053 192.186 242.053C193.514 242.053 194.595 242.32 195.428 242.854C196.268 243.381 196.75 244.296 196.873 245.598H194.09C194.051 245.24 193.95 244.956 193.788 244.748C193.482 244.37 192.961 244.182 192.225 244.182C191.62 244.182 191.187 244.276 190.926 244.465C190.672 244.654 190.545 244.875 190.545 245.129C190.545 245.448 190.682 245.679 190.955 245.822C191.229 245.972 192.196 246.229 193.856 246.594C194.963 246.854 195.793 247.248 196.346 247.775C196.893 248.309 197.166 248.977 197.166 249.777C197.166 250.832 196.773 251.695 195.985 252.365C195.204 253.029 193.993 253.361 192.352 253.361C190.679 253.361 189.442 253.01 188.641 252.307C187.847 251.597 187.45 250.695 187.45 249.602H190.272ZM204.806 247.824C204.63 247.935 204.451 248.026 204.269 248.098C204.093 248.163 203.849 248.225 203.536 248.283L202.911 248.4C202.325 248.505 201.905 248.632 201.652 248.781C201.222 249.035 201.007 249.429 201.007 249.963C201.007 250.438 201.137 250.783 201.398 250.998C201.665 251.206 201.987 251.311 202.364 251.311C202.963 251.311 203.514 251.135 204.015 250.783C204.523 250.432 204.786 249.79 204.806 248.859V247.824ZM203.116 246.525C203.631 246.46 203.999 246.379 204.22 246.281C204.617 246.112 204.816 245.848 204.816 245.49C204.816 245.054 204.663 244.755 204.357 244.592C204.057 244.423 203.614 244.338 203.029 244.338C202.371 244.338 201.905 244.501 201.632 244.826C201.437 245.067 201.307 245.393 201.241 245.803H198.556C198.614 244.872 198.875 244.107 199.337 243.508C200.073 242.57 201.336 242.102 203.126 242.102C204.292 242.102 205.327 242.333 206.232 242.795C207.137 243.257 207.589 244.13 207.589 245.412V250.295C207.589 250.633 207.596 251.044 207.609 251.525C207.628 251.89 207.683 252.137 207.775 252.268C207.866 252.398 208.002 252.505 208.185 252.59V253H205.157C205.073 252.785 205.014 252.583 204.982 252.395C204.949 252.206 204.923 251.991 204.904 251.75C204.519 252.167 204.077 252.521 203.575 252.814C202.976 253.16 202.299 253.332 201.544 253.332C200.581 253.332 199.783 253.059 199.152 252.512C198.527 251.958 198.214 251.177 198.214 250.168C198.214 248.859 198.719 247.912 199.728 247.326C200.281 247.007 201.095 246.779 202.169 246.643L203.116 246.525ZM210.199 255.041L210.551 255.061C210.824 255.074 211.085 255.064 211.332 255.031C211.579 254.999 211.788 254.924 211.957 254.807C212.12 254.696 212.27 254.465 212.406 254.113C212.549 253.762 212.608 253.547 212.582 253.469L208.676 242.355H211.771L214.096 250.207L216.293 242.355H219.252L215.6 252.824C214.896 254.842 214.34 256.092 213.93 256.574C213.52 257.062 212.699 257.307 211.469 257.307C211.221 257.307 211.023 257.303 210.873 257.297C210.723 257.297 210.499 257.287 210.199 257.268V255.041ZM226.471 247.824C226.296 247.935 226.117 248.026 225.934 248.098C225.759 248.163 225.514 248.225 225.202 248.283L224.577 248.4C223.991 248.505 223.571 248.632 223.317 248.781C222.888 249.035 222.673 249.429 222.673 249.963C222.673 250.438 222.803 250.783 223.063 250.998C223.33 251.206 223.652 251.311 224.03 251.311C224.629 251.311 225.179 251.135 225.68 250.783C226.188 250.432 226.452 249.79 226.471 248.859V247.824ZM224.782 246.525C225.296 246.46 225.664 246.379 225.886 246.281C226.283 246.112 226.481 245.848 226.481 245.49C226.481 245.054 226.328 244.755 226.022 244.592C225.723 244.423 225.28 244.338 224.694 244.338C224.037 244.338 223.571 244.501 223.298 244.826C223.102 245.067 222.972 245.393 222.907 245.803H220.221C220.28 244.872 220.541 244.107 221.003 243.508C221.738 242.57 223.001 242.102 224.792 242.102C225.957 242.102 226.992 242.333 227.897 242.795C228.802 243.257 229.255 244.13 229.255 245.412V250.295C229.255 250.633 229.261 251.044 229.274 251.525C229.294 251.89 229.349 252.137 229.44 252.268C229.531 252.398 229.668 252.505 229.85 252.59V253H226.823C226.738 252.785 226.68 252.583 226.647 252.395C226.615 252.206 226.589 251.991 226.569 251.75C226.185 252.167 225.742 252.521 225.241 252.814C224.642 253.16 223.965 253.332 223.21 253.332C222.246 253.332 221.449 253.059 220.817 252.512C220.192 251.958 219.88 251.177 219.88 250.168C219.88 248.859 220.384 247.912 221.393 247.326C221.947 247.007 222.761 246.779 223.835 246.643L224.782 246.525ZM242.454 242.121C243.853 242.121 244.947 242.626 245.735 243.635C246.529 244.644 246.926 245.946 246.926 247.541C246.926 249.195 246.536 250.565 245.754 251.652C244.973 252.74 243.883 253.283 242.483 253.283C241.604 253.283 240.898 253.107 240.364 252.756C240.045 252.548 239.7 252.183 239.329 251.662V253H236.604V238.625H239.377V243.742C239.729 243.247 240.116 242.87 240.539 242.609C241.041 242.284 241.679 242.121 242.454 242.121ZM241.741 250.988C242.457 250.988 243.013 250.699 243.411 250.119C243.808 249.54 244.006 248.778 244.006 247.834C244.006 247.079 243.909 246.454 243.713 245.959C243.342 245.021 242.659 244.553 241.663 244.553C240.653 244.553 239.96 245.012 239.582 245.93C239.387 246.418 239.289 247.049 239.289 247.824C239.289 248.736 239.491 249.491 239.895 250.09C240.299 250.689 240.914 250.988 241.741 250.988ZM254.497 247.824C254.321 247.935 254.142 248.026 253.96 248.098C253.784 248.163 253.54 248.225 253.228 248.283L252.603 248.4C252.017 248.505 251.597 248.632 251.343 248.781C250.913 249.035 250.698 249.429 250.698 249.963C250.698 250.438 250.829 250.783 251.089 250.998C251.356 251.206 251.678 251.311 252.056 251.311C252.655 251.311 253.205 251.135 253.706 250.783C254.214 250.432 254.478 249.79 254.497 248.859V247.824ZM252.808 246.525C253.322 246.46 253.69 246.379 253.911 246.281C254.308 246.112 254.507 245.848 254.507 245.49C254.507 245.054 254.354 244.755 254.048 244.592C253.749 244.423 253.306 244.338 252.72 244.338C252.062 244.338 251.597 244.501 251.323 244.826C251.128 245.067 250.998 245.393 250.933 245.803H248.247C248.306 244.872 248.566 244.107 249.029 243.508C249.764 242.57 251.027 242.102 252.818 242.102C253.983 242.102 255.018 242.333 255.923 242.795C256.828 243.257 257.28 244.13 257.28 245.412V250.295C257.28 250.633 257.287 251.044 257.3 251.525C257.32 251.89 257.375 252.137 257.466 252.268C257.557 252.398 257.694 252.505 257.876 252.59V253H254.849C254.764 252.785 254.706 252.583 254.673 252.395C254.64 252.206 254.614 251.991 254.595 251.75C254.211 252.167 253.768 252.521 253.267 252.814C252.668 253.16 251.991 253.332 251.236 253.332C250.272 253.332 249.474 253.059 248.843 252.512C248.218 251.958 247.905 251.177 247.905 250.168C247.905 248.859 248.41 247.912 249.419 247.326C249.973 247.007 250.786 246.779 251.861 246.643L252.808 246.525ZM265.359 242.102C266.46 242.102 267.358 242.391 268.055 242.971C268.758 243.544 269.109 244.497 269.109 245.832V253H266.258V246.525C266.258 245.965 266.183 245.536 266.033 245.236C265.76 244.689 265.239 244.416 264.471 244.416C263.527 244.416 262.879 244.816 262.527 245.617C262.345 246.04 262.254 246.581 262.254 247.238V253H259.48V242.375H262.166V243.928C262.524 243.381 262.863 242.987 263.182 242.746C263.755 242.316 264.48 242.102 265.359 242.102ZM270.294 244.436V242.453H271.778V239.484H274.532V242.453H276.261V244.436H274.532V250.061C274.532 250.497 274.587 250.77 274.698 250.881C274.809 250.985 275.147 251.037 275.714 251.037C275.798 251.037 275.886 251.037 275.977 251.037C276.075 251.031 276.169 251.024 276.261 251.018V253.098L274.942 253.146C273.627 253.192 272.729 252.964 272.247 252.463C271.934 252.144 271.778 251.652 271.778 250.988V244.436H270.294ZM280.521 242.355V248.771C280.521 249.377 280.593 249.833 280.736 250.139C280.99 250.679 281.488 250.949 282.23 250.949C283.181 250.949 283.832 250.565 284.183 249.797C284.365 249.38 284.457 248.83 284.457 248.146V242.355H287.279V253H284.574V251.496C284.548 251.529 284.483 251.626 284.379 251.789C284.274 251.952 284.151 252.095 284.007 252.219C283.571 252.609 283.148 252.876 282.738 253.02C282.334 253.163 281.859 253.234 281.312 253.234C279.737 253.234 278.675 252.668 278.129 251.535C277.823 250.91 277.67 249.989 277.67 248.771V242.355H280.521ZM113.932 265.082C114.59 265.082 115.186 265.196 115.72 265.424C116.26 265.652 116.703 266 117.048 266.469C117.341 266.866 117.52 267.276 117.585 267.699C117.65 268.116 117.682 268.799 117.682 269.75V276H114.841V269.525C114.841 268.952 114.743 268.49 114.548 268.139C114.294 267.644 113.812 267.396 113.102 267.396C112.367 267.396 111.807 267.644 111.423 268.139C111.045 268.627 110.856 269.327 110.856 270.238V276H108.083V261.654H110.856V266.742C111.26 266.124 111.725 265.694 112.253 265.453C112.787 265.206 113.346 265.082 113.932 265.082ZM125.859 270.824C125.683 270.935 125.504 271.026 125.322 271.098C125.146 271.163 124.902 271.225 124.589 271.283L123.964 271.4C123.379 271.505 122.959 271.632 122.705 271.781C122.275 272.035 122.06 272.429 122.06 272.963C122.06 273.438 122.19 273.783 122.451 273.998C122.718 274.206 123.04 274.311 123.418 274.311C124.017 274.311 124.567 274.135 125.068 273.783C125.576 273.432 125.839 272.79 125.859 271.859V270.824ZM124.17 269.525C124.684 269.46 125.052 269.379 125.273 269.281C125.67 269.112 125.869 268.848 125.869 268.49C125.869 268.054 125.716 267.755 125.41 267.592C125.11 267.423 124.668 267.338 124.082 267.338C123.424 267.338 122.959 267.501 122.685 267.826C122.49 268.067 122.36 268.393 122.295 268.803H119.609C119.668 267.872 119.928 267.107 120.39 266.508C121.126 265.57 122.389 265.102 124.179 265.102C125.345 265.102 126.38 265.333 127.285 265.795C128.19 266.257 128.642 267.13 128.642 268.412V273.295C128.642 273.633 128.649 274.044 128.662 274.525C128.681 274.89 128.737 275.137 128.828 275.268C128.919 275.398 129.056 275.505 129.238 275.59V276H126.211C126.126 275.785 126.067 275.583 126.035 275.395C126.002 275.206 125.976 274.991 125.957 274.75C125.573 275.167 125.13 275.521 124.629 275.814C124.03 276.16 123.352 276.332 122.597 276.332C121.634 276.332 120.836 276.059 120.205 275.512C119.58 274.958 119.267 274.177 119.267 273.168C119.267 271.859 119.772 270.912 120.781 270.326C121.334 270.007 122.148 269.779 123.222 269.643L124.17 269.525ZM136.604 265.102C136.656 265.102 136.698 265.105 136.731 265.111C136.77 265.111 136.851 265.115 136.975 265.121V267.973C136.799 267.953 136.643 267.94 136.506 267.934C136.37 267.927 136.259 267.924 136.174 267.924C135.054 267.924 134.302 268.288 133.918 269.018C133.704 269.428 133.596 270.059 133.596 270.912V276H130.793V265.355H133.45V267.211C133.879 266.501 134.254 266.016 134.573 265.756C135.093 265.32 135.771 265.102 136.604 265.102ZM141.177 264.086H138.355V261.518H141.177V264.086ZM138.355 265.355H141.177V276H138.355V265.355ZM151.71 264.086H148.887V261.518H151.71V264.086ZM148.887 265.355H151.71V276H148.887V265.355ZM160.013 265.102C161.114 265.102 162.012 265.391 162.709 265.971C163.412 266.544 163.763 267.497 163.763 268.832V276H160.912V269.525C160.912 268.965 160.837 268.536 160.687 268.236C160.414 267.689 159.893 267.416 159.125 267.416C158.181 267.416 157.533 267.816 157.181 268.617C156.999 269.04 156.908 269.581 156.908 270.238V276H154.134V265.375H156.82V266.928C157.178 266.381 157.517 265.987 157.836 265.746C158.408 265.316 159.134 265.102 160.013 265.102ZM168.903 264.086H166.08V261.518H168.903V264.086ZM166.08 265.355H168.903V276H166.08V265.355ZM174.775 273.178H177.685V276H174.775V273.178ZM171.21 266.146C171.288 264.291 171.936 262.976 173.154 262.201C173.922 261.706 174.866 261.459 175.986 261.459C177.457 261.459 178.678 261.811 179.648 262.514C180.624 263.217 181.112 264.258 181.112 265.639C181.112 266.485 180.901 267.198 180.478 267.777C180.23 268.129 179.755 268.578 179.052 269.125L178.359 269.662C177.981 269.955 177.73 270.297 177.607 270.688C177.529 270.935 177.486 271.319 177.48 271.84H174.843C174.882 270.74 174.986 269.981 175.155 269.564C175.325 269.141 175.761 268.656 176.464 268.109L177.177 267.553C177.411 267.377 177.6 267.185 177.743 266.977C178.004 266.618 178.134 266.225 178.134 265.795C178.134 265.3 177.987 264.851 177.695 264.447C177.408 264.037 176.881 263.832 176.112 263.832C175.357 263.832 174.82 264.083 174.501 264.584C174.189 265.085 174.032 265.606 174.032 266.146H171.21Z" fill="black"/>
<path d="M56.3461 293.958V295.154H52.9623V304H51.5814V295.154H48.1977V293.958H56.3461ZM56.5178 302.052C56.5178 302.407 56.6477 302.688 56.9074 302.893C57.1672 303.098 57.4748 303.2 57.8303 303.2C58.2632 303.2 58.6825 303.1 59.0881 302.899C59.7717 302.567 60.1135 302.022 60.1135 301.266V300.274C59.9631 300.37 59.7694 300.45 59.5324 300.514C59.2954 300.577 59.063 300.623 58.8352 300.65L58.09 300.746C57.6434 300.805 57.3085 300.899 57.0852 301.026C56.7069 301.241 56.5178 301.582 56.5178 302.052ZM59.4982 299.563C59.7808 299.527 59.9699 299.409 60.0656 299.208C60.1203 299.099 60.1477 298.941 60.1477 298.736C60.1477 298.317 59.9973 298.014 59.6965 297.827C59.4003 297.636 58.9742 297.54 58.4182 297.54C57.7756 297.54 57.3199 297.713 57.051 298.06C56.9006 298.251 56.8026 298.536 56.757 298.914H55.6086C55.6314 298.012 55.923 297.385 56.4836 297.034C57.0487 296.679 57.7027 296.501 58.4455 296.501C59.3068 296.501 60.0064 296.665 60.5441 296.993C61.0773 297.321 61.3439 297.832 61.3439 298.524V302.742C61.3439 302.87 61.369 302.972 61.4191 303.05C61.4738 303.127 61.5855 303.166 61.7541 303.166C61.8088 303.166 61.8703 303.164 61.9387 303.159C62.007 303.15 62.0799 303.139 62.1574 303.125V304.034C61.966 304.089 61.8202 304.123 61.7199 304.137C61.6197 304.15 61.4829 304.157 61.3098 304.157C60.8859 304.157 60.5783 304.007 60.3869 303.706C60.2867 303.547 60.216 303.321 60.175 303.029C59.9243 303.357 59.5643 303.642 59.0949 303.884C58.6255 304.125 58.1083 304.246 57.5432 304.246C56.8641 304.246 56.3081 304.041 55.8752 303.631C55.4468 303.216 55.2326 302.699 55.2326 302.079C55.2326 301.4 55.4445 300.874 55.8684 300.5C56.2922 300.126 56.8482 299.896 57.5363 299.81L59.4982 299.563ZM63.0674 296.679H64.2363V297.718C64.5827 297.289 64.9495 296.982 65.3369 296.795C65.7243 296.608 66.1549 296.515 66.6289 296.515C67.668 296.515 68.3698 296.877 68.7344 297.602C68.9349 297.998 69.0352 298.565 69.0352 299.304V304H67.7842V299.386C67.7842 298.939 67.7181 298.579 67.5859 298.306C67.3672 297.85 66.9707 297.622 66.3965 297.622C66.1048 297.622 65.8656 297.652 65.6787 297.711C65.3415 297.811 65.0452 298.012 64.79 298.312C64.585 298.554 64.4505 298.805 64.3867 299.064C64.3275 299.32 64.2978 299.687 64.2978 300.165V304H63.0674V296.679ZM75.1336 296.679H76.4939C76.3208 297.148 75.9357 298.219 75.3387 299.892C74.8921 301.149 74.5184 302.175 74.2176 302.968C73.5066 304.836 73.0053 305.976 72.7137 306.386C72.422 306.796 71.9207 307.001 71.2098 307.001C71.0366 307.001 70.9021 306.994 70.8064 306.98C70.7153 306.967 70.6014 306.942 70.4646 306.905V305.784C70.6788 305.843 70.8338 305.88 70.9295 305.894C71.0252 305.907 71.1095 305.914 71.1824 305.914C71.4103 305.914 71.5766 305.875 71.6814 305.798C71.7908 305.725 71.882 305.634 71.9549 305.524C71.9777 305.488 72.0597 305.301 72.201 304.964C72.3423 304.627 72.4448 304.376 72.5086 304.212L69.8016 296.679H71.1961L73.158 302.64L75.1336 296.679ZM78.2037 302.052C78.2037 302.407 78.3336 302.688 78.5934 302.893C78.8531 303.098 79.1607 303.2 79.5162 303.2C79.9492 303.2 80.3684 303.1 80.774 302.899C81.4576 302.567 81.7994 302.022 81.7994 301.266V300.274C81.649 300.37 81.4553 300.45 81.2184 300.514C80.9814 300.577 80.749 300.623 80.5211 300.65L79.776 300.746C79.3294 300.805 78.9944 300.899 78.7711 301.026C78.3928 301.241 78.2037 301.582 78.2037 302.052ZM81.1842 299.563C81.4667 299.527 81.6559 299.409 81.7516 299.208C81.8062 299.099 81.8336 298.941 81.8336 298.736C81.8336 298.317 81.6832 298.014 81.3824 297.827C81.0862 297.636 80.6601 297.54 80.1041 297.54C79.4615 297.54 79.0058 297.713 78.7369 298.06C78.5865 298.251 78.4885 298.536 78.443 298.914H77.2945C77.3173 298.012 77.609 297.385 78.1695 297.034C78.7346 296.679 79.3886 296.501 80.1314 296.501C80.9928 296.501 81.6923 296.665 82.2301 296.993C82.7633 297.321 83.0299 297.832 83.0299 298.524V302.742C83.0299 302.87 83.0549 302.972 83.1051 303.05C83.1598 303.127 83.2714 303.166 83.44 303.166C83.4947 303.166 83.5562 303.164 83.6246 303.159C83.693 303.15 83.7659 303.139 83.8434 303.125V304.034C83.652 304.089 83.5061 304.123 83.4059 304.137C83.3056 304.15 83.1689 304.157 82.9957 304.157C82.5719 304.157 82.2643 304.007 82.0728 303.706C81.9726 303.547 81.902 303.321 81.8609 303.029C81.6103 303.357 81.2503 303.642 80.7809 303.884C80.3115 304.125 79.7942 304.246 79.2291 304.246C78.5501 304.246 77.9941 304.041 77.5611 303.631C77.1327 303.216 76.9186 302.699 76.9186 302.079C76.9186 301.4 77.1305 300.874 77.5543 300.5C77.9781 300.126 78.5341 299.896 79.2223 299.81L81.1842 299.563ZM84.726 293.958H85.9086V299.789L89.0668 296.679H90.6391L87.8363 299.42L90.7963 304H89.224L86.9408 300.309L85.9086 301.252V304H84.726V293.958ZM92.3967 302.052C92.3967 302.407 92.5266 302.688 92.7863 302.893C93.0461 303.098 93.3537 303.2 93.7092 303.2C94.1421 303.2 94.5614 303.1 94.967 302.899C95.6506 302.567 95.9924 302.022 95.9924 301.266V300.274C95.842 300.37 95.6483 300.45 95.4113 300.514C95.1743 300.577 94.9419 300.623 94.7141 300.65L93.9689 300.746C93.5223 300.805 93.1874 300.899 92.9641 301.026C92.5858 301.241 92.3967 301.582 92.3967 302.052ZM95.3771 299.563C95.6597 299.527 95.8488 299.409 95.9445 299.208C95.9992 299.099 96.0266 298.941 96.0266 298.736C96.0266 298.317 95.8762 298.014 95.5754 297.827C95.2792 297.636 94.8531 297.54 94.2971 297.54C93.6545 297.54 93.1988 297.713 92.9299 298.06C92.7795 298.251 92.6815 298.536 92.6359 298.914H91.4875C91.5103 298.012 91.802 297.385 92.3625 297.034C92.9276 296.679 93.5816 296.501 94.3244 296.501C95.1857 296.501 95.8853 296.665 96.423 296.993C96.9562 297.321 97.2229 297.832 97.2229 298.524V302.742C97.2229 302.87 97.2479 302.972 97.298 303.05C97.3527 303.127 97.4644 303.166 97.633 303.166C97.6877 303.166 97.7492 303.164 97.8176 303.159C97.8859 303.15 97.9589 303.139 98.0363 303.125V304.034C97.8449 304.089 97.6991 304.123 97.5988 304.137C97.4986 304.15 97.3618 304.157 97.1887 304.157C96.7648 304.157 96.4572 304.007 96.2658 303.706C96.1656 303.547 96.0949 303.321 96.0539 303.029C95.8033 303.357 95.4432 303.642 94.9738 303.884C94.5044 304.125 93.9872 304.246 93.4221 304.246C92.743 304.246 92.187 304.041 91.7541 303.631C91.3257 303.216 91.1115 302.699 91.1115 302.079C91.1115 301.4 91.3234 300.874 91.7473 300.5C92.1711 300.126 92.7271 299.896 93.4152 299.81L95.3771 299.563ZM98.9463 296.679H100.115V297.718C100.462 297.289 100.828 296.982 101.216 296.795C101.603 296.608 102.034 296.515 102.508 296.515C103.547 296.515 104.249 296.877 104.613 297.602C104.814 297.998 104.914 298.565 104.914 299.304V304H103.663V299.386C103.663 298.939 103.597 298.579 103.465 298.306C103.246 297.85 102.85 297.622 102.275 297.622C101.984 297.622 101.744 297.652 101.558 297.711C101.22 297.811 100.924 298.012 100.669 298.312C100.464 298.554 100.329 298.805 100.266 299.064C100.206 299.32 100.177 299.687 100.177 300.165V304H98.9463V296.679ZM110.767 301.703C110.804 302.113 110.906 302.428 111.075 302.646C111.385 303.043 111.922 303.241 112.688 303.241C113.144 303.241 113.545 303.143 113.891 302.947C114.238 302.747 114.411 302.439 114.411 302.024C114.411 301.71 114.272 301.471 113.994 301.307C113.816 301.206 113.465 301.09 112.941 300.958L111.963 300.712C111.339 300.557 110.879 300.384 110.583 300.192C110.054 299.86 109.79 299.399 109.79 298.812C109.79 298.119 110.038 297.558 110.535 297.13C111.036 296.701 111.708 296.487 112.551 296.487C113.654 296.487 114.449 296.811 114.937 297.458C115.242 297.868 115.391 298.31 115.381 298.784H114.219C114.197 298.506 114.099 298.253 113.925 298.025C113.643 297.702 113.153 297.54 112.456 297.54C111.991 297.54 111.638 297.629 111.396 297.807C111.159 297.984 111.041 298.219 111.041 298.511C111.041 298.83 111.198 299.085 111.512 299.276C111.695 299.39 111.963 299.491 112.319 299.577L113.132 299.775C114.017 299.99 114.609 300.197 114.91 300.397C115.388 300.712 115.628 301.206 115.628 301.881C115.628 302.533 115.379 303.095 114.882 303.569C114.39 304.043 113.638 304.28 112.627 304.28C111.537 304.28 110.765 304.034 110.309 303.542C109.858 303.045 109.616 302.432 109.585 301.703H110.767ZM119.785 296.515C120.304 296.515 120.808 296.638 121.295 296.884C121.783 297.125 122.154 297.44 122.41 297.827C122.656 298.196 122.82 298.627 122.902 299.119C122.975 299.456 123.011 299.994 123.011 300.732H117.645C117.668 301.475 117.843 302.072 118.171 302.523C118.499 302.97 119.008 303.193 119.696 303.193C120.338 303.193 120.851 302.981 121.234 302.558C121.453 302.312 121.607 302.027 121.699 301.703H122.909C122.877 301.972 122.77 302.273 122.587 302.605C122.41 302.934 122.209 303.202 121.986 303.412C121.612 303.777 121.149 304.023 120.598 304.15C120.302 304.223 119.967 304.26 119.593 304.26C118.682 304.26 117.909 303.929 117.276 303.269C116.642 302.603 116.326 301.674 116.326 300.479C116.326 299.304 116.645 298.349 117.283 297.615C117.921 296.882 118.755 296.515 119.785 296.515ZM121.746 299.755C121.696 299.222 121.58 298.796 121.398 298.477C121.061 297.884 120.498 297.588 119.709 297.588C119.144 297.588 118.67 297.793 118.287 298.203C117.905 298.609 117.702 299.126 117.679 299.755H121.746ZM124.96 301.703C124.997 302.113 125.099 302.428 125.268 302.646C125.578 303.043 126.115 303.241 126.881 303.241C127.337 303.241 127.738 303.143 128.084 302.947C128.431 302.747 128.604 302.439 128.604 302.024C128.604 301.71 128.465 301.471 128.187 301.307C128.009 301.206 127.658 301.09 127.134 300.958L126.156 300.712C125.532 300.557 125.072 300.384 124.776 300.192C124.247 299.86 123.983 299.399 123.983 298.812C123.983 298.119 124.231 297.558 124.728 297.13C125.229 296.701 125.901 296.487 126.744 296.487C127.847 296.487 128.642 296.811 129.13 297.458C129.435 297.868 129.584 298.31 129.574 298.784H128.412C128.39 298.506 128.292 298.253 128.118 298.025C127.836 297.702 127.346 297.54 126.649 297.54C126.184 297.54 125.831 297.629 125.589 297.807C125.352 297.984 125.234 298.219 125.234 298.511C125.234 298.83 125.391 299.085 125.705 299.276C125.888 299.39 126.156 299.491 126.512 299.577L127.325 299.775C128.21 299.99 128.802 300.197 129.103 300.397C129.581 300.712 129.821 301.206 129.821 301.881C129.821 302.533 129.572 303.095 129.075 303.569C128.583 304.043 127.831 304.28 126.82 304.28C125.73 304.28 124.958 304.034 124.502 303.542C124.051 303.045 123.809 302.432 123.778 301.703H124.96ZM132.159 296.679V301.539C132.159 301.913 132.218 302.218 132.337 302.455C132.556 302.893 132.964 303.111 133.561 303.111C134.417 303.111 135.001 302.729 135.311 301.963C135.479 301.553 135.563 300.99 135.563 300.274V296.679H136.794V304H135.632L135.646 302.92C135.486 303.198 135.288 303.433 135.051 303.624C134.581 304.007 134.012 304.198 133.342 304.198C132.298 304.198 131.587 303.85 131.209 303.152C131.004 302.779 130.901 302.28 130.901 301.655V296.679H132.159ZM139.365 302.052C139.365 302.407 139.495 302.688 139.755 302.893C140.014 303.098 140.322 303.2 140.678 303.2C141.11 303.2 141.53 303.1 141.935 302.899C142.619 302.567 142.961 302.022 142.961 301.266V300.274C142.81 300.37 142.617 300.45 142.38 300.514C142.143 300.577 141.91 300.623 141.682 300.65L140.937 300.746C140.491 300.805 140.156 300.899 139.932 301.026C139.554 301.241 139.365 301.582 139.365 302.052ZM142.346 299.563C142.628 299.527 142.817 299.409 142.913 299.208C142.968 299.099 142.995 298.941 142.995 298.736C142.995 298.317 142.845 298.014 142.544 297.827C142.248 297.636 141.821 297.54 141.265 297.54C140.623 297.54 140.167 297.713 139.898 298.06C139.748 298.251 139.65 298.536 139.604 298.914H138.456C138.479 298.012 138.77 297.385 139.331 297.034C139.896 296.679 140.55 296.501 141.293 296.501C142.154 296.501 142.854 296.665 143.391 296.993C143.925 297.321 144.191 297.832 144.191 298.524V302.742C144.191 302.87 144.216 302.972 144.266 303.05C144.321 303.127 144.433 303.166 144.601 303.166C144.656 303.166 144.718 303.164 144.786 303.159C144.854 303.15 144.927 303.139 145.005 303.125V304.034C144.813 304.089 144.667 304.123 144.567 304.137C144.467 304.15 144.33 304.157 144.157 304.157C143.733 304.157 143.426 304.007 143.234 303.706C143.134 303.547 143.063 303.321 143.022 303.029C142.772 303.357 142.412 303.642 141.942 303.884C141.473 304.125 140.956 304.246 140.39 304.246C139.711 304.246 139.155 304.041 138.722 303.631C138.294 303.216 138.08 302.699 138.08 302.079C138.08 301.4 138.292 300.874 138.716 300.5C139.139 300.126 139.695 299.896 140.384 299.81L142.346 299.563ZM146.161 294.635H147.405V296.679H148.574V297.684H147.405V302.462C147.405 302.717 147.491 302.888 147.665 302.975C147.76 303.025 147.92 303.05 148.143 303.05C148.202 303.05 148.266 303.05 148.335 303.05C148.403 303.045 148.483 303.038 148.574 303.029V304C148.433 304.041 148.284 304.071 148.129 304.089C147.979 304.107 147.815 304.116 147.637 304.116C147.063 304.116 146.673 303.97 146.468 303.679C146.263 303.382 146.161 303 146.161 302.53V297.684H145.17V296.679H146.161V294.635ZM150.742 296.679V301.539C150.742 301.913 150.801 302.218 150.919 302.455C151.138 302.893 151.546 303.111 152.143 303.111C153 303.111 153.583 302.729 153.893 301.963C154.062 301.553 154.146 300.99 154.146 300.274V296.679H155.376V304H154.214L154.228 302.92C154.068 303.198 153.87 303.433 153.633 303.624C153.164 304.007 152.594 304.198 151.924 304.198C150.881 304.198 150.17 303.85 149.791 303.152C149.586 302.779 149.484 302.28 149.484 301.655V296.679H150.742ZM163.69 303.173C164.265 303.173 164.741 302.934 165.119 302.455C165.502 301.972 165.693 301.252 165.693 300.295C165.693 299.712 165.609 299.21 165.44 298.791C165.121 297.984 164.538 297.581 163.69 297.581C162.838 297.581 162.255 298.007 161.94 298.859C161.772 299.315 161.688 299.894 161.688 300.596C161.688 301.161 161.772 301.642 161.94 302.038C162.259 302.795 162.843 303.173 163.69 303.173ZM160.505 296.713H161.701V297.684C161.947 297.351 162.216 297.093 162.508 296.911C162.923 296.638 163.41 296.501 163.971 296.501C164.8 296.501 165.504 296.82 166.083 297.458C166.662 298.091 166.951 298.998 166.951 300.179C166.951 301.774 166.534 302.913 165.7 303.597C165.172 304.03 164.556 304.246 163.854 304.246C163.303 304.246 162.84 304.125 162.467 303.884C162.248 303.747 162.004 303.512 161.735 303.18V306.919H160.505V296.713ZM169.037 302.052C169.037 302.407 169.167 302.688 169.427 302.893C169.686 303.098 169.994 303.2 170.349 303.2C170.782 303.2 171.202 303.1 171.607 302.899C172.291 302.567 172.633 302.022 172.633 301.266V300.274C172.482 300.37 172.289 300.45 172.052 300.514C171.815 300.577 171.582 300.623 171.354 300.65L170.609 300.746C170.163 300.805 169.828 300.899 169.604 301.026C169.226 301.241 169.037 301.582 169.037 302.052ZM172.017 299.563C172.3 299.527 172.489 299.409 172.585 299.208C172.639 299.099 172.667 298.941 172.667 298.736C172.667 298.317 172.516 298.014 172.216 297.827C171.919 297.636 171.493 297.54 170.937 297.54C170.295 297.54 169.839 297.713 169.57 298.06C169.42 298.251 169.322 298.536 169.276 298.914H168.128C168.151 298.012 168.442 297.385 169.003 297.034C169.568 296.679 170.222 296.501 170.965 296.501C171.826 296.501 172.526 296.665 173.063 296.993C173.596 297.321 173.863 297.832 173.863 298.524V302.742C173.863 302.87 173.888 302.972 173.938 303.05C173.993 303.127 174.105 303.166 174.273 303.166C174.328 303.166 174.389 303.164 174.458 303.159C174.526 303.15 174.599 303.139 174.677 303.125V304.034C174.485 304.089 174.339 304.123 174.239 304.137C174.139 304.15 174.002 304.157 173.829 304.157C173.405 304.157 173.097 304.007 172.906 303.706C172.806 303.547 172.735 303.321 172.694 303.029C172.443 303.357 172.083 303.642 171.614 303.884C171.145 304.125 170.627 304.246 170.062 304.246C169.383 304.246 168.827 304.041 168.394 303.631C167.966 303.216 167.752 302.699 167.752 302.079C167.752 301.4 167.964 300.874 168.387 300.5C168.811 300.126 169.367 299.896 170.055 299.81L172.017 299.563ZM176.366 300.425C176.366 301.209 176.532 301.865 176.865 302.394C177.198 302.922 177.731 303.187 178.464 303.187C179.034 303.187 179.501 302.943 179.866 302.455C180.235 301.963 180.42 301.259 180.42 300.343C180.42 299.418 180.23 298.734 179.852 298.292C179.474 297.845 179.007 297.622 178.451 297.622C177.831 297.622 177.327 297.859 176.94 298.333C176.557 298.807 176.366 299.504 176.366 300.425ZM178.218 296.549C178.779 296.549 179.248 296.667 179.627 296.904C179.845 297.041 180.094 297.28 180.372 297.622V293.924H181.554V304H180.447V302.981C180.16 303.433 179.82 303.758 179.428 303.959C179.036 304.16 178.588 304.26 178.082 304.26C177.266 304.26 176.56 303.918 175.963 303.234C175.365 302.546 175.067 301.632 175.067 300.493C175.067 299.427 175.338 298.504 175.88 297.725C176.427 296.941 177.207 296.549 178.218 296.549ZM184.023 302.052C184.023 302.407 184.153 302.688 184.413 302.893C184.672 303.098 184.98 303.2 185.335 303.2C185.768 303.2 186.188 303.1 186.593 302.899C187.277 302.567 187.619 302.022 187.619 301.266V300.274C187.468 300.37 187.274 300.45 187.038 300.514C186.801 300.577 186.568 300.623 186.34 300.65L185.595 300.746C185.149 300.805 184.814 300.899 184.59 301.026C184.212 301.241 184.023 301.582 184.023 302.052ZM187.003 299.563C187.286 299.527 187.475 299.409 187.571 299.208C187.625 299.099 187.653 298.941 187.653 298.736C187.653 298.317 187.502 298.014 187.202 297.827C186.905 297.636 186.479 297.54 185.923 297.54C185.281 297.54 184.825 297.713 184.556 298.06C184.406 298.251 184.308 298.536 184.262 298.914H183.114C183.136 298.012 183.428 297.385 183.989 297.034C184.554 296.679 185.208 296.501 185.951 296.501C186.812 296.501 187.511 296.665 188.049 296.993C188.582 297.321 188.849 297.832 188.849 298.524V302.742C188.849 302.87 188.874 302.972 188.924 303.05C188.979 303.127 189.091 303.166 189.259 303.166C189.314 303.166 189.375 303.164 189.444 303.159C189.512 303.15 189.585 303.139 189.663 303.125V304.034C189.471 304.089 189.325 304.123 189.225 304.137C189.125 304.15 188.988 304.157 188.815 304.157C188.391 304.157 188.083 304.007 187.892 303.706C187.792 303.547 187.721 303.321 187.68 303.029C187.429 303.357 187.069 303.642 186.6 303.884C186.131 304.125 185.613 304.246 185.048 304.246C184.369 304.246 183.813 304.041 183.38 303.631C182.952 303.216 182.738 302.699 182.738 302.079C182.738 301.4 182.95 300.874 183.373 300.5C183.797 300.126 184.353 299.896 185.041 299.81L187.003 299.563ZM196.992 296.467C197.817 296.467 198.487 296.667 199.002 297.068C199.521 297.469 199.834 298.16 199.938 299.14H198.742C198.669 298.688 198.503 298.315 198.243 298.019C197.983 297.718 197.566 297.567 196.992 297.567C196.208 297.567 195.648 297.95 195.311 298.716C195.092 299.213 194.982 299.826 194.982 300.555C194.982 301.288 195.137 301.906 195.447 302.407C195.757 302.909 196.245 303.159 196.91 303.159C197.421 303.159 197.824 303.004 198.12 302.694C198.421 302.38 198.628 301.951 198.742 301.409H199.938C199.802 302.38 199.46 303.091 198.913 303.542C198.366 303.989 197.667 304.212 196.814 304.212C195.857 304.212 195.094 303.863 194.524 303.166C193.955 302.464 193.67 301.589 193.67 300.541C193.67 299.256 193.982 298.256 194.606 297.54C195.231 296.825 196.026 296.467 196.992 296.467ZM200.869 293.924H202.099V297.67C202.391 297.301 202.653 297.041 202.886 296.891C203.282 296.631 203.777 296.501 204.369 296.501C205.431 296.501 206.151 296.872 206.529 297.615C206.734 298.021 206.837 298.584 206.837 299.304V304H205.572V299.386C205.572 298.848 205.504 298.454 205.367 298.203C205.144 297.802 204.724 297.602 204.109 297.602C203.599 297.602 203.136 297.777 202.721 298.128C202.307 298.479 202.099 299.142 202.099 300.117V304H200.869V293.924ZM209.305 302.052C209.305 302.407 209.435 302.688 209.695 302.893C209.955 303.098 210.262 303.2 210.618 303.2C211.051 303.2 211.47 303.1 211.876 302.899C212.559 302.567 212.901 302.022 212.901 301.266V300.274C212.751 300.37 212.557 300.45 212.32 300.514C212.083 300.577 211.851 300.623 211.623 300.65L210.878 300.746C210.431 300.805 210.096 300.899 209.873 301.026C209.494 301.241 209.305 301.582 209.305 302.052ZM212.286 299.563C212.568 299.527 212.757 299.409 212.853 299.208C212.908 299.099 212.935 298.941 212.935 298.736C212.935 298.317 212.785 298.014 212.484 297.827C212.188 297.636 211.762 297.54 211.206 297.54C210.563 297.54 210.107 297.713 209.838 298.06C209.688 298.251 209.59 298.536 209.545 298.914H208.396C208.419 298.012 208.711 297.385 209.271 297.034C209.836 296.679 210.49 296.501 211.233 296.501C212.094 296.501 212.794 296.665 213.332 296.993C213.865 297.321 214.131 297.832 214.131 298.524V302.742C214.131 302.87 214.157 302.972 214.207 303.05C214.261 303.127 214.373 303.166 214.542 303.166C214.596 303.166 214.658 303.164 214.726 303.159C214.795 303.15 214.867 303.139 214.945 303.125V304.034C214.754 304.089 214.608 304.123 214.507 304.137C214.407 304.15 214.27 304.157 214.097 304.157C213.673 304.157 213.366 304.007 213.174 303.706C213.074 303.547 213.004 303.321 212.962 303.029C212.712 303.357 212.352 303.642 211.882 303.884C211.413 304.125 210.896 304.246 210.331 304.246C209.652 304.246 209.096 304.041 208.663 303.631C208.234 303.216 208.02 302.699 208.02 302.079C208.02 301.4 208.232 300.874 208.656 300.5C209.08 300.126 209.636 299.896 210.324 299.81L212.286 299.563ZM216.101 294.635H217.345V296.679H218.514V297.684H217.345V302.462C217.345 302.717 217.432 302.888 217.605 302.975C217.701 303.025 217.86 303.05 218.083 303.05C218.143 303.05 218.206 303.05 218.275 303.05C218.343 303.045 218.423 303.038 218.514 303.029V304C218.373 304.041 218.225 304.071 218.07 304.089C217.919 304.107 217.755 304.116 217.578 304.116C217.003 304.116 216.614 303.97 216.409 303.679C216.204 303.382 216.101 303 216.101 302.53V297.684H215.11V296.679H216.101V294.635ZM222.952 293.924H224.148V297.567C224.417 297.216 224.739 296.95 225.112 296.768C225.486 296.581 225.892 296.487 226.329 296.487C227.241 296.487 227.979 296.802 228.544 297.431C229.114 298.055 229.398 298.978 229.398 300.199C229.398 301.357 229.118 302.318 228.558 303.084C227.997 303.85 227.22 304.232 226.227 304.232C225.671 304.232 225.201 304.098 224.818 303.829C224.59 303.67 224.347 303.414 224.087 303.063V304H222.952V293.924ZM226.151 303.146C226.817 303.146 227.313 302.881 227.642 302.353C227.974 301.824 228.141 301.127 228.141 300.261C228.141 299.491 227.974 298.853 227.642 298.347C227.313 297.841 226.828 297.588 226.186 297.588C225.625 297.588 225.133 297.795 224.709 298.21C224.29 298.625 224.08 299.308 224.08 300.261C224.08 300.949 224.167 301.507 224.34 301.936C224.663 302.742 225.267 303.146 226.151 303.146ZM233.446 303.207C234.262 303.207 234.82 302.899 235.121 302.284C235.426 301.664 235.579 300.976 235.579 300.22C235.579 299.536 235.47 298.98 235.251 298.552C234.904 297.877 234.307 297.54 233.46 297.54C232.708 297.54 232.161 297.827 231.819 298.401C231.477 298.976 231.306 299.668 231.306 300.479C231.306 301.259 231.477 301.908 231.819 302.428C232.161 302.947 232.703 303.207 233.446 303.207ZM233.494 296.467C234.437 296.467 235.235 296.781 235.887 297.41C236.538 298.039 236.864 298.964 236.864 300.186C236.864 301.366 236.577 302.341 236.003 303.111C235.429 303.882 234.538 304.267 233.33 304.267C232.323 304.267 231.523 303.927 230.93 303.248C230.338 302.564 230.042 301.648 230.042 300.5C230.042 299.27 230.354 298.29 230.978 297.561C231.603 296.831 232.441 296.467 233.494 296.467ZM238.28 294.635H239.524V296.679H240.693V297.684H239.524V302.462C239.524 302.717 239.611 302.888 239.784 302.975C239.879 303.025 240.039 303.05 240.262 303.05C240.322 303.05 240.385 303.05 240.454 303.05C240.522 303.045 240.602 303.038 240.693 303.029V304C240.552 304.041 240.404 304.071 240.249 304.089C240.098 304.107 239.934 304.116 239.756 304.116C239.182 304.116 238.793 303.97 238.587 303.679C238.382 303.382 238.28 303 238.28 302.53V297.684H237.289V296.679H238.28V294.635Z" fill="#8CA2CE"/>
<path d="M56.3461 293.958V295.154H52.9623V304H51.5814V295.154H48.1977V293.958H56.3461ZM56.5178 302.052C56.5178 302.407 56.6477 302.688 56.9074 302.893C57.1672 303.098 57.4748 303.2 57.8303 303.2C58.2632 303.2 58.6825 303.1 59.0881 302.899C59.7717 302.567 60.1135 302.022 60.1135 301.266V300.274C59.9631 300.37 59.7694 300.45 59.5324 300.514C59.2954 300.577 59.063 300.623 58.8352 300.65L58.09 300.746C57.6434 300.805 57.3085 300.899 57.0852 301.026C56.7069 301.241 56.5178 301.582 56.5178 302.052ZM59.4982 299.563C59.7808 299.527 59.9699 299.409 60.0656 299.208C60.1203 299.099 60.1477 298.941 60.1477 298.736C60.1477 298.317 59.9973 298.014 59.6965 297.827C59.4003 297.636 58.9742 297.54 58.4182 297.54C57.7756 297.54 57.3199 297.713 57.051 298.06C56.9006 298.251 56.8026 298.536 56.757 298.914H55.6086C55.6314 298.012 55.923 297.385 56.4836 297.034C57.0487 296.679 57.7027 296.501 58.4455 296.501C59.3068 296.501 60.0064 296.665 60.5441 296.993C61.0773 297.321 61.3439 297.832 61.3439 298.524V302.742C61.3439 302.87 61.369 302.972 61.4191 303.05C61.4738 303.127 61.5855 303.166 61.7541 303.166C61.8088 303.166 61.8703 303.164 61.9387 303.159C62.007 303.15 62.0799 303.139 62.1574 303.125V304.034C61.966 304.089 61.8202 304.123 61.7199 304.137C61.6197 304.15 61.4829 304.157 61.3098 304.157C60.8859 304.157 60.5783 304.007 60.3869 303.706C60.2867 303.547 60.216 303.321 60.175 303.029C59.9243 303.357 59.5643 303.642 59.0949 303.884C58.6255 304.125 58.1083 304.246 57.5432 304.246C56.8641 304.246 56.3081 304.041 55.8752 303.631C55.4468 303.216 55.2326 302.699 55.2326 302.079C55.2326 301.4 55.4445 300.874 55.8684 300.5C56.2922 300.126 56.8482 299.896 57.5363 299.81L59.4982 299.563ZM63.0674 296.679H64.2363V297.718C64.5827 297.289 64.9495 296.982 65.3369 296.795C65.7243 296.608 66.1549 296.515 66.6289 296.515C67.668 296.515 68.3698 296.877 68.7344 297.602C68.9349 297.998 69.0352 298.565 69.0352 299.304V304H67.7842V299.386C67.7842 298.939 67.7181 298.579 67.5859 298.306C67.3672 297.85 66.9707 297.622 66.3965 297.622C66.1048 297.622 65.8656 297.652 65.6787 297.711C65.3415 297.811 65.0452 298.012 64.79 298.312C64.585 298.554 64.4505 298.805 64.3867 299.064C64.3275 299.32 64.2978 299.687 64.2978 300.165V304H63.0674V296.679ZM75.1336 296.679H76.4939C76.3208 297.148 75.9357 298.219 75.3387 299.892C74.8921 301.149 74.5184 302.175 74.2176 302.968C73.5066 304.836 73.0053 305.976 72.7137 306.386C72.422 306.796 71.9207 307.001 71.2098 307.001C71.0366 307.001 70.9021 306.994 70.8064 306.98C70.7153 306.967 70.6014 306.942 70.4646 306.905V305.784C70.6788 305.843 70.8338 305.88 70.9295 305.894C71.0252 305.907 71.1095 305.914 71.1824 305.914C71.4103 305.914 71.5766 305.875 71.6814 305.798C71.7908 305.725 71.882 305.634 71.9549 305.524C71.9777 305.488 72.0597 305.301 72.201 304.964C72.3423 304.627 72.4448 304.376 72.5086 304.212L69.8016 296.679H71.1961L73.158 302.64L75.1336 296.679ZM78.2037 302.052C78.2037 302.407 78.3336 302.688 78.5934 302.893C78.8531 303.098 79.1607 303.2 79.5162 303.2C79.9492 303.2 80.3684 303.1 80.774 302.899C81.4576 302.567 81.7994 302.022 81.7994 301.266V300.274C81.649 300.37 81.4553 300.45 81.2184 300.514C80.9814 300.577 80.749 300.623 80.5211 300.65L79.776 300.746C79.3294 300.805 78.9944 300.899 78.7711 301.026C78.3928 301.241 78.2037 301.582 78.2037 302.052ZM81.1842 299.563C81.4667 299.527 81.6559 299.409 81.7516 299.208C81.8062 299.099 81.8336 298.941 81.8336 298.736C81.8336 298.317 81.6832 298.014 81.3824 297.827C81.0862 297.636 80.6601 297.54 80.1041 297.54C79.4615 297.54 79.0058 297.713 78.7369 298.06C78.5865 298.251 78.4885 298.536 78.443 298.914H77.2945C77.3173 298.012 77.609 297.385 78.1695 297.034C78.7346 296.679 79.3886 296.501 80.1314 296.501C80.9928 296.501 81.6923 296.665 82.2301 296.993C82.7633 297.321 83.0299 297.832 83.0299 298.524V302.742C83.0299 302.87 83.0549 302.972 83.1051 303.05C83.1598 303.127 83.2714 303.166 83.44 303.166C83.4947 303.166 83.5562 303.164 83.6246 303.159C83.693 303.15 83.7659 303.139 83.8434 303.125V304.034C83.652 304.089 83.5061 304.123 83.4059 304.137C83.3056 304.15 83.1689 304.157 82.9957 304.157C82.5719 304.157 82.2643 304.007 82.0728 303.706C81.9726 303.547 81.902 303.321 81.8609 303.029C81.6103 303.357 81.2503 303.642 80.7809 303.884C80.3115 304.125 79.7942 304.246 79.2291 304.246C78.5501 304.246 77.9941 304.041 77.5611 303.631C77.1327 303.216 76.9186 302.699 76.9186 302.079C76.9186 301.4 77.1305 300.874 77.5543 300.5C77.9781 300.126 78.5341 299.896 79.2223 299.81L81.1842 299.563ZM84.726 293.958H85.9086V299.789L89.0668 296.679H90.6391L87.8363 299.42L90.7963 304H89.224L86.9408 300.309L85.9086 301.252V304H84.726V293.958ZM92.3967 302.052C92.3967 302.407 92.5266 302.688 92.7863 302.893C93.0461 303.098 93.3537 303.2 93.7092 303.2C94.1421 303.2 94.5614 303.1 94.967 302.899C95.6506 302.567 95.9924 302.022 95.9924 301.266V300.274C95.842 300.37 95.6483 300.45 95.4113 300.514C95.1743 300.577 94.9419 300.623 94.7141 300.65L93.9689 300.746C93.5223 300.805 93.1874 300.899 92.9641 301.026C92.5858 301.241 92.3967 301.582 92.3967 302.052ZM95.3771 299.563C95.6597 299.527 95.8488 299.409 95.9445 299.208C95.9992 299.099 96.0266 298.941 96.0266 298.736C96.0266 298.317 95.8762 298.014 95.5754 297.827C95.2792 297.636 94.8531 297.54 94.2971 297.54C93.6545 297.54 93.1988 297.713 92.9299 298.06C92.7795 298.251 92.6815 298.536 92.6359 298.914H91.4875C91.5103 298.012 91.802 297.385 92.3625 297.034C92.9276 296.679 93.5816 296.501 94.3244 296.501C95.1857 296.501 95.8853 296.665 96.423 296.993C96.9562 297.321 97.2229 297.832 97.2229 298.524V302.742C97.2229 302.87 97.2479 302.972 97.298 303.05C97.3527 303.127 97.4644 303.166 97.633 303.166C97.6877 303.166 97.7492 303.164 97.8176 303.159C97.8859 303.15 97.9589 303.139 98.0363 303.125V304.034C97.8449 304.089 97.6991 304.123 97.5988 304.137C97.4986 304.15 97.3618 304.157 97.1887 304.157C96.7648 304.157 96.4572 304.007 96.2658 303.706C96.1656 303.547 96.0949 303.321 96.0539 303.029C95.8033 303.357 95.4432 303.642 94.9738 303.884C94.5044 304.125 93.9872 304.246 93.4221 304.246C92.743 304.246 92.187 304.041 91.7541 303.631C91.3257 303.216 91.1115 302.699 91.1115 302.079C91.1115 301.4 91.3234 300.874 91.7473 300.5C92.1711 300.126 92.7271 299.896 93.4152 299.81L95.3771 299.563ZM98.9463 296.679H100.115V297.718C100.462 297.289 100.828 296.982 101.216 296.795C101.603 296.608 102.034 296.515 102.508 296.515C103.547 296.515 104.249 296.877 104.613 297.602C104.814 297.998 104.914 298.565 104.914 299.304V304H103.663V299.386C103.663 298.939 103.597 298.579 103.465 298.306C103.246 297.85 102.85 297.622 102.275 297.622C101.984 297.622 101.744 297.652 101.558 297.711C101.22 297.811 100.924 298.012 100.669 298.312C100.464 298.554 100.329 298.805 100.266 299.064C100.206 299.32 100.177 299.687 100.177 300.165V304H98.9463V296.679ZM110.767 301.703C110.804 302.113 110.906 302.428 111.075 302.646C111.385 303.043 111.922 303.241 112.688 303.241C113.144 303.241 113.545 303.143 113.891 302.947C114.238 302.747 114.411 302.439 114.411 302.024C114.411 301.71 114.272 301.471 113.994 301.307C113.816 301.206 113.465 301.09 112.941 300.958L111.963 300.712C111.339 300.557 110.879 300.384 110.583 300.192C110.054 299.86 109.79 299.399 109.79 298.812C109.79 298.119 110.038 297.558 110.535 297.13C111.036 296.701 111.708 296.487 112.551 296.487C113.654 296.487 114.449 296.811 114.937 297.458C115.242 297.868 115.391 298.31 115.381 298.784H114.219C114.197 298.506 114.099 298.253 113.925 298.025C113.643 297.702 113.153 297.54 112.456 297.54C111.991 297.54 111.638 297.629 111.396 297.807C111.159 297.984 111.041 298.219 111.041 298.511C111.041 298.83 111.198 299.085 111.512 299.276C111.695 299.39 111.963 299.491 112.319 299.577L113.132 299.775C114.017 299.99 114.609 300.197 114.91 300.397C115.388 300.712 115.628 301.206 115.628 301.881C115.628 302.533 115.379 303.095 114.882 303.569C114.39 304.043 113.638 304.28 112.627 304.28C111.537 304.28 110.765 304.034 110.309 303.542C109.858 303.045 109.616 302.432 109.585 301.703H110.767ZM119.785 296.515C120.304 296.515 120.808 296.638 121.295 296.884C121.783 297.125 122.154 297.44 122.41 297.827C122.656 298.196 122.82 298.627 122.902 299.119C122.975 299.456 123.011 299.994 123.011 300.732H117.645C117.668 301.475 117.843 302.072 118.171 302.523C118.499 302.97 119.008 303.193 119.696 303.193C120.338 303.193 120.851 302.981 121.234 302.558C121.453 302.312 121.607 302.027 121.699 301.703H122.909C122.877 301.972 122.77 302.273 122.587 302.605C122.41 302.934 122.209 303.202 121.986 303.412C121.612 303.777 121.149 304.023 120.598 304.15C120.302 304.223 119.967 304.26 119.593 304.26C118.682 304.26 117.909 303.929 117.276 303.269C116.642 302.603 116.326 301.674 116.326 300.479C116.326 299.304 116.645 298.349 117.283 297.615C117.921 296.882 118.755 296.515 119.785 296.515ZM121.746 299.755C121.696 299.222 121.58 298.796 121.398 298.477C121.061 297.884 120.498 297.588 119.709 297.588C119.144 297.588 118.67 297.793 118.287 298.203C117.905 298.609 117.702 299.126 117.679 299.755H121.746ZM124.96 301.703C124.997 302.113 125.099 302.428 125.268 302.646C125.578 303.043 126.115 303.241 126.881 303.241C127.337 303.241 127.738 303.143 128.084 302.947C128.431 302.747 128.604 302.439 128.604 302.024C128.604 301.71 128.465 301.471 128.187 301.307C128.009 301.206 127.658 301.09 127.134 300.958L126.156 300.712C125.532 300.557 125.072 300.384 124.776 300.192C124.247 299.86 123.983 299.399 123.983 298.812C123.983 298.119 124.231 297.558 124.728 297.13C125.229 296.701 125.901 296.487 126.744 296.487C127.847 296.487 128.642 296.811 129.13 297.458C129.435 297.868 129.584 298.31 129.574 298.784H128.412C128.39 298.506 128.292 298.253 128.118 298.025C127.836 297.702 127.346 297.54 126.649 297.54C126.184 297.54 125.831 297.629 125.589 297.807C125.352 297.984 125.234 298.219 125.234 298.511C125.234 298.83 125.391 299.085 125.705 299.276C125.888 299.39 126.156 299.491 126.512 299.577L127.325 299.775C128.21 299.99 128.802 300.197 129.103 300.397C129.581 300.712 129.821 301.206 129.821 301.881C129.821 302.533 129.572 303.095 129.075 303.569C128.583 304.043 127.831 304.28 126.82 304.28C125.73 304.28 124.958 304.034 124.502 303.542C124.051 303.045 123.809 302.432 123.778 301.703H124.96ZM132.159 296.679V301.539C132.159 301.913 132.218 302.218 132.337 302.455C132.556 302.893 132.964 303.111 133.561 303.111C134.417 303.111 135.001 302.729 135.311 301.963C135.479 301.553 135.563 300.99 135.563 300.274V296.679H136.794V304H135.632L135.646 302.92C135.486 303.198 135.288 303.433 135.051 303.624C134.581 304.007 134.012 304.198 133.342 304.198C132.298 304.198 131.587 303.85 131.209 303.152C131.004 302.779 130.901 302.28 130.901 301.655V296.679H132.159ZM139.365 302.052C139.365 302.407 139.495 302.688 139.755 302.893C140.014 303.098 140.322 303.2 140.678 303.2C141.11 303.2 141.53 303.1 141.935 302.899C142.619 302.567 142.961 302.022 142.961 301.266V300.274C142.81 300.37 142.617 300.45 142.38 300.514C142.143 300.577 141.91 300.623 141.682 300.65L140.937 300.746C140.491 300.805 140.156 300.899 139.932 301.026C139.554 301.241 139.365 301.582 139.365 302.052ZM142.346 299.563C142.628 299.527 142.817 299.409 142.913 299.208C142.968 299.099 142.995 298.941 142.995 298.736C142.995 298.317 142.845 298.014 142.544 297.827C142.248 297.636 141.821 297.54 141.265 297.54C140.623 297.54 140.167 297.713 139.898 298.06C139.748 298.251 139.65 298.536 139.604 298.914H138.456C138.479 298.012 138.77 297.385 139.331 297.034C139.896 296.679 140.55 296.501 141.293 296.501C142.154 296.501 142.854 296.665 143.391 296.993C143.925 297.321 144.191 297.832 144.191 298.524V302.742C144.191 302.87 144.216 302.972 144.266 303.05C144.321 303.127 144.433 303.166 144.601 303.166C144.656 303.166 144.718 303.164 144.786 303.159C144.854 303.15 144.927 303.139 145.005 303.125V304.034C144.813 304.089 144.667 304.123 144.567 304.137C144.467 304.15 144.33 304.157 144.157 304.157C143.733 304.157 143.426 304.007 143.234 303.706C143.134 303.547 143.063 303.321 143.022 303.029C142.772 303.357 142.412 303.642 141.942 303.884C141.473 304.125 140.956 304.246 140.39 304.246C139.711 304.246 139.155 304.041 138.722 303.631C138.294 303.216 138.08 302.699 138.08 302.079C138.08 301.4 138.292 300.874 138.716 300.5C139.139 300.126 139.695 299.896 140.384 299.81L142.346 299.563ZM146.161 294.635H147.405V296.679H148.574V297.684H147.405V302.462C147.405 302.717 147.491 302.888 147.665 302.975C147.76 303.025 147.92 303.05 148.143 303.05C148.202 303.05 148.266 303.05 148.335 303.05C148.403 303.045 148.483 303.038 148.574 303.029V304C148.433 304.041 148.284 304.071 148.129 304.089C147.979 304.107 147.815 304.116 147.637 304.116C147.063 304.116 146.673 303.97 146.468 303.679C146.263 303.382 146.161 303 146.161 302.53V297.684H145.17V296.679H146.161V294.635ZM150.742 296.679V301.539C150.742 301.913 150.801 302.218 150.919 302.455C151.138 302.893 151.546 303.111 152.143 303.111C153 303.111 153.583 302.729 153.893 301.963C154.062 301.553 154.146 300.99 154.146 300.274V296.679H155.376V304H154.214L154.228 302.92C154.068 303.198 153.87 303.433 153.633 303.624C153.164 304.007 152.594 304.198 151.924 304.198C150.881 304.198 150.17 303.85 149.791 303.152C149.586 302.779 149.484 302.28 149.484 301.655V296.679H150.742ZM163.69 303.173C164.265 303.173 164.741 302.934 165.119 302.455C165.502 301.972 165.693 301.252 165.693 300.295C165.693 299.712 165.609 299.21 165.44 298.791C165.121 297.984 164.538 297.581 163.69 297.581C162.838 297.581 162.255 298.007 161.94 298.859C161.772 299.315 161.688 299.894 161.688 300.596C161.688 301.161 161.772 301.642 161.94 302.038C162.259 302.795 162.843 303.173 163.69 303.173ZM160.505 296.713H161.701V297.684C161.947 297.351 162.216 297.093 162.508 296.911C162.923 296.638 163.41 296.501 163.971 296.501C164.8 296.501 165.504 296.82 166.083 297.458C166.662 298.091 166.951 298.998 166.951 300.179C166.951 301.774 166.534 302.913 165.7 303.597C165.172 304.03 164.556 304.246 163.854 304.246C163.303 304.246 162.84 304.125 162.467 303.884C162.248 303.747 162.004 303.512 161.735 303.18V306.919H160.505V296.713ZM169.037 302.052C169.037 302.407 169.167 302.688 169.427 302.893C169.686 303.098 169.994 303.2 170.349 303.2C170.782 303.2 171.202 303.1 171.607 302.899C172.291 302.567 172.633 302.022 172.633 301.266V300.274C172.482 300.37 172.289 300.45 172.052 300.514C171.815 300.577 171.582 300.623 171.354 300.65L170.609 300.746C170.163 300.805 169.828 300.899 169.604 301.026C169.226 301.241 169.037 301.582 169.037 302.052ZM172.017 299.563C172.3 299.527 172.489 299.409 172.585 299.208C172.639 299.099 172.667 298.941 172.667 298.736C172.667 298.317 172.516 298.014 172.216 297.827C171.919 297.636 171.493 297.54 170.937 297.54C170.295 297.54 169.839 297.713 169.57 298.06C169.42 298.251 169.322 298.536 169.276 298.914H168.128C168.151 298.012 168.442 297.385 169.003 297.034C169.568 296.679 170.222 296.501 170.965 296.501C171.826 296.501 172.526 296.665 173.063 296.993C173.596 297.321 173.863 297.832 173.863 298.524V302.742C173.863 302.87 173.888 302.972 173.938 303.05C173.993 303.127 174.105 303.166 174.273 303.166C174.328 303.166 174.389 303.164 174.458 303.159C174.526 303.15 174.599 303.139 174.677 303.125V304.034C174.485 304.089 174.339 304.123 174.239 304.137C174.139 304.15 174.002 304.157 173.829 304.157C173.405 304.157 173.097 304.007 172.906 303.706C172.806 303.547 172.735 303.321 172.694 303.029C172.443 303.357 172.083 303.642 171.614 303.884C171.145 304.125 170.627 304.246 170.062 304.246C169.383 304.246 168.827 304.041 168.394 303.631C167.966 303.216 167.752 302.699 167.752 302.079C167.752 301.4 167.964 300.874 168.387 300.5C168.811 300.126 169.367 299.896 170.055 299.81L172.017 299.563ZM176.366 300.425C176.366 301.209 176.532 301.865 176.865 302.394C177.198 302.922 177.731 303.187 178.464 303.187C179.034 303.187 179.501 302.943 179.866 302.455C180.235 301.963 180.42 301.259 180.42 300.343C180.42 299.418 180.23 298.734 179.852 298.292C179.474 297.845 179.007 297.622 178.451 297.622C177.831 297.622 177.327 297.859 176.94 298.333C176.557 298.807 176.366 299.504 176.366 300.425ZM178.218 296.549C178.779 296.549 179.248 296.667 179.627 296.904C179.845 297.041 180.094 297.28 180.372 297.622V293.924H181.554V304H180.447V302.981C180.16 303.433 179.82 303.758 179.428 303.959C179.036 304.16 178.588 304.26 178.082 304.26C177.266 304.26 176.56 303.918 175.963 303.234C175.365 302.546 175.067 301.632 175.067 300.493C175.067 299.427 175.338 298.504 175.88 297.725C176.427 296.941 177.207 296.549 178.218 296.549ZM184.023 302.052C184.023 302.407 184.153 302.688 184.413 302.893C184.672 303.098 184.98 303.2 185.335 303.2C185.768 303.2 186.188 303.1 186.593 302.899C187.277 302.567 187.619 302.022 187.619 301.266V300.274C187.468 300.37 187.274 300.45 187.038 300.514C186.801 300.577 186.568 300.623 186.34 300.65L185.595 300.746C185.149 300.805 184.814 300.899 184.59 301.026C184.212 301.241 184.023 301.582 184.023 302.052ZM187.003 299.563C187.286 299.527 187.475 299.409 187.571 299.208C187.625 299.099 187.653 298.941 187.653 298.736C187.653 298.317 187.502 298.014 187.202 297.827C186.905 297.636 186.479 297.54 185.923 297.54C185.281 297.54 184.825 297.713 184.556 298.06C184.406 298.251 184.308 298.536 184.262 298.914H183.114C183.136 298.012 183.428 297.385 183.989 297.034C184.554 296.679 185.208 296.501 185.951 296.501C186.812 296.501 187.511 296.665 188.049 296.993C188.582 297.321 188.849 297.832 188.849 298.524V302.742C188.849 302.87 188.874 302.972 188.924 303.05C188.979 303.127 189.091 303.166 189.259 303.166C189.314 303.166 189.375 303.164 189.444 303.159C189.512 303.15 189.585 303.139 189.663 303.125V304.034C189.471 304.089 189.325 304.123 189.225 304.137C189.125 304.15 188.988 304.157 188.815 304.157C188.391 304.157 188.083 304.007 187.892 303.706C187.792 303.547 187.721 303.321 187.68 303.029C187.429 303.357 187.069 303.642 186.6 303.884C186.131 304.125 185.613 304.246 185.048 304.246C184.369 304.246 183.813 304.041 183.38 303.631C182.952 303.216 182.738 302.699 182.738 302.079C182.738 301.4 182.95 300.874 183.373 300.5C183.797 300.126 184.353 299.896 185.041 299.81L187.003 299.563ZM196.992 296.467C197.817 296.467 198.487 296.667 199.002 297.068C199.521 297.469 199.834 298.16 199.938 299.14H198.742C198.669 298.688 198.503 298.315 198.243 298.019C197.983 297.718 197.566 297.567 196.992 297.567C196.208 297.567 195.648 297.95 195.311 298.716C195.092 299.213 194.982 299.826 194.982 300.555C194.982 301.288 195.137 301.906 195.447 302.407C195.757 302.909 196.245 303.159 196.91 303.159C197.421 303.159 197.824 303.004 198.12 302.694C198.421 302.38 198.628 301.951 198.742 301.409H199.938C199.802 302.38 199.46 303.091 198.913 303.542C198.366 303.989 197.667 304.212 196.814 304.212C195.857 304.212 195.094 303.863 194.524 303.166C193.955 302.464 193.67 301.589 193.67 300.541C193.67 299.256 193.982 298.256 194.606 297.54C195.231 296.825 196.026 296.467 196.992 296.467ZM200.869 293.924H202.099V297.67C202.391 297.301 202.653 297.041 202.886 296.891C203.282 296.631 203.777 296.501 204.369 296.501C205.431 296.501 206.151 296.872 206.529 297.615C206.734 298.021 206.837 298.584 206.837 299.304V304H205.572V299.386C205.572 298.848 205.504 298.454 205.367 298.203C205.144 297.802 204.724 297.602 204.109 297.602C203.599 297.602 203.136 297.777 202.721 298.128C202.307 298.479 202.099 299.142 202.099 300.117V304H200.869V293.924ZM209.305 302.052C209.305 302.407 209.435 302.688 209.695 302.893C209.955 303.098 210.262 303.2 210.618 303.2C211.051 303.2 211.47 303.1 211.876 302.899C212.559 302.567 212.901 302.022 212.901 301.266V300.274C212.751 300.37 212.557 300.45 212.32 300.514C212.083 300.577 211.851 300.623 211.623 300.65L210.878 300.746C210.431 300.805 210.096 300.899 209.873 301.026C209.494 301.241 209.305 301.582 209.305 302.052ZM212.286 299.563C212.568 299.527 212.757 299.409 212.853 299.208C212.908 299.099 212.935 298.941 212.935 298.736C212.935 298.317 212.785 298.014 212.484 297.827C212.188 297.636 211.762 297.54 211.206 297.54C210.563 297.54 210.107 297.713 209.838 298.06C209.688 298.251 209.59 298.536 209.545 298.914H208.396C208.419 298.012 208.711 297.385 209.271 297.034C209.836 296.679 210.49 296.501 211.233 296.501C212.094 296.501 212.794 296.665 213.332 296.993C213.865 297.321 214.131 297.832 214.131 298.524V302.742C214.131 302.87 214.157 302.972 214.207 303.05C214.261 303.127 214.373 303.166 214.542 303.166C214.596 303.166 214.658 303.164 214.726 303.159C214.795 303.15 214.867 303.139 214.945 303.125V304.034C214.754 304.089 214.608 304.123 214.507 304.137C214.407 304.15 214.27 304.157 214.097 304.157C213.673 304.157 213.366 304.007 213.174 303.706C213.074 303.547 213.004 303.321 212.962 303.029C212.712 303.357 212.352 303.642 211.882 303.884C211.413 304.125 210.896 304.246 210.331 304.246C209.652 304.246 209.096 304.041 208.663 303.631C208.234 303.216 208.02 302.699 208.02 302.079C208.02 301.4 208.232 300.874 208.656 300.5C209.08 300.126 209.636 299.896 210.324 299.81L212.286 299.563ZM216.101 294.635H217.345V296.679H218.514V297.684H217.345V302.462C217.345 302.717 217.432 302.888 217.605 302.975C217.701 303.025 217.86 303.05 218.083 303.05C218.143 303.05 218.206 303.05 218.275 303.05C218.343 303.045 218.423 303.038 218.514 303.029V304C218.373 304.041 218.225 304.071 218.07 304.089C217.919 304.107 217.755 304.116 217.578 304.116C217.003 304.116 216.614 303.97 216.409 303.679C216.204 303.382 216.101 303 216.101 302.53V297.684H215.11V296.679H216.101V294.635ZM222.952 293.924H224.148V297.567C224.417 297.216 224.739 296.95 225.112 296.768C225.486 296.581 225.892 296.487 226.329 296.487C227.241 296.487 227.979 296.802 228.544 297.431C229.114 298.055 229.398 298.978 229.398 300.199C229.398 301.357 229.118 302.318 228.558 303.084C227.997 303.85 227.22 304.232 226.227 304.232C225.671 304.232 225.201 304.098 224.818 303.829C224.59 303.67 224.347 303.414 224.087 303.063V304H222.952V293.924ZM226.151 303.146C226.817 303.146 227.313 302.881 227.642 302.353C227.974 301.824 228.141 301.127 228.141 300.261C228.141 299.491 227.974 298.853 227.642 298.347C227.313 297.841 226.828 297.588 226.186 297.588C225.625 297.588 225.133 297.795 224.709 298.21C224.29 298.625 224.08 299.308 224.08 300.261C224.08 300.949 224.167 301.507 224.34 301.936C224.663 302.742 225.267 303.146 226.151 303.146ZM233.446 303.207C234.262 303.207 234.82 302.899 235.121 302.284C235.426 301.664 235.579 300.976 235.579 300.22C235.579 299.536 235.47 298.98 235.251 298.552C234.904 297.877 234.307 297.54 233.46 297.54C232.708 297.54 232.161 297.827 231.819 298.401C231.477 298.976 231.306 299.668 231.306 300.479C231.306 301.259 231.477 301.908 231.819 302.428C232.161 302.947 232.703 303.207 233.446 303.207ZM233.494 296.467C234.437 296.467 235.235 296.781 235.887 297.41C236.538 298.039 236.864 298.964 236.864 300.186C236.864 301.366 236.577 302.341 236.003 303.111C235.429 303.882 234.538 304.267 233.33 304.267C232.323 304.267 231.523 303.927 230.93 303.248C230.338 302.564 230.042 301.648 230.042 300.5C230.042 299.27 230.354 298.29 230.978 297.561C231.603 296.831 232.441 296.467 233.494 296.467ZM238.28 294.635H239.524V296.679H240.693V297.684H239.524V302.462C239.524 302.717 239.611 302.888 239.784 302.975C239.879 303.025 240.039 303.05 240.262 303.05C240.322 303.05 240.385 303.05 240.454 303.05C240.522 303.045 240.602 303.038 240.693 303.029V304C240.552 304.041 240.404 304.071 240.249 304.089C240.098 304.107 239.934 304.116 239.756 304.116C239.182 304.116 238.793 303.97 238.587 303.679C238.382 303.382 238.28 303 238.28 302.53V297.684H237.289V296.679H238.28V294.635Z" fill="black" fill-opacity="0.2"/>
<defs>
<linearGradient id="paint0_linear_5953_31269" x1="144.5" y1="0" x2="144.5" y2="200" gradientUnits="userSpaceOnUse">
<stop stop-color="#A09BEE"/>
<stop offset="1" stop-color="white"/>
</linearGradient>
</defs>
</svg>
