<svg width="15" height="15" viewBox="0 0 15 15" fill="none" xmlns="http://www.w3.org/2000/svg">
<path d="M0.615234 13.5462C0.615234 14.2736 1.28968 14.8637 2.12097 14.8637H13.163C13.9943 14.8637 14.6688 14.2736 14.6688 13.5462V6.08029H0.615234V13.5462ZM10.6535 8.16636C10.6535 7.9852 10.8229 7.83698 11.0299 7.83698H12.2847C12.4917 7.83698 12.6611 7.9852 12.6611 8.16636V9.26429C12.6611 9.44545 12.4917 9.59367 12.2847 9.59367H11.0299C10.8229 9.59367 10.6535 9.44545 10.6535 9.26429V8.16636ZM10.6535 11.6797C10.6535 11.4986 10.8229 11.3504 11.0299 11.3504H12.2847C12.4917 11.3504 12.6611 11.4986 12.6611 11.6797V12.7777C12.6611 12.9588 12.4917 13.1071 12.2847 13.1071H11.0299C10.8229 13.1071 10.6535 12.9588 10.6535 12.7777V11.6797ZM6.63818 8.16636C6.63818 7.9852 6.80757 7.83698 7.01461 7.83698H8.26939C8.47643 7.83698 8.64582 7.9852 8.64582 8.16636V9.26429C8.64582 9.44545 8.47643 9.59367 8.26939 9.59367H7.01461C6.80757 9.59367 6.63818 9.44545 6.63818 9.26429V8.16636ZM6.63818 11.6797C6.63818 11.4986 6.80757 11.3504 7.01461 11.3504H8.26939C8.47643 11.3504 8.64582 11.4986 8.64582 11.6797V12.7777C8.64582 12.9588 8.47643 13.1071 8.26939 13.1071H7.01461C6.80757 13.1071 6.63818 12.9588 6.63818 12.7777V11.6797ZM2.62288 8.16636C2.62288 7.9852 2.79228 7.83698 2.99932 7.83698H4.25409C4.46113 7.83698 4.63053 7.9852 4.63053 8.16636V9.26429C4.63053 9.44545 4.46113 9.59367 4.25409 9.59367H2.99932C2.79228 9.59367 2.62288 9.44545 2.62288 9.26429V8.16636ZM2.62288 11.6797C2.62288 11.4986 2.79228 11.3504 2.99932 11.3504H4.25409C4.46113 11.3504 4.63053 11.4986 4.63053 11.6797V12.7777C4.63053 12.9588 4.46113 13.1071 4.25409 13.1071H2.99932C2.79228 13.1071 2.62288 12.9588 2.62288 12.7777V11.6797ZM13.163 2.56691H11.6573V1.24939C11.6573 1.00785 11.4314 0.810219 11.1554 0.810219H10.1516C9.87551 0.810219 9.64964 1.00785 9.64964 1.24939V2.56691H5.63435V1.24939C5.63435 1.00785 5.40849 0.810219 5.13244 0.810219H4.12862C3.85256 0.810219 3.6267 1.00785 3.6267 1.24939V2.56691H2.12097C1.28968 2.56691 0.615234 3.15705 0.615234 3.88443V5.20195H14.6688V3.88443C14.6688 3.15705 13.9943 2.56691 13.163 2.56691Z" fill="#293066"/>
</svg>
