<svg width="21" height="21" viewBox="0 0 21 21" fill="none" xmlns="http://www.w3.org/2000/svg">
<path d="M10.5 21C4.70085 21 0 16.2991 0 10.5C0 4.70085 4.70085 0 10.5 0C16.2991 0 21 4.70085 21 10.5C21 16.2991 16.2991 21 10.5 21ZM6.825 12.6V14.7H9.45V16.8H11.55V14.7H12.6C13.2962 14.7 13.9639 14.4234 14.4562 13.9312C14.9484 13.4389 15.225 12.7712 15.225 12.075C15.225 11.3788 14.9484 10.7111 14.4562 10.2188C13.9639 9.72656 13.2962 9.45 12.6 9.45H8.4C8.26076 9.45 8.12722 9.39469 8.02877 9.29623C7.93031 9.19777 7.875 9.06424 7.875 8.925C7.875 8.78576 7.93031 8.65222 8.02877 8.55377C8.12722 8.45531 8.26076 8.4 8.4 8.4H14.175V6.3H11.55V4.2H9.45V6.3H8.4C7.70381 6.3 7.03613 6.57656 6.54384 7.06884C6.05156 7.56113 5.775 8.22881 5.775 8.925C5.775 9.62119 6.05156 10.2889 6.54384 10.7812C7.03613 11.2734 7.70381 11.55 8.4 11.55H12.6C12.7392 11.55 12.8728 11.6053 12.9712 11.7038C13.0697 11.8022 13.125 11.9358 13.125 12.075C13.125 12.2142 13.0697 12.3478 12.9712 12.4462C12.8728 12.5447 12.7392 12.6 12.6 12.6H6.825Z" fill="white"/>
</svg>
