<svg width="13" height="22" viewBox="0 0 13 22" fill="none" xmlns="http://www.w3.org/2000/svg">
<g filter="url(#filter0_d_496_195)">
<path fill-rule="evenodd" clip-rule="evenodd" d="M4.8125 11.1217V10.6265C4.8125 10.1951 4.99029 9.78142 5.30676 9.47639C5.62322 9.17136 6.05245 9 6.5 9C6.94755 9 7.37677 9.17136 7.69324 9.47639C8.00971 9.78142 8.1875 10.1951 8.1875 10.6265V11.1217C8.46625 11.1417 8.6475 11.1923 8.78025 11.3202C9 11.5318 9 11.8728 9 12.5542C9 13.2357 9 13.5766 8.78025 13.7882C8.56075 14 8.207 14 7.5 14H5.5C4.793 14 4.43925 14 4.21975 13.7882C4 13.5766 4 13.2357 4 12.5542C4 11.8728 4 11.5318 4.21975 11.3202C4.35225 11.1923 4.53375 11.1417 4.8125 11.1217ZM5.1875 10.6265C5.1875 10.291 5.32578 9.96922 5.57192 9.73197C5.81806 9.49473 6.1519 9.36145 6.5 9.36145C6.8481 9.36145 7.18194 9.49473 7.42808 9.73197C7.67422 9.96922 7.8125 10.291 7.8125 10.6265V11.1094C7.71675 11.1084 7.61275 11.1084 7.5 11.1084H5.5C5.387 11.1084 5.28325 11.1084 5.1875 11.1094V10.6265ZM5.5 12.7952C5.5663 12.7952 5.62989 12.7698 5.67678 12.7246C5.72366 12.6794 5.75 12.6181 5.75 12.5542C5.75 12.4903 5.72366 12.429 5.67678 12.3838C5.62989 12.3386 5.5663 12.3133 5.5 12.3133C5.4337 12.3133 5.37011 12.3386 5.32322 12.3838C5.27634 12.429 5.25 12.4903 5.25 12.5542C5.25 12.6181 5.27634 12.6794 5.32322 12.7246C5.37011 12.7698 5.4337 12.7952 5.5 12.7952ZM6.5 12.7952C6.5663 12.7952 6.62989 12.7698 6.67678 12.7246C6.72366 12.6794 6.75 12.6181 6.75 12.5542C6.75 12.4903 6.72366 12.429 6.67678 12.3838C6.62989 12.3386 6.5663 12.3133 6.5 12.3133C6.4337 12.3133 6.37011 12.3386 6.32322 12.3838C6.27634 12.429 6.25 12.4903 6.25 12.5542C6.25 12.6181 6.27634 12.6794 6.32322 12.7246C6.37011 12.7698 6.4337 12.7952 6.5 12.7952ZM7.75 12.5542C7.75 12.6181 7.72366 12.6794 7.67678 12.7246C7.62989 12.7698 7.5663 12.7952 7.5 12.7952C7.4337 12.7952 7.37011 12.7698 7.32322 12.7246C7.27634 12.6794 7.25 12.6181 7.25 12.5542C7.25 12.4903 7.27634 12.429 7.32322 12.3838C7.37011 12.3386 7.4337 12.3133 7.5 12.3133C7.5663 12.3133 7.62989 12.3386 7.67678 12.3838C7.72366 12.429 7.75 12.4903 7.75 12.5542Z" fill="#293066"/>
</g>
<defs>
<filter id="filter0_d_496_195" x="0" y="9" width="13" height="13" filterUnits="userSpaceOnUse" color-interpolation-filters="sRGB">
<feFlood flood-opacity="0" result="BackgroundImageFix"/>
<feColorMatrix in="SourceAlpha" type="matrix" values="0 0 0 0 0 0 0 0 0 0 0 0 0 0 0 0 0 0 127 0" result="hardAlpha"/>
<feOffset dy="4"/>
<feGaussianBlur stdDeviation="2"/>
<feComposite in2="hardAlpha" operator="out"/>
<feColorMatrix type="matrix" values="0 0 0 0 0 0 0 0 0 0 0 0 0 0 0 0 0 0 0.25 0"/>
<feBlend mode="normal" in2="BackgroundImageFix" result="effect1_dropShadow_496_195"/>
<feBlend mode="normal" in="SourceGraphic" in2="effect1_dropShadow_496_195" result="shape"/>
</filter>
</defs>
</svg>
