<?xml version="1.0" encoding="utf-8"?>
<!-- Generator: Adobe Illustrator 27.6.1, SVG Export Plug-In . SVG Version: 6.00 Build 0)  -->
<svg version="1.1" id="Layer_1" xmlns="http://www.w3.org/2000/svg" xmlns:xlink="http://www.w3.org/1999/xlink" x="0px" y="0px"
	 viewBox="0 0 22 22" style="enable-background:new 0 0 22 22;" xml:space="preserve">
<style type="text/css">
	.st0{clip-path:url(#SVGID_00000037680374317533488910000011821633100211351737_);}
	.st1{fill:#293066;}
</style>
<g>
	<defs>
		<rect id="SVGID_1_" width="22" height="22"/>
	</defs>
	<clipPath id="SVGID_00000081639783673076444400000015083986849739358140_">
		<use xlink:href="#SVGID_1_"  style="overflow:visible;"/>
	</clipPath>
	<g style="clip-path:url(#SVGID_00000081639783673076444400000015083986849739358140_);">
		<path class="st1" d="M21.7,9.6L13.2,1c-0.3-0.3-0.6-0.6-1-0.7C11.8,0.1,11.4,0,11,0c-0.4,0-0.8,0.1-1.2,0.3C9.4,0.4,9.1,0.7,8.8,1
			L0.3,9.6C0.2,9.7,0.1,9.8,0.1,10C0,10.1,0,10.3,0,10.4s0,0.3,0.1,0.5c0.1,0.1,0.1,0.3,0.2,0.4c0.1,0.1,0.2,0.2,0.4,0.3
			c0.1,0.1,0.3,0.1,0.4,0.1c0.1,0,0.3,0,0.4-0.1c0.1-0.1,0.3-0.1,0.4-0.3l0.3-0.3v8.8c0,0.6,0.2,1.2,0.6,1.6c0.4,0.4,1,0.7,1.6,0.7
			h2.2c0.6,0,1.1-0.2,1.6-0.7c0.4-0.4,0.6-1,0.6-1.6v-2.3c0-0.3,0.1-0.6,0.3-0.8c0.2-0.2,0.5-0.3,0.8-0.3h2.2c0.3,0,0.6,0.1,0.8,0.3
			c0.2,0.2,0.3,0.5,0.3,0.8v2.3c0,0.6,0.2,1.2,0.6,1.6c0.4,0.4,1,0.7,1.6,0.7h2.2c0.6,0,1.1-0.2,1.6-0.7c0.4-0.4,0.6-1,0.6-1.6v-8.8
			l0.3,0.3c0.1,0.1,0.2,0.2,0.4,0.3c0.1,0.1,0.3,0.1,0.4,0.1c0.1,0,0.3,0,0.4-0.1c0.1-0.1,0.3-0.1,0.4-0.3c0.1-0.1,0.2-0.2,0.2-0.4
			c0.1-0.1,0.1-0.3,0.1-0.5c0-0.2,0-0.3-0.1-0.4C21.9,9.8,21.8,9.7,21.7,9.6z"/>
	</g>
</g>
</svg>
