<svg width="148" height="121" viewBox="0 0 148 121" fill="none" xmlns="http://www.w3.org/2000/svg">
<g clip-path="url(#clip0_3271_4813)">
<path d="M105.834 103.116H47.1011V65.6293H105.834V103.116Z" fill="#A3623A"/>
<path d="M47.1011 67.8524L105.834 71.3641V65.6293H47.1011V67.8524Z" fill="#7C472A"/>
<path d="M109.039 66.814H43.8931V62.2192H109.039V66.814Z" fill="#AA6843"/>
<path d="M109.039 62.2192L105.833 59.3685H47.1007L43.8931 62.2192H109.039Z" fill="#BC7D5A"/>
<path d="M101.329 91.2067H52.8438V77.5374H101.329V91.2067Z" fill="#EAE1C1"/>
<path d="M62.6955 86.7448C63.0854 86.7448 63.4501 86.673 63.7888 86.5323C64.1289 86.3909 64.4252 86.1954 64.6822 85.9488C64.9377 85.7007 65.1389 85.4143 65.2867 85.0867C65.4338 84.7583 65.5073 84.4087 65.5073 84.0355C65.5073 83.6617 65.4338 83.3141 65.2867 82.9886C65.1389 82.6653 64.9377 82.3803 64.6822 82.1358C64.4252 81.892 64.1289 81.698 63.7888 81.5572C63.4501 81.4151 63.0854 81.3447 62.6955 81.3447H61.032V86.7448H62.6955ZM60.3257 80.6696H62.6955C63.1798 80.6696 63.6358 80.7584 64.0673 80.9354C64.498 81.1116 64.8693 81.3518 65.1857 81.6532C65.5021 81.9552 65.7516 82.312 65.9366 82.7235C66.1222 83.135 66.2136 83.5728 66.2136 84.0355C66.2136 84.4975 66.1222 84.9353 65.9366 85.3454C65.7516 85.7576 65.5021 86.1172 65.1857 86.425C64.8693 86.7341 64.498 86.9772 64.0673 87.1535C63.6358 87.3297 63.1798 87.4186 62.6955 87.4186H60.3257V80.6696Z" fill="#212C32"/>
<path d="M67.4538 84.0398C67.4538 84.4392 67.5348 84.8173 67.6952 85.1741C67.8578 85.5309 68.0769 85.8436 68.3554 86.1108C68.6347 86.3788 68.9607 86.5884 69.3335 86.7434C69.7071 86.8983 70.1022 86.9758 70.5188 86.9758C70.9347 86.9758 71.3283 86.8983 71.6975 86.7434C72.0666 86.5884 72.3911 86.3788 72.6703 86.1108C72.9489 85.8436 73.1694 85.5309 73.3321 85.1741C73.4932 84.8173 73.5734 84.4392 73.5734 84.0398C73.5734 83.6404 73.4932 83.2637 73.3321 82.909C73.1694 82.5551 72.9489 82.2445 72.6703 81.978C72.3911 81.71 72.0666 81.5004 71.6975 81.3461C71.3283 81.1912 70.9347 81.113 70.5188 81.113C70.1022 81.113 69.7071 81.1912 69.3335 81.3461C68.9607 81.5004 68.6347 81.71 68.3554 81.978C68.0769 82.2445 67.8578 82.5551 67.6952 82.909C67.5348 83.2637 67.4538 83.6404 67.4538 84.0398ZM66.7476 84.0433C66.7476 83.5487 66.8478 83.0832 67.0446 82.6468C67.2429 82.2104 67.514 81.828 67.8564 81.499C68.1973 81.1713 68.5968 80.9126 69.0535 80.7228C69.5103 80.5331 69.9967 80.4393 70.5129 80.4393C71.0305 80.4393 71.5162 80.5331 71.9722 80.7228C72.4305 80.9126 72.83 81.1713 73.1709 81.499C73.514 81.828 73.7844 82.2104 73.9812 82.6468C74.1795 83.0832 74.2797 83.5487 74.2797 84.0433C74.2797 84.5394 74.1795 85.0056 73.9812 85.442C73.7844 85.8798 73.514 86.2615 73.1709 86.5898C72.83 86.9175 72.4305 87.1762 71.9722 87.366C71.5162 87.555 71.0305 87.6495 70.5129 87.6495C69.9967 87.6495 69.5103 87.555 69.0535 87.366C68.5968 87.1762 68.1973 86.9175 67.8564 86.5898C67.514 86.2615 67.2429 85.8798 67.0446 85.442C66.8478 85.0056 66.7476 84.5394 66.7476 84.0433Z" fill="#212C32"/>
<path d="M78.956 80.6696H79.6615V87.4186H78.956L75.6689 82.0192V87.4186H74.9634V80.6696H75.6689L78.956 86.0682V80.6696Z" fill="#212C32"/>
<path d="M81.8897 84.1215H83.4619L82.6755 81.779L81.8897 84.1215ZM85.3067 87.4186H84.5715L83.684 84.796H81.658L80.7802 87.4186H80.0449L82.3034 80.6696H83.0498L85.3067 87.4186Z" fill="#212C32"/>
<path d="M84.2178 81.3447V80.6696H88.9166V81.3447H86.9203V87.4186H86.2141V81.3447H84.2178Z" fill="#212C32"/>
<path d="M89.4204 80.6696H94.1178V81.3447H90.1267V84.1215H93.413V84.796H90.1267V86.7448H94.1178V87.4186H89.4204V80.6696Z" fill="#212C32"/>
<path d="M91.6648 61.1354H61.2695L62.841 59.967H90.0933L91.6648 61.1354Z" fill="#72422A"/>
<path d="M114.644 96.9258C114.644 96.9258 105.407 89.0397 93.9082 94.3942C93.9082 94.3942 86.3018 95.5868 84.5312 95.7673C84.5312 95.7673 74.2705 94.9848 73.0332 97.1859C73.0332 97.1859 71.7945 98.4809 72.5572 100.196C72.5572 100.196 64.8958 101.012 62.0655 101.374C62.0655 101.374 57.1111 101.012 54.1048 101.374C54.1048 101.374 46.3603 101.109 46.006 102.014C46.006 102.014 40.1686 105.088 49.1898 107.981C49.1898 107.981 56.7576 108.97 61.0042 110.235C61.0042 110.235 76.8194 113.852 81.9497 114.755C81.9497 114.755 83.366 115.84 88.1421 114.755C88.1421 114.755 105.584 111.321 111.775 111.321C111.775 111.321 143.565 110.776 147.156 110.776V92.3317C147.156 92.3317 131.357 95.9308 114.644 96.9258Z" fill="#F09D79"/>
<path d="M72.5571 100.196C72.5571 100.196 72.5854 100.304 72.6864 100.477C72.7866 100.652 72.9693 100.887 73.2523 101.131C73.5367 101.374 73.917 101.627 74.393 101.847C74.8743 102.056 75.432 102.261 76.07 102.403C76.7012 102.56 77.409 102.653 78.1539 102.747C78.5297 102.777 78.9151 102.806 79.311 102.836C79.7046 102.848 80.1264 102.877 80.5438 102.899C81.386 102.948 82.2564 102.982 83.1394 103.049C84.0217 103.112 84.9144 103.147 85.8086 103.197C86.705 103.26 87.6029 103.32 88.4852 103.381C88.9293 103.409 89.3675 103.444 89.8004 103.484C90.2386 103.537 90.6701 103.588 91.0957 103.641C91.3081 103.667 91.519 103.693 91.7269 103.718L92.0381 103.756L92.102 103.767L92.2141 103.79L92.3626 103.825C92.5609 103.868 92.7563 103.912 92.9494 103.956C93.1476 104.01 93.3489 104.076 93.5442 104.134C93.7292 104.192 93.9119 104.249 94.0923 104.306C94.2676 104.364 94.4392 104.418 94.6003 104.454C94.7637 104.494 94.9249 104.545 95.086 104.574C95.2479 104.594 95.4076 104.614 95.5643 104.633C95.6438 104.644 95.721 104.653 95.7975 104.662C95.8762 104.664 95.9542 104.661 96.0322 104.661C96.1874 104.661 96.3396 104.659 96.4867 104.659C96.7838 104.673 97.0697 104.635 97.337 104.609C97.6081 104.584 97.8606 104.56 98.0931 104.537C98.3278 104.511 98.5417 104.471 98.7355 104.443C99.5108 104.324 99.9624 104.266 99.9624 104.266C99.9624 104.266 99.542 104.422 98.7942 104.676C98.607 104.737 98.3998 104.814 98.1711 104.881C97.9379 104.938 97.6854 105 97.4165 105.068C97.1447 105.131 96.8588 105.211 96.5394 105.241C96.3812 105.261 96.2193 105.283 96.053 105.302C95.9683 105.312 95.8851 105.324 95.7975 105.332C95.7099 105.329 95.6215 105.329 95.5324 105.328C94.8127 105.373 94.0188 105.172 93.2992 105.008C93.1217 104.97 92.9427 104.93 92.7607 104.89C92.5654 104.863 92.3664 104.834 92.1658 104.805L92.0143 104.784L91.9393 104.773L91.9007 104.767C91.949 104.774 91.9089 104.769 91.917 104.771H91.9074L91.8881 104.769L91.5858 104.747C91.3816 104.732 91.1766 104.716 90.9694 104.702C90.5565 104.671 90.1376 104.641 89.7113 104.61C89.2783 104.595 88.8417 104.575 88.402 104.549C87.5182 104.503 86.6203 104.455 85.7232 104.406C84.8238 104.341 83.9192 104.292 83.0399 104.215C82.1576 104.143 81.2917 104.041 80.4539 103.96C80.0321 103.915 79.6288 103.879 79.2122 103.827C78.803 103.764 78.4019 103.7 78.0113 103.639C77.233 103.488 76.5029 103.306 75.8524 103.063C75.1951 102.847 74.6262 102.541 74.1502 102.245C73.6726 101.945 73.3176 101.598 73.0666 101.293C72.8111 100.987 72.6878 100.698 72.624 100.503C72.5601 100.305 72.5571 100.196 72.5571 100.196Z" fill="#DB8064"/>
<path d="M54.105 101.374C54.5491 101.317 54.9977 101.287 55.447 101.273C55.8963 101.259 56.3456 101.253 56.7964 101.263C57.6973 101.29 58.5974 101.371 59.4908 101.519C60.3843 101.664 61.2665 101.887 62.1266 102.189C62.5528 102.348 62.9732 102.527 63.3824 102.732C63.5822 102.839 63.7872 102.942 63.9803 103.063C64.18 103.176 64.3657 103.311 64.5543 103.44L64.2892 103.388C64.7719 103.278 65.2465 103.181 65.7278 103.092C66.2083 103.001 66.688 102.919 67.1723 102.848C67.655 102.778 68.1392 102.709 68.6249 102.656C69.1091 102.593 69.5971 102.559 70.0843 102.516C70.5722 102.487 71.0594 102.447 71.5481 102.441C72.036 102.424 72.5269 102.43 73.0156 102.435C73.5035 102.464 73.9922 102.475 74.4779 102.531C74.7208 102.556 74.9636 102.57 75.205 102.612L75.9246 102.729L75.1961 102.7C74.9547 102.683 74.7111 102.689 74.4697 102.685C73.9855 102.674 73.5013 102.706 73.0186 102.721C72.5358 102.758 72.0538 102.775 71.5726 102.827C71.0928 102.867 70.613 102.922 70.1325 102.976C69.1752 103.101 68.2209 103.236 67.271 103.404C66.3234 103.574 65.3698 103.75 64.4422 103.972L64.3004 104.006L64.1771 103.921C63.8273 103.681 63.4671 103.456 63.0868 103.257C62.7051 103.061 62.31 102.887 61.906 102.73C61.4997 102.576 61.0876 102.435 60.6687 102.312C60.2469 102.194 59.8213 102.089 59.3906 101.991C58.5305 101.808 57.6557 101.665 56.7734 101.567C56.3322 101.514 55.8881 101.469 55.444 101.438C54.9984 101.41 54.5521 101.385 54.105 101.374Z" fill="#DB8064"/>
<path d="M51.1365 101.352C50.5646 101.575 50.0269 101.873 49.562 102.245C49.3303 102.432 49.1194 102.64 48.953 102.875C48.7852 103.107 48.6656 103.367 48.6173 103.636C48.5936 103.77 48.5869 103.906 48.5921 104.041L48.6158 104.244L48.6656 104.443C48.7102 104.573 48.7518 104.704 48.8208 104.828C48.8795 104.953 48.9567 105.071 49.0362 105.19C49.1127 105.31 49.2092 105.418 49.2954 105.531C49.3942 105.637 49.4885 105.747 49.591 105.849C49.7974 106.055 50.018 106.25 50.2445 106.438L50.1584 106.391C51.995 106.949 53.8309 107.516 55.6601 108.093C57.4945 108.661 59.32 109.253 61.1484 109.836L61.1031 109.824C62.6189 110.136 64.1295 110.471 65.643 110.795C67.1566 111.122 68.6702 111.448 70.18 111.789L74.711 112.803L79.2361 113.842L79.124 113.832C79.7634 113.804 80.4125 113.768 81.0564 113.72C81.701 113.68 82.3464 113.625 82.9918 113.568C83.635 113.513 84.2803 113.452 84.9242 113.385C85.5674 113.32 86.2128 113.262 86.8552 113.176L88.7846 112.944L90.7074 112.665L91.6707 112.529L92.6287 112.363L94.5492 112.044L92.6606 112.515L91.7145 112.743L90.7616 112.943L88.8515 113.329L86.9287 113.658C86.2878 113.772 85.6439 113.859 84.9992 113.953C84.3554 114.047 83.71 114.138 83.0638 114.208C82.417 114.287 81.7694 114.361 81.1203 114.424C80.4704 114.491 79.8243 114.548 79.1671 114.597L79.118 114.6L79.0571 114.588L74.5098 113.638L69.9706 112.662C68.4555 112.339 66.9449 112.004 65.4351 111.665C63.9245 111.326 62.4124 111 60.9041 110.646L60.8766 110.641L60.8588 110.634C59.0452 110.012 57.2264 109.4 55.418 108.763C53.6058 108.135 51.7982 107.494 49.9935 106.848L49.9378 106.828L49.9074 106.801C49.6786 106.59 49.4536 106.376 49.2471 106.142C49.1446 106.026 49.0503 105.902 48.9515 105.781C48.8639 105.651 48.7681 105.528 48.6909 105.391C48.6114 105.255 48.5356 105.12 48.4755 104.972C48.4079 104.83 48.3671 104.675 48.3255 104.523L48.2839 104.289L48.2705 104.05C48.2727 103.889 48.2898 103.73 48.3314 103.577C48.4116 103.268 48.5713 102.986 48.7711 102.746C48.9708 102.506 49.2092 102.302 49.4632 102.125C49.9764 101.777 50.5468 101.527 51.1365 101.352Z" fill="#DB8064"/>
<path d="M79.5303 96.9259C79.5303 96.9259 79.9283 100.769 78.7341 101.938C77.5392 103.107 73.3372 101.192 74.0464 98.2087C74.0464 98.2087 74.5759 96.0041 79.5303 96.9259Z" fill="#EBBAA4"/>
<mask id="mask0_3271_4813" style="mask-type:luminance" maskUnits="userSpaceOnUse" x="121" y="87" width="33" height="31">
<path d="M121.679 87.7611H154V117.221H121.679V87.7611Z" fill="white"/>
</mask>
<g mask="url(#mask0_3271_4813)">
<path d="M121.797 92.5706V117.164H163.211V87.8684L121.797 92.5706Z" fill="#293066"/>
</g>
<path d="M81.6835 61.0722C82.9014 59.6976 83.6367 57.918 83.6367 55.9763C83.6367 51.6175 79.9426 48.0845 75.3849 48.0845C70.8278 48.0845 67.1323 51.6175 67.1323 55.9763C67.1323 57.918 67.8691 59.6976 69.0855 61.0722H81.6835Z" fill="#E8821D"/>
<path d="M81.1781 61.0721C82.4681 59.7303 83.2575 57.9421 83.2575 55.9763C83.2575 51.8178 79.7328 48.4469 75.3845 48.4469C71.0369 48.4469 67.5122 51.8178 67.5122 55.9763C67.5122 57.9421 68.3002 59.7303 69.5902 61.0721H81.1781Z" fill="#EAA131"/>
<path d="M71.673 61.0721H79.0974C80.7788 59.9492 81.8832 58.0864 81.8832 55.9763C81.8832 52.5435 78.9741 49.7617 75.3848 49.7617C71.7962 49.7617 68.8872 52.5435 68.8872 55.9763C68.8872 58.0864 69.9901 59.9492 71.673 61.0721Z" fill="#B2651D"/>
<path d="M71.6753 61.0721H79.0975C80.7789 59.9492 81.8833 58.0864 81.8833 55.9763C81.8833 55.891 81.8803 55.8078 81.8766 55.7225C81.4674 52.6671 78.7395 50.3054 75.4339 50.3054C71.8446 50.3054 68.9355 53.0879 68.9355 56.52C68.9355 56.6045 68.9385 56.6898 68.943 56.773C69.1799 58.5526 70.2092 60.0928 71.6753 61.0721Z" fill="#E8821D"/>
<path d="M55.6087 20.613C55.6087 20.613 50.5689 18.6855 52.7873 15.3117C52.7873 15.3117 59.0413 16.5654 60.5504 16.3714C62.0588 16.1788 80.2096 16.5654 82.044 15.9869C83.8777 15.4069 76.7748 19.3593 76.7748 19.3593L55.6087 20.613Z" fill="#BC5E4E"/>
<path d="M71.4017 24.7294C71.4017 24.7294 66.0582 25.6825 61.0511 24.082C61.0511 24.082 57.4239 25.4807 51.9801 24.082C51.9801 24.082 42.1814 26.9746 42.2437 20.8056C42.2437 20.8056 40.4391 19.4559 51.9296 19.2626C51.9296 19.2626 60.1139 18.107 63.1031 18.2988C66.0916 18.4915 71.3727 19.2626 77.2978 18.8774C83.2257 18.4915 71.4017 24.7294 71.4017 24.7294Z" fill="#CF6C54"/>
<path d="M75.5651 27.8047C75.5651 27.8047 71.2011 28.2702 66.731 30.0044C66.731 30.0044 60.8505 33.2815 57.4239 33.6674C57.4239 33.6674 46.9396 41.7647 42.7071 35.209C42.7071 35.209 39.8857 34.6852 48.1509 31.9603C48.1509 31.9603 57.1602 27.3058 58.8023 26.1494C60.4465 24.9924 74.5981 20.5582 77.2977 19.4019L75.5651 27.8047Z" fill="#E37E5F"/>
<path d="M71.3326 40.4805C71.3326 40.4805 72.9449 39.44 73.5843 35.6007C73.5843 35.6007 79.4618 30.3797 85.3126 29.1253C85.3126 29.1253 87.4559 30.4515 88.4667 34.428C88.4667 34.428 88.9598 37.9446 84.7786 41.8323C84.7786 41.8323 78.1428 47.1428 80.5639 50.4C80.5639 50.4 81.7374 52.756 86.7259 48.5635C86.7259 48.5635 90.2134 45.2245 92.4318 43.297C94.6472 41.3689 100.361 37.2566 102.577 34.1714C104.794 31.0869 108.624 28.3236 110.843 24.4679C110.843 24.4679 113.665 22.9257 117.091 22.5405C120.517 22.156 134.024 21.77 139.065 20.9975C144.103 20.2271 132.716 3.98425 132.716 3.98425C132.716 3.98425 102.881 9.63875 93.2064 12.7233C93.2064 12.7233 76.8097 17.0935 74.9286 18.8923C74.9286 18.8923 71.2702 20.6912 71.3519 23.5184C71.3519 23.5184 67.4023 32.0016 66.0581 34.5708C66.0581 34.5708 64.9842 36.1138 64.7154 38.6838L63.103 55.891C63.103 55.891 68.4777 57.434 69.5539 47.4079C69.5539 47.4079 70.9285 45.2245 71.3326 40.4805Z" fill="#F09D79"/>
<path d="M63.103 55.891L63.6251 50.3069C64.5557 50.4782 65.4863 51.3275 65.4863 51.3275C65.0206 53.5257 64.0536 55.3061 63.5345 55.9614C63.2657 55.9365 63.103 55.891 63.103 55.891Z" fill="#EBBAA4"/>
<path d="M80.8633 50.7326C80.9524 49.9224 81.6579 48.513 84.8113 46.7646C84.8113 46.7646 86.4014 47.2081 87.4463 47.9046C87.0007 48.3119 86.7259 48.5635 86.7259 48.5635C83.066 51.6388 81.4596 51.1903 80.8633 50.7326Z" fill="#EBBAA4"/>
<path d="M42.4576 35.1216C42.0165 34.8907 41.6667 34.1309 47.8234 32.0691C48.5921 32.2517 49.2471 32.6355 48.4517 33.2908C47.3437 34.2062 42.4591 35.1202 42.4576 35.1216Z" fill="#E8A086"/>
<path d="M44.0277 20.8119C43.3607 20.8119 42.7131 20.7892 42.1777 20.7281C42.0276 20.4878 42.0678 19.7359 47.9155 19.4019C48.1554 19.7345 48.4005 20.2178 48.1829 20.6129C48.1829 20.6129 46.0136 20.8119 44.0277 20.8119Z" fill="#D98872"/>
<mask id="mask1_3271_4813" style="mask-type:luminance" maskUnits="userSpaceOnUse" x="111" y="0" width="43" height="27">
<path d="M111.792 0.003479H154V26.9917H111.792V0.003479Z" fill="white"/>
</mask>
<g mask="url(#mask1_3271_4813)">
<path d="M159.402 0.0262146V25.8417L116.211 26.8843L111.91 5.01476L159.402 0.0262146Z" fill="#293066"/>
</g>
<mask id="mask2_3271_4813" style="mask-type:luminance" maskUnits="userSpaceOnUse" x="108" y="32" width="14" height="18">
<path d="M108.75 32.8139H121.869V49.8684H108.75V32.8139Z" fill="white"/>
</mask>
<g mask="url(#mask2_3271_4813)">
<path d="M114.886 38.7477C115.801 37.8892 116.307 36.6383 117.392 35.9837C118.538 35.3036 120.2 35.5502 121.072 36.5452C122.04 37.6504 121.952 39.2921 121.462 40.6617C120.592 43.1108 118.663 45.1101 116.432 46.5727C114.201 48.0354 111.66 48.997 109.127 49.8897C109.864 47.7042 110.069 45.3567 109.731 43.0852C109.536 41.742 109.153 40.4236 108.931 39.0796C108.549 36.7662 108.815 32.8111 112.184 32.8793C113.544 32.9049 114.824 33.8999 115.126 35.1756C115.41 36.3412 114.93 37.5487 114.886 38.7477Z" fill="#F64C4C"/>
</g>
<path d="M118.547 42.7796C118.459 42.7796 118.361 42.754 118.281 42.6943C118.085 42.5586 118.041 42.2864 118.183 42.0988C118.468 41.7335 118.708 41.3504 118.921 40.968C119.036 40.7548 119.302 40.6787 119.516 40.7804C119.738 40.8912 119.819 41.1464 119.712 41.3504C119.481 41.7761 119.214 42.1926 118.903 42.592C118.823 42.7199 118.681 42.7796 118.547 42.7796Z" fill="white"/>
<path d="M119.783 40.5337C119.738 40.5337 119.685 40.5252 119.64 40.5081C119.409 40.4321 119.284 40.194 119.365 39.9722C119.622 39.2409 119.729 38.3227 119.374 37.914C119.293 37.8209 119.089 37.7271 118.858 37.7271C118.742 37.7271 118.636 37.7527 118.565 37.7953C118.361 37.9225 118.085 37.855 117.951 37.6588C117.818 37.4634 117.89 37.1997 118.094 37.0725C118.307 36.9446 118.574 36.8763 118.849 36.8763C119.32 36.8763 119.783 37.064 120.049 37.3703C120.823 38.2544 120.361 39.7939 120.2 40.253C120.147 40.4235 119.969 40.5337 119.783 40.5337Z" fill="white"/>
<mask id="mask3_3271_4813" style="mask-type:luminance" maskUnits="userSpaceOnUse" x="132" y="51" width="14" height="15">
<path d="M132.516 51.3723H145.635V65.5639H132.516V51.3723Z" fill="white"/>
</mask>
<g mask="url(#mask3_3271_4813)">
<mask id="mask4_3271_4813" style="mask-type:luminance" maskUnits="userSpaceOnUse" x="127" y="49" width="21" height="20">
<path d="M135.521 49.8904L147.066 56.6721L139.382 68.6506L127.837 61.8689L135.521 49.8904Z" fill="white"/>
</mask>
<g mask="url(#mask4_3271_4813)">
<mask id="mask5_3271_4813" style="mask-type:luminance" maskUnits="userSpaceOnUse" x="127" y="49" width="21" height="20">
<path d="M135.521 49.8904L147.066 56.6721L139.382 68.6506L127.837 61.8689L135.521 49.8904Z" fill="white"/>
</mask>
<g mask="url(#mask5_3271_4813)">
<path d="M139.562 57.3835L139.564 57.3928C140.27 56.7147 140.999 56.026 141.91 55.6472C142.822 55.2677 143.98 55.2684 144.729 55.8946C145.231 56.311 145.483 56.9606 145.506 57.5975C145.529 58.2343 145.335 58.8654 145.073 59.4467C144.475 60.7474 143.482 61.8724 142.247 62.6521C139.81 64.183 136.679 64.2782 134.034 65.4602C133.855 64.0522 133.443 62.677 133.103 61.2953C132.756 59.9101 132.477 58.4994 132.551 57.0779C132.666 54.8548 133.969 52.3097 136.368 51.6295C137.274 51.3772 138.37 51.5677 138.928 52.2926C139.43 52.9351 139.405 53.8029 139.407 54.6053C139.403 55.5342 139.451 56.461 139.562 57.3835Z" fill="#F64C4C"/>
</g>
</g>
</g>
<mask id="mask6_3271_4813" style="mask-type:luminance" maskUnits="userSpaceOnUse" x="139" y="61" width="3" height="2">
<path d="M139.551 61.3792H141.262V62.6528H139.551V61.3792Z" fill="white"/>
</mask>
<g mask="url(#mask6_3271_4813)">
<mask id="mask7_3271_4813" style="mask-type:luminance" maskUnits="userSpaceOnUse" x="127" y="49" width="21" height="20">
<path d="M135.521 49.8904L147.066 56.6721L139.382 68.6505L127.837 61.8688L135.521 49.8904Z" fill="white"/>
</mask>
<g mask="url(#mask7_3271_4813)">
<mask id="mask8_3271_4813" style="mask-type:luminance" maskUnits="userSpaceOnUse" x="127" y="49" width="21" height="20">
<path d="M135.521 49.8904L147.066 56.6721L139.382 68.6505L127.837 61.8688L135.521 49.8904Z" fill="white"/>
</mask>
<g mask="url(#mask8_3271_4813)">
<path d="M139.785 62.5085C139.723 62.4722 139.666 62.4154 139.638 62.3415C139.567 62.1624 139.659 61.9655 139.84 61.8937C140.128 61.7878 140.384 61.6791 140.628 61.5632C140.804 61.4722 141.021 61.5433 141.115 61.7125C141.211 61.8809 141.136 62.0884 140.959 62.1794C140.699 62.3095 140.42 62.4282 140.111 62.539C139.991 62.5817 139.877 62.5625 139.785 62.5085Z" fill="white"/>
</g>
</g>
</g>
<mask id="mask9_3271_4813" style="mask-type:luminance" maskUnits="userSpaceOnUse" x="141" y="56" width="4" height="6">
<path d="M141.452 56.4667H144.494V61.5611H141.452V56.4667Z" fill="white"/>
</mask>
<g mask="url(#mask9_3271_4813)">
<mask id="mask10_3271_4813" style="mask-type:luminance" maskUnits="userSpaceOnUse" x="127" y="49" width="21" height="20">
<path d="M135.521 49.8904L147.065 56.6721L139.382 68.6506L127.837 61.8689L135.521 49.8904Z" fill="white"/>
</mask>
<g mask="url(#mask10_3271_4813)">
<mask id="mask11_3271_4813" style="mask-type:luminance" maskUnits="userSpaceOnUse" x="127" y="49" width="21" height="20">
<path d="M135.521 49.8904L147.065 56.6721L139.382 68.6506L127.837 61.8689L135.521 49.8904Z" fill="white"/>
</mask>
<g mask="url(#mask11_3271_4813)">
<path d="M141.701 61.4979C141.664 61.4765 141.631 61.4488 141.608 61.419C141.486 61.2662 141.512 61.0551 141.665 60.9343C142.433 60.3572 143.035 59.6024 143.423 58.7616C143.621 58.3195 143.715 57.962 143.707 57.6578C143.699 57.434 143.618 57.257 143.549 57.1923C143.543 57.1888 143.531 57.1817 143.524 57.1781C143.353 57.0772 143.3 56.8682 143.406 56.7041C143.512 56.5392 143.729 56.4894 143.902 56.5903C143.945 56.6159 143.984 56.6465 144.023 56.6778C144.267 56.8775 144.415 57.2399 144.431 57.6379C144.449 58.0452 144.332 58.5029 144.089 59.0402C143.66 59.9862 142.975 60.8298 142.121 61.4773C141.996 61.5661 141.824 61.5704 141.701 61.4979Z" fill="white"/>
</g>
</g>
</g>
</g>
<defs>
<clipPath id="clip0_3271_4813">
<rect width="154" height="121" fill="white"/>
</clipPath>
</defs>
</svg>
