<svg width="11" height="12" viewBox="0 0 11 12" fill="none" xmlns="http://www.w3.org/2000/svg">
<path d="M5.31151 1.31579C4.73019 1.31579 4.15455 1.43029 3.61747 1.65275C3.08039 1.87522 2.59239 2.20129 2.18133 2.61235C1.35115 3.44253 0.884766 4.56849 0.884766 5.74254C0.884766 6.91658 1.35115 8.04254 2.18133 8.87272C2.59239 9.28378 3.08039 9.60985 3.61747 9.83232C4.15455 10.0548 4.73019 10.1693 5.31151 10.1693C6.48556 10.1693 7.61152 9.7029 8.4417 8.87272C9.27187 8.04254 9.73826 6.91658 9.73826 5.74254C9.73826 5.16121 9.62376 4.58557 9.4013 4.04849C9.17883 3.51142 8.85276 3.02341 8.4417 2.61235C8.03064 2.20129 7.54264 1.87522 7.00556 1.65275C6.46848 1.43029 5.89284 1.31579 5.31151 1.31579ZM7.17075 7.60177L4.86884 6.18521V3.52916H5.53285V5.83107L7.52489 7.02629L7.17075 7.60177Z" fill="#293066"/>
</svg>
