<svg width="8" height="8" viewBox="0 0 8 8" fill="none" xmlns="http://www.w3.org/2000/svg">
<path d="M0 7.25C0 7.66406 0.383929 8 0.857143 8H7.14286C7.61607 8 8 7.66406 8 7.25V3H0V7.25ZM5.71429 4.1875C5.71429 4.08437 5.81071 4 5.92857 4H6.64286C6.76071 4 6.85714 4.08437 6.85714 4.1875V4.8125C6.85714 4.91563 6.76071 5 6.64286 5H5.92857C5.81071 5 5.71429 4.91563 5.71429 4.8125V4.1875ZM5.71429 6.1875C5.71429 6.08437 5.81071 6 5.92857 6H6.64286C6.76071 6 6.85714 6.08437 6.85714 6.1875V6.8125C6.85714 6.91563 6.76071 7 6.64286 7H5.92857C5.81071 7 5.71429 6.91563 5.71429 6.8125V6.1875ZM3.42857 4.1875C3.42857 4.08437 3.525 4 3.64286 4H4.35714C4.475 4 4.57143 4.08437 4.57143 4.1875V4.8125C4.57143 4.91563 4.475 5 4.35714 5H3.64286C3.525 5 3.42857 4.91563 3.42857 4.8125V4.1875ZM3.42857 6.1875C3.42857 6.08437 3.525 6 3.64286 6H4.35714C4.475 6 4.57143 6.08437 4.57143 6.1875V6.8125C4.57143 6.91563 4.475 7 4.35714 7H3.64286C3.525 7 3.42857 6.91563 3.42857 6.8125V6.1875ZM1.14286 4.1875C1.14286 4.08437 1.23929 4 1.35714 4H2.07143C2.18929 4 2.28571 4.08437 2.28571 4.1875V4.8125C2.28571 4.91563 2.18929 5 2.07143 5H1.35714C1.23929 5 1.14286 4.91563 1.14286 4.8125V4.1875ZM1.14286 6.1875C1.14286 6.08437 1.23929 6 1.35714 6H2.07143C2.18929 6 2.28571 6.08437 2.28571 6.1875V6.8125C2.28571 6.91563 2.18929 7 2.07143 7H1.35714C1.23929 7 1.14286 6.91563 1.14286 6.8125V6.1875ZM7.14286 1H6.28571V0.25C6.28571 0.1125 6.15714 0 6 0H5.42857C5.27143 0 5.14286 0.1125 5.14286 0.25V1H2.85714V0.25C2.85714 0.1125 2.72857 0 2.57143 0H2C1.84286 0 1.71429 0.1125 1.71429 0.25V1H0.857143C0.383929 1 0 1.33594 0 1.75V2.5H8V1.75C8 1.33594 7.61607 1 7.14286 1Z" fill="black"/>
</svg>
