<svg width="20" height="20" viewBox="0 0 20 20" fill="none" xmlns="http://www.w3.org/2000/svg">
<g clip-path="url(#clip0_1679_12645)">
<path d="M18.3334 10C18.3334 14.6024 14.6025 18.3333 10.0001 18.3333M18.3334 10C18.3334 5.39763 14.6025 1.66667 10.0001 1.66667M18.3334 10C18.3334 8.61929 14.6025 7.50001 10.0001 7.5C5.39771 7.5 1.66675 8.61929 1.66675 10M18.3334 10C18.3334 11.3807 14.6025 12.5 10.0001 12.5C5.39771 12.5 1.66675 11.3807 1.66675 10M10.0001 18.3333C5.39771 18.3333 1.66675 14.6024 1.66675 10M10.0001 18.3333C11.841 18.3333 13.3334 14.6024 13.3334 10C13.3334 5.39763 11.841 1.66667 10.0001 1.66667M10.0001 18.3333C8.15913 18.3333 6.66675 14.6024 6.66675 10C6.66675 5.39763 8.15913 1.66667 10.0001 1.66667M1.66675 10C1.66675 5.39763 5.39771 1.66667 10.0001 1.66667" stroke="#28303F" stroke-width="1.5"/>
</g>
<defs>
<clipPath id="clip0_1679_12645">
<rect width="20" height="20" fill="white"/>
</clipPath>
</defs>
</svg>
