<svg width="14" height="14" viewBox="0 0 14 14" fill="none" xmlns="http://www.w3.org/2000/svg">
<g filter="url(#filter0_d_482_195)">
<path fill-rule="evenodd" clip-rule="evenodd" d="M5.479 2.16337V1.66819C5.479 1.23682 5.65679 0.823109 5.97326 0.51808C6.28973 0.213051 6.71895 0.041687 7.1665 0.041687C7.61406 0.041687 8.04328 0.213051 8.35975 0.51808C8.67621 0.823109 8.854 1.23682 8.854 1.66819V2.16337C9.13275 2.18337 9.314 2.23398 9.44675 2.36193C9.6665 2.57349 9.6665 2.91446 9.6665 3.5959C9.6665 4.27735 9.6665 4.61831 9.44675 4.82988C9.22725 5.04169 8.8735 5.04169 8.1665 5.04169H6.1665C5.4595 5.04169 5.10575 5.04169 4.88625 4.82988C4.6665 4.61831 4.6665 4.27735 4.6665 3.5959C4.6665 2.91446 4.6665 2.57349 4.88625 2.36193C5.01875 2.23398 5.20025 2.18337 5.479 2.16337ZM5.854 1.66819C5.854 1.33268 5.99228 1.01091 6.23843 0.77366C6.48457 0.536416 6.81841 0.403133 7.1665 0.403133C7.5146 0.403133 7.84844 0.536416 8.09458 0.77366C8.34072 1.01091 8.479 1.33268 8.479 1.66819V2.15108C8.38325 2.15012 8.27925 2.15012 8.1665 2.15012H6.1665C6.0535 2.15012 5.94975 2.15012 5.854 2.15108V1.66819ZM6.1665 3.83687C6.23281 3.83687 6.2964 3.81148 6.34328 3.76629C6.39016 3.7211 6.4165 3.65981 6.4165 3.5959C6.4165 3.532 6.39016 3.47071 6.34328 3.42552C6.2964 3.38033 6.23281 3.35494 6.1665 3.35494C6.1002 3.35494 6.03661 3.38033 5.98973 3.42552C5.94284 3.47071 5.9165 3.532 5.9165 3.5959C5.9165 3.65981 5.94284 3.7211 5.98973 3.76629C6.03661 3.81148 6.1002 3.83687 6.1665 3.83687ZM7.1665 3.83687C7.23281 3.83687 7.2964 3.81148 7.34328 3.76629C7.39016 3.7211 7.4165 3.65981 7.4165 3.5959C7.4165 3.532 7.39016 3.47071 7.34328 3.42552C7.2964 3.38033 7.23281 3.35494 7.1665 3.35494C7.1002 3.35494 7.03661 3.38033 6.98973 3.42552C6.94284 3.47071 6.9165 3.532 6.9165 3.5959C6.9165 3.65981 6.94284 3.7211 6.98973 3.76629C7.03661 3.81148 7.1002 3.83687 7.1665 3.83687ZM8.4165 3.5959C8.4165 3.65981 8.39016 3.7211 8.34328 3.76629C8.2964 3.81148 8.23281 3.83687 8.1665 3.83687C8.1002 3.83687 8.03661 3.81148 7.98973 3.76629C7.94284 3.7211 7.9165 3.65981 7.9165 3.5959C7.9165 3.532 7.94284 3.47071 7.98973 3.42552C8.03661 3.38033 8.1002 3.35494 8.1665 3.35494C8.23281 3.35494 8.2964 3.38033 8.34328 3.42552C8.39016 3.47071 8.4165 3.532 8.4165 3.5959Z" fill="#293066"/>
</g>
<defs>
<filter id="filter0_d_482_195" x="0.666504" y="0.041687" width="13" height="13" filterUnits="userSpaceOnUse" color-interpolation-filters="sRGB">
<feFlood flood-opacity="0" result="BackgroundImageFix"/>
<feColorMatrix in="SourceAlpha" type="matrix" values="0 0 0 0 0 0 0 0 0 0 0 0 0 0 0 0 0 0 127 0" result="hardAlpha"/>
<feOffset dy="4"/>
<feGaussianBlur stdDeviation="2"/>
<feComposite in2="hardAlpha" operator="out"/>
<feColorMatrix type="matrix" values="0 0 0 0 0 0 0 0 0 0 0 0 0 0 0 0 0 0 0.25 0"/>
<feBlend mode="normal" in2="BackgroundImageFix" result="effect1_dropShadow_482_195"/>
<feBlend mode="normal" in="SourceGraphic" in2="effect1_dropShadow_482_195" result="shape"/>
</filter>
</defs>
</svg>
