<svg width="9" height="11" viewBox="0 0 9 11" fill="none" xmlns="http://www.w3.org/2000/svg">
<path fill-rule="evenodd" clip-rule="evenodd" d="M4.75601 10.0744L4.75712 10.0738L4.75989 10.0719L4.76823 10.0655L4.80101 10.0419C4.82878 10.0213 4.86934 9.99132 4.92045 9.95187C5.02268 9.87354 5.16768 9.75826 5.34074 9.6102C5.79503 9.2219 6.21982 8.80035 6.6116 8.34906C7.53051 7.28626 8.48497 5.76928 8.48497 4.03508C8.48497 2.99895 8.07552 2.00448 7.34661 1.27113C6.98634 0.908181 6.55784 0.620061 6.08577 0.42336C5.61371 0.226659 5.10741 0.125261 4.596 0.125C4.08462 0.125224 3.57832 0.226579 3.10626 0.423232C2.6342 0.619885 2.20569 0.907953 1.84539 1.27086C1.11577 2.00588 0.706542 2.99969 0.707032 4.03536C0.707032 5.76928 1.6615 7.28626 2.5804 8.34906C2.97218 8.80035 3.39697 9.2219 3.85126 9.6102C4.0246 9.75826 4.16933 9.87354 4.27155 9.95187C4.32169 9.99051 4.37234 10.0285 4.4235 10.0658L4.43239 10.0719L4.43489 10.0738L4.436 10.0744C4.53183 10.1419 4.66017 10.1419 4.75601 10.0744ZM5.98492 4.01397C5.98492 4.38233 5.83859 4.73561 5.57811 4.99608C5.31764 5.25656 4.96437 5.40289 4.596 5.40289C4.22764 5.40289 3.87436 5.25656 3.61389 4.99608C3.35342 4.73561 3.20708 4.38233 3.20708 4.01397C3.20708 3.64561 3.35342 3.29233 3.61389 3.03186C3.87436 2.77138 4.22764 2.62505 4.596 2.62505C4.96437 2.62505 5.31764 2.77138 5.57811 3.03186C5.83859 3.29233 5.98492 3.64561 5.98492 4.01397Z" fill="#293066"/>
</svg>
