<svg width="66" height="65" viewBox="0 0 66 65" fill="none" xmlns="http://www.w3.org/2000/svg">
<path d="M33.0001 5.41667C47.9582 5.41667 60.0834 17.5419 60.0834 32.5C60.0834 47.4581 47.9582 59.5833 33.0001 59.5833C18.042 59.5833 5.91675 47.4581 5.91675 32.5C5.91675 17.5419 18.042 5.41667 33.0001 5.41667ZM33.0001 40.625C32.2818 40.625 31.5929 40.9103 31.085 41.4183C30.5771 41.9262 30.2917 42.615 30.2917 43.3333C30.2917 44.0516 30.5771 44.7405 31.085 45.2484C31.5929 45.7563 32.2818 46.0417 33.0001 46.0417C33.7184 46.0417 34.4073 45.7563 34.9152 45.2484C35.4231 44.7405 35.7084 44.0516 35.7084 43.3333C35.7084 42.615 35.4231 41.9262 34.9152 41.4183C34.4073 40.9103 33.7184 40.625 33.0001 40.625ZM33.0001 16.25C32.3367 16.2501 31.6965 16.4936 31.2007 16.9344C30.705 17.3752 30.3883 17.9827 30.3107 18.6415L30.2917 18.9583V35.2083C30.2925 35.8986 30.5568 36.5626 31.0307 37.0645C31.5046 37.5665 32.1522 37.8686 32.8414 37.909C33.5305 37.9495 34.209 37.7253 34.7384 37.2822C35.2677 36.8391 35.6079 36.2107 35.6895 35.5252L35.7084 35.2083V18.9583C35.7084 18.24 35.4231 17.5512 34.9152 17.0433C34.4073 16.5353 33.7184 16.25 33.0001 16.25Z" fill="#293066"/>
</svg>
