<?xml version="1.0" encoding="utf-8"?>
<!-- Generator: Adobe Illustrator 27.6.1, SVG Export Plug-In . SVG Version: 6.00 Build 0)  -->
<svg version="1.1" id="Layer_1" xmlns="http://www.w3.org/2000/svg" xmlns:xlink="http://www.w3.org/1999/xlink" x="0px" y="0px"
	 viewBox="0 0 24 24" style="enable-background:new 0 0 24 24;" xml:space="preserve">
<style type="text/css">
	.st0{fill-rule:evenodd;clip-rule:evenodd;fill:#293066;}
</style>
<path class="st0" d="M10,2h4c1.1,0,2,0.9,2,2s-0.9,2-2,2h-4C8.9,6,8,5.1,8,4S8.9,2,10,2z M6.5,4c0,0.1,0,0.1,0,0.2
	C6.5,6,8,7.5,9.8,7.5h4.5c1.8,0,3.2-1.5,3.2-3.2c0-0.1,0-0.1,0-0.2C19.5,4.3,21,6,21,8v10c0,2.2-1.8,4-4,4H7c-2.2,0-4-1.8-4-4V8
	C3,6,4.5,4.3,6.5,4z M7.2,10c0-0.4,0.3-0.7,0.8-0.7h8c0.4,0,0.8,0.3,0.8,0.7c0,0.4-0.3,0.8-0.8,0.8H8C7.6,10.8,7.2,10.4,7.2,10z
	 M8,13.3c-0.4,0-0.8,0.3-0.8,0.8c0,0.4,0.3,0.8,0.8,0.8h8c0.4,0,0.8-0.3,0.8-0.8c0-0.4-0.3-0.8-0.8-0.8H8z M7.2,18
	c0-0.4,0.3-0.8,0.8-0.8h4c0.4,0,0.8,0.3,0.8,0.8c0,0.4-0.3,0.8-0.8,0.8H8C7.6,18.8,7.2,18.4,7.2,18z"/>
</svg>
