<svg width="10" height="10" viewBox="0 0 10 10" fill="none" xmlns="http://www.w3.org/2000/svg">
<path d="M6.65237 4.24296C7.08274 4.24296 7.43203 4.62136 7.43203 5.08759V7.37968C7.43203 7.95583 7.22076 8.50839 6.84469 8.91579C6.46863 9.32319 5.95858 9.55206 5.42674 9.55206C4.89491 9.55206 4.38486 9.32319 4.0088 8.91579C3.63273 8.50839 3.42146 7.95583 3.42146 7.37968V5.08759C3.42146 4.62136 3.7703 4.24296 4.20112 4.24296H6.65237ZM3.25617 4.24296C3.09571 4.45217 2.99919 4.7102 2.97995 4.98141L2.9755 5.08759V7.37968C2.9755 7.78848 3.06104 8.17556 3.2134 8.52113C2.94934 8.59767 2.67256 8.60738 2.40447 8.54952C2.13639 8.49166 1.88417 8.36778 1.66734 8.18746C1.4505 8.00715 1.27486 7.77522 1.15398 7.50961C1.03309 7.24401 0.97022 6.95184 0.970215 6.65571V5.08759C0.970222 4.87562 1.0438 4.6714 1.17635 4.51547C1.30889 4.35954 1.49071 4.2633 1.68572 4.24586L1.74987 4.24296H3.25617ZM7.59731 4.24296H9.10094C9.53131 4.24296 9.8806 4.62136 9.8806 5.08759V6.65619C9.88066 6.95213 9.81792 7.24413 9.69722 7.50961C9.57652 7.7751 9.4011 8.00698 9.1845 8.18732C8.96791 8.36766 8.71594 8.49165 8.44807 8.5497C8.1802 8.60775 7.9036 8.5983 7.63964 8.5221C7.77329 8.219 7.85527 7.88501 7.87354 7.53171L7.87754 7.37968V5.08759C7.87754 4.76663 7.77285 4.47222 7.59731 4.24296ZM5.42541 0.864441C5.77988 0.864441 6.11984 1.01699 6.3705 1.28853C6.62115 1.56007 6.76196 1.92836 6.76196 2.31238C6.76196 2.6964 6.62115 3.06468 6.3705 3.33622C6.11984 3.60777 5.77988 3.76032 5.42541 3.76032C5.07093 3.76032 4.73097 3.60777 4.48032 3.33622C4.22966 3.06468 4.08885 2.6964 4.08885 2.31238C4.08885 1.92836 4.22966 1.56007 4.48032 1.28853C4.73097 1.01699 5.07093 0.864441 5.42541 0.864441ZM8.32128 1.34709C8.61668 1.34709 8.89998 1.47421 9.10886 1.7005C9.31773 1.92678 9.43508 2.23369 9.43508 2.5537C9.43508 2.87372 9.31773 3.18062 9.10886 3.40691C8.89998 3.63319 8.61668 3.76032 8.32128 3.76032C8.02588 3.76032 7.74259 3.63319 7.53371 3.40691C7.32483 3.18062 7.20748 2.87372 7.20748 2.5537C7.20748 2.23369 7.32483 1.92678 7.53371 1.7005C7.74259 1.47421 8.02588 1.34709 8.32128 1.34709ZM2.52953 1.34709C2.82493 1.34709 3.10823 1.47421 3.31711 1.7005C3.52598 1.92678 3.64333 2.23369 3.64333 2.5537C3.64333 2.87372 3.52598 3.18062 3.31711 3.40691C3.10823 3.63319 2.82493 3.76032 2.52953 3.76032C2.23413 3.76032 1.95084 3.63319 1.74196 3.40691C1.53308 3.18062 1.41573 2.87372 1.41573 2.5537C1.41573 2.23369 1.53308 1.92678 1.74196 1.7005C1.95084 1.47421 2.23413 1.34709 2.52953 1.34709Z" fill="#293066"/>
</svg>
