<svg width="20" height="20" viewBox="0 0 20 20" fill="none" xmlns="http://www.w3.org/2000/svg">
<path d="M7.45869 17.2059C5.14417 16.663 3.33698 14.8558 2.79406 12.5413C2.40198 10.8698 2.40198 9.13021 2.79406 7.45869C3.33698 5.14417 5.14417 3.33698 7.4587 2.79406C9.13021 2.40198 10.8698 2.40198 12.5413 2.79406C14.8558 3.33698 16.663 5.14417 17.2059 7.4587C17.598 9.13021 17.598 10.8698 17.2059 12.5413C16.663 14.8558 14.8558 16.663 12.5413 17.2059C10.8698 17.598 9.13021 17.598 7.45869 17.2059Z" stroke="#363853" stroke-width="1.5"/>
<ellipse cx="10.0001" cy="12.9167" rx="0.833333" ry="0.833333" fill="#363853"/>
<path d="M8.33325 8.33333V7.91667C8.33325 6.99619 9.07944 6.25 9.99992 6.25V6.25V6.25C10.9204 6.25 11.6666 6.99619 11.6666 7.91667V8.01777C11.6666 8.48661 11.4803 8.93625 11.1488 9.26777L9.99992 10.4167" stroke="#363853" stroke-width="1.5" stroke-linecap="round" stroke-linejoin="round"/>
</svg>
