<svg width="12" height="12" viewBox="0 0 12 12" fill="none" xmlns="http://www.w3.org/2000/svg">
<path fill-rule="evenodd" clip-rule="evenodd" d="M9.64865 5.25C9.64865 7.67931 7.67931 9.64865 5.25 9.64865C2.82069 9.64865 0.851351 7.67931 0.851351 5.25C0.851351 2.82069 2.82069 0.851351 5.25 0.851351C7.67931 0.851351 9.64865 2.82069 9.64865 5.25ZM5.25 10.5C8.1495 10.5 10.5 8.1495 10.5 5.25C10.5 2.3505 8.1495 0 5.25 0C2.3505 0 0 2.3505 0 5.25C0 8.1495 2.3505 10.5 5.25 10.5ZM11.6691 11.6691C11.228 12.1103 10.5127 12.1103 10.0715 11.6691L9 10.5976C9.6237 10.1656 10.1656 9.6237 10.5976 9L11.6691 10.0715C12.1103 10.5127 12.1103 11.228 11.6691 11.6691Z" fill="#28303F"/>
</svg>
