<svg width="20" height="20" viewBox="0 0 20 20" fill="none" xmlns="http://www.w3.org/2000/svg">
<path d="M13.4728 16.1663L13.0981 15.5166L13.0981 15.5166L13.4728 16.1663ZM10.9011 17.405L10.7448 16.6715L10.9011 17.405ZM6.5274 16.1663L6.15276 16.816L6.15276 16.816L6.5274 16.1663ZM9.09906 17.405L9.25537 16.6715L9.09906 17.405ZM16.9046 12.7069L16.1835 12.5007L16.9046 12.7069ZM13.6107 16.0867L13.9854 16.7365V16.7365L13.6107 16.0867ZM15.8246 14.5999L15.2814 14.0828L15.8246 14.5999ZM13.6107 3.91326L13.9854 3.26354V3.26354L13.6107 3.91326ZM15.8246 5.40008L15.2814 5.91724L15.8246 5.40008ZM16.9046 7.29312L16.1835 7.49934L16.9046 7.29312ZM6.5274 3.83371L6.15276 3.18398V3.18398L6.5274 3.83371ZM9.09907 2.59498L9.25537 3.32851L9.09907 2.59498ZM13.4728 3.83371L13.0981 4.48344V4.48344L13.4728 3.83371ZM10.9011 2.59498L10.7448 3.32851L10.9011 2.59498ZM2.91675 10L2.16675 10L2.91675 10ZM3.09554 7.29312L3.81663 7.49934L3.09554 7.29312ZM6.38943 3.91326L6.76407 4.56299L6.76407 4.56299L6.38943 3.91326ZM4.17558 5.40008L3.6324 4.88292L4.17558 5.40008ZM3.09554 12.7069L2.37445 12.9131L3.09554 12.7069ZM6.38943 16.0867L6.76407 15.437L6.76407 15.437L6.38943 16.0867ZM4.17558 14.5999L3.6324 15.1171L4.17558 14.5999ZM6.76407 4.56299L6.90204 4.48343L6.15276 3.18398L6.01479 3.26354L6.76407 4.56299ZM13.0981 4.48344L13.2361 4.56299L13.9854 3.26354L13.8474 3.18398L13.0981 4.48344ZM13.2361 15.437L13.0981 15.5166L13.8474 16.816L13.9854 16.7365L13.2361 15.437ZM6.90204 15.5166L6.76407 15.437L6.01479 16.7365L6.15276 16.816L6.90204 15.5166ZM13.0981 15.5166C11.7876 16.2722 11.2731 16.5589 10.7448 16.6715L11.0574 18.1385C11.8723 17.9649 12.6245 17.5212 13.8474 16.816L13.0981 15.5166ZM6.15276 16.816C7.37567 17.5212 8.12788 17.9649 8.94276 18.1385L9.25537 16.6715C8.72711 16.5589 8.21259 16.2722 6.90204 15.5166L6.15276 16.816ZM10.7448 16.6715C10.2535 16.7762 9.74665 16.7762 9.25537 16.6715L8.94276 18.1385C9.64013 18.2872 10.36 18.2872 11.0574 18.1385L10.7448 16.6715ZM16.3334 10C16.3334 11.4326 16.3265 12.0006 16.1835 12.5007L17.6257 12.9131C17.8403 12.1628 17.8334 11.343 17.8334 10H16.3334ZM13.9854 16.7365C15.1258 16.0789 15.8315 15.6803 16.3678 15.1171L15.2814 14.0828C14.9299 14.452 14.4556 14.7338 13.2361 15.437L13.9854 16.7365ZM16.1835 12.5007C16.0129 13.0974 15.7025 13.6404 15.2814 14.0828L16.3678 15.1171C16.9578 14.4974 17.3891 13.7404 17.6257 12.9131L16.1835 12.5007ZM13.2361 4.56299C14.4556 5.26616 14.9299 5.54802 15.2814 5.91724L16.3678 4.88292C15.8315 4.31966 15.1258 3.92113 13.9854 3.26354L13.2361 4.56299ZM17.8334 10C17.8334 8.65702 17.8403 7.83721 17.6257 7.0869L16.1835 7.49934C16.3265 7.99938 16.3334 8.56737 16.3334 10H17.8334ZM15.2814 5.91724C15.7025 6.35958 16.0129 6.90258 16.1835 7.49934L17.6257 7.0869C17.3891 6.25959 16.9578 5.50261 16.3678 4.88292L15.2814 5.91724ZM6.90204 4.48343C8.21259 3.72775 8.72711 3.44108 9.25537 3.32851L8.94276 1.86145C8.12788 2.0351 7.37567 2.47884 6.15276 3.18398L6.90204 4.48343ZM13.8474 3.18398C12.6245 2.47884 11.8723 2.0351 11.0574 1.86145L10.7448 3.32851C11.2731 3.44108 11.7876 3.72775 13.0981 4.48344L13.8474 3.18398ZM9.25537 3.32851C9.74665 3.22383 10.2535 3.22383 10.7448 3.32851L11.0574 1.86145C10.36 1.71285 9.64013 1.71285 8.94276 1.86145L9.25537 3.32851ZM3.66675 10C3.66675 8.56737 3.67363 7.99938 3.81663 7.49934L2.37445 7.0869C2.15987 7.83721 2.16675 8.65702 2.16675 10L3.66675 10ZM6.01479 3.26353C4.87434 3.92113 4.16867 4.31966 3.6324 4.88292L4.71876 5.91724C5.07029 5.54802 5.54458 5.26616 6.76407 4.56299L6.01479 3.26353ZM3.81663 7.49934C3.98729 6.90258 4.29761 6.35958 4.71876 5.91724L3.6324 4.88292C3.0424 5.50261 2.61104 6.25959 2.37445 7.0869L3.81663 7.49934ZM2.16675 10C2.16675 11.343 2.15987 12.1628 2.37445 12.9131L3.81663 12.5007C3.67363 12.0006 3.66675 11.4326 3.66675 10L2.16675 10ZM6.76407 15.437C5.54458 14.7338 5.07029 14.452 4.71876 14.0828L3.6324 15.1171C4.16867 15.6803 4.87435 16.0789 6.01479 16.7365L6.76407 15.437ZM2.37445 12.9131C2.61104 13.7404 3.0424 14.4974 3.6324 15.1171L4.71876 14.0828C4.29761 13.6404 3.98729 13.0974 3.81663 12.5007L2.37445 12.9131ZM10.0001 11.5191C9.2092 11.5191 8.53654 10.8566 8.53654 10H7.03654C7.03654 11.6498 8.34595 13.0191 10.0001 13.0191V11.5191ZM11.4636 10C11.4636 10.8566 10.791 11.5191 10.0001 11.5191V13.0191C11.6542 13.0191 12.9636 11.6498 12.9636 10H11.4636ZM10.0001 8.48092C10.791 8.48092 11.4636 9.14341 11.4636 10H12.9636C12.9636 8.35024 11.6542 6.98092 10.0001 6.98092V8.48092ZM10.0001 6.98092C8.34595 6.98092 7.03654 8.35024 7.03654 10H8.53654C8.53654 9.14341 9.2092 8.48092 10.0001 8.48092V6.98092Z" fill="#363853"/>
</svg>
