<svg width="340" height="254" viewBox="0 0 340 254" fill="none" xmlns="http://www.w3.org/2000/svg">
<path d="M170 253.341C242.816 253.341 301.845 249.894 301.845 245.643C301.845 241.392 242.816 237.946 170 237.946C97.1839 237.946 38.1548 241.392 38.1548 245.643C38.1548 249.894 97.1839 253.341 170 253.341Z" fill="#F5F5F5"/>
<path d="M340 222.632H0V222.802H340V222.632Z" fill="#EBEBEB"/>
<path d="M50.0956 229.106H35.6728V229.276H50.0956V229.106Z" fill="#EBEBEB"/>
<path d="M174.155 227.263H116.375V227.433H174.155V227.263Z" fill="#EBEBEB"/>
<path d="M71.9304 235.423H46.0156V235.593H71.9304V235.423Z" fill="#EBEBEB"/>
<path d="M305.932 234.28H276.563V234.45H305.932V234.28Z" fill="#EBEBEB"/>
<path d="M274.339 234.28H266.2V234.45H274.339V234.28Z" fill="#EBEBEB"/>
<path d="M252.205 231.411H236.565V231.581H252.205V231.411Z" fill="#EBEBEB"/>
<path d="M228.704 231.411H195.765V231.581H228.704V231.411Z" fill="#EBEBEB"/>
<path d="M161.16 192.304H29.8588C28.8302 192.302 27.8443 191.892 27.1176 191.164C26.3909 190.436 25.9828 189.45 25.9828 188.421V3.8488C25.9917 2.8261 26.4038 1.84823 27.1296 1.12759C27.8553 0.406952 28.836 0.00175194 29.8588 0H161.16C162.19 0 163.177 0.40908 163.906 1.13725C164.634 1.86541 165.043 2.85302 165.043 3.8828V188.421C165.043 189.451 164.634 190.439 163.906 191.167C163.177 191.895 162.19 192.304 161.16 192.304ZM29.8588 0.136001C28.8753 0.137802 27.9327 0.529764 27.2378 1.22585C26.543 1.92194 26.1528 2.86528 26.1528 3.8488V188.421C26.1528 189.405 26.543 190.348 27.2378 191.044C27.9327 191.74 28.8753 192.132 29.8588 192.134H161.16C162.144 192.13 163.086 191.738 163.781 191.043C164.477 190.347 164.869 189.405 164.873 188.421V3.8488C164.869 2.86521 164.477 1.92292 163.781 1.22741C163.086 0.531903 162.144 0.139584 161.16 0.136001H29.8588Z" fill="#EBEBEB"/>
<path d="M308.251 192.304H176.943C175.914 192.3 174.929 191.89 174.201 191.163C173.474 190.435 173.064 189.45 173.06 188.421V3.8488C173.071 2.82548 173.484 1.84761 174.211 1.12716C174.938 0.406714 175.919 0.00173284 176.943 0H308.251C309.272 0.00353906 310.251 0.409529 310.976 1.12997C311.7 1.85042 312.111 2.82727 312.12 3.8488V188.421C312.121 188.93 312.022 189.434 311.828 189.905C311.634 190.376 311.349 190.803 310.99 191.164C310.63 191.524 310.203 191.811 309.734 192.006C309.264 192.202 308.76 192.303 308.251 192.304ZM176.943 0.136001C175.959 0.139584 175.017 0.531903 174.321 1.22741C173.626 1.92292 173.234 2.86521 173.23 3.8488V188.421C173.234 189.405 173.626 190.347 174.321 191.043C175.017 191.738 175.959 192.13 176.943 192.134H308.251C309.234 192.13 310.177 191.738 310.872 191.043C311.568 190.347 311.96 189.405 311.964 188.421V3.8488C311.96 2.86521 311.568 1.92292 310.872 1.22741C310.177 0.531903 309.234 0.139584 308.251 0.136001H176.943Z" fill="#EBEBEB"/>
<path d="M214.384 154.408H211.487V222.761H214.384V154.408Z" fill="#F0F0F0"/>
<path d="M181.948 156.359H101.034V171.122H181.948V156.359Z" fill="#E0E0E0"/>
<path d="M134.776 222.816H100.096C99.9626 222.816 99.8346 222.763 99.7402 222.668C99.6458 222.574 99.5928 222.446 99.5928 222.312C99.5928 222.179 99.6458 222.051 99.7402 221.957C99.8346 221.862 99.9626 221.809 100.096 221.809H134.776C139.788 221.809 140.461 220.347 140.461 214.54V141.311C140.453 141.24 140.459 141.169 140.481 141.101C140.502 141.033 140.538 140.971 140.585 140.918C140.632 140.865 140.69 140.822 140.755 140.793C140.819 140.764 140.89 140.749 140.961 140.749C141.032 140.749 141.102 140.764 141.167 140.793C141.231 140.822 141.289 140.865 141.337 140.918C141.384 140.971 141.419 141.033 141.441 141.101C141.462 141.169 141.469 141.24 141.46 141.311V214.54C141.44 220.748 140.495 222.816 134.776 222.816Z" fill="#E0E0E0"/>
<path d="M213.595 154.673H104.149V159.8H213.595V154.673Z" fill="#F0F0F0"/>
<path d="M104.938 154.408H69.7952V222.761H104.938V154.408Z" fill="#F5F5F5"/>
<path d="M104.931 154.408H102.034V222.761H104.931V154.408Z" fill="#F0F0F0"/>
<path d="M80.0496 77.6696H44.1048V222.768H80.0496V77.6696Z" fill="#FAFAFA"/>
<path d="M78.0776 81.906H46.0768V113.907H78.0776V81.906Z" fill="#F5F5F5"/>
<path d="M54.9916 81.4776H69.1832C69.1832 82.3577 68.8336 83.2017 68.2113 83.8241C67.589 84.4464 66.7449 84.796 65.8648 84.796H58.3304C57.8947 84.7987 57.4626 84.7155 57.059 84.5512C56.6553 84.3869 56.288 84.1448 55.978 83.8385C55.6679 83.5323 55.4213 83.1679 55.252 82.7664C55.0828 82.3648 54.9943 81.9338 54.9916 81.498V81.4776Z" fill="#E0E0E0"/>
<path d="M78.0708 116.776H46.07V148.777H78.0708V116.776Z" fill="#F5F5F5"/>
<path d="M78.0776 151.654H46.0768V183.654H78.0776V151.654Z" fill="#F5F5F5"/>
<path d="M78.0776 186.531H46.0768V218.532H78.0776V186.531Z" fill="#F5F5F5"/>
<path d="M54.9916 116.355H69.1832C69.1814 117.235 68.8315 118.079 68.2097 118.702C67.588 119.325 66.745 119.676 65.8648 119.68H58.3304C57.8941 119.683 57.4615 119.599 57.0574 119.435C56.6533 119.27 56.2857 119.027 55.9756 118.72C55.6655 118.413 55.4189 118.048 55.2501 117.646C55.0812 117.243 54.9934 116.812 54.9916 116.375V116.355Z" fill="#E0E0E0"/>
<path d="M54.9916 151.225H69.1832C69.1841 151.661 69.0989 152.093 68.9325 152.496C68.766 152.899 68.5216 153.265 68.2133 153.574C67.905 153.882 67.5388 154.126 67.1358 154.293C66.7328 154.459 66.3009 154.544 65.8648 154.544H58.3304C57.4515 154.549 56.6063 154.206 55.9804 153.589C55.3544 152.971 54.9988 152.131 54.9916 151.252V151.225Z" fill="#E0E0E0"/>
<path d="M54.9916 186.096H69.1832C69.1841 186.532 69.0989 186.964 68.9325 187.367C68.766 187.77 68.5216 188.136 68.2133 188.444C67.905 188.752 67.5388 188.997 67.1358 189.163C66.7328 189.33 66.3009 189.415 65.8648 189.414H58.3304C57.4515 189.419 56.6063 189.076 55.9804 188.459C55.3544 187.842 54.9988 187.002 54.9916 186.123V186.096Z" fill="#E0E0E0"/>
<path d="M44.1048 77.6696H26.1528V222.768H44.1048V77.6696Z" fill="#F0F0F0"/>
<path d="M136.83 154.408H129.254L131.09 139.652H138.679L136.83 154.408Z" fill="#F0F0F0"/>
<path d="M138.509 154.408H130.927L132.777 139.652H140.352L138.509 154.408Z" fill="#F5F5F5"/>
<path d="M154.775 154.408H149.287L148.24 152.735H153.721L154.775 154.408Z" fill="#F0F0F0"/>
<path d="M184.144 154.408H150.967L149.92 152.735H179.67L184.144 154.408Z" fill="#FAFAFA"/>
<path d="M112.792 150.171H115.192C115.748 150.171 116.299 150.281 116.812 150.494C117.326 150.707 117.792 151.019 118.185 151.412C118.578 151.806 118.889 152.273 119.102 152.787C119.314 153.301 119.422 153.852 119.422 154.408H108.542C108.542 153.284 108.988 152.206 109.782 151.412C110.577 150.618 111.654 150.171 112.778 150.171H112.792Z" fill="#F0F0F0"/>
<path d="M139.427 147.03H131.852L132.777 139.652H140.352L139.427 147.03Z" fill="#F0F0F0"/>
<path d="M111.561 145.262H165.24C165.338 145.262 165.434 145.244 165.525 145.207C165.615 145.17 165.697 145.116 165.766 145.047C165.835 144.978 165.89 144.895 165.927 144.805C165.964 144.715 165.982 144.618 165.981 144.52C165.984 144.489 165.984 144.457 165.981 144.425L161.84 111.364C161.826 111.178 161.743 111.005 161.607 110.879C161.47 110.753 161.291 110.683 161.106 110.684H107.44C107.243 110.684 107.055 110.762 106.916 110.901C106.777 111.04 106.699 111.228 106.699 111.425C106.695 111.456 106.695 111.488 106.699 111.52L110.84 144.616C110.864 144.791 110.95 144.953 111.082 145.071C111.214 145.189 111.384 145.257 111.561 145.262Z" fill="#F0F0F0"/>
<path d="M112.37 145.262H166.002C166.099 145.262 166.196 145.244 166.286 145.207C166.377 145.17 166.459 145.116 166.528 145.047C166.597 144.978 166.651 144.895 166.688 144.805C166.725 144.715 166.744 144.618 166.743 144.52C166.746 144.489 166.746 144.457 166.743 144.425L162.615 111.364C162.595 111.18 162.509 111.009 162.373 110.884C162.236 110.759 162.059 110.687 161.874 110.684H108.236C108.039 110.684 107.851 110.762 107.711 110.901C107.572 111.04 107.494 111.228 107.494 111.425C107.491 111.456 107.491 111.488 107.494 111.52L111.629 144.588C111.644 144.774 111.729 144.946 111.867 145.071C112.004 145.196 112.184 145.264 112.37 145.262Z" fill="#F5F5F5"/>
<path d="M165.009 143.432L161.16 112.486C161.153 112.435 161.128 112.389 161.089 112.356C161.05 112.324 161 112.307 160.949 112.309H109.439C109.413 112.307 109.386 112.31 109.361 112.319C109.336 112.328 109.313 112.341 109.293 112.359C109.274 112.377 109.258 112.399 109.247 112.423C109.235 112.447 109.229 112.473 109.228 112.499V112.54L113.098 143.48C113.103 143.53 113.126 143.577 113.164 143.611C113.202 143.645 113.251 143.664 113.302 143.664H164.805C164.832 143.663 164.86 143.656 164.885 143.645C164.91 143.634 164.933 143.617 164.952 143.597C164.971 143.577 164.986 143.553 164.995 143.527C165.005 143.501 165.01 143.474 165.009 143.446V143.432Z" fill="#E0E0E0"/>
<path d="M145.411 154.408H133.062V154.251C133.062 153.926 133.191 153.614 133.42 153.383C133.65 153.153 133.961 153.022 134.286 153.02H144.16C144.486 153.02 144.799 153.15 145.03 153.381C145.261 153.612 145.391 153.925 145.391 154.251V154.408H145.411Z" fill="#FAFAFA"/>
<path d="M134.497 154.408H126.126V154.251C126.125 154.09 126.156 153.93 126.218 153.781C126.279 153.631 126.369 153.496 126.482 153.381C126.596 153.267 126.731 153.176 126.88 153.114C127.029 153.052 127.189 153.02 127.35 153.02H133.28C133.605 153.022 133.917 153.153 134.146 153.383C134.375 153.614 134.504 153.926 134.504 154.251V154.408H134.497Z" fill="#F0F0F0"/>
<path d="M59.296 61.2816C59.432 60.8192 59.5612 60.35 59.6768 59.8876C59.8789 60.21 60.1542 60.4803 60.4802 60.6764C60.8063 60.8725 61.1741 60.989 61.5536 61.0164H61.7168C62.7164 60.9212 63.6684 59.9488 64.2736 58.4256C64.2868 58.3992 64.2936 58.3701 64.2936 58.3406C64.2936 58.3111 64.2868 58.282 64.2736 58.2556C64.2597 58.2283 64.2405 58.204 64.2172 58.1842C64.1938 58.1643 64.1668 58.1493 64.1376 58.14C63.4206 57.9583 62.6733 57.9298 61.9445 58.0564C61.2157 58.1829 60.5218 58.4617 59.908 58.8744C60.0032 58.4324 60.078 57.9836 60.146 57.5144C60.3025 57.5474 60.4621 57.5633 60.622 57.562C61.1795 57.5115 61.7214 57.3509 62.2163 57.0894C62.7112 56.828 63.1493 56.4708 63.5052 56.0388C63.5439 55.9973 63.5654 55.9426 63.5654 55.8858C63.5654 55.829 63.5439 55.7743 63.5052 55.7328H63.4508C63.0727 55.5447 62.659 55.4389 62.237 55.4225C61.815 55.4061 61.3944 55.4794 61.0028 55.6376C60.5852 55.8501 60.2467 56.1909 60.0372 56.61C59.734 55.664 59.1732 54.8212 58.4177 54.1762C57.6622 53.5311 56.7418 53.1094 55.76 52.9584C55.7305 52.9511 55.6996 52.951 55.67 52.9581C55.6405 52.9652 55.613 52.9793 55.59 52.9992C55.565 53.0175 55.5441 53.0409 55.5289 53.0679C55.5137 53.0948 55.5043 53.1247 55.5016 53.1556C55.42 54.6312 55.5016 56.4468 56.576 57.3036C57.0368 57.6451 57.601 57.818 58.174 57.7932C58.6904 57.7855 59.2031 57.7054 59.6972 57.5552C59.5392 58.6228 59.312 59.679 59.0172 60.7172C57.9305 59.2467 56.3963 58.1682 54.6448 57.6436C54.5923 57.6378 54.5393 57.6501 54.4948 57.6786C54.4502 57.707 54.4168 57.7499 54.4 57.8C54.0668 59.0784 54.2368 60.112 54.8964 60.792C55.2324 61.0902 55.6241 61.3188 56.0489 61.4647C56.4738 61.6106 56.9233 61.6708 57.3716 61.642C57.8535 61.6367 58.3338 61.5866 58.8064 61.4924C58.5344 62.3628 58.208 63.2196 57.902 64.0288C57.222 63.4304 55.284 61.948 53.142 62.5736C53.0859 62.5945 53.0398 62.6358 53.0128 62.6892C52.9996 62.7156 52.9928 62.7447 52.9928 62.7742C52.9928 62.8037 52.9996 62.8328 53.0128 62.8592C53.6112 64.2736 54.2504 65.0556 55.0528 65.3208C55.272 65.3939 55.5017 65.4306 55.7328 65.4296C56.365 65.4042 56.9813 65.2244 57.528 64.906C57.0724 65.9872 56.5896 66.9936 56.134 67.8912C55.5869 67.3337 54.8996 66.934 54.1445 66.7342C53.3894 66.5344 52.5944 66.5418 51.8432 66.7556C51.7922 66.767 51.7472 66.797 51.717 66.8397C51.6869 66.8825 51.6737 66.9349 51.68 66.9868C51.7313 67.4388 51.9011 67.8693 52.1722 68.2346C52.4432 68.6 52.8059 68.8873 53.2236 69.0676C53.5396 69.2022 53.8797 69.2716 54.2232 69.2716C54.6981 69.2628 55.1642 69.1417 55.5832 68.918C55.114 69.7816 54.6856 70.5092 54.3456 71.0532H50.32C49.64 69.9516 48.96 68.578 48.1916 67.0344C48.5312 67.1371 48.884 67.1898 49.2388 67.1908C49.6117 67.1962 49.9821 67.128 50.3286 66.99C50.6752 66.852 50.9911 66.6471 51.2583 66.3868C51.5255 66.1266 51.7387 65.8162 51.8857 65.4734C52.0328 65.1306 52.1108 64.7622 52.1152 64.3892C52.1199 64.1392 52.0902 63.8898 52.0268 63.648C52.0126 63.5995 51.9814 63.5577 51.939 63.5302C51.8966 63.5028 51.8457 63.4915 51.7956 63.4984C50.9653 63.579 50.1666 63.8584 49.4671 64.3129C48.7676 64.7674 48.1878 65.3837 47.7768 66.1096C47.3008 65.0352 46.8316 63.8928 46.4168 62.7096C46.9351 63.003 47.5151 63.1707 48.11 63.1992C48.3416 63.1995 48.5715 63.1605 48.79 63.0836C49.9868 62.6892 50.6736 61.2476 51.2584 59.7584C51.2717 59.7308 51.2785 59.7006 51.2785 59.67C51.2785 59.6394 51.2717 59.6092 51.2584 59.5816C51.2445 59.5543 51.2253 59.53 51.202 59.5101C51.1786 59.4903 51.1516 59.4753 51.1224 59.466C48.7288 58.786 46.7636 61.098 46.1516 61.9276C45.8323 60.9316 45.5668 59.9192 45.356 58.8948C45.8605 58.9913 46.3724 59.0436 46.886 59.0512C47.3941 59.0885 47.9044 59.0208 48.3852 58.8523C48.8661 58.6838 49.3071 58.4182 49.6808 58.072C50.4016 57.3036 50.5784 56.1544 50.1908 54.7604C50.1844 54.733 50.1726 54.7071 50.1561 54.6843C50.1396 54.6615 50.1187 54.6423 50.0946 54.6277C50.0705 54.6131 50.0437 54.6035 50.0159 54.5994C49.988 54.5954 49.9596 54.5969 49.9324 54.604C48.015 55.1829 46.3419 56.378 45.1724 58.004L45.0772 57.46C45.0734 57.4142 45.0542 57.3711 45.0228 57.3376C44.9229 56.9839 44.7503 56.6548 44.5162 56.3715C44.282 56.0882 43.9914 55.8567 43.6628 55.692C43.2312 55.5263 42.7696 55.4534 42.308 55.478C41.8464 55.5026 41.3951 55.6242 40.9836 55.8348C40.9526 55.849 40.925 55.8697 40.9027 55.8956C40.8804 55.9214 40.864 55.9517 40.8544 55.9844C40.8469 56.0177 40.8472 56.0522 40.8555 56.0853C40.8638 56.1183 40.8797 56.149 40.902 56.1748C41.2923 56.6404 41.7708 57.0243 42.3099 57.3044C42.8491 57.5844 43.4382 57.7552 44.0436 57.8068C44.2352 57.7998 44.4261 57.7794 44.6148 57.7456C44.6896 58.2488 44.7848 58.7588 44.8936 59.262C44.2121 58.8141 43.4436 58.5153 42.6385 58.3852C41.8334 58.2552 41.0099 58.2967 40.222 58.5072C40.1621 58.5275 40.1115 58.5685 40.0792 58.6228C40.059 58.68 40.059 58.7424 40.0792 58.7996C40.7592 60.4656 41.8336 61.5196 42.9352 61.608H43.0848C43.5019 61.572 43.9044 61.4373 44.2591 61.215C44.6138 60.9928 44.9106 60.6892 45.1248 60.3296C45.4277 61.4812 45.7908 62.6161 46.2128 63.7296C45.1792 63.24 42.8536 62.3696 41.1876 63.682C41.1442 63.7157 41.1152 63.7646 41.1064 63.8188C41.0975 63.8731 41.1095 63.9287 41.14 63.9744C42.2144 65.4432 43.18 66.1504 44.1864 66.1504C44.9888 66.1504 45.764 65.6404 46.5324 64.6408C46.9744 65.7356 47.4572 66.7896 47.8924 67.762C46.8588 67.1228 45.7232 67.218 44.3836 68.0612C44.3529 68.0812 44.3276 68.1083 44.3098 68.1403C44.292 68.1723 44.2823 68.2082 44.2816 68.2448C44.2787 68.2795 44.2855 68.3144 44.3011 68.3456C44.3166 68.3767 44.3405 68.403 44.37 68.4216C45.1669 68.9976 46.1091 69.3391 47.09 69.4076C47.5975 69.4219 48.0961 69.2716 48.5112 68.9792C48.892 69.7136 49.266 70.3868 49.6128 71.0192H47.8788V72.0732H48.5588L49.1164 77.6424H57.2764L57.8272 72.0732H58.5072V71.06H54.8352C55.2432 70.38 55.76 69.4824 56.3176 68.4284C56.3317 68.4048 56.3431 68.3797 56.3516 68.3536C56.4944 68.0816 56.6372 67.8096 56.78 67.524C57.0224 67.8921 57.3497 68.1966 57.7343 68.4119C58.1188 68.6273 58.5495 68.7472 58.99 68.7616H59.262C59.7496 68.7059 60.2122 68.5163 60.5986 68.2138C60.9851 67.9114 61.2803 67.5079 61.4516 67.048C61.4705 67.0018 61.4712 66.9501 61.4536 66.9034C61.4359 66.8568 61.4012 66.8185 61.3564 66.7964C60.7303 66.4416 60.0287 66.2412 59.3097 66.2116C58.5908 66.182 57.8751 66.3242 57.222 66.6264C57.528 65.9464 57.8204 65.2664 58.1264 64.5864C58.1513 64.5601 58.1679 64.5269 58.174 64.4912C58.2556 64.2872 58.3304 64.0832 58.4188 63.8928C59.0988 64.7904 59.8332 65.2528 60.5676 65.2528C61.4584 65.2528 62.3628 64.5728 63.3284 63.2128C63.3457 63.1906 63.3584 63.1652 63.3657 63.138C63.3731 63.1108 63.3749 63.0825 63.3711 63.0546C63.3673 63.0267 63.3579 62.9999 63.3436 62.9757C63.3293 62.9514 63.3102 62.9303 63.2876 62.9136C61.7644 61.7712 59.704 62.5532 58.7316 63.0088C58.9288 62.4648 59.1124 61.9208 59.2756 61.37L59.296 61.2816Z" fill="#E0E0E0"/>
<path d="M195.099 188.584H217.6C219.656 188.58 221.63 187.771 223.098 186.332C224.567 184.892 225.415 182.936 225.461 180.88L226.304 139.72C226.333 138.197 225.756 136.725 224.701 135.627C223.645 134.529 222.196 133.895 220.674 133.865H206.468C205.058 133.863 203.697 134.38 202.644 135.318C201.592 136.257 200.922 137.55 200.763 138.951L195.099 188.584Z" fill="#E6E6E6"/>
<path d="M207.4 188.584H183.416C183.119 188.584 182.833 188.466 182.623 188.256C182.413 188.045 182.294 187.76 182.294 187.462V187.354C182.294 186.538 182.618 185.757 183.195 185.18C183.771 184.604 184.553 184.28 185.368 184.28H207.4V188.591V188.584Z" fill="#E6E6E6"/>
<path d="M205.476 223.326C205.36 223.328 205.247 223.29 205.156 223.218C205.066 223.146 205.003 223.045 204.979 222.931L197.955 189.088H185.715L178.697 222.931C178.658 223.053 178.576 223.156 178.465 223.221C178.355 223.285 178.224 223.306 178.099 223.28C177.974 223.254 177.862 223.182 177.787 223.079C177.712 222.975 177.677 222.848 177.691 222.72L184.804 188.482C184.826 188.367 184.889 188.263 184.981 188.189C185.074 188.116 185.189 188.077 185.307 188.081H198.349C198.466 188.079 198.58 188.118 198.67 188.191C198.761 188.265 198.823 188.368 198.846 188.482L205.952 222.72C205.966 222.784 205.967 222.85 205.955 222.915C205.944 222.979 205.919 223.04 205.884 223.095C205.849 223.15 205.803 223.198 205.749 223.235C205.695 223.272 205.635 223.298 205.571 223.312L205.476 223.326Z" fill="#E6E6E6"/>
<path d="M197.88 223.326H197.778C197.647 223.299 197.532 223.222 197.458 223.111C197.384 223 197.358 222.865 197.384 222.734L204.496 188.489C204.521 188.375 204.585 188.272 204.677 188.199C204.768 188.126 204.882 188.087 205 188.088H218.042C218.158 188.088 218.27 188.128 218.361 188.201C218.451 188.274 218.514 188.376 218.538 188.489L225.644 222.734C225.658 222.8 225.658 222.867 225.645 222.933C225.633 222.999 225.607 223.061 225.57 223.117C225.533 223.173 225.486 223.221 225.43 223.259C225.375 223.296 225.312 223.322 225.247 223.336C225.181 223.349 225.113 223.35 225.048 223.337C224.982 223.324 224.919 223.298 224.863 223.262C224.807 223.225 224.759 223.177 224.722 223.121C224.684 223.066 224.658 223.004 224.645 222.938L217.6 189.094H205.36L198.342 222.938C198.317 223.043 198.258 223.138 198.175 223.208C198.091 223.277 197.988 223.319 197.88 223.326Z" fill="#E6E6E6"/>
<path d="M282.397 213.391H283.798C283.798 210.508 283.798 203.191 283.948 186.408C284.192 155.999 284.682 154.149 284.682 154.149L281.35 168.191C279.228 183.729 281.948 199.369 282.397 213.391Z" fill="#E6E6E6"/>
<path d="M276.189 162.982C268.845 155.727 254.51 154.754 239.863 154.142C234.117 153.904 255.911 164.948 266.839 173.216C275.284 179.636 280.493 181.152 283.308 188.074C283.635 179.092 282.513 169.238 276.189 162.982Z" fill="#E6E6E6"/>
<path d="M284.24 147.206C289.218 137.754 301.736 128.846 315.785 125.446C321.293 124.12 303.001 142.895 296.065 155.013C290.666 164.424 283.506 175.467 282.397 183.41C280.718 167.708 279.276 156.658 284.24 147.206Z" fill="#E0E0E0"/>
<path d="M283.635 222.489C281.28 222.485 279.016 221.581 277.305 219.963C275.594 218.346 274.564 216.136 274.428 213.785L273.584 205.448H293.631L292.788 213.785C292.651 216.127 291.63 218.329 289.93 219.945C288.231 221.561 285.98 222.471 283.635 222.489Z" fill="#EBEBEB"/>
<path d="M294.943 208.658H272.292L271.64 199.369H295.589L294.943 208.658Z" fill="#F0F0F0"/>
<path d="M303.368 14.1304H188.081V96.56H303.368V14.1304Z" fill="#E0E0E0"/>
<path d="M300.825 14.1304H188.081V96.56H300.825V14.1304Z" fill="#F0F0F0"/>
<path d="M296.602 17.6188H191.848V91.1676H296.602V17.6188Z" fill="#FAFAFA"/>
<path d="M305.014 10.5332H184.178V11.9748H305.014V10.5332Z" fill="#E0E0E0"/>
<path d="M183.212 13.294C184.324 13.294 185.225 12.3928 185.225 11.2812C185.225 10.1696 184.324 9.2684 183.212 9.2684C182.101 9.2684 181.2 10.1696 181.2 11.2812C181.2 12.3928 182.101 13.294 183.212 13.294Z" fill="#E0E0E0"/>
<path d="M305.014 13.294C306.126 13.294 307.027 12.3928 307.027 11.2812C307.027 10.1696 306.126 9.2684 305.014 9.2684C303.902 9.2684 303.001 10.1696 303.001 11.2812C303.001 12.3928 303.902 13.294 305.014 13.294Z" fill="#E0E0E0"/>
<path opacity="0.7" d="M286.205 17.6188L252.994 91.1676H239.904L273.115 17.6188H286.205Z" fill="white"/>
<path opacity="0.7" d="M261.072 17.6188L227.861 91.1676H204.496L237.708 17.6188H261.072Z" fill="white"/>
<path d="M303.368 47.226H188.081V49.7284H303.368V47.226Z" fill="#E0E0E0"/>
<path d="M303.368 43.5472H188.081V46.0496H303.368V43.5472Z" fill="#E0E0E0"/>
<path d="M303.368 39.8752H188.081V42.3776H303.368V39.8752Z" fill="#E0E0E0"/>
<path d="M303.368 36.1964H188.081V38.6988H303.368V36.1964Z" fill="#E0E0E0"/>
<path d="M303.368 32.5244H188.081V35.0268H303.368V32.5244Z" fill="#E0E0E0"/>
<path d="M303.368 28.8524H188.081V31.3548H303.368V28.8524Z" fill="#E0E0E0"/>
<path d="M303.368 25.1736H188.081V27.676H303.368V25.1736Z" fill="#E0E0E0"/>
<path d="M303.368 21.5016H188.081V24.004H303.368V21.5016Z" fill="#E0E0E0"/>
<path d="M303.368 17.8296H188.081V20.332H303.368V17.8296Z" fill="#E0E0E0"/>
<path d="M303.368 14.1508H188.081V16.6532H303.368V14.1508Z" fill="#E0E0E0"/>
<path d="M146.968 13.4572H125.895V34.5304H146.968V13.4572Z" fill="#F0F0F0"/>
<path d="M145.323 13.4572H124.25V34.5304H145.323V13.4572Z" fill="#F5F5F5"/>
<path d="M143.704 15.0824H125.875V32.912H143.704V15.0824Z" fill="#FAFAFA"/>
<path d="M126.378 15.0824H125.875V32.912H126.378V15.0824Z" fill="#F0F0F0"/>
<path d="M141.562 19.8424V28.05C140.874 28.05 140.213 28.3237 139.726 28.8108C139.239 29.298 138.965 29.9587 138.965 30.6476H131.376C131.376 30.3059 131.309 29.9676 131.178 29.652C131.047 29.3364 130.855 29.0497 130.613 28.8084C130.371 28.5671 130.084 28.3759 129.768 28.2458C129.452 28.1156 129.113 28.0491 128.772 28.05V19.8424C129.113 19.8433 129.452 19.7768 129.768 19.6466C130.084 19.5165 130.371 19.3253 130.613 19.084C130.855 18.8427 131.047 18.556 131.178 18.2404C131.309 17.9248 131.376 17.5865 131.376 17.2448H138.965C138.965 17.5859 139.032 17.9237 139.163 18.2389C139.293 18.554 139.484 18.8404 139.726 19.0816C139.967 19.3228 140.253 19.5141 140.568 19.6447C140.884 19.7752 141.221 19.8424 141.562 19.8424Z" fill="white"/>
<path d="M108.732 13.2872H37.9984V49.3068H108.732V13.2872Z" fill="#E6E6E6"/>
<path d="M105.862 13.2872H35.1288V49.3068H105.862V13.2872Z" fill="#F0F0F0"/>
<path d="M103.319 16.4288H37.7944V45.3356H103.319V16.4288Z" fill="#F5F5F5"/>
<path opacity="0.7" d="M87.8151 16.4288L75.1331 45.3356H66.2999L79.7027 16.4288H87.8151Z" fill="white"/>
<path opacity="0.7" d="M76.67 16.4288L63.1176 45.3356H59.1804L72.9368 16.4288H76.67Z" fill="white"/>
<path d="M88.5768 42.6564C88.5768 42.6564 84.252 41.6908 83.64 36.1148C83.0756 30.94 85.3808 29.9132 85.3808 29.9132C85.3808 29.9132 82.4364 24.6228 87.3528 21.5832C92.2692 18.5436 99.7968 22.5964 102.694 21.2228C105.59 19.8492 108.814 20.6176 107.896 24.6976C106.978 28.7776 102.68 29.8384 102.68 29.8384L92.7588 28.0976C92.7588 28.0976 97.036 39.2496 94.4996 41.3508C91.9632 43.452 88.5768 42.6564 88.5768 42.6564Z" fill="#263238"/>
<path d="M105.862 26.2208C105.862 26.2208 108.004 34.544 105.862 35.9788C103.72 37.4136 103.258 27.4516 103.258 27.4516L105.862 26.2208Z" fill="#263238"/>
<path d="M90.0796 106.835L87.9512 111.391L84.1772 110.847C80.6208 111.418 79.1384 109.398 79.1384 109.398L76.9012 107.358C64.396 95.6488 62.288 89.6784 63.3624 84.966C64.498 79.9884 72.0324 65.348 74.3036 61.9412C76.5748 58.5344 78.2884 57.6028 78.2884 57.6028C82.4092 55.828 85.5304 57.1064 86.9652 61.5128C88.128 65.076 85.4896 68.7956 83.4564 71.4816C80.9553 74.7697 78.6441 78.1979 76.534 81.7496C75.854 82.9192 75.174 84.1092 74.5348 85.306C74.256 85.8228 72.7192 88.0668 72.8892 88.5224C73.9364 91.4396 79.1996 99.722 81.0492 102.592L81.6884 103.584C88.5156 104.564 90.0796 106.835 90.0796 106.835Z" fill="#263238"/>
<path d="M161.112 58.718L157.148 60.9824C157.148 60.9824 156.291 62.6688 154.877 65.0284C151.66 70.4072 145.574 79.3084 140.196 79.9068C133.13 80.4984 125.705 77.2276 118.245 72.2228C110.786 67.218 113.417 55.7668 113.417 55.7668C113.417 55.7668 117.871 57.018 124.766 62.118C131.662 67.218 137.51 70.3324 139.21 70.992C139.21 70.992 145.058 69.1084 151.388 61.7508L153.184 55.9844L159.134 53.9444L161.112 58.718Z" fill="#263238"/>
<path d="M78.0368 75.1128C78.2952 75.48 85 108.392 85 108.392H116.321C116.321 108.392 116.6 88.2708 117.116 83.4972C117.633 78.7236 120.802 59.0172 113.417 55.7668C113.417 55.7668 105.896 53.9784 100.348 53.9036C97.0071 53.8584 93.6702 54.1431 90.3856 54.7536C90.3856 54.7536 80.7772 55.2636 78.2816 57.5892C75.786 59.9148 78.0368 75.1128 78.0368 75.1128Z" fill="#263238"/>
<path d="M116.321 107.95C116.321 107.95 115.79 155.421 114.369 166.777C112.948 178.133 109.262 227.208 109.262 227.208L99.96 224.971C99.96 224.971 99.28 189.251 98.3076 171.51C97.3352 153.768 97.5528 132.75 97.5528 132.75C97.5528 132.75 90.7528 176.95 88.1348 181.206C85.5168 185.463 74.868 210.066 68 222.36L60.4248 215.737C60.4248 215.737 72.76 176.474 74.868 169.85C76.976 163.227 78.812 114.09 85 108.392L116.321 107.95Z" fill="#407BFF"/>
<path d="M66.8508 220.918L64.9604 223.808L62.4104 227.712L57.2016 225.005L59.3368 220.694L60.928 217.498L66.8508 220.918Z" fill="#CE7A63"/>
<path d="M161.112 58.718L157.148 60.9824C157.148 60.9824 156.291 62.6688 154.877 65.0284L151.388 61.7508L153.184 55.9844L159.134 53.9444L161.112 58.718Z" fill="#CE7A63"/>
<path d="M116.314 107.95C116.314 107.95 115.79 155.421 114.369 166.77C112.948 178.119 109.262 227.208 109.262 227.208L100.076 225.665C100.076 225.665 99.2256 189.251 98.2872 171.503C98.022 166.444 97.5528 162.595 97.4508 159.637C97.3488 156.679 97.3692 151.477 97.4508 146.384C97.5392 139.012 97.7024 131.845 97.7024 131.845L97.4984 133.151C97.4984 133.341 97.4372 133.552 97.3964 133.776L97.3556 134.048C95.9072 143.201 90.3856 177.494 88.1416 181.179C85.51 185.463 74.868 210.066 68 222.36L60.4248 215.737C60.4248 215.737 72.7328 176.467 74.8612 169.85C76.9896 163.234 78.8052 114.09 84.9932 108.385L116.314 107.95Z" fill="#8CA2CE"/>
<path opacity="0.2" d="M97.4712 133.144C97.4712 133.334 97.41 133.545 97.3692 133.77L97.4712 133.144Z" fill="black"/>
<path opacity="0.2" d="M98.9604 123.617C98.9604 123.617 98.7836 137.217 97.4236 146.377C97.512 139.006 97.6752 131.838 97.6752 131.838L98.9604 123.617Z" fill="black"/>
<path d="M101.646 52.6048C102.558 53.3164 103.597 53.8493 104.706 54.1756C104.706 54.1756 103.122 56.0796 98.0424 55.7056C96.0636 55.556 93.5476 56.6372 90.3924 54.7536C90.3924 54.7536 91.7116 47.2192 91.1336 42.7584C91.1336 42.7584 85.918 40.5212 87.1624 37.128C88.2912 34.0408 91.8068 37.5836 92.446 38.2568C91.8204 37.4612 88.0668 32.4496 90.8004 28.3492C91.6757 27.0401 92.828 25.9395 94.1759 25.1251C95.5237 24.3108 97.034 23.8027 98.6 23.6368L102.911 24.7928L104.645 28.8728C104.645 28.8728 106.964 32.0144 107.127 38.3044C107.29 44.5944 103.652 46.8248 101.007 47.5728C101.007 47.5728 100.932 48.2528 100.932 49.1708C100.898 50.4016 101.014 52.0268 101.646 52.6048Z" fill="#CE7A63"/>
<path d="M103.013 38.8008L102.333 33.7212L105.196 37.7196C104.925 38.0391 104.592 38.2997 104.216 38.4857C103.841 38.6716 103.432 38.7788 103.013 38.8008Z" fill="#BA4D3C"/>
<path d="M98.0424 39.1204C98.4397 39.6356 98.9793 40.0229 99.5946 40.2345C100.21 40.446 100.874 40.4724 101.504 40.3104" stroke="#263238" stroke-linecap="round" stroke-linejoin="round"/>
<path d="M96.7436 32.096C96.7436 32.096 97.5596 30.3144 99.2324 30.5864" stroke="#263238" stroke-linecap="round" stroke-linejoin="round"/>
<path d="M104.094 29.92C104.592 29.855 105.099 29.9092 105.572 30.0783C106.045 30.2473 106.471 30.5264 106.814 30.8924" stroke="#263238" stroke-linecap="round" stroke-linejoin="round"/>
<path d="M99.79 34.408C99.79 34.9044 99.5384 35.3056 99.2324 35.3056C98.9264 35.3056 98.6748 34.9044 98.6748 34.408C98.6748 33.9116 98.9264 33.5172 99.2324 33.5172C99.5384 33.5172 99.79 33.9184 99.79 34.408Z" fill="#263238"/>
<path d="M105.448 34.0408C105.448 34.5304 105.196 34.9316 104.89 34.9316C104.584 34.9316 104.332 34.5304 104.332 34.0408C104.332 33.5512 104.584 33.1432 104.89 33.1432C105.196 33.1432 105.448 33.5444 105.448 34.0408Z" fill="#263238"/>
<path d="M96.0296 58.0176L100.395 57.3512L101.463 61.574L99.4296 65.3548H98.26L96.0296 61.9616V58.0176Z" fill="#407BFF"/>
<path d="M98.26 65.3548L96.0296 85.306L100.11 89.2364L103.054 85.2176L99.4296 65.3548H98.26Z" fill="#407BFF"/>
<path d="M96.0296 58.0176L100.395 57.3512L101.463 61.574L99.4296 65.3548H98.26L96.0296 61.9616V58.0176Z" fill="#8CA2CE"/>
<path d="M98.26 65.3548L96.0296 85.306L100.11 89.2364L103.054 85.2176L99.4296 65.3548H98.26Z" fill="#8CA2CE"/>
<path d="M98.0424 55.7056L100.252 61.5264C100.252 61.5264 105.964 58.6772 106.801 53.9036L102.721 52.5028C101.301 53.7616 99.7295 54.8376 98.0424 55.7056Z" fill="white"/>
<path d="M90.78 52.122C90.78 52.122 94.7308 54.2028 98.0424 55.7056L96.7436 61.5264C96.7436 61.5264 90.202 57.6096 88.0056 54.5496L90.78 52.122Z" fill="white"/>
<path opacity="0.2" d="M100.98 47.5524C100.98 47.5524 100.905 48.2324 100.905 49.1504C99.7805 48.8729 98.6953 48.4548 97.6752 47.906C98.7892 48.0572 99.9232 47.9358 100.98 47.5524Z" fill="black"/>
<path d="M92.48 38.2568C93.2195 35.3088 92.9563 32.1986 91.732 29.4168C91.732 29.4168 99.4908 31.6404 99.5112 24.5752C99.5112 24.5752 89.1616 26.2276 88.6312 29.9064C88.1008 33.5852 91.596 37.2572 92.48 38.2568Z" fill="#263238"/>
<path d="M99.3956 25.6156C99.3956 25.6156 102.36 29.8248 104.904 28.9544V22.8344H96.0636L91.392 25.6224L94.6288 28.9544L97.036 26.9756L99.3956 25.6156Z" fill="#263238"/>
<path d="M108.644 234.858L102.007 234.518L101.844 229.486L101.721 225.814L107.093 225.277L108.154 225.325L108.385 229.867L108.644 234.858Z" fill="#CE7A63"/>
<path opacity="0.2" d="M108.385 229.867L101.844 229.486L101.721 225.814L107.093 225.277L108.154 225.325L108.385 229.867Z" fill="black"/>
<path d="M98.1172 228.228L110.881 227.916L111.602 223.754H98.4164L98.1172 228.228Z" fill="#263238"/>
<path d="M110.072 235.137C110.072 235.137 112.295 228.582 114.029 229.235C115.763 229.888 110.072 235.137 110.072 235.137Z" stroke="#8CA2CE" stroke-miterlimit="10"/>
<path d="M110.452 235.137C110.452 235.137 113.812 231.941 115.165 233.186C116.518 234.43 110.452 235.137 110.452 235.137Z" stroke="#8CA2CE" stroke-miterlimit="10"/>
<path opacity="0.2" d="M66.8508 220.918L64.9604 223.808L59.3368 220.694L60.928 217.498L66.8508 220.918Z" fill="black"/>
<path d="M58.0856 218.307L67.8368 223.468L70.1352 220.64L60.2004 215.057L58.0856 218.307Z" fill="#263238"/>
<path d="M64.294 229.446C64.294 229.446 67.0548 225.991 68.1768 226.807C69.2988 227.623 64.294 229.446 64.294 229.446Z" stroke="#8CA2CE" stroke-miterlimit="10"/>
<path d="M64.7972 229.446C64.7972 229.446 69.5572 228.324 69.7612 229.867C69.9652 231.411 64.7972 229.446 64.7972 229.446Z" stroke="#8CA2CE" stroke-miterlimit="10"/>
<path d="M63.7161 225.76L58.5957 222.884C58.2382 222.685 57.8168 222.636 57.4233 222.747C57.0298 222.858 56.696 223.119 56.4945 223.475L54.1893 227.555C53.9888 227.913 53.9385 228.336 54.0494 228.731C54.1603 229.127 54.4233 229.462 54.7809 229.663L69.3125 237.823C69.6706 238.024 70.0936 238.074 70.4887 237.963C70.8839 237.852 71.219 237.589 71.4205 237.232C71.5995 236.912 71.6594 236.539 71.5897 236.179C71.52 235.82 71.3251 235.496 71.0397 235.266C69.1629 233.764 65.3141 230.309 64.4641 226.732C64.4128 226.528 64.32 226.336 64.1913 226.168C64.0626 226.001 63.9008 225.862 63.7161 225.76Z" fill="#263238"/>
<path d="M108.032 232.308H101.232C100.757 232.31 100.302 232.5 99.9666 232.837C99.6314 233.173 99.4432 233.629 99.4432 234.104V239.544C99.4432 240.018 99.6316 240.473 99.967 240.808C100.302 241.144 100.757 241.332 101.232 241.332H120.516C120.752 241.333 120.985 241.287 121.203 241.198C121.421 241.108 121.619 240.977 121.785 240.811C121.952 240.644 122.085 240.447 122.175 240.23C122.265 240.012 122.312 239.779 122.312 239.544C122.311 239.12 122.161 238.71 121.887 238.386C121.613 238.062 121.234 237.846 120.816 237.776C118.062 237.32 112.227 236.014 109.337 232.893C109.171 232.712 108.969 232.566 108.745 232.466C108.52 232.365 108.278 232.312 108.032 232.308Z" fill="#263238"/>
<path d="M90.0796 106.835L87.9512 111.391L84.1772 110.847C80.6208 111.418 79.1384 109.398 79.1384 109.398L76.9012 107.358L81.056 102.598L81.6952 103.591C88.5156 104.564 90.0796 106.835 90.0796 106.835Z" fill="#CE7A63"/>
<path d="M151.388 61.4516L150.069 63.206L153.932 66.5788L155.067 65.0284L151.388 61.4516Z" fill="white"/>
<path d="M76.7312 107.549L81.1852 102.34L79.6824 100.429L75.0312 106.026L76.7312 107.549Z" fill="white"/>
<path d="M162.241 29.07C161.781 30.4365 161.632 31.8883 161.804 33.3198C161.976 34.7513 162.464 36.1266 163.234 37.3456C165.872 41.344 165.274 28.1248 165.274 28.1248L162.241 29.07Z" fill="#263238"/>
<path d="M167.647 59.0512C167.647 59.0512 151.327 81.8992 148.138 80.9404C144.949 79.9816 137.598 65.7288 137.598 65.7288L137.17 60.0916L132.355 53.4616L126.235 58.2896L129.2 63.8044C129.2 63.8044 130.084 66.6672 132.695 67.4696C132.695 67.4696 138.7 85.9044 146.295 89.3656C153.891 92.8268 164.431 70.8628 164.431 70.8628L167.647 59.0512Z" fill="#FFB573"/>
<path d="M202.586 225.549L194.16 228.752C183.28 204.857 174.44 135.17 174.44 135.17C174.44 135.17 174.182 137.122 173.794 140.264C172.53 150.668 169.85 174.053 170.394 182.424C171.258 196.506 168.769 231.309 168.769 231.309L158.569 232.519C158.569 232.519 158.916 198.118 157.461 179.058C156.006 159.997 160.46 111.092 160.46 111.092L188.591 109.8C193.419 115.348 194.623 183.641 195.833 189.917C197.044 196.194 202.586 225.549 202.586 225.549Z" fill="#263238"/>
<path d="M157.685 62.458C157.754 62.0838 157.897 61.7273 158.106 61.4095C158.315 61.0917 158.586 60.8193 158.902 60.6084C161.18 59.0852 167.022 55.2908 168.592 55.1684C170.564 55.012 180.873 52.5912 184.96 55.1684C189.047 57.7456 191.631 65.3208 191.631 65.3208C191.631 65.3208 191.332 100.334 189.509 111.704L160.412 111.098C160.412 111.098 155.836 72.7192 157.685 62.458Z" fill="#8CA2CE"/>
<path d="M190.271 75.174L194.813 83.5108C194.813 83.5108 195.418 102.306 193.909 107.154L191.631 111.704V119L197.071 119.755L198.587 113.995C198.587 113.995 199.492 109.752 198.587 107.936C198.587 107.936 204.952 93.3844 202.667 80.8044C202.667 80.8044 191.182 55.4812 184.137 54.7808C177.092 54.0804 190.271 75.174 190.271 75.174Z" fill="#FFB573"/>
<path d="M180.996 54.8148C180.996 54.8148 176.501 59.1532 172.4 59.0308C168.3 58.9084 169.422 55.4132 169.422 55.4132C171.53 55.0188 172.217 52.9108 172.414 51.102C172.511 50.198 172.511 49.2861 172.414 48.382C172.414 48.382 167.525 48.382 164.778 42.4116C162.03 36.4412 164.778 28.5736 164.778 28.5736C164.778 28.5736 175.161 25.9488 179.812 27.2612C184.464 28.5736 180.771 40.2628 180.771 40.2628C179.561 46.8248 180.996 54.8148 180.996 54.8148Z" fill="#FFB573"/>
<path d="M171.884 34.7956C171.884 35.2648 171.625 35.6456 171.312 35.6456C171 35.6456 170.748 35.2648 170.748 34.7956C170.748 34.3264 171 33.9456 171.312 33.9456C171.625 33.9456 171.884 34.3264 171.884 34.7956Z" fill="#263238"/>
<path d="M166.09 35.36C166.09 35.8292 165.838 36.21 165.526 36.21C165.213 36.21 164.954 35.8292 164.954 35.36C164.954 34.8908 165.213 34.51 165.526 34.51C165.838 34.51 166.09 34.8704 166.09 35.36Z" fill="#263238"/>
<path d="M168.008 35.768V40.3308C167.633 40.4472 167.232 40.45 166.855 40.3386C166.479 40.2273 166.144 40.0069 165.893 39.7052L168.008 35.768Z" fill="#ED893E"/>
<path d="M169.946 41.1264C169.946 41.1264 172.366 41.1264 173.25 39.134" stroke="#263238" stroke-linecap="round" stroke-linejoin="round"/>
<path d="M170.748 31.518C170.748 31.518 172.856 31.348 173.468 32.6604" stroke="#263238" stroke-linecap="round" stroke-linejoin="round"/>
<path d="M163.547 33.1228C163.713 32.7084 163.982 32.343 164.328 32.0611C164.674 31.7792 165.086 31.5899 165.526 31.5112" stroke="#263238" stroke-linecap="round" stroke-linejoin="round"/>
<path opacity="0.2" d="M176.12 47.6544C175.161 49.0667 173.897 50.2451 172.421 51.102C172.518 50.1979 172.518 49.2861 172.421 48.382C173.69 48.3844 174.947 48.1371 176.12 47.6544Z" fill="black"/>
<path d="M171.19 59.1736L173.658 58.9424L174.352 64.0968L173.067 66.4564H171.598L170.224 63.8996L171.19 59.1736Z" fill="#263238"/>
<path d="M180.696 52.7408C178.236 55.2122 175.444 57.3292 172.4 59.0308L173.869 62.6756C173.869 62.6756 180.03 61.6148 182.668 54.3048L180.696 52.7408Z" fill="white"/>
<path d="M172.4 59.0308L170.748 62.6756C170.748 62.6756 168.246 60.2072 167.647 55.4404L170.748 53.4616C170.748 53.4616 170.864 57.0316 172.4 59.0308Z" fill="white"/>
<path d="M171.707 65.0964L170.027 86.8904L172.849 90.3176L175.454 86.6796L172.91 65.0964H171.707Z" fill="#282B43"/>
<path d="M182.866 36.992C182.866 36.992 176.909 37.7128 175.923 29.0836C175.923 29.0836 165.43 32.2184 161.643 29.002C157.855 25.7856 160.929 21.6036 160.929 21.6036C161.254 22.4173 161.643 23.2041 162.092 23.9564V21.2364C162.729 22.073 163.431 22.8575 164.193 23.5824C167.249 24.0742 170.38 23.4697 173.033 21.8756C177.582 19.1556 183.369 24.3168 182.301 28.2948C182.335 28.3152 187.462 32.3136 182.866 36.992Z" fill="#263238"/>
<path d="M178.779 37.2368C178.779 37.2368 180.384 31.5452 183.022 33.5512C185.66 35.5572 181.9 41.1604 180.064 40.8408C178.228 40.5212 178.779 37.2368 178.779 37.2368Z" fill="#FFB573"/>
<path d="M132.512 68.68L138.251 65.5112C138.251 65.5112 144.418 77.4248 147.995 78.9208C147.995 78.9208 155.264 71.5836 157.658 62.3968L160.915 77.7104C160.915 77.7104 155.278 89.6172 148.152 89.7872C141.025 89.9572 135.184 76.398 132.512 68.68Z" fill="#8CA2CE"/>
<path d="M186.191 70.4344L194.84 84.32L193.399 105.828L199.906 107.1C199.906 107.1 204.918 92.14 202.694 80.818C201.083 72.5968 195.99 62.1724 190.08 57.188C187.98 55.4664 185.381 54.4673 182.668 54.3388C182.668 54.3388 181.07 58.0244 181.152 61.1388C181.234 64.2532 186.191 70.4344 186.191 70.4344Z" fill="#8CA2CE"/>
<path opacity="0.2" d="M191.4 78.7848L186.191 70.4344C186.64 71.1552 191.4 85.5848 191.4 85.5848V78.7848Z" fill="black"/>
<path opacity="0.2" d="M174.44 135.17C174.44 135.17 174.182 137.122 173.794 140.264L172.434 123.726L174.44 135.17Z" fill="black"/>
<path d="M199.084 235.851L204.36 233.396L202.844 229.255L201.736 226.229L197.193 227.555L196.35 227.936L197.649 231.71L199.084 235.851Z" fill="#FFB573"/>
<path opacity="0.2" d="M197.649 231.71L202.844 229.255L201.736 226.229L197.193 227.555L196.35 227.936L197.649 231.71Z" fill="black"/>
<path d="M198.009 236.545C198.009 236.545 194.052 231.948 192.855 233.043C191.658 234.138 198.009 236.545 198.009 236.545Z" stroke="#8CA2CE" stroke-miterlimit="10"/>
<path d="M197.703 236.64C197.703 236.64 193.922 235.144 193.229 236.599C192.535 238.054 197.703 236.64 197.703 236.64Z" stroke="#8CA2CE" stroke-miterlimit="10"/>
<path d="M198.744 233.58L204.258 231.35C204.644 231.195 205.074 231.199 205.457 231.361C205.839 231.522 206.141 231.829 206.298 232.213L208.08 236.64C208.158 236.831 208.197 237.035 208.195 237.24C208.194 237.446 208.152 237.65 208.072 237.839C207.991 238.029 207.875 238.201 207.728 238.345C207.581 238.489 207.407 238.603 207.216 238.68L191.542 245.011C191.351 245.089 191.147 245.129 190.94 245.127C190.734 245.126 190.53 245.083 190.34 245.002C190.15 244.921 189.979 244.803 189.835 244.655C189.691 244.508 189.578 244.332 189.502 244.14C189.362 243.797 189.349 243.415 189.465 243.062C189.581 242.709 189.818 242.41 190.135 242.216C192.216 240.944 196.54 237.966 197.86 234.484C197.934 234.28 198.052 234.093 198.204 233.937C198.357 233.781 198.541 233.659 198.744 233.58Z" fill="#263238"/>
<path d="M160.528 241.053L166.342 240.91L166.6 236.504L166.79 233.288L162.098 232.696L161.174 232.71L160.861 236.688L160.528 241.053Z" fill="#FFB573"/>
<path opacity="0.2" d="M160.861 236.688L166.6 236.504L166.79 233.288L162.098 232.696L161.174 232.71L160.861 236.688Z" fill="black"/>
<path d="M159.263 241.264C159.263 241.264 157.468 235.47 155.938 236.001C154.408 236.531 159.263 241.264 159.263 241.264Z" stroke="#8CA2CE" stroke-miterlimit="10"/>
<path d="M158.93 241.257C158.93 241.257 156.06 238.374 154.85 239.435C153.639 240.496 158.93 241.257 158.93 241.257Z" stroke="#8CA2CE" stroke-miterlimit="10"/>
<path d="M161.119 238.836L167.069 238.993C167.276 238.998 167.479 239.044 167.667 239.128C167.856 239.212 168.026 239.332 168.168 239.482C168.31 239.631 168.421 239.807 168.495 240C168.569 240.193 168.605 240.398 168.599 240.604L168.47 245.364C168.465 245.57 168.419 245.773 168.335 245.962C168.251 246.15 168.131 246.319 167.981 246.461C167.831 246.603 167.655 246.713 167.462 246.786C167.27 246.86 167.064 246.894 166.858 246.888L149.96 246.446C149.754 246.44 149.551 246.394 149.363 246.31C149.175 246.226 149.005 246.106 148.864 245.956C148.722 245.807 148.612 245.63 148.539 245.438C148.465 245.245 148.431 245.04 148.437 244.834C148.448 244.462 148.591 244.106 148.84 243.83C149.089 243.553 149.428 243.374 149.797 243.324C152.218 242.984 157.366 241.964 159.963 239.306C160.114 239.153 160.294 239.033 160.493 238.952C160.692 238.871 160.905 238.832 161.119 238.836Z" fill="#263238"/>
<path d="M193.977 231.118L191.06 226.039L203.755 221.34L204.646 228.072L193.977 231.118Z" fill="#8CA2CE"/>
<path d="M157.155 228.031V234.6H170.476L170.986 228.031H157.155Z" fill="#8CA2CE"/>
<path d="M228.262 67.4696C228.262 67.4696 224.4 82.7016 220.32 87.4208C220.32 87.4208 212.915 80.0224 210.664 73.5828C210.664 73.5828 210.453 70.5772 208.304 69.292L205.088 64.8924L199.723 66.8236L201.008 71.1144L206.591 74.2288C206.591 74.2288 213.67 93.7516 220.102 93.6428C226.535 93.534 229.439 84.9524 229.439 84.9524L232.975 66.5924L228.262 67.4696Z" fill="#FF8B7B"/>
<path d="M206.72 76.058L210.691 73.5828C210.691 73.5828 217.45 84.626 220.612 86.8428C220.612 86.8428 224.55 79.662 225.896 73.7528C226.602 70.5374 227.472 67.3599 228.5 64.2328L233.002 70.754C233.002 70.754 230.044 91.5212 223.924 93.6292C217.804 95.7372 214.343 89.76 212.949 87.4072C211.555 85.0544 206.72 76.058 206.72 76.058Z" fill="#263238"/>
<path d="M240.754 225.549C240.754 225.801 244.834 231.567 244.834 231.567L249.104 226.046L244.501 219.524L240.754 225.549Z" fill="#FF8B7B"/>
<path d="M242.91 229.364L247.33 224.57C247.64 224.236 248.071 224.038 248.527 224.02C248.983 224.002 249.428 224.166 249.764 224.475L253.599 228.024C253.765 228.177 253.9 228.361 253.994 228.566C254.089 228.771 254.142 228.993 254.151 229.218C254.16 229.444 254.124 229.669 254.046 229.881C253.968 230.092 253.848 230.287 253.694 230.452L241.128 244.052C240.817 244.384 240.388 244.581 239.934 244.599C239.479 244.616 239.036 244.454 238.7 244.147C238.4 243.871 238.208 243.497 238.159 243.092C238.109 242.687 238.204 242.278 238.428 241.937C239.897 239.7 242.78 234.736 242.461 230.663C242.442 230.427 242.471 230.19 242.549 229.966C242.626 229.743 242.749 229.538 242.91 229.364Z" fill="#263238"/>
<path d="M231.594 222.87L243.998 211.99L248.56 221.462L240.081 228.834L231.594 222.87Z" fill="#8CA2CE"/>
<path d="M227.059 99.586C227.059 99.586 213.683 157.978 213.459 171.986C213.234 185.994 225.454 210.29 233.179 221.666L243.583 213.391L228.507 176.671L235.504 130.948L243.583 223.591L253.565 224.869C253.565 224.869 254.837 189.836 253.565 177.099C252.294 164.363 259.366 121.047 254.13 104.482L227.059 99.586Z" fill="#263238"/>
<path d="M254.164 104.468C254.164 104.468 256.442 82.7492 260.814 74.2424L262.514 64.4028C262.514 64.4028 259.352 60.5132 252.185 60.6356C245.018 60.758 241.862 59.9556 241.862 59.9556C241.862 59.9556 232.499 59.3232 230.302 61.3904C228.106 63.4576 227.997 72.8144 227.63 77.3092C227.263 81.804 226.406 102.469 226.406 102.469L254.164 104.468Z" fill="#8CA2CE"/>
<path d="M253.531 59.9148C253.531 59.9148 242.76 72.5288 244.8 104.468L257.394 106.631L255.68 93.3844L263.752 69.1696C263.752 69.1696 265.445 61.6284 253.531 59.9148Z" fill="#263238"/>
<path d="M241.25 59.9148C241.25 59.9148 229.65 68.3876 228.759 100.898L222.686 101.068L227.657 75.0652C226.785 72.7183 226.67 70.1568 227.331 67.7416C228.011 65.4024 228.745 62.6552 230.309 61.3632C232.798 59.3028 236.762 59.4796 241.25 59.9148Z" fill="#263238"/>
<path d="M255.462 67.5444C255.462 67.5444 262.684 85.0748 260.902 92.1672C260.902 92.1672 248.445 88.9644 242.699 83.3952C242.699 83.3952 240.897 80.3556 237.939 80.1312L232.254 77.214L227.644 82.0556L231.248 85.8772L238.728 86.2104C238.728 86.2104 256.408 102.972 263.112 99.4772C266.247 97.8384 267.594 94.656 268.138 91.732C268.645 88.8626 268.487 85.9151 267.675 83.1164L262.881 65.96L255.462 67.5444Z" fill="#FF8B7B"/>
<path d="M238.272 87.8832L243.195 82.1576C243.195 82.1576 254.13 90.5896 260.875 92.1672C260.287 86.407 259.379 80.6839 258.155 75.0244L254.755 69.1696L255.068 66.708L263.31 65.6404C263.31 65.6404 270.79 86.5504 268.804 94.0848C266.818 101.619 262.555 102.367 255.374 99.586C248.193 96.8048 238.272 87.8832 238.272 87.8832Z" fill="#263238"/>
<path d="M253.701 240.013H246.854L246.459 234.314L246.262 231.465L246.146 229.82L253.694 230.452V234.314L253.701 240.013Z" fill="#FF8B7B"/>
<path d="M246.561 237.463H253.082C253.539 237.463 253.976 237.644 254.299 237.967C254.622 238.289 254.803 238.727 254.803 239.183V244.412C254.801 244.867 254.619 245.303 254.297 245.625C253.974 245.946 253.538 246.126 253.082 246.126H234.559C234.334 246.127 234.11 246.083 233.901 245.998C233.693 245.912 233.503 245.786 233.343 245.627C233.183 245.467 233.056 245.278 232.97 245.07C232.883 244.861 232.839 244.638 232.839 244.412C232.838 244.005 232.982 243.611 233.244 243.299C233.507 242.988 233.872 242.78 234.274 242.712C236.919 242.277 242.522 241.026 245.296 238.02C245.457 237.845 245.653 237.705 245.87 237.609C246.088 237.513 246.323 237.463 246.561 237.463Z" fill="#263238"/>
<path opacity="0.1" d="M253.531 59.9148C252.29 61.5556 251.241 63.3329 250.403 65.212C247.965 70.5924 246.332 76.302 245.555 82.1576L253.531 75.6976L251.797 70.142L261.501 63.0972C261.501 63.0972 258.964 60.52 253.531 59.9148Z" fill="white"/>
<path opacity="0.1" d="M231.839 77.7648C231.839 77.7648 235.681 64.0628 241.25 59.9148C241.25 59.9148 234.648 58.9968 231.608 60.5404L232.288 70.142L229.452 71.0328L231.839 77.7648Z" fill="white"/>
<path d="M261.637 37.23C262.942 40.5008 261.542 44.1796 261.671 47.6952C261.725 49.3 262.106 50.8776 262.147 52.4552C262.188 54.0328 261.82 55.7736 260.644 56.8684C259.583 57.868 258.067 58.1672 256.639 58.4324C254.408 58.8336 251.988 59.2144 249.988 58.1536C249.526 57.9088 249.104 57.596 248.628 57.392C247.641 57.0548 246.586 56.9638 245.555 57.1268C244.527 57.2924 243.475 57.2415 242.468 56.9772C239.285 55.8688 241.475 51.4896 242.019 49.2456C242.857 45.8093 243.692 42.3753 244.521 38.9436C247.955 38.2636 251.362 37.3116 254.803 36.618C255.927 36.2975 257.11 36.2463 258.257 36.4684C259.332 36.7948 260.562 37.5768 261.637 37.23Z" fill="#263238"/>
<path d="M261.725 43.9892C261.459 44.8825 260.886 45.6531 260.107 46.1652C259.311 46.5868 259.189 47.3348 259.257 48.2052C259.4 50.2452 260.508 53.1284 256.693 54.7604C256.133 55.0407 255.504 55.1532 254.882 55.0844C254.259 55.0157 253.67 54.7686 253.184 54.3728C250.505 52.258 249.655 46.3284 249.655 46.3284L244.8 32.3272C244.816 32.2969 244.837 32.2693 244.861 32.2456L244.902 32.1708C244.919 32.143 244.939 32.1178 244.963 32.096C245.135 31.8565 245.324 31.6293 245.528 31.416C245.679 31.2397 245.841 31.0718 246.01 30.9128C247.785 29.2672 251.45 27.166 256.707 30.6748C262.48 34.5372 262.976 40.6504 261.725 43.9892Z" fill="#263238"/>
<path d="M262.004 45.1724C262.065 46.7976 260.569 47.7292 259.284 48.2392C258.656 48.4758 258.007 48.6511 257.346 48.7628C256.149 50.7552 253.558 52.1628 253.558 52.1628C253.366 52.9014 253.249 53.658 253.212 54.4204C253.142 56.2656 253.259 58.1132 253.558 59.9352L251.804 62.6552C244.494 66.0008 241.89 59.9352 241.89 59.9352C244.569 59.6496 245.426 57.3988 245.677 55.5084C245.78 54.6411 245.78 53.7645 245.677 52.8972C244.49 52.3973 243.438 51.6214 242.61 50.6339C241.783 49.6464 241.202 48.4758 240.917 47.2192C240.054 43.5608 240.761 40.12 242.277 36.7404C242.887 35.3919 243.617 34.1014 244.46 32.8848L244.8 32.334C244.816 32.3037 244.837 32.2761 244.861 32.2524C244.89 32.1994 244.925 32.1494 244.963 32.1028V32.0552C245.086 31.8988 245.262 31.6744 245.494 31.4296H245.534L254.708 30.2396L258.692 33.422L260.086 41.31L258.046 43.7376L257.196 44.7508L256.986 44.9956L257.251 44.7712C258.869 43.4112 260.936 42.7312 261.691 44.0164C261.887 44.3711 261.994 44.7676 262.004 45.1724Z" fill="#FF8B7B"/>
<path d="M249.614 39.2836C249.499 39.7664 249.145 40.0996 248.832 40.0248C248.52 39.95 248.35 39.4944 248.465 39.0048C248.581 38.5152 248.934 38.1888 249.254 38.2636C249.574 38.3384 249.737 38.794 249.614 39.2836Z" fill="#263238"/>
<path d="M244.392 37.876C244.276 38.3656 243.923 38.6988 243.603 38.624C243.284 38.5492 243.12 38.0868 243.236 37.604C243.352 37.1212 243.705 36.7812 244.025 36.856C244.344 36.9308 244.508 37.4 244.392 37.876Z" fill="#263238"/>
<path d="M249.336 38.2976L248.078 37.6176C248.078 37.6176 248.295 38.9028 249.336 38.2976Z" fill="#263238"/>
<path d="M244.12 36.9308L242.862 36.2508C242.862 36.2508 243.1 37.5428 244.12 36.9308Z" fill="#263238"/>
<path d="M245.67 38.454L244.474 42.7584C244.312 42.8092 244.142 42.8268 243.973 42.8102C243.805 42.7937 243.641 42.7432 243.493 42.6619C243.344 42.5807 243.213 42.4702 243.109 42.3372C243.004 42.2042 242.927 42.0514 242.882 41.888L245.67 38.454Z" fill="#FF5652"/>
<path d="M245.929 45.7504C245.929 45.7504 248.9 46.1924 249.75 43.7104" stroke="#263238" stroke-linecap="round" stroke-linejoin="round"/>
<path d="M249.655 35.9108C249.907 35.779 250.183 35.6999 250.466 35.6784C250.749 35.6569 251.034 35.6934 251.302 35.7857C251.571 35.878 251.818 36.0241 252.028 36.2152C252.238 36.4062 252.407 36.6382 252.525 36.8968" stroke="#263238" stroke-linecap="round" stroke-linejoin="round"/>
<path d="M245.514 34.1292C245.29 33.9793 245.036 33.8789 244.77 33.8348C244.504 33.7907 244.231 33.8038 243.971 33.8733C243.71 33.9428 243.467 34.0671 243.259 34.2379C243.05 34.4086 242.88 34.6219 242.76 34.8636" stroke="#263238" stroke-linecap="round" stroke-linejoin="round"/>
<path d="M260.807 41.4188L257.285 44.744H257.23C251.342 42.84 252.525 31.96 252.525 31.96C250.859 33.0208 244.956 32.436 244.8 32.3136C245.119 31.8419 245.486 31.4044 245.895 31.008C246.153 30.7564 246.976 30.8312 247.316 30.804L249.485 30.634L253.878 30.2804C254.007 30.2804 254.619 30.124 254.728 30.2124L258.713 33.3948L260.807 41.4188Z" fill="#263238"/>
<path opacity="0.2" d="M248.676 53.3596C247.908 54.3639 246.852 55.1109 245.65 55.5016C245.753 54.6343 245.753 53.7577 245.65 52.8904C246.629 53.2007 247.649 53.3589 248.676 53.3596Z" fill="black"/>
<path opacity="0.3" d="M234.036 140.746L234.79 121.332L235.538 130.934L234.036 140.746Z" fill="black"/>
<path opacity="0.1" d="M253.694 231.112V234.314H246.459L246.262 231.465L253.694 231.112Z" fill="black"/>
<path d="M242.128 223.339L243.882 233.165H254.64L256.122 222.87L242.128 223.339Z" fill="#8CA2CE"/>
</svg>
