<svg width="340" height="254" viewBox="0 0 340 254" fill="none" xmlns="http://www.w3.org/2000/svg">
<path d="M298.731 66.8916C298.915 65.7977 298.857 64.6766 298.56 63.6076C298.264 62.5386 297.737 61.5477 297.016 60.7047C296.295 59.8617 295.397 59.1872 294.387 58.7288C293.377 58.2704 292.278 58.0392 291.169 58.0516C290.752 58.0531 290.336 58.0895 289.925 58.1604C289.046 56.6937 287.757 55.5165 286.217 54.7742C284.677 54.0319 282.953 53.7569 281.258 53.9833C279.564 54.2097 277.973 54.9275 276.681 56.0481C275.39 57.1687 274.455 58.6429 273.992 60.2888C273.446 60.1216 272.878 60.0368 272.306 60.0372C270.798 60.0372 269.352 60.6361 268.286 61.7022C267.22 62.7683 266.621 64.2143 266.621 65.722C266.623 66.1243 266.666 66.5254 266.75 66.9188L298.731 66.8916Z" fill="#F0F0F0"/>
<path d="M98.6 36.6248C98.7128 35.9505 98.7719 35.2684 98.7768 34.5848C98.7768 31.0879 97.3876 27.7342 94.9149 25.2614C92.4422 22.7887 89.0885 21.3996 85.5916 21.3996C84.8759 21.4044 84.1617 21.4681 83.4564 21.59C81.9483 19.0704 79.7354 17.0476 77.0908 15.7713C74.4462 14.495 71.4858 14.021 68.575 14.408C65.6642 14.7949 62.9303 16.0257 60.711 17.9485C58.4917 19.8713 56.884 22.4019 56.0864 25.228C54.4555 24.7169 52.7189 24.643 51.0505 25.014C49.3821 25.3849 47.8403 26.1875 46.5796 27.3415C45.3189 28.4955 44.3834 29.9604 43.8667 31.5896C43.35 33.2188 43.2703 34.9551 43.6356 36.6248H98.6Z" fill="#F0F0F0"/>
<path d="M340 222.632H0V222.802H340V222.632Z" fill="#EBEBEB"/>
<path d="M305.932 233.573H283.41V233.743H305.932V233.573Z" fill="#EBEBEB"/>
<path d="M225.23 235.423H219.32V235.593H225.23V235.423Z" fill="#EBEBEB"/>
<path d="M282.73 227.263H269.681V227.433H282.73V227.263Z" fill="#EBEBEB"/>
<path d="M65.042 228.405H35.6728V228.575H65.042V228.405Z" fill="#EBEBEB"/>
<path d="M75.4052 228.405H71.1008V228.575H75.4052V228.405Z" fill="#EBEBEB"/>
<path d="M153.102 231.275H89.3996V231.445H153.102V231.275Z" fill="#EBEBEB"/>
<path d="M161.16 192.304H29.8588C28.8302 192.302 27.8443 191.892 27.1176 191.164C26.3909 190.436 25.9828 189.45 25.9828 188.421V3.8488C25.9917 2.8261 26.4038 1.84823 27.1296 1.12759C27.8553 0.406952 28.836 0.00175194 29.8588 0H161.16C162.19 0 163.177 0.40908 163.906 1.13725C164.634 1.86541 165.043 2.85302 165.043 3.8828V188.421C165.043 189.451 164.634 190.439 163.906 191.167C163.177 191.895 162.19 192.304 161.16 192.304ZM29.8588 0.136001C28.8753 0.137802 27.9327 0.529764 27.2378 1.22585C26.543 1.92194 26.1528 2.86528 26.1528 3.8488V188.421C26.1528 189.405 26.543 190.348 27.2378 191.044C27.9327 191.74 28.8753 192.132 29.8588 192.134H161.16C162.144 192.132 163.087 191.74 163.783 191.045C164.479 190.349 164.871 189.405 164.873 188.421V3.8488C164.871 2.86466 164.479 1.92133 163.783 1.22544C163.087 0.529543 162.144 0.137798 161.16 0.136001H29.8588Z" fill="#EBEBEB"/>
<path d="M308.251 192.304H176.943C175.914 192.302 174.927 191.893 174.199 191.165C173.471 190.437 173.062 189.45 173.06 188.421V3.8488C173.071 2.82548 173.484 1.84761 174.211 1.12716C174.938 0.406714 175.919 0.00173284 176.943 0H308.251C309.272 0.00353906 310.251 0.409529 310.976 1.12997C311.7 1.85042 312.111 2.82727 312.12 3.8488V188.421C312.12 189.449 311.713 190.434 310.988 191.162C310.262 191.89 309.278 192.3 308.251 192.304ZM176.943 0.136001C175.959 0.137798 175.015 0.529543 174.319 1.22544C173.624 1.92133 173.232 2.86466 173.23 3.8488V188.421C173.232 189.405 173.624 190.349 174.319 191.045C175.015 191.74 175.959 192.132 176.943 192.134H308.251C309.235 192.132 310.178 191.74 310.874 191.045C311.57 190.349 311.962 189.405 311.964 188.421V3.8488C311.962 2.86466 311.57 1.92133 310.874 1.22544C310.178 0.529543 309.235 0.137798 308.251 0.136001H176.943Z" fill="#EBEBEB"/>
<path d="M25.7788 202.953V157.746H47.5524V145.384H57.9768V109.052L71.4408 95.5876H98.7768V134.518H136.279V142.208H162.792V132.104H191.277V124.488H213.52V79.39H252.899V108.127H261.963V118.538H283.036V135.612H294.297L302.96 144.276V153.088H311.59V202.953H25.7788Z" fill="#F0F0F0"/>
<path d="M52.2988 157.746H47.9264L47.5524 157.488V157.746H25.7788V202.953H52.2988V157.746Z" fill="#E6E6E6"/>
<path d="M163.173 135.395V142.208H162.098L160.956 149.498L164.186 202.953H200.11V132.104H191.658H163.683L163.173 135.395Z" fill="#E6E6E6"/>
<path d="M246.806 118.538V202.953H311.964V153.088H303.334V144.276L294.671 135.612H283.41V118.538H264.282H262.337H246.806Z" fill="#E6E6E6"/>
<path d="M294.712 140.196H290.775V144.133H294.712V140.196Z" fill="white"/>
<path d="M287.756 140.196H283.818V144.133H287.756V140.196Z" fill="white"/>
<path d="M294.712 147.533H290.775V151.47H294.712V147.533Z" fill="white"/>
<path d="M287.756 147.533H283.818V151.47H287.756V147.533Z" fill="white"/>
<path d="M273.21 121.713H269.273V125.65H273.21V121.713Z" fill="white"/>
<path d="M266.254 121.713H262.317V125.65H266.254V121.713Z" fill="white"/>
<path d="M47.7292 164.118H43.792V168.055H47.7292V164.118Z" fill="white"/>
<path d="M40.7728 164.118H36.8356V168.055H40.7728V164.118Z" fill="white"/>
<path d="M195.575 147.614V143.677H191.638V147.614H195.575Z" fill="white"/>
<path d="M195.575 140.658V136.721H191.638V140.658H195.575Z" fill="white"/>
<path d="M168.681 253.341C241.497 253.341 300.526 249.894 300.526 245.643C300.526 241.392 241.497 237.946 168.681 237.946C95.8647 237.946 36.8356 241.392 36.8356 245.643C36.8356 249.894 95.8647 253.341 168.681 253.341Z" fill="#F5F5F5"/>
<path d="M301.6 212.119H264.452V242.842H301.6V212.119Z" fill="#484F88"/>
<path opacity="0.3" d="M301.6 212.119H264.452V242.842H301.6V212.119Z" fill="white"/>
<path d="M273.612 212.119H244.82V242.842H273.612V212.119Z" fill="#484F88"/>
<path opacity="0.1" d="M273.612 212.119H244.82V242.842H273.612V212.119Z" fill="white"/>
<path opacity="0.3" d="M263.289 212.119H255.143V221.68H263.289V212.119Z" fill="white"/>
<path opacity="0.1" d="M293.685 212.119H285.539V221.68H293.685V212.119Z" fill="black"/>
<path d="M285.981 230.2H284.906C284.889 229.888 284.889 229.575 284.906 229.262C284.906 228.772 285.28 227.827 285.96 228.256C286.171 228.385 286.416 228.086 286.205 227.956C286.053 227.865 285.88 227.812 285.702 227.804C285.525 227.795 285.348 227.831 285.187 227.908C285.027 227.985 284.888 228.1 284.783 228.244C284.678 228.388 284.611 228.555 284.587 228.732C284.496 229.211 284.473 229.701 284.519 230.187H283.9C283.655 230.187 283.587 230.561 283.839 230.568H284.519C284.519 231.166 284.519 231.764 284.519 232.363C284.519 232.614 284.906 232.567 284.906 232.322C284.906 231.737 284.906 231.159 284.906 230.574H285.913C286.164 230.588 286.232 230.207 285.981 230.2Z" fill="white"/>
<path d="M287.762 229.357C287.736 229.351 287.708 229.351 287.681 229.357C285.92 229.228 286.198 232.111 287.885 232.077C288.245 232.025 288.573 231.841 288.806 231.561C289.038 231.281 289.158 230.924 289.143 230.561C289.148 230.386 289.115 230.211 289.045 230.051C288.975 229.89 288.87 229.747 288.738 229.632C288.606 229.517 288.45 229.432 288.281 229.385C288.112 229.337 287.935 229.328 287.762 229.357ZM288.028 231.662C286.756 231.996 286.348 229.622 287.654 229.765C287.694 229.776 287.736 229.776 287.776 229.765C289 229.582 289 231.404 288.028 231.662Z" fill="white"/>
<path d="M291.965 230.071C291.441 228.371 288.803 229.765 289.558 231.316C289.75 231.62 290.047 231.843 290.392 231.944C290.738 232.046 291.108 232.018 291.434 231.866C291.598 231.803 291.745 231.705 291.866 231.577C291.987 231.45 292.078 231.298 292.133 231.131C292.187 230.965 292.204 230.788 292.182 230.614C292.16 230.44 292.1 230.273 292.006 230.126L291.965 230.071ZM289.864 231.044C289.503 230.01 291.224 229.004 291.604 230.228C291.609 230.249 291.618 230.269 291.63 230.287C291.643 230.304 291.66 230.319 291.679 230.33C292.346 231.52 290.231 232.118 289.864 231.044Z" fill="white"/>
<path d="M294.916 231.948C294.8 230.384 294.692 228.82 294.576 227.263C294.576 227.011 294.175 227.059 294.188 227.304L294.331 229.276C294.125 229.209 293.906 229.19 293.692 229.221C293.477 229.252 293.272 229.331 293.093 229.453C292.914 229.575 292.765 229.737 292.658 229.925C292.551 230.114 292.488 230.324 292.475 230.54C292.42 231.594 293.644 231.955 294.515 231.839V231.989C294.549 232.234 294.936 232.193 294.916 231.948ZM292.876 230.71C292.865 230.54 292.895 230.37 292.965 230.215C293.034 230.059 293.14 229.923 293.274 229.818C293.408 229.713 293.566 229.642 293.733 229.611C293.901 229.581 294.074 229.592 294.236 229.643C294.274 229.653 294.314 229.653 294.352 229.643C294.399 230.241 294.44 230.84 294.488 231.445C293.896 231.526 292.964 231.404 292.862 230.71H292.876Z" fill="white"/>
<path d="M169.98 27.5468H78.2136C72.5803 27.5468 68.0136 32.1135 68.0136 37.7468V229.194C68.0136 234.827 72.5803 239.394 78.2136 239.394H169.98C175.613 239.394 180.18 234.827 180.18 229.194V37.7468C180.18 32.1135 175.613 27.5468 169.98 27.5468Z" fill="#263238"/>
<path d="M172.931 41.6704H75.2693V212.051H172.931V41.6704Z" fill="#484F88"/>
<path opacity="0.3" d="M172.931 195.16H75.2693V212.044H172.931V195.16Z" fill="white"/>
<path opacity="0.1" d="M172.931 111.778C148.104 136.469 102.129 182.655 75.2693 209.698V212.078H129.839L172.931 168.994V111.778Z" fill="white"/>
<path opacity="0.1" d="M75.2693 127.35L160.949 41.6704H120.884C110.276 52.1968 92.1537 70.3528 75.2693 87.2985V127.35Z" fill="white"/>
<path opacity="0.1" d="M75.2693 163.166L172.931 65.5044V44.608L75.2693 142.263V163.166Z" fill="white"/>
<path opacity="0.2" d="M172.931 41.6704H75.2693V49.3545H172.931V41.6704Z" fill="black"/>
<path d="M125.177 230.31C128.806 229.721 131.271 226.301 130.682 222.672C130.093 219.043 126.673 216.578 123.044 217.167C119.415 217.756 116.95 221.176 117.539 224.805C118.128 228.434 121.548 230.899 125.177 230.31Z" fill="#484F88"/>
<g opacity="0.6">
<path opacity="0.6" d="M85.8296 47.2737H87.3052V45.3017H85.8296V47.2737Z" fill="white"/>
<path opacity="0.6" d="M83.4224 47.2737H84.898V44.6489H83.4224V47.2737Z" fill="white"/>
<path opacity="0.6" d="M81.0152 47.2737H82.4908V43.9893H81.0152V47.2737Z" fill="white"/>
<path opacity="0.6" d="M78.608 47.2737H80.0836V43.3297H78.608V47.2737Z" fill="white"/>
</g>
<path opacity="0.6" d="M162.568 44.5808H161.69V46.5528H162.568V44.5808Z" fill="white"/>
<path opacity="0.6" d="M163.173 47.2736H170.156V43.8668H163.173V47.2736Z" fill="white"/>
<path opacity="0.4" d="M128.962 143.48C126.725 141.44 124.1 144.16 124.1 144.16C124.1 144.16 121.482 141.44 119.238 143.446C116.042 146.309 120.686 151.429 124.1 152.456C127.514 151.456 132.158 146.336 128.962 143.48Z" fill="white"/>
<path d="M152.068 157.76H96.1317C94.44 157.76 92.8176 158.432 91.6214 159.628C90.4253 160.824 89.7533 162.447 89.7533 164.138C89.7533 165.83 90.4253 167.452 91.6214 168.649C92.8176 169.845 94.44 170.517 96.1317 170.517H152.068C153.76 170.517 155.382 169.845 156.579 168.649C157.775 167.452 158.447 165.83 158.447 164.138C158.447 162.447 157.775 160.824 156.579 159.628C155.382 158.432 153.76 157.76 152.068 157.76Z" fill="white"/>
<path d="M105.652 167.532V160.766H108.12C108.614 160.757 109.105 160.85 109.562 161.038C109.954 161.201 110.306 161.447 110.595 161.758C110.874 162.07 111.085 162.436 111.214 162.833C111.513 163.715 111.513 164.671 111.214 165.553C111.067 165.954 110.835 166.318 110.534 166.62C110.236 166.915 109.883 167.146 109.494 167.3C109.06 167.468 108.598 167.551 108.134 167.545L105.652 167.532ZM110.078 164.132C110.079 163.83 110.036 163.53 109.949 163.241C109.867 162.991 109.735 162.759 109.562 162.561C109.388 162.363 109.172 162.207 108.929 162.105C108.663 161.992 108.376 161.936 108.086 161.942H106.95V166.396H108.12C108.415 166.402 108.707 166.344 108.977 166.226C109.215 166.117 109.426 165.957 109.596 165.757C109.77 165.546 109.901 165.304 109.983 165.043C110.06 164.748 110.092 164.443 110.078 164.138V164.132Z" fill="#E0E0E0"/>
<path d="M115.267 167.579C114.797 167.587 114.332 167.487 113.907 167.287C113.516 167.1 113.167 166.836 112.88 166.512C112.302 165.861 111.98 165.022 111.976 164.152C111.974 163.707 112.059 163.266 112.227 162.853C112.384 162.449 112.615 162.078 112.907 161.758C113.202 161.439 113.558 161.183 113.954 161.004C114.365 160.813 114.814 160.718 115.267 160.725C115.726 160.717 116.181 160.82 116.593 161.024C116.993 161.223 117.35 161.5 117.64 161.84C117.933 162.165 118.163 162.541 118.32 162.948C118.479 163.346 118.559 163.771 118.558 164.2C118.56 164.642 118.477 165.081 118.313 165.492C118.155 165.893 117.924 166.261 117.633 166.58C117.342 166.898 116.987 167.153 116.593 167.328C116.176 167.511 115.722 167.597 115.267 167.579ZM113.322 164.179C113.323 164.466 113.369 164.75 113.458 165.022C113.542 165.285 113.671 165.531 113.839 165.75C114.009 165.955 114.217 166.126 114.451 166.253C114.708 166.382 114.993 166.447 115.28 166.444C115.571 166.448 115.859 166.38 116.117 166.246C116.355 166.119 116.563 165.943 116.729 165.73C116.895 165.511 117.021 165.264 117.103 165.002C117.189 164.736 117.233 164.459 117.232 164.179C117.232 163.89 117.186 163.604 117.096 163.329C117.012 163.065 116.881 162.818 116.708 162.602C116.543 162.394 116.334 162.224 116.096 162.105C115.837 161.982 115.554 161.918 115.267 161.918C114.98 161.918 114.696 161.982 114.437 162.105C114.2 162.234 113.992 162.41 113.825 162.622C113.661 162.84 113.534 163.083 113.451 163.343C113.37 163.605 113.326 163.877 113.322 164.152V164.179Z" fill="#E0E0E0"/>
<path d="M120.85 163.2V167.532H119.544V160.766H120.557L124.046 165.206V160.779H125.351V167.532H124.297L120.85 163.2Z" fill="#E0E0E0"/>
<path d="M128.656 160.766H129.805L132.355 167.532H130.995L130.37 165.845H128.03L127.418 167.532H126.058L128.656 160.766ZM130.159 164.92L129.234 162.262L128.268 164.92H130.159Z" fill="#E0E0E0"/>
<path d="M137.442 161.922H135.32V167.532H134.028V161.922H131.886V160.766H137.462L137.442 161.922Z" fill="#E0E0E0"/>
<path d="M142.929 166.376V167.532H138.271V160.766H142.841V161.922H139.577V163.547H142.399V164.614H139.577V166.376H142.929Z" fill="#E0E0E0"/>
<path opacity="0.3" d="M180.186 87.9852L159.698 90.9024L165.05 128.969L180.186 127.432V87.9852Z" fill="#263238"/>
<path opacity="0.7" d="M125.045 135.606C145.873 135.606 162.758 118.721 162.758 97.8928C162.758 77.0646 145.873 60.18 125.045 60.18C104.217 60.18 87.3325 77.0646 87.3325 97.8928C87.3325 118.721 104.217 135.606 125.045 135.606Z" fill="white"/>
<path d="M138.57 74.834C138.57 74.834 146.275 86.2308 150.6 86.6932C154.924 87.1556 171.843 72.6036 171.843 72.6036L174.712 75.0856C174.712 75.0856 158.617 92.7656 151.898 93.7992C145.18 94.8328 132.41 81.5184 132.41 81.5184L138.57 74.834Z" fill="#E4897B"/>
<path d="M136.734 75.684C136.734 75.684 139.454 73.0184 143.194 77.6492C146.934 82.28 148.471 83.2252 148.471 83.2252L138.951 92.5208C138.951 92.5208 133.355 78.1592 136.734 75.684Z" fill="#484F88"/>
<path d="M170.503 71.5496C170.503 71.5496 170.836 67.2724 171.829 67.0004C172.822 66.7284 172.468 69.8904 172.468 69.8904C172.468 69.8904 177.704 66.6944 178.758 66.98C179.812 67.2656 179.642 69.3328 179.438 69.8904C177.84 74.6504 172.128 76.6224 172.128 76.6224L169.823 74.4464L170.503 71.5496Z" fill="#E4897B"/>
<path d="M131.24 63.5188C131.24 63.5188 136.496 72.2772 134.885 77.7988C133.273 83.3204 124.984 78.3564 124.984 78.3564L125.086 67.4764L131.24 63.5188Z" fill="#263238"/>
<path d="M117.144 48.4228C117.144 48.4228 109.371 52.36 112.424 66.2116C117.538 89.4336 125.086 79.8116 125.086 79.8116C125.086 79.8116 124.753 70.6588 121.686 66.2116C118.619 61.7644 119.258 55.42 119.258 55.42L117.144 48.4228Z" fill="#263238"/>
<path d="M139.686 109.772L116.382 111.812C116.156 106.036 115.324 100.299 113.9 94.6968C113.342 92.4664 112.649 89.9708 111.751 87.0944C111.268 85.5508 110.738 83.8984 110.146 82.1236C109.704 80.7636 109.222 79.3424 108.691 77.826C111.857 76.8141 115.09 76.0301 118.368 75.48C121.823 74.8613 125.318 74.4931 128.826 74.3784C133.362 74.3376 138.57 74.8477 138.57 74.8477C138.57 74.8477 139.312 75.0244 139.781 79.832C140.202 84.32 140.617 93.3572 139.686 109.772Z" fill="#484F88"/>
<path opacity="0.2" d="M139.686 109.772L116.382 111.812C116.156 106.036 115.324 100.299 113.9 94.6968C113.342 92.4664 112.649 89.9708 111.751 87.0944C111.268 85.5508 110.738 83.8984 110.146 82.1236C109.704 80.7636 109.222 79.3424 108.691 77.826C111.857 76.8141 115.09 76.0301 118.368 75.48C121.823 74.8613 125.318 74.4931 128.826 74.3784C133.362 74.3376 138.57 74.8477 138.57 74.8477C138.57 74.8477 139.312 75.0244 139.781 79.832C140.202 84.32 140.617 93.3572 139.686 109.772Z" fill="white"/>
<path opacity="0.2" d="M116.28 110.038C120.013 108.582 132.321 102.558 132.321 102.558L116.001 106.243C116.076 107.481 116.178 108.732 116.28 110.038Z" fill="black"/>
<path d="M126.908 79.5056C121.162 78.7712 119.428 76.3233 119.428 76.3233C123.073 72.8825 120.047 66.9256 120.047 66.9256L126.956 68.2177C126.798 69.1802 126.709 70.1528 126.691 71.1281C126.636 75.3237 128.534 75.3644 128.534 75.3644C129.751 77.6356 126.908 79.5056 126.908 79.5056Z" fill="#E4897B"/>
<path opacity="0.2" d="M126.963 68.2177C126.805 69.1802 126.716 70.1528 126.698 71.1281C122.026 71.1281 120.054 66.9256 120.054 66.9256L126.963 68.2177Z" fill="black"/>
<path d="M123.862 48.8648C129.873 48.5316 131.233 51.4148 132.022 57.5824C133.001 65.2936 131.614 71.1348 124.012 69.8972C115.668 68.5372 113.329 55.3248 118.347 50.2724C119.524 49.0756 121.951 48.96 123.862 48.8648Z" fill="#E4897B"/>
<path d="M128.139 58.3644C128.669 59.2351 129.301 60.0388 130.023 60.758C129.862 61.0164 129.632 61.2249 129.36 61.3606C129.087 61.4963 128.782 61.5537 128.479 61.5264L128.139 58.3644Z" fill="#DE5753"/>
<path d="M124.501 57.6708C124.755 57.5423 124.96 57.3346 125.086 57.0792L124.046 57.5824C123.894 57.6707 123.773 57.8037 123.7 57.9631C123.627 58.1226 123.605 58.3008 123.638 58.4732C123.672 58.9696 123.971 59.3436 124.318 59.3232C124.664 59.3028 124.882 58.8744 124.848 58.3848C124.831 58.1104 124.707 57.8537 124.501 57.6708Z" fill="#263238"/>
<path d="M130.336 57.1201C130.59 56.9915 130.795 56.7839 130.92 56.5285L129.887 57.0317C129.735 57.1215 129.614 57.2555 129.54 57.4158C129.466 57.5762 129.442 57.7552 129.472 57.9293C129.513 58.4257 129.812 58.7996 130.152 58.7724C130.492 58.7452 130.716 58.3305 130.676 57.8341C130.671 57.698 130.639 57.5644 130.58 57.4415C130.522 57.3186 130.439 57.2092 130.336 57.1201Z" fill="#263238"/>
<path d="M124.494 54.8964C124.016 54.8659 123.537 54.945 123.094 55.1277C122.651 55.3103 122.256 55.5917 121.938 55.9504" stroke="#263238" stroke-width="0.707336" stroke-linecap="round" stroke-linejoin="round"/>
<path d="M128.146 54.6516C128.516 54.443 128.928 54.3206 129.352 54.2936C129.776 54.2665 130.201 54.3354 130.594 54.4953" stroke="#263238" stroke-width="0.707336" stroke-linecap="round" stroke-linejoin="round"/>
<path d="M114.111 76.9556C114.111 76.9556 120.856 82.4296 127.133 82.3412C133.409 82.2528 135.619 75.1944 135.619 75.1944C135.619 75.1944 125.882 72.3112 114.111 76.9556Z" fill="#E4897B"/>
<path d="M104.19 90.6236C104.19 90.6236 102.068 103.136 102.32 106.699C102.571 110.262 107.957 110.371 110.99 110.01C114.478 109.596 132.668 102.401 132.668 102.401L131.825 98.804C131.825 98.804 117.586 102.68 111.52 103.36C111.237 103.389 110.95 103.353 110.683 103.254C110.416 103.156 110.174 102.998 109.978 102.792C109.781 102.586 109.634 102.337 109.547 102.066C109.461 101.794 109.438 101.507 109.48 101.225L110.888 91.936L104.19 90.6236Z" fill="#E4897B"/>
<path d="M108.691 77.7988C108.691 77.7988 112.411 76.976 113.132 82.8852C113.568 86.4637 113.1 90.0945 111.772 93.4456L102.347 91.7456C102.347 91.7456 104.516 78.1048 108.691 77.7988Z" fill="#484F88"/>
<path d="M136.469 95.2C136.237 95.0589 135.963 95.0036 135.694 95.0436C134.579 95.3292 131.192 98.6816 130.995 99.1236L131.866 102.299C131.866 102.299 133.647 103.251 134.511 102.979C135.374 102.707 139.754 99.484 139.76 98.7088C139.766 98.6659 139.766 98.6226 139.76 98.5796C139.917 98.464 140.046 98.3688 140.134 98.3144C140.876 97.852 138.135 95.8052 136.469 95.2Z" fill="#E4897B"/>
<path d="M123.508 48.8852C123.508 48.8852 124.277 56.4196 117.994 56.6916C111.71 56.9636 116.96 49.9392 116.96 49.9392L123.508 48.8852Z" fill="#263238"/>
<path d="M122.162 46.5596C111.833 46.886 112.69 61.9956 118.272 66.2116C118.272 66.2116 115.552 62.5532 117.13 59.3708C117.13 59.3708 119.17 54.4476 118.49 50.66C120.087 49.967 121.783 49.5288 123.515 49.3612C124.678 50.7756 127.595 55.0732 131.417 54.9848C131.638 55.6512 131.808 56.3331 131.927 57.0248C131.927 57.0248 132.505 46.24 122.162 46.5596Z" fill="#263238"/>
<path d="M129.703 64.4233C129.119 64.7342 128.469 64.9024 127.807 64.9142C127.146 64.9261 126.49 64.7811 125.895 64.4912C125.879 64.4821 125.864 64.4696 125.852 64.4546C125.84 64.4397 125.832 64.4225 125.826 64.4041C125.821 64.3857 125.82 64.3665 125.823 64.3476C125.825 64.3287 125.831 64.3105 125.841 64.294C125.849 64.2778 125.86 64.2633 125.874 64.2517C125.887 64.24 125.903 64.2313 125.921 64.2261C125.938 64.221 125.956 64.2196 125.974 64.2219C125.992 64.2242 126.009 64.2303 126.024 64.2396C126.579 64.5049 127.187 64.6363 127.801 64.6233C128.416 64.6103 129.018 64.4533 129.56 64.1648C129.593 64.1475 129.631 64.1435 129.667 64.1537C129.702 64.1638 129.732 64.1873 129.751 64.2192C129.768 64.2508 129.772 64.2879 129.761 64.3222C129.751 64.3566 129.728 64.3856 129.696 64.4029L129.703 64.4233Z" fill="#263238"/>
<path d="M118.184 60.5881C118.088 59.8958 117.721 59.27 117.164 58.848C116.607 58.426 115.905 58.2423 115.212 58.3372C113.363 58.6364 112.683 62.5125 117.368 63.1789C118.034 63.2741 118.374 62.6009 118.184 60.5881Z" fill="#E4897B"/>
<path d="M117.484 88.0668L123.74 87.1829C123.74 87.1829 125.78 93.8537 122.067 94.5677C118.007 95.3565 117.484 88.0668 117.484 88.0668Z" fill="#484F88"/>
<path d="M141.052 124.012C140.74 120.924 140.25 116.722 139.624 113.417L139.686 109.772L116.382 111.812L116.171 115.212C115.627 116.219 113.247 121.203 112.173 133.396C117.019 135.154 122.174 135.9 127.32 135.589C132.466 135.278 137.494 133.916 142.093 131.587L141.052 124.012Z" fill="#263238"/>
<path d="M200.151 112.758L188.299 115.763C187.383 115.197 186.296 114.975 185.232 115.138C183.552 115.45 179.35 118.884 179.513 119.388C179.676 119.891 184.742 122.223 185.47 122.033C188.081 121.353 190.774 118.313 190.774 118.313L201.368 116.13L200.151 112.758Z" fill="#E4897B"/>
<path d="M229.84 70.1352C227.433 72.6988 221.054 72.4812 221.054 72.4812C221.054 72.4812 218.953 72.6648 218.43 70.8832C220.735 70.312 221.088 68.6528 221.449 67.218C221.626 66.3314 221.626 65.4185 221.449 64.532C221.375 64.0319 221.27 63.5369 221.136 63.0496L228.541 56.61C227.854 60.52 227.12 67.5512 229.84 70.1352Z" fill="#E4897B"/>
<path opacity="0.2" d="M227.059 60.4519C227.12 65.2119 223.346 66.8032 221.469 67.218C221.647 66.3314 221.647 65.4185 221.469 64.5319L227.059 60.4519Z" fill="black"/>
<path d="M227.671 61.4992C226.951 62.7733 225.832 63.7755 224.487 64.3517C223.141 64.9279 221.644 65.0462 220.225 64.6884C218.379 64.2649 216.766 63.1504 215.716 61.574C215.566 61.3563 215.43 61.1292 215.308 60.894C213.03 56.5556 211.8 48.756 216.315 45.4376C217.308 44.6926 218.476 44.2154 219.706 44.0517C220.937 43.888 222.188 44.0434 223.342 44.5029C224.495 44.9624 225.51 45.7106 226.291 46.6756C227.072 47.6407 227.591 48.7903 227.8 50.014C228.779 55.216 229.609 58.2284 227.671 61.4992Z" fill="#E4897B"/>
<path d="M220.068 53.754C220.14 53.9125 220.148 54.0925 220.092 54.2569C220.035 54.4214 219.917 54.5577 219.762 54.638C219.49 54.706 219.184 54.4204 219.082 54.0056C218.98 53.5908 219.116 53.1896 219.388 53.1216C219.66 53.0536 219.96 53.3324 220.068 53.754Z" fill="#263238"/>
<path d="M215.478 54.7196C215.614 55.1276 215.444 55.5356 215.179 55.6036C214.914 55.6716 214.594 55.386 214.499 54.9712C214.404 54.5564 214.533 54.1552 214.805 54.0872C215.077 54.0192 215.376 54.3252 215.478 54.7196Z" fill="#263238"/>
<path d="M217.131 54.8488C217 56.2155 216.678 57.5571 216.172 58.8336C216.852 59.1056 217.804 58.6772 218.45 58.3236L217.131 54.8488Z" fill="#DE5753"/>
<path d="M221.428 51.5236C221.386 51.5404 221.339 51.5454 221.294 51.5383C221.248 51.5311 221.206 51.5119 221.17 51.4828C220.926 51.2785 220.638 51.1341 220.329 51.0609C220.02 50.9877 219.698 50.9878 219.388 51.0611C219.356 51.0751 219.322 51.0822 219.287 51.082C219.252 51.0818 219.217 51.0743 219.185 51.06C219.153 51.0457 219.125 51.0248 219.101 50.9988C219.078 50.9728 219.06 50.9422 219.049 50.909C219.038 50.8757 219.034 50.8405 219.038 50.8057C219.041 50.7709 219.052 50.7371 219.069 50.7067C219.086 50.6762 219.11 50.6496 219.138 50.6287C219.166 50.6078 219.198 50.593 219.232 50.5852C219.62 50.4863 220.026 50.4803 220.418 50.5677C220.809 50.6552 221.174 50.8335 221.483 51.0884C221.509 51.1084 221.531 51.1334 221.548 51.1621C221.565 51.1907 221.576 51.2224 221.58 51.2553C221.585 51.2881 221.582 51.3215 221.574 51.3536C221.565 51.3856 221.551 51.4156 221.53 51.4419C221.501 51.4746 221.467 51.5022 221.428 51.5236Z" fill="#263238"/>
<path d="M219.422 60.384C220.041 60.3179 220.636 60.1059 221.157 59.7655C221.679 59.425 222.112 58.9658 222.421 58.4256C222.429 58.41 222.434 58.393 222.435 58.3755C222.437 58.3581 222.434 58.3406 222.428 58.324C222.423 58.3075 222.414 58.2923 222.402 58.2794C222.39 58.2664 222.376 58.256 222.36 58.2488C222.345 58.2406 222.329 58.2356 222.313 58.2339C222.296 58.2323 222.279 58.2341 222.263 58.2392C222.247 58.2443 222.233 58.2526 222.22 58.2636C222.207 58.2746 222.197 58.2881 222.19 58.3032C221.896 58.8001 221.491 59.2217 221.006 59.5345C220.52 59.8473 219.969 60.0427 219.395 60.1052C219.378 60.106 219.36 60.1104 219.345 60.1181C219.329 60.1259 219.315 60.1368 219.303 60.1501C219.292 60.1635 219.283 60.1791 219.278 60.1959C219.273 60.2127 219.271 60.2304 219.273 60.248C219.274 60.265 219.28 60.2815 219.288 60.2965C219.296 60.3115 219.307 60.3248 219.32 60.3356C219.333 60.3463 219.349 60.3543 219.365 60.3591C219.381 60.3639 219.399 60.3654 219.416 60.3636L219.422 60.384Z" fill="#263238"/>
<path d="M213.166 53.5024C213.126 53.5353 213.075 53.5522 213.024 53.55C212.991 53.5443 212.96 53.5321 212.933 53.5142C212.905 53.4963 212.881 53.473 212.863 53.4457C212.844 53.4184 212.832 53.3877 212.825 53.3553C212.819 53.323 212.82 53.2898 212.826 53.2576C212.9 52.8622 213.066 52.49 213.312 52.1719C213.558 51.8538 213.877 51.5989 214.241 51.4284C214.272 51.4163 214.304 51.4104 214.338 51.411C214.371 51.4116 214.403 51.4188 214.434 51.432C214.464 51.4453 214.491 51.4644 214.514 51.4883C214.537 51.5122 214.555 51.5403 214.567 51.5712C214.579 51.602 214.585 51.6349 214.585 51.6679C214.584 51.701 214.577 51.7337 214.564 51.764C214.55 51.7943 214.531 51.8217 214.507 51.8446C214.483 51.8676 214.455 51.8855 214.424 51.8976C214.14 52.0401 213.893 52.2471 213.703 52.5022C213.513 52.7572 213.385 53.0531 213.33 53.3664C213.313 53.3991 213.29 53.428 213.262 53.4514C213.234 53.4748 213.202 53.4922 213.166 53.5024Z" fill="#263238"/>
<path d="M231.091 53.6519C230.812 54.9575 230.031 56.1007 228.915 56.8343C227.426 57.7863 226.195 56.5827 226.141 54.9099C226.141 53.4207 226.875 51.0815 228.582 50.8299C230.289 50.5783 231.404 52.0471 231.091 53.6519Z" fill="#E4897B"/>
<path d="M207.672 74.1744C205.124 76.6005 203.25 79.6465 202.232 83.0144C200.954 87.0944 199.757 96.7028 199.172 101.918C199.049 102.925 198.605 103.866 197.906 104.601C197.207 105.336 196.289 105.826 195.289 105.998L180.968 108.494L182.111 115.777L200.253 114.029C202.195 113.842 204.024 113.034 205.47 111.724C206.915 110.415 207.9 108.674 208.277 106.76C209.386 101.15 210.868 93.0172 211.541 86.5776C212.684 75.6364 211.48 73.0456 207.672 74.1744Z" fill="#484F88"/>
<path opacity="0.1" d="M207.672 74.1744C205.124 76.6005 203.25 79.6465 202.232 83.0144C200.954 87.0944 199.757 96.7028 199.172 101.918C199.049 102.925 198.605 103.866 197.906 104.601C197.207 105.336 196.289 105.826 195.289 105.998L180.968 108.494L182.111 115.777L200.253 114.029C202.195 113.842 204.024 113.034 205.47 111.724C206.915 110.415 207.9 108.674 208.277 106.76C209.386 101.15 210.868 93.0172 211.541 86.5776C212.684 75.6364 211.48 73.0456 207.672 74.1744Z" fill="black"/>
<path d="M197.615 236.028L192.229 234.702L195.296 223.162L200.682 224.488L197.615 236.028Z" fill="#E4897B"/>
<path d="M192.284 232.839L198.404 235.042C198.504 235.078 198.588 235.148 198.643 235.24C198.697 235.332 198.719 235.44 198.703 235.545L198.084 240.38C198.055 240.588 197.946 240.776 197.779 240.903C197.612 241.031 197.401 241.087 197.193 241.06C197.135 241.052 197.078 241.036 197.023 241.012C195.058 240.271 193.664 239.652 191.182 238.734C189.652 238.177 184.98 236.694 182.872 235.912C180.764 235.13 181.24 232.968 182.192 233.084C186.374 233.641 189.713 233.526 191.352 232.859C191.649 232.736 191.981 232.729 192.284 232.839Z" fill="#2E353A"/>
<path d="M190.298 233.118C189.946 233.024 189.638 232.81 189.428 232.512C189.364 232.402 189.331 232.276 189.331 232.149C189.331 232.021 189.364 231.896 189.428 231.785C189.451 231.715 189.494 231.653 189.552 231.607C189.61 231.561 189.68 231.533 189.754 231.526C190.434 231.438 191.678 233.022 191.794 233.206C191.809 233.225 191.818 233.249 191.818 233.274C191.818 233.299 191.809 233.323 191.794 233.342C191.784 233.365 191.766 233.384 191.744 233.397C191.722 233.409 191.697 233.414 191.672 233.41C191.204 233.363 190.744 233.265 190.298 233.118ZM189.924 231.805C189.87 231.791 189.814 231.791 189.761 231.805C189.761 231.805 189.672 231.805 189.632 231.914C189.593 231.99 189.573 232.074 189.573 232.159C189.573 232.244 189.593 232.328 189.632 232.404C190.106 232.861 190.734 233.123 191.393 233.138C190.992 232.604 190.494 232.152 189.924 231.805Z" fill="#484F88"/>
<path d="M191.651 233.403H191.59C191.175 232.934 190.57 231.465 190.862 230.976C190.912 230.893 190.988 230.83 191.079 230.798C191.169 230.766 191.268 230.766 191.359 230.799C191.454 230.818 191.544 230.858 191.623 230.916C191.701 230.973 191.767 231.047 191.814 231.132C192.222 231.812 191.814 233.308 191.814 233.383C191.808 233.404 191.796 233.423 191.779 233.438C191.762 233.452 191.741 233.461 191.719 233.464C191.704 233.46 191.69 233.452 191.678 233.441C191.667 233.431 191.657 233.418 191.651 233.403ZM191.372 231.003H191.318C191.162 230.948 191.121 231.037 191.1 231.064C190.917 231.37 191.257 232.424 191.631 233.016C191.814 232.434 191.814 231.809 191.631 231.227C191.605 231.174 191.569 231.127 191.525 231.088C191.481 231.049 191.429 231.02 191.372 231.003Z" fill="#484F88"/>
<path opacity="0.2" d="M200.682 224.488L195.296 223.162L193.718 229.119L199.104 230.438L200.682 224.488Z" fill="black"/>
<path d="M233.274 235.974L227.766 236.626L226.576 224.747L232.084 224.094L233.274 235.974Z" fill="#E4897B"/>
<path d="M227.161 234.865L233.655 234.777C233.762 234.777 233.866 234.813 233.95 234.88C234.034 234.947 234.093 235.04 234.117 235.144L235.232 239.904C235.277 240.109 235.239 240.323 235.127 240.499C235.015 240.676 234.838 240.802 234.634 240.849C234.575 240.856 234.516 240.856 234.457 240.849C232.356 240.849 230.826 240.734 228.188 240.768C226.562 240.768 221.666 241.019 219.422 241.053C217.178 241.087 216.852 238.864 217.77 238.653C221.85 237.701 224.964 236.416 226.27 235.212C226.51 234.984 226.83 234.86 227.161 234.865Z" fill="#2E353A"/>
<path d="M225.406 235.824C225.042 235.86 224.677 235.768 224.373 235.566C224.272 235.485 224.195 235.381 224.147 235.261C224.099 235.142 224.083 235.013 224.101 234.886C224.097 234.811 224.115 234.738 224.152 234.674C224.19 234.61 224.245 234.558 224.312 234.525C224.903 234.212 226.644 235.253 226.834 235.368C226.856 235.38 226.874 235.398 226.885 235.42C226.896 235.442 226.9 235.466 226.896 235.491C226.893 235.517 226.883 235.541 226.866 235.561C226.849 235.58 226.826 235.594 226.8 235.6C226.346 235.728 225.878 235.804 225.406 235.824ZM224.597 234.729C224.541 234.723 224.483 234.735 224.434 234.763C224.4 234.763 224.359 234.811 224.352 234.913C224.343 234.997 224.354 235.083 224.385 235.162C224.416 235.241 224.465 235.312 224.529 235.368C225.132 235.631 225.813 235.656 226.433 235.436C225.873 235.084 225.249 234.844 224.597 234.729Z" fill="#484F88"/>
<path d="M226.766 235.62H226.705C226.154 235.328 225.073 234.165 225.175 233.58C225.191 233.485 225.24 233.399 225.314 233.337C225.387 233.274 225.48 233.24 225.576 233.24C225.672 233.226 225.769 233.233 225.862 233.26C225.954 233.287 226.04 233.334 226.114 233.396C226.739 233.893 226.889 235.436 226.896 235.498C226.897 235.521 226.891 235.543 226.881 235.564C226.87 235.584 226.854 235.601 226.834 235.613L226.766 235.62ZM225.665 233.464H225.604C225.44 233.464 225.427 233.56 225.427 233.594C225.359 233.94 226.052 234.824 226.61 235.232C226.56 234.62 226.322 234.039 225.93 233.566C225.858 233.5 225.763 233.464 225.665 233.464Z" fill="#484F88"/>
<path opacity="0.2" d="M232.084 224.094L226.576 224.747L227.195 230.874L232.703 230.221L232.084 224.094Z" fill="black"/>
<path d="M207.658 127.405C207.658 127.405 193.8 195.16 193.324 221.177L202.558 225.304C202.558 225.304 210.079 195.908 212.52 179.391C212.52 179.391 218.994 166.274 220.735 155.591C220.735 155.591 220.374 202.511 225.236 227.27L233.9 226.59C233.9 226.59 242.638 138.57 241.06 124.481L207.658 127.405Z" fill="#484F88"/>
<path opacity="0.6" d="M207.658 127.405C207.658 127.405 193.8 195.16 193.324 221.177L202.558 225.304C202.558 225.304 210.079 195.908 212.52 179.391C212.52 179.391 218.994 166.274 220.735 155.591C220.735 155.591 220.374 202.511 225.236 227.27L233.9 226.59C233.9 226.59 242.638 138.57 241.06 124.481L207.658 127.405Z" fill="white"/>
<path opacity="0.2" d="M219.232 138.489C219.232 138.489 218.205 154.598 219.667 160.514C220.109 158.848 220.476 157.189 220.735 155.584L219.232 138.489Z" fill="black"/>
<path d="M224.135 229.235L236.028 227.467L235.661 224.176L223.298 225.794L224.135 229.235Z" fill="#484F88"/>
<path d="M191.76 223.713L203.245 227.249L204.34 224.128L192.488 220.245L191.76 223.713Z" fill="#484F88"/>
<path d="M207.672 74.1743C207.672 74.1743 209.141 71.2708 222.047 70.5228C234.954 69.7748 240.72 71.6855 240.72 71.6855C240.72 71.6855 239.55 99.008 241.046 124.488C241.046 124.488 219.463 132.178 207.645 127.405C207.658 127.405 198.805 94.4043 207.672 74.1743Z" fill="#484F88"/>
<path opacity="0.2" d="M226.671 70.3596C225.243 70.3596 223.706 70.4276 222.047 70.5228C221.048 70.584 220.13 70.652 219.266 70.7336C219.266 70.7336 220.368 72.8212 222.047 72.8212C222.961 72.824 223.862 72.6007 224.668 72.1712C225.475 71.7417 226.163 71.1193 226.671 70.3596Z" fill="black"/>
<path opacity="0.3" d="M240.387 105.862L220.735 115.797C220.735 115.797 233.124 116.178 240.53 112.159C240.471 110.033 240.423 107.934 240.387 105.862Z" fill="black"/>
<path opacity="0.1" d="M221.796 78.1728L228.779 109.242L227.229 113.261L221.796 78.1728Z" fill="black"/>
<path d="M221.85 79.0419L185.073 84.6142L190.398 119.762L227.175 114.19L221.85 79.0419Z" fill="#484F88"/>
<path opacity="0.1" d="M221.85 79.0419L185.073 84.6142L190.398 119.762L227.175 114.19L221.85 79.0419Z" fill="white"/>
<path d="M194.135 82.4473L165.683 86.8519L171.114 121.937L199.567 117.532L194.135 82.4473Z" fill="#484F88"/>
<path opacity="0.3" d="M194.135 82.4473L165.683 86.8519L171.114 121.937L199.567 117.532L194.135 82.4473Z" fill="white"/>
<path opacity="0.3" d="M183.94 84.0214L175.889 85.2677L177.352 94.716L185.402 93.4697L183.94 84.0214Z" fill="white"/>
<path opacity="0.1" d="M213.979 79.3791L205.928 80.6254L207.391 90.0736L215.441 88.8273L213.979 79.3791Z" fill="black"/>
<path opacity="0.2" d="M196.659 110.521L187.863 111.882L188.692 117.238L197.489 115.876L196.659 110.521Z" fill="white"/>
<path opacity="0.2" d="M210.399 115.518L209.494 114.322L206.577 114.947C206.422 115.444 206.362 115.965 206.4 116.484L210.48 115.858L210.399 115.518Z" fill="#2E353A"/>
<path d="M205.36 100.79C204.68 101.021 203.728 101.007 203.633 100.11C203.558 99.3616 204.442 98.7496 205.115 98.872C205.168 98.881 205.221 98.8688 205.265 98.8382C205.308 98.8076 205.337 98.7611 205.346 98.7088C205.355 98.6565 205.343 98.6027 205.313 98.5594C205.282 98.516 205.235 98.4866 205.183 98.4776C204.942 98.4438 204.697 98.4616 204.464 98.5299C204.231 98.5981 204.014 98.7152 203.83 98.8735C203.645 99.0317 203.496 99.2274 203.393 99.4475C203.29 99.6677 203.235 99.9073 203.232 100.15C203.347 101.334 204.592 101.51 205.51 101.17C205.775 101.082 205.632 100.701 205.36 100.79Z" fill="white"/>
<path d="M206.04 97.0496C205.979 96.798 205.578 96.8388 205.632 97.0904C205.927 98.3869 206.215 99.6812 206.496 100.973C206.55 101.225 206.951 101.191 206.897 100.932L206.04 97.0496Z" fill="white"/>
<path d="M208.454 97.8112C208.426 97.8186 208.402 97.8355 208.386 97.8588C206.57 98.2056 207.638 101.041 209.324 100.518C209.671 100.367 209.95 100.093 210.107 99.7491C210.264 99.4051 210.288 99.0151 210.174 98.6544C210.134 98.4752 210.053 98.3074 209.94 98.1632C209.826 98.0191 209.681 97.9023 209.516 97.8215C209.351 97.7406 209.17 97.6977 208.986 97.6959C208.802 97.6941 208.621 97.7335 208.454 97.8112ZM209.352 100.062C208.162 100.742 207.108 98.4844 208.461 98.2532C208.502 98.2479 208.541 98.2287 208.57 98.1988C209.78 97.6956 210.276 99.5316 209.352 100.062Z" fill="white"/>
<path d="M211.847 96.7367L211.106 96.8659L210.984 96.0636C210.943 95.8052 210.542 95.8459 210.582 96.1043C210.623 96.3627 210.664 96.6551 210.712 96.9339L209.977 97.0563C209.726 97.1039 209.76 97.5051 210.018 97.4643L210.773 97.3351L211.222 100.252C211.262 100.504 211.664 100.463 211.623 100.205C211.473 99.2255 211.317 98.2463 211.167 97.2671L211.895 97.138C212.16 97.0972 212.106 96.6891 211.847 96.7367Z" fill="white"/>
<path d="M214.69 97.274C214.442 97.1277 214.158 97.0558 213.871 97.0666C213.584 97.0775 213.307 97.1707 213.071 97.3352C212.976 96.8048 212.874 96.2744 212.765 95.744C212.711 95.4924 212.31 95.5332 212.364 95.7916C212.641 97.1516 212.867 98.5116 213.044 99.8716C213.085 100.13 213.486 100.089 213.445 99.8308C213.35 99.1508 213.241 98.4708 213.126 97.7908C213.231 97.6862 213.357 97.6045 213.495 97.5509C213.633 97.4973 213.781 97.473 213.929 97.4794C214.077 97.4858 214.223 97.5228 214.356 97.5881C214.489 97.6533 214.607 97.7455 214.703 97.8588C214.949 98.3773 215.077 98.944 215.077 99.518C215.089 99.5651 215.118 99.6064 215.158 99.6342C215.198 99.662 215.247 99.6746 215.295 99.6697C215.344 99.6648 215.389 99.6426 215.422 99.6073C215.456 99.572 215.476 99.5258 215.478 99.4772C215.438 98.7428 215.41 97.6616 214.69 97.274Z" fill="white"/>
<path d="M216.403 96.4987C216.24 96.5856 216.097 96.7062 215.983 96.8526C215.87 96.9991 215.789 97.1679 215.746 97.348C215.703 97.528 215.698 97.7152 215.733 97.8971C215.768 98.0789 215.841 98.2513 215.948 98.4028C216.035 98.5868 216.161 98.7506 216.315 98.8838C216.469 99.017 216.65 99.1168 216.845 99.1769C217.039 99.237 217.245 99.256 217.447 99.2328C217.65 99.2095 217.845 99.1446 218.022 99.0419C218.253 98.9263 218.11 98.5455 217.879 98.6611C217.69 98.796 217.461 98.8622 217.23 98.8486C216.998 98.835 216.779 98.7424 216.607 98.5863C216.475 98.4653 216.365 98.3227 216.281 98.1647C216.879 98.2123 217.974 98.0899 218.001 97.4371C218.035 96.6007 217.076 96.2335 216.403 96.4987ZM217.546 97.4983C217.484 97.5935 217.206 97.6547 217.097 97.6887C216.789 97.7882 216.462 97.807 216.145 97.7431C216.124 97.634 216.126 97.5218 216.149 97.4133C216.173 97.3047 216.217 97.2018 216.281 97.1107C216.378 96.9893 216.511 96.9007 216.661 96.8569C216.81 96.8131 216.969 96.8163 217.117 96.8659C217.314 96.9135 217.736 97.2399 217.546 97.4983Z" fill="white"/>
<path d="M221 97.2876C220.887 97.0937 220.713 96.9434 220.504 96.8608C220.296 96.7782 220.066 96.768 219.851 96.8319C219.524 96.8999 218.736 97.2263 218.912 96.5803C219.021 96.1519 219.592 95.9888 219.994 96.0228C220.252 96.0228 220.32 95.6487 220.055 95.6215C219.375 95.5603 218.062 96.1724 218.484 97.0632C218.681 97.478 219.164 97.4303 219.558 97.3351C219.774 97.2466 220.005 97.2027 220.238 97.2059C220.324 97.2119 220.406 97.2414 220.476 97.2913C220.545 97.3411 220.6 97.4093 220.633 97.4883C220.666 97.5673 220.676 97.6539 220.663 97.7385C220.65 97.8231 220.614 97.9024 220.558 97.9676C220.272 98.3416 219.715 98.2735 219.307 98.2055C219.256 98.2007 219.204 98.2154 219.163 98.2467C219.122 98.278 219.095 98.3237 219.086 98.3745C219.078 98.4253 219.089 98.4775 219.117 98.5206C219.145 98.5637 219.189 98.5945 219.239 98.6067C219.493 98.6791 219.761 98.6941 220.022 98.6506C220.283 98.6071 220.531 98.5062 220.748 98.3551C220.896 98.2255 221 98.0529 221.045 97.8616C221.09 97.6702 221.074 97.4696 221 97.2876Z" fill="white"/>
<path d="M227.276 108.514L215.397 111.411C214.487 110.828 213.401 110.587 212.33 110.731C210.657 111.03 206.421 114.424 206.577 114.927C206.734 115.43 210.657 118.504 211.385 118.279C212.112 118.055 216.689 114.818 216.689 114.818L228.004 113.873L227.276 108.514Z" fill="#E4897B"/>
<path d="M239.965 71.6448C239.965 71.6448 234.974 72.9708 235.681 82.2324C235.994 86.258 236.15 90.5556 236.232 94.1324C236.281 96.5252 235.649 98.8827 234.409 100.93C233.169 102.977 231.372 104.628 229.228 105.692L219.477 109.677L220.735 115.797C220.735 115.797 234.906 114.498 239.89 110.514C244.875 106.529 246.609 98.022 245.8 90.9704C244.671 81.1784 245.045 71.2504 239.965 71.6448Z" fill="#484F88"/>
<path opacity="0.1" d="M239.965 71.6448C239.965 71.6448 234.974 72.9708 235.681 82.2324C235.994 86.258 236.15 90.5556 236.232 94.1324C236.281 96.5252 235.649 98.8827 234.409 100.93C233.169 102.977 231.372 104.628 229.228 105.692L219.477 109.677L220.735 115.797C220.735 115.797 234.906 114.498 239.89 110.514C244.875 106.529 246.609 98.022 245.8 90.9704C244.671 81.1784 245.045 71.2504 239.965 71.6448Z" fill="black"/>
<path d="M220.402 108.127L221.231 116.64L218.94 116.858L217.722 108.888L220.402 108.127Z" fill="#484F88"/>
<path opacity="0.6" d="M220.402 108.127L221.231 116.64L218.94 116.858L217.722 108.888L220.402 108.127Z" fill="white"/>
<path opacity="0.4" d="M232.387 84.7451L224.483 85.4519L224.595 86.7117L232.499 86.0049L232.387 84.7451Z" fill="white"/>
<path d="M222.047 70.5228L224.604 73.9228L229.996 70.3664V70.04C230.009 69.7546 229.954 69.4703 229.836 69.2103C229.718 68.9503 229.54 68.7219 229.316 68.544C229.059 68.3852 228.766 68.2918 228.464 68.2716C228.162 68.2515 227.859 68.3053 227.582 68.4284L222.047 70.5228Z" fill="#484F88"/>
<path d="M218.45 70.7948L219.082 69.7476C219.878 68.8092 220.51 69.292 220.51 69.292L222.047 70.5228L219.803 73.9228L218.45 70.7948Z" fill="#484F88"/>
<path opacity="0.6" d="M222.047 70.5228L224.604 73.9228L229.996 70.3664V70.04C230.009 69.7546 229.954 69.4703 229.836 69.2103C229.718 68.9503 229.54 68.7219 229.316 68.544C229.059 68.3852 228.766 68.2918 228.464 68.2716C228.162 68.2515 227.859 68.3053 227.582 68.4284L222.047 70.5228Z" fill="white"/>
<path opacity="0.6" d="M218.45 70.7948L219.082 69.7476C219.878 68.8092 220.51 69.292 220.51 69.292L222.047 70.5228L219.803 73.9228L218.45 70.7948Z" fill="white"/>
<path d="M230.955 53.516C231.316 51.1904 229.704 50.8708 228.643 51.1496C227.582 51.4284 226.433 53.1148 226.433 53.1148C225.4 51.442 224.815 47.2056 224.815 47.2056C223.501 47.9316 222.036 48.3426 220.537 48.4063C219.037 48.4701 217.543 48.1847 216.172 47.5728C215.644 49.0013 214.656 50.214 213.364 51.0204C213.364 51.0204 211.446 50.1432 212.514 45.7368C213.724 40.7252 221.252 35.8768 228.834 40.8748C236.416 45.8728 231.826 55.1548 231.826 55.1548C231.826 55.1548 230.105 58.1944 228.582 59.3368C228.711 58.4347 228.711 57.5188 228.582 56.6168C229.2 56.332 229.739 55.9007 230.153 55.3603C230.566 54.82 230.842 54.1869 230.955 53.516Z" fill="#2E353A"/>
<path d="M215.274 46.3284C215.713 46.8641 216.221 47.3397 216.784 47.7428C217.358 48.1518 217.979 48.4898 218.634 48.7492C219.288 49.0069 219.974 49.1739 220.674 49.2456C221.39 49.3135 222.111 49.293 222.822 49.1844C222.116 49.3496 221.392 49.4272 220.667 49.4156C219.931 49.4021 219.201 49.2854 218.498 49.0688C217.781 48.8578 217.095 48.5537 216.458 48.1644C215.81 47.7765 215.217 47.303 214.696 46.7568L215.274 46.3284Z" fill="#2E353A"/>
<path d="M302.716 84.7552C297.208 79.832 290.775 86.5096 290.775 86.5096C290.775 86.5096 284.335 79.832 278.834 84.7552C270.987 91.7796 282.397 104.36 290.775 106.876C299.152 104.36 310.563 91.8 302.716 84.7552Z" fill="#484F88"/>
<path opacity="0.6" d="M302.716 84.7552C297.208 79.832 290.775 86.5096 290.775 86.5096C290.775 86.5096 284.335 79.832 278.834 84.7552C270.987 91.7796 282.397 104.36 290.775 106.876C299.152 104.36 310.563 91.8 302.716 84.7552Z" fill="white"/>
<path d="M191.536 19.2712C186.028 14.348 179.595 21.0256 179.595 21.0256C179.595 21.0256 173.155 14.348 167.654 19.2712C159.807 26.2888 171.217 38.8688 179.595 41.3916C187.972 38.8688 199.383 26.2888 191.536 19.2712Z" fill="#484F88"/>
<path opacity="0.6" d="M191.536 19.2712C186.028 14.348 179.595 21.0256 179.595 21.0256C179.595 21.0256 173.155 14.348 167.654 19.2712C159.807 26.2888 171.217 38.8688 179.595 41.3916C187.972 38.8688 199.383 26.2888 191.536 19.2712Z" fill="white"/>
<path d="M256.251 39.712C254 37.672 251.369 40.4328 251.369 40.4328C251.369 40.4328 248.744 37.7128 246.493 39.712C243.284 42.5816 247.948 47.7224 251.369 48.756C254.796 47.7224 259.454 42.5816 256.251 39.712Z" fill="#484F88"/>
<path opacity="0.6" d="M256.251 39.712C254 37.672 251.369 40.4328 251.369 40.4328C251.369 40.4328 248.744 37.7128 246.493 39.712C243.284 42.5816 247.948 47.7224 251.369 48.756C254.796 47.7224 259.454 42.5816 256.251 39.712Z" fill="white"/>
<path d="M50.6396 93.7448C48.3888 91.7048 45.764 94.4656 45.764 94.4656C45.764 94.4656 43.1324 91.7456 40.8816 93.7448C37.6788 96.6144 42.3368 101.755 45.764 102.782C49.1844 101.755 53.8492 96.6144 50.6396 93.7448Z" fill="#484F88"/>
<path opacity="0.6" d="M50.6396 93.7448C48.3888 91.7048 45.764 94.4656 45.764 94.4656C45.764 94.4656 43.1324 91.7456 40.8816 93.7448C37.6788 96.6144 42.3368 101.755 45.764 102.782C49.1844 101.755 53.8492 96.6144 50.6396 93.7448Z" fill="white"/>
</svg>
