<svg width="342" height="308" viewBox="0 0 342 308" fill="none" xmlns="http://www.w3.org/2000/svg">
<path d="M251.445 33.259C246.071 30.3295 243.605 32.7743 241.673 30.3295C239.741 27.8846 247.047 21.5337 232.407 15.1827C232.407 15.1827 231.43 1.50431 211.394 1.01249C191.357 0.520666 196.739 14.698 191.364 18.1194C185.99 21.5408 184.522 16.1664 179.147 19.5878C173.773 23.0091 176.203 29.8234 171.805 30.8213C167.408 31.8192 161.541 26.4234 156.167 29.8448C150.792 33.2662 150.792 36.1957 148.326 36.1957C145.86 36.1957 140.992 34.2427 138.062 36.1957C135.132 38.1488 131.711 40.5936 131.711 40.5936H255.359C255.359 40.5936 256.82 36.1957 251.445 33.259Z" stroke="#263238" stroke-linecap="round" stroke-linejoin="round"/>
<path d="M178.32 31.249C177.619 31.6442 176.89 31.9872 176.139 32.2754" stroke="#263238" stroke-linecap="round" stroke-linejoin="round"/>
<path d="M204.765 8.43974C203.552 8.98082 202.487 9.80399 201.657 10.8406C200.828 11.8772 200.258 13.0971 199.996 14.3987C199.098 18.875 197.01 21.8544 194.629 22.1538C192.248 22.4532 183.296 21.555 181.799 24.841C181.4 25.8014 181.12 26.8067 180.965 27.8347" stroke="#263238" stroke-linecap="round" stroke-linejoin="round"/>
<path d="M130.77 68.3852C127.955 66.8528 126.672 68.1286 125.645 66.8527C124.619 65.5769 128.461 62.241 120.777 58.9052C120.777 58.9052 120.264 51.7345 109.764 51.4779C99.265 51.2213 102.073 58.6486 99.2579 60.4733C96.4423 62.298 95.6939 59.4469 92.8428 61.2431C89.9916 63.0393 91.3103 66.6247 89.0008 67.1379C86.6914 67.6511 83.6193 64.8284 80.8038 66.6247C77.9883 68.4209 77.9526 69.9534 76.7052 69.9534C75.4579 69.9534 72.8633 68.927 71.3237 69.9534C69.7841 70.9798 67.995 72.2557 67.995 72.2557H132.809C132.809 72.2557 133.579 69.9249 130.77 68.3852Z" stroke="#263238" stroke-linecap="round" stroke-linejoin="round"/>
<path d="M92.4294 67.3374C92.0585 67.5398 91.6752 67.7183 91.2818 67.872" stroke="#263238" stroke-linecap="round" stroke-linejoin="round"/>
<path d="M106.293 55.3697C105.657 55.6528 105.098 56.0839 104.663 56.627C104.228 57.1701 103.929 57.8095 103.791 58.4917C103.321 60.8368 102.23 62.4049 100.94 62.5618C99.6499 62.7186 95.0025 62.2481 94.2184 63.9873C94.0117 64.4914 93.8634 65.0176 93.7765 65.5555" stroke="#263238" stroke-linecap="round" stroke-linejoin="round"/>
<path d="M214.587 122.001C214.587 122.001 248.181 125.33 265.195 146.15C265.195 146.15 283.186 122.03 315.496 122.522C323.389 112.998 328.414 101.428 329.987 89.1593C331.559 76.8905 329.614 64.4274 324.378 53.2212C319.142 42.0149 310.831 32.5264 300.411 25.8605C289.992 19.1946 277.894 15.6255 265.525 15.5687C253.156 15.512 241.025 18.9698 230.545 25.5398C220.065 32.1098 211.667 41.5215 206.328 52.6792C200.989 63.8369 198.93 76.2816 200.39 88.5643C201.849 100.847 206.768 112.462 214.573 122.058L214.587 122.001Z" fill="#8CA2CE"/>
<path opacity="0.5" d="M214.587 122.001C214.587 122.001 248.181 125.33 265.195 146.15C265.195 146.15 283.186 122.03 315.496 122.522C323.389 112.998 328.414 101.428 329.987 89.1593C331.559 76.8905 329.614 64.4274 324.378 53.2212C319.142 42.0149 310.831 32.5264 300.411 25.8605C289.992 19.1946 277.894 15.6255 265.525 15.5687C253.156 15.512 241.025 18.9698 230.545 25.5398C220.065 32.1098 211.667 41.5215 206.328 52.6792C200.989 63.8369 198.93 76.2816 200.39 88.5643C201.849 100.847 206.768 112.462 214.573 122.058L214.587 122.001Z" fill="white"/>
<path d="M264.097 20.1723L262.957 276.99H268.631L264.097 20.1723Z" fill="#263238"/>
<path d="M265.794 139.807C265.794 139.807 277.134 119.392 297.52 113.156C297.52 113.156 275.972 118.259 265.202 135.836L265.794 139.807Z" fill="#263238"/>
<path d="M265.794 81.971C265.794 81.971 277.134 61.5639 297.52 55.327C297.52 55.327 275.972 60.4306 265.202 78.0008L265.794 81.971Z" fill="#263238"/>
<path d="M265.794 110.889C265.794 110.889 277.134 90.4746 297.52 84.2377C297.52 84.2377 275.972 89.3412 265.202 106.919L265.794 110.889Z" fill="#263238"/>
<path d="M264.112 96.7115C264.112 96.7115 253.17 76.3044 233.462 70.0675C233.462 70.0675 254.254 75.171 264.646 92.7484L264.112 96.7115Z" fill="#263238"/>
<path d="M264.112 125.059C264.112 125.059 253.17 104.652 233.462 98.415C233.462 98.415 254.254 103.519 264.646 121.096L264.112 125.059Z" fill="#263238"/>
<path d="M109.458 148.624C109.458 148.624 137.257 151.382 151.377 168.625C151.377 168.625 166.274 148.667 193.032 149.059C199.571 141.171 203.735 131.588 205.039 121.425C206.343 111.263 204.733 100.939 200.397 91.6562C196.061 82.3733 189.176 74.5131 180.546 68.9911C171.916 63.469 161.894 60.5122 151.649 60.465C141.403 60.4178 131.355 63.2822 122.674 68.7245C113.993 74.1669 107.037 81.9633 102.615 91.2059C98.1937 100.449 96.4887 110.757 97.6989 120.931C98.909 131.105 102.985 140.726 109.451 148.674L109.458 148.624Z" fill="#5D6DB3"/>
<path opacity="0.3" d="M109.458 148.624C109.458 148.624 137.257 151.382 151.377 168.625C151.377 168.625 166.274 148.667 193.032 149.059C199.571 141.171 203.735 131.588 205.039 121.425C206.343 111.263 204.733 100.939 200.397 91.6562C196.061 82.3733 189.176 74.5131 180.546 68.9911C171.916 63.469 161.894 60.5122 151.649 60.465C141.403 60.4178 131.355 63.2822 122.674 68.7245C113.993 74.1669 107.037 81.9633 102.615 91.2059C98.1937 100.449 96.4887 110.757 97.6989 120.931C98.909 131.105 102.985 140.726 109.451 148.674L109.458 148.624Z" fill="white"/>
<path d="M150.457 64.2867L149.524 276.99H154.214L150.457 64.2867Z" fill="#263238"/>
<path d="M151.869 163.371C151.869 163.371 161.256 146.464 178.164 141.275C178.164 141.275 160.344 145.502 151.398 160.057L151.869 163.371Z" fill="#263238"/>
<path d="M151.869 115.472C151.869 115.472 161.256 98.5647 178.164 93.3756C178.164 93.3756 160.344 97.6025 151.398 112.165L151.869 115.472Z" fill="#263238"/>
<path d="M151.869 139.422C151.869 139.422 161.256 122.514 178.164 117.325C178.164 117.325 160.344 121.552 151.398 136.114L151.869 139.422Z" fill="#263238"/>
<path d="M150.479 127.682C150.479 127.682 141.412 110.775 125.104 105.586C125.104 105.586 142.317 109.813 150.928 124.375L150.479 127.682Z" fill="#263238"/>
<path d="M150.479 151.161C150.479 151.161 141.412 134.254 125.104 129.065C125.104 129.065 142.317 133.292 150.928 147.854L150.479 151.161Z" fill="#263238"/>
<path d="M175.013 276.748C174.913 274.517 175.205 270.283 177.608 263.917C181.371 253.938 187.964 273.896 187.964 273.896C187.964 273.896 187.964 271.523 195.028 263.917C202.092 256.312 208.208 269.62 208.208 269.62C208.208 269.62 204.914 237.787 212.919 240.16C220.924 242.534 219.976 269.62 219.976 269.62C219.976 269.62 225.628 249.662 233.162 249.662C240.696 249.662 242.578 263.917 242.578 263.917C242.578 263.917 244.46 238.735 251.994 238.257C259.528 237.779 267.996 259.17 267.996 259.17C267.996 259.17 265.644 230.659 273.178 229.233C280.712 227.807 283.535 239.683 283.535 239.683C283.535 239.683 290.121 200.244 302.837 204.998C315.553 209.753 304.719 253.468 304.719 253.468C304.719 253.468 317.428 223.053 327.785 230.181C337.201 236.66 325.219 270.625 322.966 276.748H175.013Z" fill="#8CA2CE"/>
<path d="M326.979 276.683C326.979 276.683 332.496 259.641 329.667 256.789C326.837 253.938 314.627 266.298 314.627 266.298C314.627 266.298 323.572 235.883 309.445 232.084C295.317 228.285 292.972 261.544 292.972 261.544C292.972 261.544 282.616 246.34 280.256 252.042C278.835 255.518 278.039 259.217 277.904 262.969C277.904 262.969 272.729 221.628 260.954 223.531C249.179 225.434 260.013 266.298 260.013 266.298C260.013 266.298 253.427 252.042 245.893 253.468C238.358 254.893 235.507 263.917 235.507 263.917C235.507 263.917 232.214 255.841 229.855 255.841C227.496 255.841 224.68 270.097 224.68 270.097C224.68 270.097 221.829 248.236 216.675 249.191C211.522 250.146 200.666 268.672 200.666 268.672C200.666 268.672 202.555 258.215 196.903 257.745C191.25 257.274 187.957 273.896 187.957 273.896C187.957 273.896 180.423 258.215 175.719 261.066C171.014 263.917 173.26 277.161 173.26 277.161" fill="#8CA2CE"/>
<path d="M326.979 276.683C326.979 276.683 332.496 259.641 329.667 256.789C326.837 253.938 314.627 266.298 314.627 266.298C314.627 266.298 323.572 235.883 309.445 232.084C295.317 228.285 292.972 261.544 292.972 261.544C292.972 261.544 282.616 246.34 280.256 252.042C278.835 255.518 278.039 259.217 277.904 262.969C277.904 262.969 272.729 221.628 260.954 223.531C249.179 225.434 260.013 266.298 260.013 266.298C260.013 266.298 253.427 252.042 245.893 253.468C238.359 254.893 235.507 263.917 235.507 263.917C235.507 263.917 232.214 255.841 229.855 255.841C227.496 255.841 224.68 270.097 224.68 270.097C224.68 270.097 221.829 248.236 216.675 249.191C211.522 250.146 200.666 268.672 200.666 268.672C200.666 268.672 202.555 258.215 196.903 257.745C191.25 257.274 187.957 273.896 187.957 273.896C187.957 273.896 180.423 258.215 175.719 261.066C171.014 263.917 173.26 277.161 173.26 277.161" stroke="#263238" stroke-linecap="round" stroke-linejoin="round"/>
<path d="M301.561 276.448L305.66 256.319" stroke="#263238" stroke-linecap="round" stroke-linejoin="round"/>
<path d="M272.237 276.748L269.878 263.447" stroke="#263238" stroke-linecap="round" stroke-linejoin="round"/>
<path d="M212.698 276.683L215.742 265.82" stroke="#263238" stroke-linecap="round" stroke-linejoin="round"/>
<path d="M249.164 277.225L243.99 267.724" stroke="#263238" stroke-linecap="round" stroke-linejoin="round"/>
<path d="M302.367 268.672L298.596 261.066" stroke="#263238" stroke-linecap="round" stroke-linejoin="round"/>
<path d="M272.237 272.471L275.53 265.82" stroke="#263238" stroke-linecap="round" stroke-linejoin="round"/>
<path d="M246.812 272L249.164 267.724" stroke="#263238" stroke-linecap="round" stroke-linejoin="round"/>
<path d="M213.646 272.649L211.978 266.768" stroke="#263238" stroke-linecap="round" stroke-linejoin="round"/>
<path d="M153.537 276.854C153.615 275.122 153.394 271.865 151.634 266.875C148.875 259.127 144.035 274.623 144.035 274.623C144.035 274.623 144.035 272.777 138.86 266.875C133.686 260.974 129.195 271.302 129.195 271.302C129.195 271.302 131.611 246.589 125.738 248.436C119.865 250.282 120.563 271.302 120.563 271.302C120.563 271.302 116.472 255.834 110.912 255.834C105.352 255.834 104.005 266.897 104.005 266.897C104.005 266.897 102.629 247.345 97.1053 246.982C91.5811 246.618 85.3656 263.205 85.3656 263.205C85.3656 263.205 87.0906 241.108 81.5665 239.968C76.0424 238.827 73.9681 248.086 73.9681 248.086C73.9681 248.086 69.1354 217.472 59.8122 221.157C50.4889 224.842 58.4294 258.785 58.4294 258.785C58.4294 258.785 49.1061 235.178 41.5149 240.709C34.608 245.741 43.3967 272.072 45.0788 276.854H153.537Z" fill="#8CA2CE"/>
<path d="M42.1065 276.805C42.1065 276.805 38.065 263.575 40.1321 261.366C42.1992 259.156 51.1803 268.743 51.1803 268.743C51.1803 268.743 44.6226 245.135 54.9795 242.184C65.3363 239.233 67.0969 265.051 67.0969 265.051C67.0969 265.051 74.6952 253.247 76.4201 257.673C77.4646 260.385 78.0476 263.252 78.1451 266.156C78.1451 266.156 81.9442 234.08 90.5761 235.541C99.208 237.002 91.2889 268.743 91.2889 268.743C91.2889 268.743 96.1216 257.673 101.646 258.764C107.17 259.854 109.244 266.875 109.244 266.875C109.244 266.875 111.66 260.603 113.385 260.603C115.11 260.603 117.184 271.672 117.184 271.672C117.184 271.672 119.259 254.701 123.058 255.442C126.857 256.184 134.797 270.561 134.797 270.561C134.797 270.561 133.415 262.449 137.556 262.078C141.697 261.708 144.114 274.623 144.114 274.623C144.114 274.623 149.638 262.449 153.095 264.644C156.552 266.84 154.848 277.161 154.848 277.161" fill="#8CA2CE"/>
<path d="M42.1065 276.805C42.1065 276.805 38.065 263.575 40.1321 261.366C42.1992 259.156 51.1803 268.743 51.1803 268.743C51.1803 268.743 44.6226 245.135 54.9795 242.184C65.3363 239.233 67.0969 265.051 67.0969 265.051C67.0969 265.051 74.6952 253.247 76.4201 257.673C77.4646 260.385 78.0476 263.252 78.1451 266.156C78.1451 266.156 81.9442 234.08 90.5761 235.541C99.208 237.002 91.2889 268.743 91.2889 268.743C91.2889 268.743 96.1216 257.673 101.646 258.764C107.17 259.854 109.244 266.875 109.244 266.875C109.244 266.875 111.66 260.603 113.385 260.603C115.11 260.603 117.184 271.672 117.184 271.672C117.184 271.672 119.259 254.701 123.058 255.442C126.857 256.184 134.797 270.561 134.797 270.561C134.797 270.561 133.415 262.449 137.556 262.078C141.697 261.708 144.114 274.623 144.114 274.623C144.114 274.623 149.638 262.449 153.095 264.644C156.552 266.84 154.848 277.161 154.848 277.161" stroke="#263238" stroke-linecap="round" stroke-linejoin="round"/>
<path d="M60.7459 276.619L57.7379 260.995" stroke="#263238" stroke-linecap="round" stroke-linejoin="round"/>
<path d="M82.2579 276.854L83.9828 266.526" stroke="#263238" stroke-linecap="round" stroke-linejoin="round"/>
<path d="M125.923 276.805L123.685 268.372" stroke="#263238" stroke-linecap="round" stroke-linejoin="round"/>
<path d="M99.1723 277.225L102.971 269.848" stroke="#263238" stroke-linecap="round" stroke-linejoin="round"/>
<path d="M60.1614 270.582L62.9199 264.68" stroke="#263238" stroke-linecap="round" stroke-linejoin="round"/>
<path d="M82.2578 273.533L79.8415 268.372" stroke="#263238" stroke-linecap="round" stroke-linejoin="round"/>
<path d="M100.897 273.169L99.1723 269.848" stroke="#263238" stroke-linecap="round" stroke-linejoin="round"/>
<path d="M125.225 273.668L126.451 269.106" stroke="#263238" stroke-linecap="round" stroke-linejoin="round"/>
<path d="M1 276.99H341" stroke="#263238" stroke-linecap="round" stroke-linejoin="round"/>
<path d="M260.655 217.7L257.176 222.925L228.593 235.349C228.593 235.349 224.616 236.097 224.616 237.337C224.616 238.578 223.868 242.063 224.616 242.562C225.364 243.061 230.318 241.315 230.318 241.315C230.318 241.315 228.829 243.054 230.318 243.553C231.808 244.052 233.298 241.814 233.298 241.814C234.757 240.894 236.168 239.9 237.525 238.834C238.225 237.914 238.809 236.911 239.264 235.848L265.637 229.14L271.104 220.936C271.104 220.936 259.913 219.689 260.655 217.7Z" fill="#B5B5B5" stroke="#263238" stroke-linecap="round" stroke-linejoin="round"/>
<path d="M262.643 205.982L259.407 216.602L267.868 221.642L271.282 213.359L262.643 205.982Z" fill="white" stroke="#263238" stroke-linecap="round" stroke-linejoin="round"/>
<path d="M259.742 213.181L270.006 219.304L268.203 222.54L258.488 217.501C258.555 215.981 258.985 214.5 259.742 213.181Z" fill="white" stroke="#263238" stroke-linecap="round" stroke-linejoin="round"/>
<path d="M239.428 269.32C239.428 269.32 232.229 272.92 230.247 274.538C228.265 276.156 227.909 275.963 228.444 277.239H251.488L250.946 268.957L239.428 269.32Z" fill="white" stroke="#263238" stroke-linecap="round" stroke-linejoin="round"/>
<path d="M251.403 275.999H228.444C228.13 276.334 228.166 276.605 228.444 277.261H251.488L251.403 275.999Z" fill="white" stroke="#263238" stroke-linecap="round" stroke-linejoin="round"/>
<path d="M270.384 226.503C270.384 226.503 261.567 222.903 254.368 222.184C247.169 221.464 232.229 221.82 231.509 225.035C230.789 228.249 242.129 263.525 242.129 263.525C242.129 263.525 240.148 264.787 239.991 265.664C239.834 266.54 239.456 269.228 239.456 269.228L250.975 271.024C250.975 271.024 251.331 267.424 251.331 264.01C251.331 260.596 247.375 239.526 247.375 239.526L270.591 246.91L261.952 265.264C261.952 265.264 259.257 270.667 262.315 273.369C265.373 276.07 270.413 275.507 270.413 275.507L311.455 276.049L310.742 269.384C310.742 269.384 304.805 268.486 303.721 268.486C302.638 268.486 281.938 263.269 281.938 263.269C281.938 263.269 298.504 245.984 300.3 243.104C301.369 241.509 302.096 239.711 302.437 237.822C302.778 235.933 302.725 233.994 302.281 232.127C301.198 227.807 300.478 226.902 300.478 226.902C300.478 226.902 287.847 232.968 281.368 231.542C277.4 230.635 273.66 228.919 270.384 226.503Z" fill="#263238" stroke="#263238" stroke-linecap="round" stroke-linejoin="round"/>
<path d="M241.046 171.241C241.046 171.241 242.307 175.382 242.307 175.924C242.307 176.465 241.402 179.16 242.129 180.058C242.856 180.956 244.98 181.141 244.98 181.141C244.98 181.141 248.216 184.919 249.656 186.359C251.096 187.799 252.714 188.34 254.517 187.442C256.321 186.544 257.939 184.199 257.939 184.199L261.36 187.62L269.279 178.44L266.428 174.84C266.428 174.84 267.141 170.699 264.447 165.303C261.752 159.907 252.386 158.46 246.263 159.544C240.14 160.627 238.708 164.22 238.708 164.94C238.708 165.659 241.046 171.241 241.046 171.241Z" fill="white" stroke="#263238" stroke-linecap="round" stroke-linejoin="round"/>
<path d="M244.289 154.861C244.289 154.861 240.504 152.01 237.988 153.243C235.472 154.476 236.562 155.581 236.184 157.74C235.807 159.9 229.527 160.078 229.527 163.678C229.527 167.277 234.025 168.539 234.923 168.717C235.821 168.895 235.108 172.859 237.774 172.859C240.44 172.859 241.017 171.241 241.017 171.241C241.017 171.241 239.036 165.481 241.195 164.583C243.355 163.685 248.216 161.882 247.496 165.296C246.777 168.71 249.3 169.794 250.74 169.437C252.179 169.081 253.976 169.252 254.304 169.972C254.631 170.692 256.442 171.953 256.442 170.157C256.442 168.361 257.34 166.736 258.958 166.736C260.576 166.736 261.809 169.437 261.66 171.597C261.538 172.898 261.043 174.135 260.234 175.161L266.357 174.797C266.357 174.797 267.975 166.7 266.535 160.941C265.095 155.181 258.317 151.981 254.182 151.439C250.048 150.898 244.823 153.243 244.289 154.861Z" fill="#263238" stroke="#263238" stroke-linecap="round" stroke-linejoin="round"/>
<path d="M245.836 174.455C246.285 175.168 246.392 175.881 246.085 176.059C245.779 176.237 245.151 175.881 244.709 175.197C244.268 174.512 244.146 173.771 244.46 173.593C244.774 173.415 245.387 173.807 245.836 174.455Z" fill="#263238"/>
<path d="M248.174 182.538C249.034 182.367 249.813 181.916 250.391 181.256C250.968 180.596 251.311 179.764 251.367 178.889" stroke="#263238" stroke-linecap="round" stroke-linejoin="round"/>
<path d="M242.692 172.951C242.692 172.951 242.992 171.276 244.973 172.039" stroke="#263238" stroke-linecap="round" stroke-linejoin="round"/>
<path d="M261.745 190.678C261.745 190.678 260.32 202.56 261.923 206.16C263.527 209.76 269.308 224.158 269.308 224.158C269.308 224.158 268.046 232.968 271.646 235.32C275.245 237.672 288.924 238.022 294.148 234.779C299.373 231.535 301.526 229.019 301.526 226.681C301.526 224.343 298.104 214.079 292.709 203.822C288.757 196.31 283.303 189.691 276.685 184.377C272.907 181.319 271.468 179.88 270.748 179.88C270.028 179.88 261.389 187.264 261.745 190.678Z" fill="white" stroke="#263238" stroke-linecap="round" stroke-linejoin="round"/>
<path d="M269.308 177.542L259.585 188.519L261.567 194.463L272.544 180.243L269.308 177.542Z" fill="white" stroke="#263238" stroke-linecap="round" stroke-linejoin="round"/>
<path d="M269.486 217.679C269.486 217.679 249.685 229.019 247.169 229.924C244.652 230.83 236.548 230.823 234.203 230.637C233.915 230.586 233.62 230.599 233.338 230.674C233.056 230.75 232.794 230.887 232.57 231.076C232.347 231.264 232.168 231.499 232.046 231.765C231.924 232.03 231.863 232.32 231.865 232.612L231.509 239.454C231.509 239.454 233.483 239.996 234.36 239.454C235.236 238.913 236.156 236.931 236.156 236.931C236.156 236.931 239.399 237.295 240.475 236.575C241.182 236.094 241.845 235.553 242.457 234.957C245.783 234.681 249.089 234.204 252.358 233.531C255.957 232.626 272.515 227.23 275.039 226.688C277.562 226.147 278.46 224.707 278.638 223.837C278.816 222.968 269.486 217.679 269.486 217.679Z" fill="white" stroke="#263238" stroke-linecap="round" stroke-linejoin="round"/>
<path d="M246.912 229.996C244.161 230.815 236.477 230.815 234.203 230.644C233.915 230.593 233.62 230.606 233.338 230.681C233.056 230.757 232.794 230.894 232.57 231.083C232.347 231.271 232.168 231.507 232.046 231.772C231.924 232.038 231.863 232.327 231.865 232.619L231.509 239.462C231.509 239.462 233.483 240.003 234.36 239.462C235.236 238.92 236.156 236.938 236.156 236.938C236.156 236.938 239.399 237.302 240.475 236.582C241.182 236.101 241.845 235.56 242.457 234.964C242.457 234.964 245.479 234.7 248.537 234.251L246.912 229.996Z" fill="#8CA2CE" stroke="#263238" stroke-linecap="round" stroke-linejoin="round"/>
<path d="M270.926 190.864C270.926 190.864 267.868 194.278 268.224 196.801C268.581 199.324 269.486 217.679 269.486 217.679L279.743 221.82L282.594 207.244C282.594 207.244 284.939 203.459 284.576 199.859" fill="white"/>
<path d="M270.926 190.864C270.926 190.864 267.868 194.278 268.224 196.801C268.581 199.324 269.486 217.679 269.486 217.679L279.743 221.82L282.594 207.244C282.594 207.244 284.939 203.459 284.576 199.859" stroke="#263238" stroke-linecap="round" stroke-linejoin="round"/>
<path d="M268.588 218.584L279.023 224.878C279.023 224.878 280.449 224.878 280.648 222.54C280.848 220.202 281.903 219.838 281.005 218.584C280.107 217.329 270.562 213.359 269.664 213.359C268.766 213.359 267.868 215.519 268.588 218.584Z" fill="white" stroke="#263238" stroke-linecap="round" stroke-linejoin="round"/>
<path d="M310.707 269.52C310.707 269.52 316.102 264.844 317.008 265.022C317.913 265.2 325.105 272.043 325.105 272.043C325.105 272.043 331.762 275.643 331.762 276.184C331.762 276.726 330.686 276.897 330.686 276.897L311.441 276.184L310.707 269.52Z" fill="white" stroke="#263238" stroke-linecap="round" stroke-linejoin="round"/>
<path d="M331.734 276.184C331.734 275.643 325.076 272.043 325.076 272.043C325.076 272.043 317.877 265.2 316.979 265.022C316.658 264.958 315.76 265.514 314.748 266.255L323.458 272.399L329.802 276.869L330.657 276.904C330.657 276.904 331.734 276.719 331.734 276.184Z" fill="white" stroke="#263238" stroke-linecap="round" stroke-linejoin="round"/>
<path d="M270.562 247.024L268.766 239.462" stroke="#999999" stroke-linecap="round" stroke-linejoin="round"/>
<path d="M207.937 217.059C205.798 215.847 202.655 214.207 202.655 214.207C202.655 214.207 198.421 203.516 195.099 198.526C191.778 193.537 189.81 192.931 186.182 192.631C182.554 192.332 171.684 195.197 171.214 195.953C171.214 195.953 161.092 200.636 158.526 203.965C155.96 207.293 156.858 233.118 156.858 233.118C156.858 233.118 145.995 240.474 143.13 248.649C141.305 253.831 143.429 262.392 153.252 264.965C156.528 265.842 159.968 265.918 163.281 265.186C165.832 267.339 168.658 269.143 171.684 270.553C181.806 275.386 188.449 276.291 194.643 276.598C200.837 276.904 207.181 274.937 208.393 273.747C209.605 272.556 212.021 267.852 205.827 261.059C200.488 255.193 184.379 248.664 180.031 246.974C180.464 244.437 180.702 241.871 180.744 239.298C180.744 239.298 190.11 228.606 190.723 226.154C191.336 223.702 192.861 213.766 192.861 213.766C192.861 213.766 198 223.139 199.512 224.493C201.023 225.847 209.783 224.799 210.688 224.799C211.593 224.799 212.049 220.872 212.049 220.872C210.901 219.38 209.511 218.091 207.937 217.059Z" fill="white" stroke="#263238" stroke-linecap="round" stroke-linejoin="round"/>
<path d="M205.827 261.023C200.488 255.157 184.379 248.628 180.031 246.939C180.166 246.147 180.281 245.378 180.366 244.651C176.301 245.549 172.081 245.463 168.056 244.401C156.573 241.379 154.157 235.185 154.157 235.185H154.071C150.643 237.965 145.062 243.118 143.13 248.628C141.305 253.81 143.429 262.371 153.252 264.944C156.528 265.821 159.968 265.896 163.281 265.165C165.832 267.317 168.658 269.122 171.684 270.532C181.806 275.365 188.449 276.27 194.643 276.576C200.837 276.883 207.181 274.916 208.393 273.725C209.605 272.535 212.021 267.816 205.827 261.023Z" fill="#696969" stroke="#263238" stroke-linecap="round" stroke-linejoin="round"/>
<path d="M149.167 249.69C149.167 249.69 154.606 243.04 161.712 245.763C186.539 255.278 192.833 265.856 194.501 270.083C196.169 274.31 195.556 276.584 194.201 277.489C192.847 278.394 178.641 275.072 171.841 272.656C165.041 270.24 155.974 271.444 148.269 264.951C140.564 258.457 141.776 252.121 144.192 246.668" fill="#696969"/>
<path d="M149.167 249.69C149.167 249.69 154.606 243.04 161.712 245.763C186.539 255.278 192.833 265.856 194.501 270.083C196.169 274.31 195.556 276.584 194.201 277.489C192.847 278.394 178.641 275.072 171.841 272.656C165.041 270.24 155.974 271.444 148.269 264.951C140.564 258.457 141.776 252.121 144.192 246.668" stroke="#263238" stroke-linecap="round" stroke-linejoin="round"/>
<path d="M212.021 220.851C210.878 219.374 209.498 218.097 207.937 217.073C205.798 215.861 202.655 214.222 202.655 214.222C202.655 214.222 201.436 211.142 199.804 207.514C197.972 209.04 194.971 211.969 193.816 215.526C195.385 218.306 198.392 223.509 199.519 224.493C201.023 225.854 209.79 224.799 210.695 224.799C211.6 224.799 212.021 220.851 212.021 220.851Z" fill="white" stroke="#263238" stroke-linecap="round" stroke-linejoin="round"/>
<path d="M192.833 213.73L192.683 205.576" stroke="#263238" stroke-linecap="round" stroke-linejoin="round"/>
<path d="M216.925 234.244C215.228 234.852 213.598 235.636 212.064 236.582C210.638 237.658 210.446 238.563 210.446 240.181C210.446 241.799 207.203 243.959 208.828 243.959C210.453 243.959 211.679 243.418 213.147 240.723C214.616 238.029 216.383 237.231 216.383 237.231C216.495 238.534 216.734 239.823 217.096 241.08C217.599 242.153 217.666 243.38 217.281 244.501C216.918 245.927 218.707 245.584 219.256 241.65C219.546 239.139 219.175 236.596 218.179 234.272L216.925 234.244Z" fill="white" stroke="#263238" stroke-linecap="round" stroke-linejoin="round"/>
<path d="M216.569 229.91C216.569 229.91 217.103 232.947 216.925 233.638C216.747 234.329 214.223 236.261 213.325 237.915C212.966 238.588 212.75 239.327 212.688 240.087C212.627 240.848 212.722 241.612 212.969 242.334C213.325 243.439 214.395 247.024 214.943 246.062C215.492 245.1 215.656 243.988 215.656 241.921C215.656 239.854 215.3 238.05 216.369 237.223L217.452 236.397C217.975 237.602 218.397 238.849 218.714 240.124C219.427 242.747 218.172 244.957 218.529 245.371C218.885 245.784 220.332 245.506 220.51 244.401C220.688 243.296 221.408 242.056 221.408 239.846C221.397 238.499 220.993 237.183 220.247 236.062C219.91 235.131 219.639 234.178 219.434 233.21C219.113 231.542 218.008 228.392 216.569 229.91Z" fill="white" stroke="#263238" stroke-linecap="round" stroke-linejoin="round"/>
<path d="M222.143 225.063C222.925 226.385 223.638 227.746 224.281 229.14C224.73 230.352 225.037 231.714 224.281 231.991C223.525 232.269 222.92 230.181 222.463 229.276C222.007 228.371 220.482 224.457 222.143 225.063Z" fill="#8CA2CE" stroke="#263238" stroke-linecap="round" stroke-linejoin="round"/>
<path d="M222.143 225.063C221.237 223.103 216.098 220.074 214.737 219.325C213.789 218.791 210.759 218.712 209.034 218.705C208.621 218.641 208.2 218.641 207.787 218.705C207.787 218.705 205.371 220.516 205.52 222.483C205.576 223.044 205.817 223.57 206.203 223.981C206.59 224.391 207.102 224.661 207.659 224.75H208.372C208.256 225.483 208.384 226.234 208.735 226.888C209.94 228.749 210.674 230.874 210.873 233.082C210.873 235.049 213.14 234.294 213.439 232.783C213.739 231.272 212.99 228.556 212.99 227.95C212.99 227.344 214.195 225.683 214.195 225.683C214.195 225.683 217.524 229.155 217.973 229.91C218.422 230.666 218.579 234.593 219.79 234.9C221.002 235.206 220.995 232.761 220.995 232.761C221.245 232.782 221.497 232.751 221.735 232.669C221.973 232.587 222.191 232.457 222.376 232.287C222.56 232.117 222.708 231.911 222.809 231.681C222.91 231.451 222.962 231.202 222.962 230.951C223.212 228.95 222.929 226.919 222.143 225.063Z" fill="#8CA2CE" stroke="#263238" stroke-linecap="round" stroke-linejoin="round"/>
<path d="M218.821 225.519C218.821 225.519 221.081 226.874 221.081 228.235C221.081 229.597 220.931 232.768 220.931 232.768" stroke="#263238" stroke-linecap="round" stroke-linejoin="round"/>
<path d="M194.95 273.597C194.95 275.735 196.154 276.013 191.471 278.886C186.788 281.758 179.689 279.791 172.739 278.28C165.79 276.769 157.478 275.557 154.307 275.557C151.135 275.557 143.558 276.733 140.707 276.733C137.855 276.733 133.158 276.434 133.764 274.923C134.37 273.412 142.068 270.988 142.674 270.389C143.28 269.791 143.13 268.572 144.641 266.305C144.983 265.684 145.536 265.205 146.201 264.957C146.865 264.708 147.596 264.706 148.262 264.951C150.931 267.396 154.246 269.021 157.813 269.634C163.516 270.539 173.972 270.988 178.057 270.988C182.141 270.988 187.273 272.806 187.722 272.806" fill="#696969"/>
<path d="M194.95 273.597C194.95 275.735 196.154 276.013 191.471 278.886C186.788 281.758 179.689 279.791 172.739 278.28C165.79 276.769 157.478 275.557 154.307 275.557C151.135 275.557 143.558 276.733 140.707 276.733C137.855 276.733 133.158 276.434 133.764 274.923C134.37 273.412 142.068 270.988 142.674 270.389C143.28 269.791 143.13 268.572 144.641 266.305C144.983 265.684 145.536 265.205 146.201 264.957C146.865 264.708 147.596 264.706 148.262 264.951C150.931 267.396 154.246 269.021 157.813 269.634C163.516 270.539 173.972 270.988 178.057 270.988C182.141 270.988 187.273 272.806 187.722 272.806" stroke="#263238" stroke-linecap="round" stroke-linejoin="round"/>
<path d="M157.813 269.634C154.256 269.016 150.951 267.391 148.291 264.951C147.625 264.706 146.893 264.708 146.229 264.957C145.565 265.205 145.011 265.684 144.67 266.305C143.158 268.572 143.308 269.784 142.702 270.389C142.096 270.995 134.391 273.412 133.792 274.923C133.194 276.434 137.855 276.733 140.706 276.733C143.558 276.733 151.135 275.522 154.307 275.522C155.954 275.567 157.599 275.703 159.232 275.928C159.232 275.792 159.175 275.657 159.139 275.522C158.697 273.64 159.966 271.181 160.672 270.012C159.624 269.898 158.647 269.769 157.813 269.634Z" fill="white" stroke="#263238" stroke-linecap="round" stroke-linejoin="round"/>
<path d="M148.262 264.951C147.596 264.706 146.865 264.708 146.201 264.957C145.536 265.205 144.983 265.684 144.641 266.305C143.13 268.572 143.28 269.784 142.674 270.389C142.068 270.995 134.363 273.412 133.764 274.923C133.543 275.457 133.999 275.835 134.797 276.106C136.572 274.203 142.21 272.62 143.786 271.473C145.361 270.325 144.185 269.933 145.846 267.667C146.259 267.137 146.774 266.696 147.36 266.368C147.947 266.04 148.592 265.832 149.26 265.756C148.604 265.286 148.262 264.951 148.262 264.951Z" stroke="#263238" stroke-linecap="round" stroke-linejoin="round"/>
<path d="M162.161 200.893C162.161 200.893 155.967 203.309 154.763 208.291C153.558 213.274 155.818 244.251 155.818 245.007C155.818 245.763 159.895 246.518 166.246 247.145C172.597 247.773 184.372 247.901 184.372 247.901C184.372 247.901 189.511 250.16 190.566 250.16C191.621 250.16 193.888 248.806 193.888 248.806C193.888 248.806 193.588 250.16 194.793 249.861C195.997 249.562 200.082 246.233 200.082 245.634C200.082 245.036 197.366 242.156 195.705 241.856C194.044 241.557 186.639 244.423 185.883 244.423C185.127 244.423 171.984 241.571 169.567 240.495C167.646 239.716 165.677 239.059 163.673 238.528L164.735 212.397" fill="white"/>
<path d="M162.161 200.893C162.161 200.893 155.967 203.309 154.763 208.291C153.558 213.274 155.818 244.251 155.818 245.007C155.818 245.763 159.895 246.518 166.246 247.145C172.597 247.773 184.372 247.901 184.372 247.901C184.372 247.901 189.511 250.16 190.566 250.16C191.621 250.16 193.888 248.806 193.888 248.806C193.888 248.806 193.588 250.16 194.793 249.861C195.997 249.562 200.082 246.233 200.082 245.634C200.082 245.036 197.366 242.156 195.705 241.856C194.044 241.557 186.639 244.423 185.883 244.423C185.127 244.423 171.984 241.571 169.567 240.495C167.646 239.716 165.677 239.059 163.673 238.528L164.735 212.397" stroke="#263238" stroke-linecap="round" stroke-linejoin="round"/>
<path d="M195.705 241.835C194.037 241.529 186.639 244.401 185.883 244.401C185.127 244.401 171.984 241.55 169.567 240.474C167.646 239.694 165.677 239.037 163.673 238.506L164.25 224.186L154.634 223.816C155.041 233.716 155.818 244.565 155.818 245.007C155.818 245.763 159.895 246.518 166.246 247.145C172.597 247.773 184.372 247.901 184.372 247.901C184.372 247.901 189.511 250.16 190.566 250.16C191.621 250.16 193.888 248.806 193.888 248.806C193.888 248.806 193.588 250.16 194.793 249.861C195.998 249.562 200.082 246.233 200.082 245.634C200.082 245.036 197.366 242.134 195.705 241.835Z" fill="white" stroke="#263238" stroke-linecap="round" stroke-linejoin="round"/>
<path d="M200.082 245.613C200.082 245.007 197.366 242.134 195.705 241.835C194.044 241.536 186.639 244.401 185.883 244.401C185.648 244.401 184.208 244.123 182.262 243.688C181.549 244.401 180.872 245.627 181.1 247.794L184.372 247.858C184.372 247.858 189.511 250.118 190.566 250.118C191.621 250.118 193.888 248.763 193.888 248.763C193.888 248.763 193.588 250.118 194.793 249.818C195.997 249.519 200.082 246.212 200.082 245.613Z" fill="#8CA2CE" stroke="#263238" stroke-linecap="round" stroke-linejoin="round"/>
<path d="M167.151 171.276C167.151 171.276 161.406 166.75 159.139 168.261C156.873 169.772 147.357 181.854 146.452 185.176C145.546 188.497 150.529 189.26 148.718 191.976C146.908 194.691 143.429 195.753 144.791 199.103C146.152 202.454 151.591 202.732 152.795 203.487C154 204.243 155.967 207.115 160.351 205.903C164.735 204.692 163.822 199.103 167.151 198.348C170.48 197.592 170.173 193.066 168.662 189.438C167.151 185.81 166.246 180.828 168.056 178.561C169.867 176.294 167.151 171.276 167.151 171.276Z" fill="#263238" stroke="#263238" stroke-linecap="round" stroke-linejoin="round"/>
<path d="M170.501 168.168C170.501 168.168 165.868 168.432 163.68 174.22C161.491 180.008 163.68 188.633 164.321 190.051C164.963 191.47 168.313 192.902 170.373 191.719C172.433 190.536 175.262 186.059 177.315 184.898C179.368 183.736 183.495 178.853 183.495 178.853L186.453 182.581C186.453 182.581 188.385 182.324 189.155 178.597C189.925 174.869 187.102 170.877 182.469 168.56C177.836 166.244 172.818 166.372 170.501 168.168Z" fill="#263238" stroke="#263238" stroke-linecap="round" stroke-linejoin="round"/>
<path d="M169.867 194.242C169.867 194.242 170.016 198.776 171.078 200.743C172.14 202.71 174.856 211.435 178.327 211.77C181.799 212.105 181.649 199.531 181.649 199.531C181.649 199.531 177.572 199.681 175.156 197.115C172.739 194.549 170.173 193.052 169.867 194.242Z" stroke="#263238" stroke-linecap="round" stroke-linejoin="round"/>
<path d="M184.008 175.118C184.008 175.118 178.605 181.426 174.357 184.128C170.109 186.829 168.185 187.214 168.185 187.214C168.185 187.214 169.852 186.958 168.698 188.119C167.543 189.281 167.272 189.545 166.638 188.504C166.003 187.464 163.423 186.444 162.903 189.017C162.682 190.092 162.846 191.209 163.368 192.174C163.889 193.139 164.734 193.889 165.754 194.292C166.852 194.755 168.071 194.845 169.225 194.549C169.225 194.549 169.61 198.925 174.756 201.498C179.903 204.072 184.671 200.472 186.083 197.771C187.494 195.069 186.988 182.845 186.724 180.785C186.46 178.725 184.008 175.118 184.008 175.118Z" fill="white" stroke="#263238" stroke-linecap="round" stroke-linejoin="round"/>
<path d="M182.711 187.293C182.711 187.293 182.405 189.709 182.861 189.859C183.317 190.008 184.999 190.614 184.372 191.527C183.745 192.439 182.861 193.038 181.806 192.581" stroke="#263238" stroke-linecap="round" stroke-linejoin="round"/>
<path d="M175.911 194.698C175.911 194.698 177.123 196.659 181.806 195.604" stroke="#263238" stroke-linecap="round" stroke-linejoin="round"/>
<path d="M178.634 188.276C178.634 188.989 178.292 189.559 177.878 189.559C177.465 189.559 177.123 188.982 177.123 188.276C177.123 187.571 177.458 186.993 177.878 186.993C178.299 186.993 178.634 187.563 178.634 188.276Z" fill="#263238"/>
<path d="M185.127 187.521C185.127 188.233 184.792 188.804 184.372 188.804C183.951 188.804 183.616 188.226 183.616 187.521C183.616 186.815 183.951 186.238 184.372 186.238C184.792 186.238 185.127 186.808 185.127 187.521Z" fill="#263238"/>
<path d="M175.633 185.924C176.045 185.417 176.582 185.026 177.19 184.789C177.799 184.552 178.458 184.476 179.104 184.57" stroke="#263238" stroke-linecap="round" stroke-linejoin="round"/>
<path d="M182.861 184.42C182.861 184.42 183.766 182.46 185.712 183.821" stroke="#263238" stroke-linecap="round" stroke-linejoin="round"/>
<path d="M233.127 237.48C233.127 237.48 218.543 242.163 214.594 243.603C210.645 245.043 197.673 245.221 196.774 246.661C195.876 248.101 189.418 256.241 188.157 260.916C186.895 265.592 188.57 278.259 189.775 279.05C194.615 282.25 207.345 281.267 212.734 281.06C222.592 280.696 232.136 284.253 237.681 274.217C239.478 270.974 236.883 259.619 236.527 255.841C236.17 252.064 234.901 245.763 234.723 244.857C234.545 243.952 235.828 238.2 233.127 237.48Z" fill="white" stroke="#263238" stroke-linecap="round" stroke-linejoin="round"/>
<path d="M214.886 255.777C222.599 253.054 229.178 245.085 231.223 243.745C233.269 242.405 234.388 239.469 234.388 239.469C231.158 241.646 227.651 243.381 223.96 244.629" stroke="#263238" stroke-linecap="round" stroke-linejoin="round"/>
<path d="M234.174 240.766C232.716 245.269 230.139 249.328 226.683 252.563" stroke="#263238" stroke-linecap="round" stroke-linejoin="round"/>
<path d="M199.683 247.117C199.683 247.117 201.949 248.25 209.662 248.25" stroke="#263238" stroke-linecap="round" stroke-linejoin="round"/>
<path d="M198.77 247.345C198.77 247.345 200.588 255.285 210.802 258.464" stroke="#263238" stroke-linecap="round" stroke-linejoin="round"/>
<path d="M196.96 250.075C198.509 252.807 200.591 255.199 203.083 257.11" stroke="#263238" stroke-linecap="round" stroke-linejoin="round"/>
<path d="M53.7036 212.133C53.7036 212.133 57.7308 223.616 57.7308 228.249C57.7308 232.883 60.9526 258.265 61.3518 261.088C61.6193 262.841 62.1655 264.539 62.9698 266.12C65.7212 268.663 68.8463 270.768 72.2361 272.364C78.0738 275.215 77.8742 274.381 76.8692 275.586C75.8642 276.79 66.5908 277.011 62.3639 276.598C58.1371 276.184 53.9032 277.603 53.7036 275.792C53.504 273.982 53.4969 266.726 53.4969 263.504C53.4969 260.282 45.0361 244.373 44.031 239.326C43.026 234.28 43.4252 226.439 43.4252 226.439L38.3929 214.322L53.7036 212.133Z" fill="white" stroke="#263238" stroke-linecap="round" stroke-linejoin="round"/>
<path d="M61.587 268.137V270.988L53.5468 269.441C53.5468 272.164 53.618 274.823 53.7321 275.857C53.9317 277.667 58.1585 276.256 62.3925 276.662C66.6264 277.068 75.8855 276.862 76.8977 275.65C77.9099 274.438 78.1023 275.251 72.2646 272.428C68.8765 270.83 65.7518 268.724 62.9983 266.184C62.9983 266.184 61.587 266.319 61.587 268.137Z" fill="#263238" stroke="#263238" stroke-linecap="round" stroke-linejoin="round"/>
<path d="M37.1811 213.345C37.1811 213.345 37.7656 225.969 35.7556 231.072C25.6839 256.854 25.2847 266.526 25.2847 266.526C25.2847 266.526 35.3706 274.174 37.5874 275.023C39.8042 275.871 41.0088 276.227 39.5975 277.232C38.1862 278.237 25.4985 278.038 23.2818 278.038C21.065 278.038 15.6264 276.427 15.0277 275.422C14.4289 274.417 16.4532 266.355 16.4532 266.355C16.4532 266.355 17.4654 246.212 17.4654 241.579C17.4654 236.945 22.4977 227.886 22.4977 226.268C22.4977 224.65 21.4927 212.575 21.4927 212.575C21.4927 212.575 33.5602 215.562 37.1811 213.345Z" fill="white" stroke="#263238" stroke-linecap="round" stroke-linejoin="round"/>
<path d="M39.5975 277.197C41.0231 276.192 39.8042 275.771 37.5874 274.987C35.3707 274.203 25.299 266.526 25.299 266.526C25.299 266.526 24.2939 266.925 24.2939 268.536C24.3393 269.384 24.1282 270.226 23.6881 270.953C23.6881 270.953 20.4662 270.354 16.6386 269.527C16.3178 269.463 16.0256 269.399 15.7405 269.327C15.2201 271.73 14.6713 274.78 15.0277 275.372C15.6264 276.377 21.065 277.988 23.2818 277.988C25.4985 277.988 38.1933 278.209 39.5975 277.197Z" fill="#263238" stroke="#263238" stroke-linecap="round" stroke-linejoin="round"/>
<path d="M53.9031 152.708L61.3518 163.585L92.1727 159.159V164.997C92.1727 164.997 61.587 173.457 60.3467 172.452C59.1065 171.447 48.8637 166.608 48.8637 166.608L53.9031 152.708Z" fill="#B5B5B5" stroke="#263238" stroke-linecap="round" stroke-linejoin="round"/>
<path d="M26.304 138.41C26.304 138.41 24.0872 151.304 24.0872 156.536V175.068C24.0872 175.068 17.6721 185.347 16.6386 194.406C15.605 203.466 15.4268 213.545 15.4268 213.545C15.4268 213.545 25.0994 217.779 32.9543 217.173C37.6282 216.816 42.2722 216.14 46.8537 215.148L57.9304 212.532L49.6692 175.068C49.6692 175.068 53.7035 164.376 54.3023 163.792C54.901 163.208 57.1534 155.951 56.3195 150.491C55.4855 145.031 52.4918 133.776 46.2478 130.754C40.0038 127.732 29.1266 131.36 26.304 138.41Z" fill="#5E5E5E" stroke="#263238" stroke-linecap="round" stroke-linejoin="round"/>
<path d="M35.4847 175.232C35.048 178.518 33.6662 181.606 31.5073 184.121C27.9434 188.233 25.0067 189.025 25.0067 189.025C25.0067 189.025 23.2818 205.768 23.9447 212.297" stroke="#263238" stroke-linecap="round" stroke-linejoin="round"/>
<path d="M37.3522 175.788C36.9944 178.877 35.9992 181.857 34.4298 184.541C31.9065 188.654 26.5891 190.115 26.5891 190.115" stroke="#263238" stroke-linecap="round" stroke-linejoin="round"/>
<path d="M49.8759 136.998C48.821 133.399 45.7631 131.025 44.2662 130.049C39.6117 128.901 33.4818 130.526 29.5472 133.983C29.4759 134.411 29.426 134.796 29.3262 135.188C29.1266 135.993 26.1044 153.514 26.1044 153.514C26.1044 153.514 26.8172 153.656 27.9291 153.856C26.8172 159.522 28.0646 168.974 28.0646 168.974C28.0646 168.974 34.0163 170.891 38.621 170.699C43.2256 170.506 48.6 167.848 48.6 167.848C48.6 166.23 49.9472 158.111 50.5815 154.376H50.8809C50.8809 154.376 51.2801 141.831 49.8759 136.998Z" fill="white" stroke="#263238" stroke-linecap="round" stroke-linejoin="round"/>
<path d="M41.5006 152.473C41.5006 152.473 34.3727 159.601 30.7518 160.72L41.5006 152.473Z" fill="white"/>
<path d="M41.5006 152.473C41.5006 152.473 34.3727 159.601 30.7518 160.72" stroke="#263238" stroke-linecap="round" stroke-linejoin="round"/>
<path d="M41.5006 156.115C41.5006 156.115 37.4662 159.765 34.2088 162.452L41.5006 156.115Z" fill="white"/>
<path d="M41.5006 156.115C41.5006 156.115 37.4662 159.765 34.2088 162.452" stroke="#263238" stroke-linecap="round" stroke-linejoin="round"/>
<path d="M57.0251 208.427C53.4605 210.329 49.4828 211.325 45.4423 211.328C45.4423 211.328 39.3979 213.951 29.9321 213.545C24.8821 213.271 19.9651 211.826 15.5694 209.325C15.4625 211.891 15.4268 213.545 15.4268 213.545C15.4268 213.545 25.0994 217.779 32.9543 217.173C37.6282 216.816 42.2722 216.14 46.8537 215.148L57.9304 212.532L57.0251 208.427Z" fill="white" stroke="#263238" stroke-linecap="round" stroke-linejoin="round"/>
<path d="M45.6419 215.562L46.0482 193.601" stroke="#263238" stroke-linecap="round" stroke-linejoin="round"/>
<path d="M65.5857 110.411V115.643C65.5857 115.643 68.2017 117.66 66.5908 119.072C65.9432 119.724 65.1947 120.268 64.374 120.683C64.374 120.683 63.369 125.316 61.1522 127.532C58.9354 129.749 57.7308 129.343 54.509 127.126C51.2872 124.909 49.27 123.505 49.27 123.505C49.27 123.505 51.2801 113.633 52.6914 110.411C54.1027 107.189 58.5363 106.783 60.753 107.182C62.9698 107.581 65.5857 110.411 65.5857 110.411Z" fill="white" stroke="#263238" stroke-linecap="round" stroke-linejoin="round"/>
<path d="M63.3832 115.251C63.3832 115.857 63.1124 116.349 62.7845 116.349C62.4566 116.349 62.1857 115.857 62.1857 115.251C62.1857 114.645 62.4495 114.146 62.7845 114.146C63.1195 114.146 63.3832 114.645 63.3832 115.251Z" fill="#263238"/>
<path d="M61.4801 112.649C61.4801 112.649 62.5849 110.853 64.0818 112.35" stroke="#263238" stroke-linecap="round" stroke-linejoin="round"/>
<path d="M59.9832 121.06C60.6453 121.734 61.5411 122.127 62.4851 122.158" stroke="#263238" stroke-linecap="round" stroke-linejoin="round"/>
<path d="M56.5975 108.715C56.5975 108.715 52.3635 118.865 52.5774 123.733C52.7912 128.602 58.2797 142.565 55.9631 147.22C53.6465 151.874 48.7568 155.274 45.1929 149.757C41.6289 144.24 40.3245 142.565 38.0008 145.944C35.6772 149.322 32.9258 155.467 27.6369 155.467C22.348 155.467 15.9686 148.488 19.1405 141.083C22.3124 133.677 29.5115 130.505 33.9522 123.313C37.2126 118.202 39.5078 112.537 40.7237 106.598L57.0109 107.232L56.5975 108.715Z" fill="#263238" stroke="#263238" stroke-linecap="round" stroke-linejoin="round"/>
<path d="M40.296 109.77H65.6855C65.6855 109.77 65.6855 98.9781 63.5472 97.2888C61.4088 95.5995 44.7224 96.0201 42.8193 97.2888C40.9161 98.5576 39.4906 108.501 40.296 109.77Z" fill="#8CA2CE" stroke="#263238" stroke-linecap="round" stroke-linejoin="round"/>
<path d="M57.574 109.656C57.574 109.656 63.4973 111.979 68.7862 111.979C74.075 111.979 76.8264 109.656 76.8264 109.656H57.574Z" fill="#8CA2CE" stroke="#263238" stroke-linecap="round" stroke-linejoin="round"/>
<path d="M99.2222 158.125C99.2222 158.125 101.439 157.726 101.439 159.337C101.439 160.948 98.8231 160.763 96.6063 159.943C94.3895 159.123 97.4117 158.553 99.2222 158.125Z" fill="#B5B5B5" stroke="#263238" stroke-linecap="round" stroke-linejoin="round"/>
<path d="M99.6285 160.164C99.6285 160.164 101.845 159.758 101.845 161.376C101.845 162.994 99.2222 162.801 97.0126 161.974C94.8029 161.148 97.818 160.57 99.6285 160.164Z" fill="#B5B5B5" stroke="#263238" stroke-linecap="round" stroke-linejoin="round"/>
<path d="M100.035 162.181C100.035 162.181 102.244 161.775 102.244 163.386C102.244 164.997 99.6285 164.811 97.4117 163.992C95.195 163.172 98.2172 162.58 100.035 162.181Z" fill="#B5B5B5" stroke="#263238" stroke-linecap="round" stroke-linejoin="round"/>
<path d="M99.6356 164.241C99.6356 164.241 101.852 163.835 101.852 165.446C101.852 167.057 99.2293 166.871 97.0197 166.052C94.81 165.232 97.8251 164.64 99.6356 164.241Z" fill="#B5B5B5" stroke="#263238" stroke-linecap="round" stroke-linejoin="round"/>
<path d="M89.956 160.164C89.956 160.164 77.4679 187.556 77.4679 189.388C77.4679 191.22 77.4679 196.031 78.6797 198.854C79.8914 201.677 87.1405 206.909 90.3623 207.514C93.5841 208.12 107.284 204.898 108.895 204.492C110.506 204.086 114.74 192.81 114.533 190.593C114.326 188.376 109.094 179.901 108.289 178.511C107.483 177.121 100.84 168.033 100.035 166.394C99.2294 164.754 96.8059 160.556 96.8059 160.556L89.956 160.164Z" fill="white" stroke="#263238" stroke-linecap="round" stroke-linejoin="round"/>
<path d="M92.1727 164.997L90.5618 176.886" stroke="#263238" stroke-linecap="round" stroke-linejoin="round"/>
<path d="M94.9954 163.585V179.302" stroke="#263238" stroke-linecap="round" stroke-linejoin="round"/>
<path d="M97.0126 161.974L102.651 179.701" stroke="#263238" stroke-linecap="round" stroke-linejoin="round"/>
<path d="M57.3103 161.775C57.3103 161.775 47.4453 136.827 44.8222 135.587C42.1992 134.347 34.3656 134.603 35.1711 143.87C35.9765 153.136 51.4868 172.474 53.4968 172.673C55.5069 172.873 87.1405 162.402 87.1405 162.402C87.1405 162.402 97.8323 163.828 98.6235 162.602C99.4147 161.376 99.6285 156.963 99.6285 156.963C99.6285 156.963 101.054 153.941 99.6285 152.936C98.2029 151.931 91.7878 152.53 90.7685 152.53C89.7493 152.53 84.9237 157.363 84.9237 157.363L57.3103 161.775Z" fill="white" stroke="#263238" stroke-linecap="round" stroke-linejoin="round"/>
<path d="M98.652 162.58C99.4574 161.376 99.657 156.942 99.657 156.942C99.657 156.942 101.083 153.92 99.657 152.915C98.2314 151.91 91.8163 152.509 90.7971 152.509C89.7778 152.509 84.9522 157.341 84.9522 157.341L79.7132 158.182L80.6042 164.533C84.4746 163.272 87.169 162.395 87.169 162.395C87.169 162.395 97.818 163.828 98.652 162.58Z" fill="#8CA2CE" stroke="#263238" stroke-linecap="round" stroke-linejoin="round"/>
<path d="M102.244 150.092L113.727 156.137L111.511 160.164L102.244 150.092Z" fill="white" stroke="#263238" stroke-linecap="round" stroke-linejoin="round"/>
<path d="M92.7786 152.109L94.3895 147.875C94.3895 147.875 95.6013 147.27 100.035 148.481C104.468 149.693 113.122 161.974 113.122 161.974C113.122 161.974 106.878 166.408 105.873 166.607C104.868 166.807 101.239 155.916 100.84 154.925C100.521 154.207 100.114 153.532 99.6285 152.915L92.7786 152.109Z" fill="white" stroke="#263238" stroke-linecap="round" stroke-linejoin="round"/>
<path d="M99.6285 152.915L96.0646 150.598" stroke="#263238" stroke-linecap="round" stroke-linejoin="round"/>
<path d="M123.393 197.414H72.5853V277.033H123.393V197.414Z" fill="#484F88" stroke="#263238" stroke-linecap="round" stroke-linejoin="round"/>
<path d="M123.272 224.415H72.7065C72.3473 224.415 72.0029 224.272 71.7489 224.018C71.4949 223.764 71.3522 223.419 71.3522 223.06C71.3522 222.701 71.4949 222.357 71.7489 222.103C72.0029 221.849 72.3473 221.706 72.7065 221.706H123.272C123.631 221.706 123.975 221.849 124.229 222.103C124.483 222.357 124.626 222.701 124.626 223.06C124.626 223.419 124.483 223.764 124.229 224.018C123.975 224.272 123.631 224.415 123.272 224.415Z" fill="#484F88" stroke="#263238" stroke-linecap="round" stroke-linejoin="round"/>
<path d="M123.272 198.612H72.7065C72.3473 198.612 72.0029 198.469 71.7489 198.215C71.4949 197.961 71.3522 197.617 71.3522 197.257C71.3522 196.898 71.4949 196.554 71.7489 196.3C72.0029 196.046 72.3473 195.903 72.7065 195.903H123.272C123.631 195.903 123.975 196.046 124.229 196.3C124.483 196.554 124.626 196.898 124.626 197.257C124.626 197.617 124.483 197.961 124.229 198.215C123.975 198.469 123.631 198.612 123.272 198.612Z" fill="#484F88" stroke="#263238" stroke-linecap="round" stroke-linejoin="round"/>
<path d="M123.272 251.386H72.7065C72.3473 251.386 72.0029 251.244 71.7489 250.99C71.4949 250.736 71.3522 250.391 71.3522 250.032C71.3522 249.673 71.4949 249.329 71.7489 249.075C72.0029 248.821 72.3473 248.678 72.7065 248.678H123.272C123.631 248.678 123.975 248.821 124.229 249.075C124.483 249.329 124.626 249.673 124.626 250.032C124.626 250.391 124.483 250.736 124.229 250.99C123.975 251.244 123.631 251.386 123.272 251.386Z" fill="#484F88" stroke="#263238" stroke-linecap="round" stroke-linejoin="round"/>
</svg>
