<svg width="20" height="20" viewBox="0 0 20 20" fill="none" xmlns="http://www.w3.org/2000/svg">
<path fill-rule="evenodd" clip-rule="evenodd" d="M4.37496 8.37919V6.66669C4.37496 5.17484 4.96759 3.7441 6.02248 2.68921C7.07738 1.63432 8.50812 1.04169 9.99996 1.04169C11.4918 1.04169 12.9225 1.63432 13.9774 2.68921C15.0323 3.7441 15.625 5.17484 15.625 6.66669V8.37919C16.5541 8.44835 17.1583 8.62335 17.6008 9.06585C18.3333 9.79752 18.3333 10.9767 18.3333 13.3334C18.3333 15.69 18.3333 16.8692 17.6008 17.6009C16.8691 18.3334 15.69 18.3334 13.3333 18.3334H6.66663C4.30996 18.3334 3.13079 18.3334 2.39913 17.6009C1.66663 16.8692 1.66663 15.69 1.66663 13.3334C1.66663 10.9767 1.66663 9.79752 2.39913 9.06585C2.84079 8.62335 3.44579 8.44835 4.37496 8.37919ZM5.62496 6.66669C5.62496 5.50636 6.0859 4.39357 6.90637 3.57309C7.72684 2.75262 8.83964 2.29169 9.99996 2.29169C11.1603 2.29169 12.2731 2.75262 13.0936 3.57309C13.914 4.39357 14.375 5.50636 14.375 6.66669V8.33669C14.0558 8.33335 13.7091 8.33335 13.3333 8.33335H6.66663C6.28996 8.33335 5.94413 8.33335 5.62496 8.33669V6.66669ZM6.66663 14.1667C6.88764 14.1667 7.0996 14.0789 7.25588 13.9226C7.41216 13.7663 7.49996 13.5544 7.49996 13.3334C7.49996 13.1123 7.41216 12.9004 7.25588 12.7441C7.0996 12.5878 6.88764 12.5 6.66663 12.5C6.44561 12.5 6.23365 12.5878 6.07737 12.7441C5.92109 12.9004 5.83329 13.1123 5.83329 13.3334C5.83329 13.5544 5.92109 13.7663 6.07737 13.9226C6.23365 14.0789 6.44561 14.1667 6.66663 14.1667ZM9.99996 14.1667C10.221 14.1667 10.4329 14.0789 10.5892 13.9226C10.7455 13.7663 10.8333 13.5544 10.8333 13.3334C10.8333 13.1123 10.7455 12.9004 10.5892 12.7441C10.4329 12.5878 10.221 12.5 9.99996 12.5C9.77894 12.5 9.56698 12.5878 9.4107 12.7441C9.25442 12.9004 9.16663 13.1123 9.16663 13.3334C9.16663 13.5544 9.25442 13.7663 9.4107 13.9226C9.56698 14.0789 9.77894 14.1667 9.99996 14.1667ZM14.1666 13.3334C14.1666 13.5544 14.0788 13.7663 13.9225 13.9226C13.7663 14.0789 13.5543 14.1667 13.3333 14.1667C13.1123 14.1667 12.9003 14.0789 12.744 13.9226C12.5878 13.7663 12.5 13.5544 12.5 13.3334C12.5 13.1123 12.5878 12.9004 12.744 12.7441C12.9003 12.5878 13.1123 12.5 13.3333 12.5C13.5543 12.5 13.7663 12.5878 13.9225 12.7441C14.0788 12.9004 14.1666 13.1123 14.1666 13.3334Z" fill="#293066"/>
</svg>
