<svg width="327" height="286" viewBox="0 0 327 286" fill="none" xmlns="http://www.w3.org/2000/svg">
<path d="M58.4736 231.045H61.1367V236.38L66.1377 231.045H69.6357L64.3271 236.38L69.9082 244H66.4277L62.4287 238.34L61.1367 239.667V244H58.4736V231.045ZM76.5176 239.342C76.3594 239.441 76.1982 239.523 76.0342 239.588C75.876 239.646 75.6562 239.702 75.375 239.755L74.8125 239.86C74.2852 239.954 73.9072 240.068 73.6787 240.203C73.292 240.432 73.0986 240.786 73.0986 241.267C73.0986 241.694 73.2158 242.005 73.4502 242.198C73.6904 242.386 73.9805 242.479 74.3203 242.479C74.8594 242.479 75.3545 242.321 75.8057 242.005C76.2627 241.688 76.5 241.111 76.5176 240.273V239.342ZM74.9971 238.173C75.46 238.114 75.791 238.041 75.9902 237.953C76.3477 237.801 76.5264 237.563 76.5264 237.241C76.5264 236.849 76.3887 236.579 76.1133 236.433C75.8438 236.28 75.4453 236.204 74.918 236.204C74.3262 236.204 73.9072 236.351 73.6611 236.644C73.4854 236.86 73.3682 237.153 73.3096 237.522H70.8926C70.9453 236.685 71.1797 235.996 71.5957 235.457C72.2578 234.613 73.3945 234.191 75.0059 234.191C76.0547 234.191 76.9863 234.399 77.8008 234.815C78.6152 235.231 79.0225 236.017 79.0225 237.171V241.565C79.0225 241.87 79.0283 242.239 79.04 242.673C79.0576 243.001 79.1074 243.224 79.1895 243.341C79.2715 243.458 79.3945 243.555 79.5586 243.631V244H76.834C76.7578 243.807 76.7051 243.625 76.6758 243.455C76.6465 243.285 76.623 243.092 76.6055 242.875C76.2598 243.25 75.8613 243.569 75.4102 243.833C74.8711 244.144 74.2617 244.299 73.582 244.299C72.7148 244.299 71.9971 244.053 71.4287 243.561C70.8662 243.062 70.585 242.359 70.585 241.451C70.585 240.273 71.0391 239.421 71.9473 238.894C72.4453 238.606 73.1777 238.401 74.1445 238.278L74.9971 238.173ZM80.2705 236.292V234.508H81.6064V231.836H84.085V234.508H85.6406V236.292H84.085V241.354C84.085 241.747 84.1348 241.993 84.2344 242.093C84.334 242.187 84.6387 242.233 85.1484 242.233C85.2246 242.233 85.3037 242.233 85.3857 242.233C85.4736 242.228 85.5586 242.222 85.6406 242.216V244.088L84.4541 244.132C83.2705 244.173 82.4619 243.968 82.0283 243.517C81.7471 243.229 81.6064 242.787 81.6064 242.189V236.292H80.2705ZM92.5312 239.342C92.373 239.441 92.2119 239.523 92.0479 239.588C91.8896 239.646 91.6699 239.702 91.3887 239.755L90.8262 239.86C90.2988 239.954 89.9209 240.068 89.6924 240.203C89.3057 240.432 89.1123 240.786 89.1123 241.267C89.1123 241.694 89.2295 242.005 89.4639 242.198C89.7041 242.386 89.9941 242.479 90.334 242.479C90.873 242.479 91.3682 242.321 91.8193 242.005C92.2764 241.688 92.5137 241.111 92.5312 240.273V239.342ZM91.0107 238.173C91.4736 238.114 91.8047 238.041 92.0039 237.953C92.3613 237.801 92.54 237.563 92.54 237.241C92.54 236.849 92.4023 236.579 92.127 236.433C91.8574 236.28 91.459 236.204 90.9316 236.204C90.3398 236.204 89.9209 236.351 89.6748 236.644C89.499 236.86 89.3818 237.153 89.3232 237.522H86.9062C86.959 236.685 87.1934 235.996 87.6094 235.457C88.2715 234.613 89.4082 234.191 91.0195 234.191C92.0684 234.191 93 234.399 93.8145 234.815C94.6289 235.231 95.0361 236.017 95.0361 237.171V241.565C95.0361 241.87 95.042 242.239 95.0537 242.673C95.0713 243.001 95.1211 243.224 95.2031 243.341C95.2852 243.458 95.4082 243.555 95.5723 243.631V244H92.8477C92.7715 243.807 92.7188 243.625 92.6895 243.455C92.6602 243.285 92.6367 243.092 92.6191 242.875C92.2734 243.25 91.875 243.569 91.4238 243.833C90.8848 244.144 90.2754 244.299 89.5957 244.299C88.7285 244.299 88.0107 244.053 87.4424 243.561C86.8799 243.062 86.5986 242.359 86.5986 241.451C86.5986 240.273 87.0527 239.421 87.9609 238.894C88.459 238.606 89.1914 238.401 90.1582 238.278L91.0107 238.173ZM104.44 240.001C104.522 240.593 104.684 241.035 104.924 241.328C105.363 241.861 106.116 242.128 107.183 242.128C107.821 242.128 108.34 242.058 108.738 241.917C109.494 241.647 109.872 241.146 109.872 240.414C109.872 239.986 109.685 239.655 109.31 239.421C108.935 239.192 108.346 238.99 107.543 238.814L106.172 238.507C104.824 238.202 103.893 237.871 103.377 237.514C102.504 236.916 102.067 235.981 102.067 234.71C102.067 233.55 102.489 232.586 103.333 231.818C104.177 231.051 105.416 230.667 107.051 230.667C108.416 230.667 109.579 231.03 110.54 231.757C111.507 232.478 112.014 233.526 112.061 234.903H109.459C109.412 234.124 109.072 233.57 108.439 233.242C108.018 233.025 107.493 232.917 106.866 232.917C106.169 232.917 105.612 233.058 105.196 233.339C104.78 233.62 104.572 234.013 104.572 234.517C104.572 234.979 104.777 235.325 105.188 235.554C105.451 235.706 106.014 235.885 106.875 236.09L109.107 236.626C110.086 236.86 110.824 237.174 111.322 237.566C112.096 238.176 112.482 239.058 112.482 240.212C112.482 241.396 112.028 242.38 111.12 243.165C110.218 243.944 108.94 244.334 107.288 244.334C105.601 244.334 104.273 243.95 103.307 243.183C102.34 242.409 101.856 241.349 101.856 240.001H104.44ZM119.566 239.342C119.408 239.441 119.247 239.523 119.083 239.588C118.925 239.646 118.705 239.702 118.424 239.755L117.861 239.86C117.334 239.954 116.956 240.068 116.728 240.203C116.341 240.432 116.147 240.786 116.147 241.267C116.147 241.694 116.265 242.005 116.499 242.198C116.739 242.386 117.029 242.479 117.369 242.479C117.908 242.479 118.403 242.321 118.854 242.005C119.312 241.688 119.549 241.111 119.566 240.273V239.342ZM118.046 238.173C118.509 238.114 118.84 238.041 119.039 237.953C119.396 237.801 119.575 237.563 119.575 237.241C119.575 236.849 119.438 236.579 119.162 236.433C118.893 236.28 118.494 236.204 117.967 236.204C117.375 236.204 116.956 236.351 116.71 236.644C116.534 236.86 116.417 237.153 116.358 237.522H113.941C113.994 236.685 114.229 235.996 114.645 235.457C115.307 234.613 116.443 234.191 118.055 234.191C119.104 234.191 120.035 234.399 120.85 234.815C121.664 235.231 122.071 236.017 122.071 237.171V241.565C122.071 241.87 122.077 242.239 122.089 242.673C122.106 243.001 122.156 243.224 122.238 243.341C122.32 243.458 122.443 243.555 122.607 243.631V244H119.883C119.807 243.807 119.754 243.625 119.725 243.455C119.695 243.285 119.672 243.092 119.654 242.875C119.309 243.25 118.91 243.569 118.459 243.833C117.92 244.144 117.311 244.299 116.631 244.299C115.764 244.299 115.046 244.053 114.478 243.561C113.915 243.062 113.634 242.359 113.634 241.451C113.634 240.273 114.088 239.421 114.996 238.894C115.494 238.606 116.227 238.401 117.193 238.278L118.046 238.173ZM129.612 234.191C130.603 234.191 131.411 234.452 132.038 234.974C132.671 235.489 132.987 236.348 132.987 237.549V244H130.421V238.173C130.421 237.669 130.354 237.282 130.219 237.013C129.973 236.521 129.504 236.274 128.812 236.274C127.963 236.274 127.38 236.635 127.063 237.355C126.899 237.736 126.817 238.223 126.817 238.814V244H124.321V234.438H126.738V235.835C127.061 235.343 127.365 234.988 127.652 234.771C128.168 234.385 128.821 234.191 129.612 234.191ZM138.841 234.191C139.421 234.191 139.937 234.32 140.388 234.578C140.839 234.83 141.205 235.182 141.486 235.633V231.062H144.026V244H141.592V242.673C141.234 243.241 140.827 243.654 140.37 243.912C139.913 244.17 139.345 244.299 138.665 244.299C137.546 244.299 136.603 243.848 135.835 242.945C135.073 242.037 134.692 240.874 134.692 239.456C134.692 237.821 135.067 236.535 135.817 235.598C136.573 234.66 137.581 234.191 138.841 234.191ZM139.386 242.189C140.095 242.189 140.634 241.926 141.003 241.398C141.372 240.871 141.557 240.188 141.557 239.351C141.557 238.179 141.261 237.341 140.669 236.837C140.306 236.532 139.884 236.38 139.403 236.38C138.671 236.38 138.132 236.658 137.786 237.215C137.446 237.766 137.276 238.451 137.276 239.271C137.276 240.156 137.449 240.865 137.795 241.398C138.146 241.926 138.677 242.189 139.386 242.189ZM148.887 233.277H146.347V230.966H148.887V233.277ZM146.347 234.42H148.887V244H146.347V234.42ZM165.946 231.045V233.339H162.07V244H159.346V233.339H155.452V231.045H165.946ZM169.778 236.23C169.198 236.23 168.747 236.412 168.425 236.775C168.108 237.139 167.909 237.631 167.827 238.252H171.721C171.68 237.59 171.478 237.089 171.114 236.749C170.757 236.403 170.312 236.23 169.778 236.23ZM169.778 234.165C170.575 234.165 171.293 234.314 171.932 234.613C172.57 234.912 173.098 235.384 173.514 236.028C173.889 236.597 174.132 237.256 174.243 238.006C174.308 238.445 174.334 239.078 174.322 239.904H167.766C167.801 240.865 168.103 241.539 168.671 241.926C169.017 242.166 169.433 242.286 169.919 242.286C170.435 242.286 170.854 242.14 171.176 241.847C171.352 241.688 171.507 241.469 171.642 241.188H174.199C174.135 241.756 173.839 242.333 173.312 242.919C172.491 243.851 171.343 244.316 169.866 244.316C168.647 244.316 167.572 243.924 166.641 243.139C165.709 242.354 165.243 241.076 165.243 239.307C165.243 237.648 165.662 236.377 166.5 235.492C167.344 234.607 168.437 234.165 169.778 234.165ZM178.576 244H176.071V231.045H178.576V244ZM186.311 239.342C186.152 239.441 185.991 239.523 185.827 239.588C185.669 239.646 185.449 239.702 185.168 239.755L184.605 239.86C184.078 239.954 183.7 240.068 183.472 240.203C183.085 240.432 182.892 240.786 182.892 241.267C182.892 241.694 183.009 242.005 183.243 242.198C183.483 242.386 183.773 242.479 184.113 242.479C184.652 242.479 185.147 242.321 185.599 242.005C186.056 241.688 186.293 241.111 186.311 240.273V239.342ZM184.79 238.173C185.253 238.114 185.584 238.041 185.783 237.953C186.141 237.801 186.319 237.563 186.319 237.241C186.319 236.849 186.182 236.579 185.906 236.433C185.637 236.28 185.238 236.204 184.711 236.204C184.119 236.204 183.7 236.351 183.454 236.644C183.278 236.86 183.161 237.153 183.103 237.522H180.686C180.738 236.685 180.973 235.996 181.389 235.457C182.051 234.613 183.188 234.191 184.799 234.191C185.848 234.191 186.779 234.399 187.594 234.815C188.408 235.231 188.815 236.017 188.815 237.171V241.565C188.815 241.87 188.821 242.239 188.833 242.673C188.851 243.001 188.9 243.224 188.982 243.341C189.064 243.458 189.188 243.555 189.352 243.631V244H186.627C186.551 243.807 186.498 243.625 186.469 243.455C186.439 243.285 186.416 243.092 186.398 242.875C186.053 243.25 185.654 243.569 185.203 243.833C184.664 244.144 184.055 244.299 183.375 244.299C182.508 244.299 181.79 244.053 181.222 243.561C180.659 243.062 180.378 242.359 180.378 241.451C180.378 240.273 180.832 239.421 181.74 238.894C182.238 238.606 182.971 238.401 183.938 238.278L184.79 238.173ZM196.33 234.174C196.922 234.174 197.458 234.276 197.938 234.481C198.425 234.687 198.823 235 199.134 235.422C199.397 235.779 199.559 236.148 199.617 236.529C199.676 236.904 199.705 237.52 199.705 238.375V244H197.147V238.173C197.147 237.657 197.06 237.241 196.884 236.925C196.655 236.479 196.222 236.257 195.583 236.257C194.921 236.257 194.417 236.479 194.071 236.925C193.731 237.364 193.562 237.994 193.562 238.814V244H191.065V231.089H193.562V235.668C193.925 235.111 194.344 234.725 194.818 234.508C195.299 234.285 195.803 234.174 196.33 234.174ZM209.892 233.295V241.75H212.388C213.665 241.75 214.556 241.12 215.06 239.86C215.335 239.169 215.473 238.346 215.473 237.391C215.473 236.072 215.265 235.062 214.849 234.358C214.438 233.649 213.618 233.295 212.388 233.295H209.892ZM212.845 231.045C213.647 231.057 214.315 231.15 214.849 231.326C215.757 231.625 216.492 232.173 217.055 232.97C217.506 233.614 217.813 234.312 217.978 235.062C218.142 235.812 218.224 236.526 218.224 237.206C218.224 238.929 217.878 240.388 217.187 241.583C216.249 243.194 214.802 244 212.845 244H207.264V231.045H212.845ZM222.645 233.277H220.104V230.966H222.645V233.277ZM220.104 234.42H222.645V244H220.104V234.42ZM227.575 234.42V240.194C227.575 240.739 227.64 241.149 227.769 241.425C227.997 241.911 228.445 242.154 229.113 242.154C229.969 242.154 230.555 241.809 230.871 241.117C231.035 240.742 231.117 240.247 231.117 239.632V234.42H233.657V244H231.223V242.646C231.199 242.676 231.141 242.764 231.047 242.91C230.953 243.057 230.842 243.186 230.713 243.297C230.32 243.648 229.939 243.889 229.57 244.018C229.207 244.146 228.779 244.211 228.287 244.211C226.869 244.211 225.914 243.701 225.422 242.682C225.146 242.119 225.009 241.29 225.009 240.194V234.42H227.575ZM241.26 234.209C242.52 234.209 243.504 234.663 244.213 235.571C244.928 236.479 245.285 237.651 245.285 239.087C245.285 240.575 244.934 241.809 244.23 242.787C243.527 243.766 242.546 244.255 241.286 244.255C240.495 244.255 239.859 244.097 239.379 243.78C239.092 243.593 238.781 243.265 238.447 242.796V244H235.995V231.062H238.491V235.668C238.808 235.223 239.156 234.883 239.537 234.648C239.988 234.355 240.562 234.209 241.26 234.209ZM240.618 242.189C241.263 242.189 241.764 241.929 242.121 241.407C242.479 240.886 242.657 240.2 242.657 239.351C242.657 238.671 242.569 238.108 242.394 237.663C242.06 236.819 241.444 236.397 240.548 236.397C239.64 236.397 239.016 236.811 238.676 237.637C238.5 238.076 238.412 238.645 238.412 239.342C238.412 240.162 238.594 240.842 238.957 241.381C239.32 241.92 239.874 242.189 240.618 242.189ZM252.369 239.342C252.211 239.441 252.05 239.523 251.886 239.588C251.728 239.646 251.508 239.702 251.227 239.755L250.664 239.86C250.137 239.954 249.759 240.068 249.53 240.203C249.144 240.432 248.95 240.786 248.95 241.267C248.95 241.694 249.067 242.005 249.302 242.198C249.542 242.386 249.832 242.479 250.172 242.479C250.711 242.479 251.206 242.321 251.657 242.005C252.114 241.688 252.352 241.111 252.369 240.273V239.342ZM250.849 238.173C251.312 238.114 251.643 238.041 251.842 237.953C252.199 237.801 252.378 237.563 252.378 237.241C252.378 236.849 252.24 236.579 251.965 236.433C251.695 236.28 251.297 236.204 250.77 236.204C250.178 236.204 249.759 236.351 249.513 236.644C249.337 236.86 249.22 237.153 249.161 237.522H246.744C246.797 236.685 247.031 235.996 247.447 235.457C248.109 234.613 249.246 234.191 250.857 234.191C251.906 234.191 252.838 234.399 253.652 234.815C254.467 235.231 254.874 236.017 254.874 237.171V241.565C254.874 241.87 254.88 242.239 254.892 242.673C254.909 243.001 254.959 243.224 255.041 243.341C255.123 243.458 255.246 243.555 255.41 243.631V244H252.686C252.609 243.807 252.557 243.625 252.527 243.455C252.498 243.285 252.475 243.092 252.457 242.875C252.111 243.25 251.713 243.569 251.262 243.833C250.723 244.144 250.113 244.299 249.434 244.299C248.566 244.299 247.849 244.053 247.28 243.561C246.718 243.062 246.437 242.359 246.437 241.451C246.437 240.273 246.891 239.421 247.799 238.894C248.297 238.606 249.029 238.401 249.996 238.278L250.849 238.173ZM262.389 234.174C262.98 234.174 263.517 234.276 263.997 234.481C264.483 234.687 264.882 235 265.192 235.422C265.456 235.779 265.617 236.148 265.676 236.529C265.734 236.904 265.764 237.52 265.764 238.375V244H263.206V238.173C263.206 237.657 263.118 237.241 262.942 236.925C262.714 236.479 262.28 236.257 261.642 236.257C260.979 236.257 260.476 236.479 260.13 236.925C259.79 237.364 259.62 237.994 259.62 238.814V244H257.124V231.089H259.62V235.668C259.983 235.111 260.402 234.725 260.877 234.508C261.357 234.285 261.861 234.174 262.389 234.174Z" fill="black"/>
<path d="M4.89844 260.17C5.70703 260.17 6.40625 260.326 6.99609 260.639C7.85156 261.088 8.375 261.875 8.56641 263H7.41211C7.27148 262.371 6.98047 261.914 6.53906 261.629C6.09766 261.34 5.54102 261.195 4.86914 261.195C4.07227 261.195 3.40039 261.494 2.85352 262.092C2.31055 262.689 2.03906 263.58 2.03906 264.764C2.03906 265.787 2.26367 266.621 2.71289 267.266C3.16211 267.906 3.89453 268.227 4.91016 268.227C5.6875 268.227 6.33008 268.002 6.83789 267.553C7.34961 267.1 7.61133 266.369 7.62305 265.361H4.92773V264.395H8.70703V269H7.95703L7.67578 267.893C7.28125 268.326 6.93164 268.627 6.62695 268.795C6.11523 269.084 5.46484 269.229 4.67578 269.229C3.65625 269.229 2.7793 268.898 2.04492 268.238C1.24414 267.41 0.84375 266.273 0.84375 264.828C0.84375 263.387 1.23438 262.24 2.01562 261.389C2.75781 260.576 3.71875 260.17 4.89844 260.17ZM11.4316 262.725V266.891C11.4316 267.211 11.4824 267.473 11.584 267.676C11.7715 268.051 12.1211 268.238 12.6328 268.238C13.3672 268.238 13.8672 267.91 14.1328 267.254C14.2773 266.902 14.3496 266.42 14.3496 265.807V262.725H15.4043V269H14.4082L14.4199 268.074C14.2832 268.312 14.1133 268.514 13.9102 268.678C13.5078 269.006 13.0195 269.17 12.4453 269.17C11.5508 269.17 10.9414 268.871 10.6172 268.273C10.4414 267.953 10.3535 267.525 10.3535 266.99V262.725H11.4316ZM17.0566 262.725H18.0586V263.615C18.3555 263.248 18.6699 262.984 19.002 262.824C19.334 262.664 19.7031 262.584 20.1094 262.584C21 262.584 21.6016 262.895 21.9141 263.516C22.0859 263.855 22.1719 264.342 22.1719 264.975V269H21.0996V265.045C21.0996 264.662 21.043 264.354 20.9297 264.119C20.7422 263.729 20.4023 263.533 19.9102 263.533C19.6602 263.533 19.4551 263.559 19.2949 263.609C19.0059 263.695 18.752 263.867 18.5332 264.125C18.3574 264.332 18.2422 264.547 18.1875 264.77C18.1367 264.988 18.1113 265.303 18.1113 265.713V269H17.0566V262.725ZM24.5449 267.33C24.5449 267.635 24.6562 267.875 24.8789 268.051C25.1016 268.227 25.3652 268.314 25.6699 268.314C26.041 268.314 26.4004 268.229 26.748 268.057C27.334 267.771 27.627 267.305 27.627 266.656V265.807C27.498 265.889 27.332 265.957 27.1289 266.012C26.9258 266.066 26.7266 266.105 26.5312 266.129L25.8926 266.211C25.5098 266.262 25.2227 266.342 25.0312 266.451C24.707 266.635 24.5449 266.928 24.5449 267.33ZM27.0996 265.197C27.3418 265.166 27.5039 265.064 27.5859 264.893C27.6328 264.799 27.6562 264.664 27.6562 264.488C27.6562 264.129 27.5273 263.869 27.2695 263.709C27.0156 263.545 26.6504 263.463 26.1738 263.463C25.623 263.463 25.2324 263.611 25.002 263.908C24.873 264.072 24.7891 264.316 24.75 264.641H23.7656C23.7852 263.867 24.0352 263.33 24.5156 263.029C25 262.725 25.5605 262.572 26.1973 262.572C26.9355 262.572 27.5352 262.713 27.9961 262.994C28.4531 263.275 28.6816 263.713 28.6816 264.307V267.922C28.6816 268.031 28.7031 268.119 28.7461 268.186C28.793 268.252 28.8887 268.285 29.0332 268.285C29.0801 268.285 29.1328 268.283 29.1914 268.279C29.25 268.271 29.3125 268.262 29.3789 268.25V269.029C29.2148 269.076 29.0898 269.105 29.0039 269.117C28.918 269.129 28.8008 269.135 28.6523 269.135C28.2891 269.135 28.0254 269.006 27.8613 268.748C27.7754 268.611 27.7148 268.418 27.6797 268.168C27.4648 268.449 27.1562 268.693 26.7539 268.9C26.3516 269.107 25.9082 269.211 25.4238 269.211C24.8418 269.211 24.3652 269.035 23.9941 268.684C23.627 268.328 23.4434 267.885 23.4434 267.354C23.4434 266.771 23.625 266.32 23.9883 266C24.3516 265.68 24.8281 265.482 25.418 265.408L27.0996 265.197ZM30.3926 260.393H31.4062V265.391L34.1133 262.725H35.4609L33.0586 265.074L35.5957 269H34.248L32.291 265.836L31.4062 266.645V269H30.3926V260.393ZM37.2246 267.33C37.2246 267.635 37.3359 267.875 37.5586 268.051C37.7812 268.227 38.0449 268.314 38.3496 268.314C38.7207 268.314 39.0801 268.229 39.4277 268.057C40.0137 267.771 40.3066 267.305 40.3066 266.656V265.807C40.1777 265.889 40.0117 265.957 39.8086 266.012C39.6055 266.066 39.4062 266.105 39.2109 266.129L38.5723 266.211C38.1895 266.262 37.9023 266.342 37.7109 266.451C37.3867 266.635 37.2246 266.928 37.2246 267.33ZM39.7793 265.197C40.0215 265.166 40.1836 265.064 40.2656 264.893C40.3125 264.799 40.3359 264.664 40.3359 264.488C40.3359 264.129 40.207 263.869 39.9492 263.709C39.6953 263.545 39.3301 263.463 38.8535 263.463C38.3027 263.463 37.9121 263.611 37.6816 263.908C37.5527 264.072 37.4688 264.316 37.4297 264.641H36.4453C36.4648 263.867 36.7148 263.33 37.1953 263.029C37.6797 262.725 38.2402 262.572 38.877 262.572C39.6152 262.572 40.2148 262.713 40.6758 262.994C41.1328 263.275 41.3613 263.713 41.3613 264.307V267.922C41.3613 268.031 41.3828 268.119 41.4258 268.186C41.4727 268.252 41.5684 268.285 41.7129 268.285C41.7598 268.285 41.8125 268.283 41.8711 268.279C41.9297 268.271 41.9922 268.262 42.0586 268.25V269.029C41.8945 269.076 41.7695 269.105 41.6836 269.117C41.5977 269.129 41.4805 269.135 41.332 269.135C40.9688 269.135 40.7051 269.006 40.541 268.748C40.4551 268.611 40.3945 268.418 40.3594 268.168C40.1445 268.449 39.8359 268.693 39.4336 268.9C39.0312 269.107 38.5879 269.211 38.1035 269.211C37.5215 269.211 37.0449 269.035 36.6738 268.684C36.3066 268.328 36.123 267.885 36.123 267.354C36.123 266.771 36.3047 266.32 36.668 266C37.0312 265.68 37.5078 265.482 38.0977 265.408L39.7793 265.197ZM43.0957 262.725H44.0977V263.615C44.3945 263.248 44.709 262.984 45.041 262.824C45.373 262.664 45.7422 262.584 46.1484 262.584C47.0391 262.584 47.6406 262.895 47.9531 263.516C48.125 263.855 48.2109 264.342 48.2109 264.975V269H47.1387V265.045C47.1387 264.662 47.082 264.354 46.9688 264.119C46.7812 263.729 46.4414 263.533 45.9492 263.533C45.6992 263.533 45.4941 263.559 45.334 263.609C45.0449 263.695 44.791 263.867 44.5723 264.125C44.3965 264.332 44.2812 264.547 44.2266 264.77C44.1758 264.988 44.1504 265.303 44.1504 265.713V269H43.0957V262.725ZM53.2559 260.393H54.3926V264.588L58.5879 260.393H60.1992L56.6191 263.861L60.2988 269H58.7812L55.7695 264.682L54.3926 266V269H53.2559V260.393ZM61.9277 267.33C61.9277 267.635 62.0391 267.875 62.2617 268.051C62.4844 268.227 62.748 268.314 63.0527 268.314C63.4238 268.314 63.7832 268.229 64.1309 268.057C64.7168 267.771 65.0098 267.305 65.0098 266.656V265.807C64.8809 265.889 64.7148 265.957 64.5117 266.012C64.3086 266.066 64.1094 266.105 63.9141 266.129L63.2754 266.211C62.8926 266.262 62.6055 266.342 62.4141 266.451C62.0898 266.635 61.9277 266.928 61.9277 267.33ZM64.4824 265.197C64.7246 265.166 64.8867 265.064 64.9688 264.893C65.0156 264.799 65.0391 264.664 65.0391 264.488C65.0391 264.129 64.9102 263.869 64.6523 263.709C64.3984 263.545 64.0332 263.463 63.5566 263.463C63.0059 263.463 62.6152 263.611 62.3848 263.908C62.2559 264.072 62.1719 264.316 62.1328 264.641H61.1484C61.168 263.867 61.418 263.33 61.8984 263.029C62.3828 262.725 62.9434 262.572 63.5801 262.572C64.3184 262.572 64.918 262.713 65.3789 262.994C65.8359 263.275 66.0645 263.713 66.0645 264.307V267.922C66.0645 268.031 66.0859 268.119 66.1289 268.186C66.1758 268.252 66.2715 268.285 66.416 268.285C66.4629 268.285 66.5156 268.283 66.5742 268.279C66.6328 268.271 66.6953 268.262 66.7617 268.25V269.029C66.5977 269.076 66.4727 269.105 66.3867 269.117C66.3008 269.129 66.1836 269.135 66.0352 269.135C65.6719 269.135 65.4082 269.006 65.2441 268.748C65.1582 268.611 65.0977 268.418 65.0625 268.168C64.8477 268.449 64.5391 268.693 64.1367 268.9C63.7344 269.107 63.291 269.211 62.8066 269.211C62.2246 269.211 61.748 269.035 61.377 268.684C61.0098 268.328 60.8262 267.885 60.8262 267.354C60.8262 266.771 61.0078 266.32 61.3711 266C61.7344 265.68 62.2109 265.482 62.8008 265.408L64.4824 265.197ZM68.0098 260.973H69.0762V262.725H70.0781V263.586H69.0762V267.682C69.0762 267.9 69.1504 268.047 69.2988 268.121C69.3809 268.164 69.5176 268.186 69.709 268.186C69.7598 268.186 69.8145 268.186 69.873 268.186C69.9316 268.182 70 268.176 70.0781 268.168V269C69.957 269.035 69.8301 269.061 69.6973 269.076C69.5684 269.092 69.4277 269.1 69.2754 269.1C68.7832 269.1 68.4492 268.975 68.2734 268.725C68.0977 268.471 68.0098 268.143 68.0098 267.74V263.586H67.1602V262.725H68.0098V260.973ZM71.9473 267.33C71.9473 267.635 72.0586 267.875 72.2812 268.051C72.5039 268.227 72.7676 268.314 73.0723 268.314C73.4434 268.314 73.8027 268.229 74.1504 268.057C74.7363 267.771 75.0293 267.305 75.0293 266.656V265.807C74.9004 265.889 74.7344 265.957 74.5312 266.012C74.3281 266.066 74.1289 266.105 73.9336 266.129L73.2949 266.211C72.9121 266.262 72.625 266.342 72.4336 266.451C72.1094 266.635 71.9473 266.928 71.9473 267.33ZM74.502 265.197C74.7441 265.166 74.9062 265.064 74.9883 264.893C75.0352 264.799 75.0586 264.664 75.0586 264.488C75.0586 264.129 74.9297 263.869 74.6719 263.709C74.418 263.545 74.0527 263.463 73.5762 263.463C73.0254 263.463 72.6348 263.611 72.4043 263.908C72.2754 264.072 72.1914 264.316 72.1523 264.641H71.168C71.1875 263.867 71.4375 263.33 71.918 263.029C72.4023 262.725 72.9629 262.572 73.5996 262.572C74.3379 262.572 74.9375 262.713 75.3984 262.994C75.8555 263.275 76.084 263.713 76.084 264.307V267.922C76.084 268.031 76.1055 268.119 76.1484 268.186C76.1953 268.252 76.291 268.285 76.4355 268.285C76.4824 268.285 76.5352 268.283 76.5938 268.279C76.6523 268.271 76.7148 268.262 76.7812 268.25V269.029C76.6172 269.076 76.4922 269.105 76.4062 269.117C76.3203 269.129 76.2031 269.135 76.0547 269.135C75.6914 269.135 75.4277 269.006 75.2637 268.748C75.1777 268.611 75.1172 268.418 75.082 268.168C74.8672 268.449 74.5586 268.693 74.1562 268.9C73.7539 269.107 73.3105 269.211 72.8262 269.211C72.2441 269.211 71.7676 269.035 71.3965 268.684C71.0293 268.328 70.8457 267.885 70.8457 267.354C70.8457 266.771 71.0273 266.32 71.3906 266C71.7539 265.68 72.2305 265.482 72.8203 265.408L74.502 265.197ZM82.0605 266.223C82.0879 266.711 82.2031 267.107 82.4062 267.412C82.793 267.982 83.4746 268.268 84.4512 268.268C84.8887 268.268 85.2871 268.205 85.6465 268.08C86.3418 267.838 86.6895 267.404 86.6895 266.779C86.6895 266.311 86.543 265.977 86.25 265.777C85.9531 265.582 85.4883 265.412 84.8555 265.268L83.6895 265.004C82.9277 264.832 82.3887 264.643 82.0723 264.436C81.5254 264.076 81.252 263.539 81.252 262.824C81.252 262.051 81.5195 261.416 82.0547 260.92C82.5898 260.424 83.3477 260.176 84.3281 260.176C85.2305 260.176 85.9961 260.395 86.625 260.832C87.2578 261.266 87.5742 261.961 87.5742 262.918H86.4785C86.4199 262.457 86.2949 262.104 86.1035 261.857C85.748 261.408 85.1445 261.184 84.293 261.184C83.6055 261.184 83.1113 261.328 82.8105 261.617C82.5098 261.906 82.3594 262.242 82.3594 262.625C82.3594 263.047 82.5352 263.355 82.8867 263.551C83.1172 263.676 83.6387 263.832 84.4512 264.02L85.6582 264.295C86.2402 264.428 86.6895 264.609 87.0059 264.84C87.5527 265.242 87.8262 265.826 87.8262 266.592C87.8262 267.545 87.4785 268.227 86.7832 268.637C86.0918 269.047 85.2871 269.252 84.3691 269.252C83.2988 269.252 82.4609 268.979 81.8555 268.432C81.25 267.889 80.9531 267.152 80.9648 266.223H82.0605ZM89.9707 267.33C89.9707 267.635 90.082 267.875 90.3047 268.051C90.5273 268.227 90.791 268.314 91.0957 268.314C91.4668 268.314 91.8262 268.229 92.1738 268.057C92.7598 267.771 93.0527 267.305 93.0527 266.656V265.807C92.9238 265.889 92.7578 265.957 92.5547 266.012C92.3516 266.066 92.1523 266.105 91.957 266.129L91.3184 266.211C90.9355 266.262 90.6484 266.342 90.457 266.451C90.1328 266.635 89.9707 266.928 89.9707 267.33ZM92.5254 265.197C92.7676 265.166 92.9297 265.064 93.0117 264.893C93.0586 264.799 93.082 264.664 93.082 264.488C93.082 264.129 92.9531 263.869 92.6953 263.709C92.4414 263.545 92.0762 263.463 91.5996 263.463C91.0488 263.463 90.6582 263.611 90.4277 263.908C90.2988 264.072 90.2148 264.316 90.1758 264.641H89.1914C89.2109 263.867 89.4609 263.33 89.9414 263.029C90.4258 262.725 90.9863 262.572 91.623 262.572C92.3613 262.572 92.9609 262.713 93.4219 262.994C93.8789 263.275 94.1074 263.713 94.1074 264.307V267.922C94.1074 268.031 94.1289 268.119 94.1719 268.186C94.2188 268.252 94.3145 268.285 94.459 268.285C94.5059 268.285 94.5586 268.283 94.6172 268.279C94.6758 268.271 94.7383 268.262 94.8047 268.25V269.029C94.6406 269.076 94.5156 269.105 94.4297 269.117C94.3438 269.129 94.2266 269.135 94.0781 269.135C93.7148 269.135 93.4512 269.006 93.2871 268.748C93.2012 268.611 93.1406 268.418 93.1055 268.168C92.8906 268.449 92.582 268.693 92.1797 268.9C91.7773 269.107 91.334 269.211 90.8496 269.211C90.2676 269.211 89.791 269.035 89.4199 268.684C89.0527 268.328 88.8691 267.885 88.8691 267.354C88.8691 266.771 89.0508 266.32 89.4141 266C89.7773 265.68 90.2539 265.482 90.8438 265.408L92.5254 265.197ZM95.8418 262.725H96.8438V263.615C97.1406 263.248 97.4551 262.984 97.7871 262.824C98.1191 262.664 98.4883 262.584 98.8945 262.584C99.7852 262.584 100.387 262.895 100.699 263.516C100.871 263.855 100.957 264.342 100.957 264.975V269H99.8848V265.045C99.8848 264.662 99.8281 264.354 99.7148 264.119C99.5273 263.729 99.1875 263.533 98.6953 263.533C98.4453 263.533 98.2402 263.559 98.0801 263.609C97.791 263.695 97.5371 263.867 97.3184 264.125C97.1426 264.332 97.0273 264.547 96.9727 264.77C96.9219 264.988 96.8965 265.303 96.8965 265.713V269H95.8418V262.725ZM103.189 265.936C103.189 266.607 103.332 267.17 103.617 267.623C103.902 268.076 104.359 268.303 104.988 268.303C105.477 268.303 105.877 268.094 106.189 267.676C106.506 267.254 106.664 266.65 106.664 265.865C106.664 265.072 106.502 264.486 106.178 264.107C105.854 263.725 105.453 263.533 104.977 263.533C104.445 263.533 104.014 263.736 103.682 264.143C103.354 264.549 103.189 265.146 103.189 265.936ZM104.777 262.613C105.258 262.613 105.66 262.715 105.984 262.918C106.172 263.035 106.385 263.24 106.623 263.533V260.363H107.637V269H106.688V268.127C106.441 268.514 106.15 268.793 105.814 268.965C105.479 269.137 105.094 269.223 104.66 269.223C103.961 269.223 103.355 268.93 102.844 268.344C102.332 267.754 102.076 266.971 102.076 265.994C102.076 265.08 102.309 264.289 102.773 263.621C103.242 262.949 103.91 262.613 104.777 262.613ZM109.201 262.754H110.273V269H109.201V262.754ZM109.201 260.393H110.273V261.588H109.201V260.393ZM119.133 262.725H120.299C120.15 263.127 119.82 264.045 119.309 265.479C118.926 266.557 118.605 267.436 118.348 268.115C117.738 269.717 117.309 270.693 117.059 271.045C116.809 271.396 116.379 271.572 115.77 271.572C115.621 271.572 115.506 271.566 115.424 271.555C115.346 271.543 115.248 271.521 115.131 271.49V270.529C115.314 270.58 115.447 270.611 115.529 270.623C115.611 270.635 115.684 270.641 115.746 270.641C115.941 270.641 116.084 270.607 116.174 270.541C116.268 270.479 116.346 270.4 116.408 270.307C116.428 270.275 116.498 270.115 116.619 269.826C116.74 269.537 116.828 269.322 116.883 269.182L114.562 262.725H115.758L117.439 267.834L119.133 262.725ZM122.021 267.33C122.021 267.635 122.133 267.875 122.355 268.051C122.578 268.227 122.842 268.314 123.146 268.314C123.518 268.314 123.877 268.229 124.225 268.057C124.811 267.771 125.104 267.305 125.104 266.656V265.807C124.975 265.889 124.809 265.957 124.605 266.012C124.402 266.066 124.203 266.105 124.008 266.129L123.369 266.211C122.986 266.262 122.699 266.342 122.508 266.451C122.184 266.635 122.021 266.928 122.021 267.33ZM124.576 265.197C124.818 265.166 124.98 265.064 125.062 264.893C125.109 264.799 125.133 264.664 125.133 264.488C125.133 264.129 125.004 263.869 124.746 263.709C124.492 263.545 124.127 263.463 123.65 263.463C123.1 263.463 122.709 263.611 122.479 263.908C122.35 264.072 122.266 264.316 122.227 264.641H121.242C121.262 263.867 121.512 263.33 121.992 263.029C122.477 262.725 123.037 262.572 123.674 262.572C124.412 262.572 125.012 262.713 125.473 262.994C125.93 263.275 126.158 263.713 126.158 264.307V267.922C126.158 268.031 126.18 268.119 126.223 268.186C126.27 268.252 126.365 268.285 126.51 268.285C126.557 268.285 126.609 268.283 126.668 268.279C126.727 268.271 126.789 268.262 126.855 268.25V269.029C126.691 269.076 126.566 269.105 126.48 269.117C126.395 269.129 126.277 269.135 126.129 269.135C125.766 269.135 125.502 269.006 125.338 268.748C125.252 268.611 125.191 268.418 125.156 268.168C124.941 268.449 124.633 268.693 124.23 268.9C123.828 269.107 123.385 269.211 122.9 269.211C122.318 269.211 121.842 269.035 121.471 268.684C121.104 268.328 120.92 267.885 120.92 267.354C120.92 266.771 121.102 266.32 121.465 266C121.828 265.68 122.305 265.482 122.895 265.408L124.576 265.197ZM127.893 262.725H128.895V263.615C129.191 263.248 129.506 262.984 129.838 262.824C130.17 262.664 130.539 262.584 130.945 262.584C131.836 262.584 132.438 262.895 132.75 263.516C132.922 263.855 133.008 264.342 133.008 264.975V269H131.936V265.045C131.936 264.662 131.879 264.354 131.766 264.119C131.578 263.729 131.238 263.533 130.746 263.533C130.496 263.533 130.291 263.559 130.131 263.609C129.842 263.695 129.588 263.867 129.369 264.125C129.193 264.332 129.078 264.547 129.023 264.77C128.973 264.988 128.947 265.303 128.947 265.713V269H127.893V262.725ZM136.787 262.613C137.279 262.613 137.709 262.734 138.076 262.977C138.275 263.113 138.479 263.312 138.686 263.574V262.783H139.658V268.49C139.658 269.287 139.541 269.916 139.307 270.377C138.869 271.229 138.043 271.654 136.828 271.654C136.152 271.654 135.584 271.502 135.123 271.197C134.662 270.896 134.404 270.424 134.35 269.779H135.422C135.473 270.061 135.574 270.277 135.727 270.43C135.965 270.664 136.34 270.781 136.852 270.781C137.66 270.781 138.189 270.496 138.439 269.926C138.588 269.59 138.656 268.99 138.645 268.127C138.434 268.447 138.18 268.686 137.883 268.842C137.586 268.998 137.193 269.076 136.705 269.076C136.025 269.076 135.43 268.836 134.918 268.355C134.41 267.871 134.156 267.072 134.156 265.959C134.156 264.908 134.412 264.088 134.924 263.498C135.439 262.908 136.061 262.613 136.787 262.613ZM138.686 265.836C138.686 265.059 138.525 264.482 138.205 264.107C137.885 263.732 137.477 263.545 136.98 263.545C136.238 263.545 135.73 263.893 135.457 264.588C135.312 264.959 135.24 265.445 135.24 266.047C135.24 266.754 135.383 267.293 135.668 267.664C135.957 268.031 136.344 268.215 136.828 268.215C137.586 268.215 138.119 267.873 138.428 267.189C138.6 266.803 138.686 266.352 138.686 265.836ZM144.51 260.363H145.535V263.486C145.766 263.186 146.041 262.957 146.361 262.801C146.682 262.641 147.029 262.561 147.404 262.561C148.186 262.561 148.818 262.83 149.303 263.369C149.791 263.904 150.035 264.695 150.035 265.742C150.035 266.734 149.795 267.559 149.314 268.215C148.834 268.871 148.168 269.199 147.316 269.199C146.84 269.199 146.438 269.084 146.109 268.854C145.914 268.717 145.705 268.498 145.482 268.197V269H144.51V260.363ZM147.252 268.268C147.822 268.268 148.248 268.041 148.529 267.588C148.814 267.135 148.957 266.537 148.957 265.795C148.957 265.135 148.814 264.588 148.529 264.154C148.248 263.721 147.832 263.504 147.281 263.504C146.801 263.504 146.379 263.682 146.016 264.037C145.656 264.393 145.477 264.979 145.477 265.795C145.477 266.385 145.551 266.863 145.699 267.23C145.977 267.922 146.494 268.268 147.252 268.268ZM152.08 267.33C152.08 267.635 152.191 267.875 152.414 268.051C152.637 268.227 152.9 268.314 153.205 268.314C153.576 268.314 153.936 268.229 154.283 268.057C154.869 267.771 155.162 267.305 155.162 266.656V265.807C155.033 265.889 154.867 265.957 154.664 266.012C154.461 266.066 154.262 266.105 154.066 266.129L153.428 266.211C153.045 266.262 152.758 266.342 152.566 266.451C152.242 266.635 152.08 266.928 152.08 267.33ZM154.635 265.197C154.877 265.166 155.039 265.064 155.121 264.893C155.168 264.799 155.191 264.664 155.191 264.488C155.191 264.129 155.062 263.869 154.805 263.709C154.551 263.545 154.186 263.463 153.709 263.463C153.158 263.463 152.768 263.611 152.537 263.908C152.408 264.072 152.324 264.316 152.285 264.641H151.301C151.32 263.867 151.57 263.33 152.051 263.029C152.535 262.725 153.096 262.572 153.732 262.572C154.471 262.572 155.07 262.713 155.531 262.994C155.988 263.275 156.217 263.713 156.217 264.307V267.922C156.217 268.031 156.238 268.119 156.281 268.186C156.328 268.252 156.424 268.285 156.568 268.285C156.615 268.285 156.668 268.283 156.727 268.279C156.785 268.271 156.848 268.262 156.914 268.25V269.029C156.75 269.076 156.625 269.105 156.539 269.117C156.453 269.129 156.336 269.135 156.188 269.135C155.824 269.135 155.561 269.006 155.396 268.748C155.311 268.611 155.25 268.418 155.215 268.168C155 268.449 154.691 268.693 154.289 268.9C153.887 269.107 153.443 269.211 152.959 269.211C152.377 269.211 151.9 269.035 151.529 268.684C151.162 268.328 150.979 267.885 150.979 267.354C150.979 266.771 151.16 266.32 151.523 266C151.887 265.68 152.363 265.482 152.953 265.408L154.635 265.197ZM157.98 262.725H158.982V263.809C159.064 263.598 159.266 263.342 159.586 263.041C159.906 262.736 160.275 262.584 160.693 262.584C160.713 262.584 160.746 262.586 160.793 262.59C160.84 262.594 160.92 262.602 161.033 262.613V263.727C160.971 263.715 160.912 263.707 160.857 263.703C160.807 263.699 160.75 263.697 160.688 263.697C160.156 263.697 159.748 263.869 159.463 264.213C159.178 264.553 159.035 264.945 159.035 265.391V269H157.98V262.725ZM163.002 262.725V266.891C163.002 267.211 163.053 267.473 163.154 267.676C163.342 268.051 163.691 268.238 164.203 268.238C164.938 268.238 165.438 267.91 165.703 267.254C165.848 266.902 165.92 266.42 165.92 265.807V262.725H166.975V269H165.979L165.99 268.074C165.854 268.312 165.684 268.514 165.48 268.678C165.078 269.006 164.59 269.17 164.016 269.17C163.121 269.17 162.512 268.871 162.188 268.273C162.012 267.953 161.924 267.525 161.924 266.99V262.725H163.002ZM173.021 262.725V266.891C173.021 267.211 173.072 267.473 173.174 267.676C173.361 268.051 173.711 268.238 174.223 268.238C174.957 268.238 175.457 267.91 175.723 267.254C175.867 266.902 175.939 266.42 175.939 265.807V262.725H176.994V269H175.998L176.01 268.074C175.873 268.312 175.703 268.514 175.5 268.678C175.098 269.006 174.609 269.17 174.035 269.17C173.141 269.17 172.531 268.871 172.207 268.273C172.031 267.953 171.943 267.525 171.943 266.99V262.725H173.021ZM178.646 262.725H179.648V263.615C179.945 263.248 180.26 262.984 180.592 262.824C180.924 262.664 181.293 262.584 181.699 262.584C182.59 262.584 183.191 262.895 183.504 263.516C183.676 263.855 183.762 264.342 183.762 264.975V269H182.689V265.045C182.689 264.662 182.633 264.354 182.52 264.119C182.332 263.729 181.992 263.533 181.5 263.533C181.25 263.533 181.045 263.559 180.885 263.609C180.596 263.695 180.342 263.867 180.123 264.125C179.947 264.332 179.832 264.547 179.777 264.77C179.727 264.988 179.701 265.303 179.701 265.713V269H178.646V262.725ZM185.537 260.973H186.604V262.725H187.605V263.586H186.604V267.682C186.604 267.9 186.678 268.047 186.826 268.121C186.908 268.164 187.045 268.186 187.236 268.186C187.287 268.186 187.342 268.186 187.4 268.186C187.459 268.182 187.527 268.176 187.605 268.168V269C187.484 269.035 187.357 269.061 187.225 269.076C187.096 269.092 186.955 269.1 186.803 269.1C186.311 269.1 185.977 268.975 185.801 268.725C185.625 268.471 185.537 268.143 185.537 267.74V263.586H184.688V262.725H185.537V260.973ZM189.721 262.725V266.891C189.721 267.211 189.771 267.473 189.873 267.676C190.061 268.051 190.41 268.238 190.922 268.238C191.656 268.238 192.156 267.91 192.422 267.254C192.566 266.902 192.639 266.42 192.639 265.807V262.725H193.693V269H192.697L192.709 268.074C192.572 268.312 192.402 268.514 192.199 268.678C191.797 269.006 191.309 269.17 190.734 269.17C189.84 269.17 189.23 268.871 188.906 268.273C188.73 267.953 188.643 267.525 188.643 266.99V262.725H189.721ZM195.322 260.393H196.336V265.391L199.043 262.725H200.391L197.988 265.074L200.525 269H199.178L197.221 265.836L196.336 266.645V269H195.322V260.393ZM204.797 260.393H206.467L208.939 267.67L211.395 260.393H213.047V269H211.939V263.92C211.939 263.744 211.943 263.453 211.951 263.047C211.959 262.641 211.963 262.205 211.963 261.74L209.508 269H208.354L205.881 261.74V262.004C205.881 262.215 205.885 262.537 205.893 262.971C205.904 263.4 205.91 263.717 205.91 263.92V269H204.797V260.393ZM215.49 267.33C215.49 267.635 215.602 267.875 215.824 268.051C216.047 268.227 216.311 268.314 216.615 268.314C216.986 268.314 217.346 268.229 217.693 268.057C218.279 267.771 218.572 267.305 218.572 266.656V265.807C218.443 265.889 218.277 265.957 218.074 266.012C217.871 266.066 217.672 266.105 217.477 266.129L216.838 266.211C216.455 266.262 216.168 266.342 215.977 266.451C215.652 266.635 215.49 266.928 215.49 267.33ZM218.045 265.197C218.287 265.166 218.449 265.064 218.531 264.893C218.578 264.799 218.602 264.664 218.602 264.488C218.602 264.129 218.473 263.869 218.215 263.709C217.961 263.545 217.596 263.463 217.119 263.463C216.568 263.463 216.178 263.611 215.947 263.908C215.818 264.072 215.734 264.316 215.695 264.641H214.711C214.73 263.867 214.98 263.33 215.461 263.029C215.945 262.725 216.506 262.572 217.143 262.572C217.881 262.572 218.48 262.713 218.941 262.994C219.398 263.275 219.627 263.713 219.627 264.307V267.922C219.627 268.031 219.648 268.119 219.691 268.186C219.738 268.252 219.834 268.285 219.979 268.285C220.025 268.285 220.078 268.283 220.137 268.279C220.195 268.271 220.258 268.262 220.324 268.25V269.029C220.16 269.076 220.035 269.105 219.949 269.117C219.863 269.129 219.746 269.135 219.598 269.135C219.234 269.135 218.971 269.006 218.807 268.748C218.721 268.611 218.66 268.418 218.625 268.168C218.41 268.449 218.102 268.693 217.699 268.9C217.297 269.107 216.854 269.211 216.369 269.211C215.787 269.211 215.311 269.035 214.939 268.684C214.572 268.328 214.389 267.885 214.389 267.354C214.389 266.771 214.57 266.32 214.934 266C215.297 265.68 215.773 265.482 216.363 265.408L218.045 265.197ZM221.988 267.031C222.02 267.383 222.107 267.652 222.252 267.84C222.518 268.18 222.979 268.35 223.635 268.35C224.025 268.35 224.369 268.266 224.666 268.098C224.963 267.926 225.111 267.662 225.111 267.307C225.111 267.037 224.992 266.832 224.754 266.691C224.602 266.605 224.301 266.506 223.852 266.393L223.014 266.182C222.479 266.049 222.084 265.9 221.83 265.736C221.377 265.451 221.15 265.057 221.15 264.553C221.15 263.959 221.363 263.479 221.789 263.111C222.219 262.744 222.795 262.561 223.518 262.561C224.463 262.561 225.145 262.838 225.562 263.393C225.824 263.744 225.951 264.123 225.943 264.529H224.947C224.928 264.291 224.844 264.074 224.695 263.879C224.453 263.602 224.033 263.463 223.436 263.463C223.037 263.463 222.734 263.539 222.527 263.691C222.324 263.844 222.223 264.045 222.223 264.295C222.223 264.568 222.357 264.787 222.627 264.951C222.783 265.049 223.014 265.135 223.318 265.209L224.016 265.379C224.773 265.562 225.281 265.74 225.539 265.912C225.949 266.182 226.154 266.605 226.154 267.184C226.154 267.742 225.941 268.225 225.516 268.631C225.094 269.037 224.449 269.24 223.582 269.24C222.648 269.24 221.986 269.029 221.596 268.607C221.209 268.182 221.002 267.656 220.975 267.031H221.988ZM228.416 262.725V266.891C228.416 267.211 228.467 267.473 228.568 267.676C228.756 268.051 229.105 268.238 229.617 268.238C230.352 268.238 230.852 267.91 231.117 267.254C231.262 266.902 231.334 266.42 231.334 265.807V262.725H232.389V269H231.393L231.404 268.074C231.268 268.312 231.098 268.514 230.895 268.678C230.492 269.006 230.004 269.17 229.43 269.17C228.535 269.17 227.926 268.871 227.602 268.273C227.426 267.953 227.338 267.525 227.338 266.99V262.725H228.416ZM234.018 260.393H235.031V265.391L237.738 262.725H239.086L236.684 265.074L239.221 269H237.873L235.916 265.836L235.031 266.645V269H234.018V260.393ZM243.357 260.393H244.371V265.391L247.078 262.725H248.426L246.023 265.074L248.561 269H247.213L245.256 265.836L244.371 266.645V269H243.357V260.393ZM251.994 262.584C252.439 262.584 252.871 262.689 253.289 262.9C253.707 263.107 254.025 263.377 254.244 263.709C254.455 264.025 254.596 264.395 254.666 264.816C254.729 265.105 254.76 265.566 254.76 266.199H250.16C250.18 266.836 250.33 267.348 250.611 267.734C250.893 268.117 251.328 268.309 251.918 268.309C252.469 268.309 252.908 268.127 253.236 267.764C253.424 267.553 253.557 267.309 253.635 267.031H254.672C254.645 267.262 254.553 267.52 254.396 267.805C254.244 268.086 254.072 268.316 253.881 268.496C253.561 268.809 253.164 269.02 252.691 269.129C252.438 269.191 252.15 269.223 251.83 269.223C251.049 269.223 250.387 268.939 249.844 268.373C249.301 267.803 249.029 267.006 249.029 265.982C249.029 264.975 249.303 264.156 249.85 263.527C250.396 262.898 251.111 262.584 251.994 262.584ZM253.676 265.361C253.633 264.904 253.533 264.539 253.377 264.266C253.088 263.758 252.605 263.504 251.93 263.504C251.445 263.504 251.039 263.68 250.711 264.031C250.383 264.379 250.209 264.822 250.189 265.361H253.676ZM263.543 264.336C264.09 264.336 264.521 264.227 264.838 264.008C265.158 263.789 265.318 263.395 265.318 262.824C265.318 262.211 265.096 261.793 264.65 261.57C264.412 261.453 264.094 261.395 263.695 261.395H260.848V264.336H263.543ZM259.682 260.393H263.666C264.322 260.393 264.863 260.488 265.289 260.68C266.098 261.047 266.502 261.725 266.502 262.713C266.502 263.229 266.395 263.65 266.18 263.979C265.969 264.307 265.672 264.57 265.289 264.77C265.625 264.906 265.877 265.086 266.045 265.309C266.217 265.531 266.312 265.893 266.332 266.393L266.373 267.547C266.385 267.875 266.412 268.119 266.455 268.279C266.525 268.553 266.65 268.729 266.83 268.807V269H265.4C265.361 268.926 265.33 268.83 265.307 268.713C265.283 268.596 265.264 268.369 265.248 268.033L265.178 266.598C265.15 266.035 264.941 265.658 264.551 265.467C264.328 265.361 263.979 265.309 263.502 265.309H260.848V269H259.682V260.393ZM268.881 267.33C268.881 267.635 268.992 267.875 269.215 268.051C269.438 268.227 269.701 268.314 270.006 268.314C270.377 268.314 270.736 268.229 271.084 268.057C271.67 267.771 271.963 267.305 271.963 266.656V265.807C271.834 265.889 271.668 265.957 271.465 266.012C271.262 266.066 271.062 266.105 270.867 266.129L270.229 266.211C269.846 266.262 269.559 266.342 269.367 266.451C269.043 266.635 268.881 266.928 268.881 267.33ZM271.436 265.197C271.678 265.166 271.84 265.064 271.922 264.893C271.969 264.799 271.992 264.664 271.992 264.488C271.992 264.129 271.863 263.869 271.605 263.709C271.352 263.545 270.986 263.463 270.51 263.463C269.959 263.463 269.568 263.611 269.338 263.908C269.209 264.072 269.125 264.316 269.086 264.641H268.102C268.121 263.867 268.371 263.33 268.852 263.029C269.336 262.725 269.896 262.572 270.533 262.572C271.271 262.572 271.871 262.713 272.332 262.994C272.789 263.275 273.018 263.713 273.018 264.307V267.922C273.018 268.031 273.039 268.119 273.082 268.186C273.129 268.252 273.225 268.285 273.369 268.285C273.416 268.285 273.469 268.283 273.527 268.279C273.586 268.271 273.648 268.262 273.715 268.25V269.029C273.551 269.076 273.426 269.105 273.34 269.117C273.254 269.129 273.137 269.135 272.988 269.135C272.625 269.135 272.361 269.006 272.197 268.748C272.111 268.611 272.051 268.418 272.016 268.168C271.801 268.449 271.492 268.693 271.09 268.9C270.688 269.107 270.244 269.211 269.76 269.211C269.178 269.211 268.701 269.035 268.33 268.684C267.963 268.328 267.779 267.885 267.779 267.354C267.779 266.771 267.961 266.32 268.324 266C268.688 265.68 269.164 265.482 269.754 265.408L271.436 265.197ZM274.752 262.754H275.824V269H274.752V262.754ZM274.752 260.393H275.824V261.588H274.752V260.393ZM277.424 260.363H278.479V263.574C278.729 263.258 278.953 263.035 279.152 262.906C279.492 262.684 279.916 262.572 280.424 262.572C281.334 262.572 281.951 262.891 282.275 263.527C282.451 263.875 282.539 264.357 282.539 264.975V269H281.455V265.045C281.455 264.584 281.396 264.246 281.279 264.031C281.088 263.688 280.729 263.516 280.201 263.516C279.764 263.516 279.367 263.666 279.012 263.967C278.656 264.268 278.479 264.836 278.479 265.672V269H277.424V260.363ZM287.695 260.393H291.568C292.334 260.393 292.951 260.609 293.42 261.043C293.889 261.473 294.123 262.078 294.123 262.859C294.123 263.531 293.914 264.117 293.496 264.617C293.078 265.113 292.436 265.361 291.568 265.361H288.861V269H287.695V260.393ZM292.945 262.865C292.945 262.232 292.711 261.803 292.242 261.576C291.984 261.455 291.631 261.395 291.182 261.395H288.861V264.377H291.182C291.705 264.377 292.129 264.266 292.453 264.043C292.781 263.82 292.945 263.428 292.945 262.865ZM298.061 262.584C298.506 262.584 298.938 262.689 299.355 262.9C299.773 263.107 300.092 263.377 300.311 263.709C300.521 264.025 300.662 264.395 300.732 264.816C300.795 265.105 300.826 265.566 300.826 266.199H296.227C296.246 266.836 296.396 267.348 296.678 267.734C296.959 268.117 297.395 268.309 297.984 268.309C298.535 268.309 298.975 268.127 299.303 267.764C299.49 267.553 299.623 267.309 299.701 267.031H300.738C300.711 267.262 300.619 267.52 300.463 267.805C300.311 268.086 300.139 268.316 299.947 268.496C299.627 268.809 299.23 269.02 298.758 269.129C298.504 269.191 298.217 269.223 297.896 269.223C297.115 269.223 296.453 268.939 295.91 268.373C295.367 267.803 295.096 267.006 295.096 265.982C295.096 264.975 295.369 264.156 295.916 263.527C296.463 262.898 297.178 262.584 298.061 262.584ZM299.742 265.361C299.699 264.904 299.6 264.539 299.443 264.266C299.154 263.758 298.672 263.504 297.996 263.504C297.512 263.504 297.105 263.68 296.777 264.031C296.449 264.379 296.275 264.822 296.256 265.361H299.742ZM302.795 265.936C302.795 266.607 302.938 267.17 303.223 267.623C303.508 268.076 303.965 268.303 304.594 268.303C305.082 268.303 305.482 268.094 305.795 267.676C306.111 267.254 306.27 266.65 306.27 265.865C306.27 265.072 306.107 264.486 305.783 264.107C305.459 263.725 305.059 263.533 304.582 263.533C304.051 263.533 303.619 263.736 303.287 264.143C302.959 264.549 302.795 265.146 302.795 265.936ZM304.383 262.613C304.863 262.613 305.266 262.715 305.59 262.918C305.777 263.035 305.99 263.24 306.229 263.533V260.363H307.242V269H306.293V268.127C306.047 268.514 305.756 268.793 305.42 268.965C305.084 269.137 304.699 269.223 304.266 269.223C303.566 269.223 302.961 268.93 302.449 268.344C301.938 267.754 301.682 266.971 301.682 265.994C301.682 265.08 301.914 264.289 302.379 263.621C302.848 262.949 303.516 262.613 304.383 262.613ZM309.861 262.725V266.891C309.861 267.211 309.912 267.473 310.014 267.676C310.201 268.051 310.551 268.238 311.062 268.238C311.797 268.238 312.297 267.91 312.562 267.254C312.707 266.902 312.779 266.42 312.779 265.807V262.725H313.834V269H312.838L312.85 268.074C312.713 268.312 312.543 268.514 312.34 268.678C311.938 269.006 311.449 269.17 310.875 269.17C309.98 269.17 309.371 268.871 309.047 268.273C308.871 267.953 308.783 267.525 308.783 266.99V262.725H309.861ZM315.516 260.393H316.57V269H315.516V260.393ZM318.158 262.754H319.23V269H318.158V262.754ZM318.158 260.393H319.23V261.588H318.158V260.393ZM321.082 267.723H322.307V269H321.082V267.723ZM50.7891 280.434C50.7891 281.16 50.6816 281.725 50.4668 282.127C50.0684 282.861 49.3105 283.229 48.1934 283.229C47.5488 283.229 46.998 283.055 46.541 282.707C46.084 282.355 45.8555 281.732 45.8555 280.838V280.223H46.9512V280.838C46.9512 281.307 47.0547 281.66 47.2617 281.898C47.4727 282.133 47.7988 282.25 48.2402 282.25C48.8613 282.25 49.2676 282.037 49.459 281.611C49.5762 281.35 49.6348 280.855 49.6348 280.129V274.393H50.7891V280.434ZM53.2324 281.33C53.2324 281.635 53.3438 281.875 53.5664 282.051C53.7891 282.227 54.0527 282.314 54.3574 282.314C54.7285 282.314 55.0879 282.229 55.4355 282.057C56.0215 281.771 56.3145 281.305 56.3145 280.656V279.807C56.1855 279.889 56.0195 279.957 55.8164 280.012C55.6133 280.066 55.4141 280.105 55.2188 280.129L54.5801 280.211C54.1973 280.262 53.9102 280.342 53.7188 280.451C53.3945 280.635 53.2324 280.928 53.2324 281.33ZM55.7871 279.197C56.0293 279.166 56.1914 279.064 56.2734 278.893C56.3203 278.799 56.3438 278.664 56.3438 278.488C56.3438 278.129 56.2148 277.869 55.957 277.709C55.7031 277.545 55.3379 277.463 54.8613 277.463C54.3105 277.463 53.9199 277.611 53.6895 277.908C53.5605 278.072 53.4766 278.316 53.4375 278.641H52.4531C52.4727 277.867 52.7227 277.33 53.2031 277.029C53.6875 276.725 54.248 276.572 54.8848 276.572C55.623 276.572 56.2227 276.713 56.6836 276.994C57.1406 277.275 57.3691 277.713 57.3691 278.307V281.922C57.3691 282.031 57.3906 282.119 57.4336 282.186C57.4805 282.252 57.5762 282.285 57.7207 282.285C57.7676 282.285 57.8203 282.283 57.8789 282.279C57.9375 282.271 58 282.262 58.0664 282.25V283.029C57.9023 283.076 57.7773 283.105 57.6914 283.117C57.6055 283.129 57.4883 283.135 57.3398 283.135C56.9766 283.135 56.7129 283.006 56.5488 282.748C56.4629 282.611 56.4023 282.418 56.3672 282.168C56.1523 282.449 55.8438 282.693 55.4414 282.9C55.0391 283.107 54.5957 283.211 54.1113 283.211C53.5293 283.211 53.0527 283.035 52.6816 282.684C52.3145 282.328 52.1309 281.885 52.1309 281.354C52.1309 280.771 52.3125 280.32 52.6758 280C53.0391 279.68 53.5156 279.482 54.1055 279.408L55.7871 279.197ZM59.1035 276.725H60.1055V277.615C60.4023 277.248 60.7168 276.984 61.0488 276.824C61.3809 276.664 61.75 276.584 62.1562 276.584C63.0469 276.584 63.6484 276.895 63.9609 277.516C64.1328 277.855 64.2188 278.342 64.2188 278.975V283H63.1465V279.045C63.1465 278.662 63.0898 278.354 62.9766 278.119C62.7891 277.729 62.4492 277.533 61.957 277.533C61.707 277.533 61.502 277.559 61.3418 277.609C61.0527 277.695 60.7988 277.867 60.5801 278.125C60.4043 278.332 60.2891 278.547 60.2344 278.77C60.1836 278.988 60.1582 279.303 60.1582 279.713V283H59.1035V276.725ZM67.998 276.613C68.4902 276.613 68.9199 276.734 69.2871 276.977C69.4863 277.113 69.6895 277.312 69.8965 277.574V276.783H70.8691V282.49C70.8691 283.287 70.752 283.916 70.5176 284.377C70.0801 285.229 69.2539 285.654 68.0391 285.654C67.3633 285.654 66.7949 285.502 66.334 285.197C65.873 284.896 65.6152 284.424 65.5605 283.779H66.6328C66.6836 284.061 66.7852 284.277 66.9375 284.43C67.1758 284.664 67.5508 284.781 68.0625 284.781C68.8711 284.781 69.4004 284.496 69.6504 283.926C69.7988 283.59 69.8672 282.99 69.8555 282.127C69.6445 282.447 69.3906 282.686 69.0938 282.842C68.7969 282.998 68.4043 283.076 67.916 283.076C67.2363 283.076 66.6406 282.836 66.1289 282.355C65.6211 281.871 65.3672 281.072 65.3672 279.959C65.3672 278.908 65.623 278.088 66.1348 277.498C66.6504 276.908 67.2715 276.613 67.998 276.613ZM69.8965 279.836C69.8965 279.059 69.7363 278.482 69.416 278.107C69.0957 277.732 68.6875 277.545 68.1914 277.545C67.4492 277.545 66.9414 277.893 66.668 278.588C66.5234 278.959 66.4512 279.445 66.4512 280.047C66.4512 280.754 66.5938 281.293 66.8789 281.664C67.168 282.031 67.5547 282.215 68.0391 282.215C68.7969 282.215 69.3301 281.873 69.6387 281.189C69.8105 280.803 69.8965 280.352 69.8965 279.836ZM73.2715 281.33C73.2715 281.635 73.3828 281.875 73.6055 282.051C73.8281 282.227 74.0918 282.314 74.3965 282.314C74.7676 282.314 75.127 282.229 75.4746 282.057C76.0605 281.771 76.3535 281.305 76.3535 280.656V279.807C76.2246 279.889 76.0586 279.957 75.8555 280.012C75.6523 280.066 75.4531 280.105 75.2578 280.129L74.6191 280.211C74.2363 280.262 73.9492 280.342 73.7578 280.451C73.4336 280.635 73.2715 280.928 73.2715 281.33ZM75.8262 279.197C76.0684 279.166 76.2305 279.064 76.3125 278.893C76.3594 278.799 76.3828 278.664 76.3828 278.488C76.3828 278.129 76.2539 277.869 75.9961 277.709C75.7422 277.545 75.377 277.463 74.9004 277.463C74.3496 277.463 73.959 277.611 73.7285 277.908C73.5996 278.072 73.5156 278.316 73.4766 278.641H72.4922C72.5117 277.867 72.7617 277.33 73.2422 277.029C73.7266 276.725 74.2871 276.572 74.9238 276.572C75.6621 276.572 76.2617 276.713 76.7227 276.994C77.1797 277.275 77.4082 277.713 77.4082 278.307V281.922C77.4082 282.031 77.4297 282.119 77.4727 282.186C77.5195 282.252 77.6152 282.285 77.7598 282.285C77.8066 282.285 77.8594 282.283 77.918 282.279C77.9766 282.271 78.0391 282.262 78.1055 282.25V283.029C77.9414 283.076 77.8164 283.105 77.7305 283.117C77.6445 283.129 77.5273 283.135 77.3789 283.135C77.0156 283.135 76.752 283.006 76.5879 282.748C76.502 282.611 76.4414 282.418 76.4062 282.168C76.1914 282.449 75.8828 282.693 75.4805 282.9C75.0781 283.107 74.6348 283.211 74.1504 283.211C73.5684 283.211 73.0918 283.035 72.7207 282.684C72.3535 282.328 72.1699 281.885 72.1699 281.354C72.1699 280.771 72.3516 280.32 72.7148 280C73.0781 279.68 73.5547 279.482 74.1445 279.408L75.8262 279.197ZM79.1426 276.725H80.1445V277.615C80.4414 277.248 80.7559 276.984 81.0879 276.824C81.4199 276.664 81.7891 276.584 82.1953 276.584C83.0859 276.584 83.6875 276.895 84 277.516C84.1719 277.855 84.2578 278.342 84.2578 278.975V283H83.1855V279.045C83.1855 278.662 83.1289 278.354 83.0156 278.119C82.8281 277.729 82.4883 277.533 81.9961 277.533C81.7461 277.533 81.541 277.559 81.3809 277.609C81.0918 277.695 80.8379 277.867 80.6191 278.125C80.4434 278.332 80.3281 278.547 80.2734 278.77C80.2227 278.988 80.1973 279.303 80.1973 279.713V283H79.1426V276.725ZM92.5371 278.031C93.0293 278.031 93.4121 277.963 93.6855 277.826C94.1152 277.611 94.3301 277.225 94.3301 276.666C94.3301 276.104 94.1016 275.725 93.6445 275.529C93.3867 275.42 93.0039 275.365 92.4961 275.365H90.416V278.031H92.5371ZM92.9297 282.004C93.6445 282.004 94.1543 281.797 94.459 281.383C94.6504 281.121 94.7461 280.805 94.7461 280.434C94.7461 279.809 94.4668 279.383 93.9082 279.156C93.6113 279.035 93.2188 278.975 92.7305 278.975H90.416V282.004H92.9297ZM89.2734 274.393H92.9707C93.9785 274.393 94.6953 274.693 95.1211 275.295C95.3711 275.65 95.4961 276.061 95.4961 276.525C95.4961 277.068 95.3418 277.514 95.0332 277.861C94.873 278.045 94.6426 278.213 94.3418 278.365C94.7832 278.533 95.1133 278.723 95.332 278.934C95.7188 279.309 95.9121 279.826 95.9121 280.486C95.9121 281.041 95.7383 281.543 95.3906 281.992C94.8711 282.664 94.0449 283 92.9121 283H89.2734V274.393ZM97.9746 281.33C97.9746 281.635 98.0859 281.875 98.3086 282.051C98.5312 282.227 98.7949 282.314 99.0996 282.314C99.4707 282.314 99.8301 282.229 100.178 282.057C100.764 281.771 101.057 281.305 101.057 280.656V279.807C100.928 279.889 100.762 279.957 100.559 280.012C100.355 280.066 100.156 280.105 99.9609 280.129L99.3223 280.211C98.9395 280.262 98.6523 280.342 98.4609 280.451C98.1367 280.635 97.9746 280.928 97.9746 281.33ZM100.529 279.197C100.771 279.166 100.934 279.064 101.016 278.893C101.062 278.799 101.086 278.664 101.086 278.488C101.086 278.129 100.957 277.869 100.699 277.709C100.445 277.545 100.08 277.463 99.6035 277.463C99.0527 277.463 98.6621 277.611 98.4316 277.908C98.3027 278.072 98.2188 278.316 98.1797 278.641H97.1953C97.2148 277.867 97.4648 277.33 97.9453 277.029C98.4297 276.725 98.9902 276.572 99.627 276.572C100.365 276.572 100.965 276.713 101.426 276.994C101.883 277.275 102.111 277.713 102.111 278.307V281.922C102.111 282.031 102.133 282.119 102.176 282.186C102.223 282.252 102.318 282.285 102.463 282.285C102.51 282.285 102.562 282.283 102.621 282.279C102.68 282.271 102.742 282.262 102.809 282.25V283.029C102.645 283.076 102.52 283.105 102.434 283.117C102.348 283.129 102.23 283.135 102.082 283.135C101.719 283.135 101.455 283.006 101.291 282.748C101.205 282.611 101.145 282.418 101.109 282.168C100.895 282.449 100.586 282.693 100.184 282.9C99.7812 283.107 99.3379 283.211 98.8535 283.211C98.2715 283.211 97.7949 283.035 97.4238 282.684C97.0566 282.328 96.873 281.885 96.873 281.354C96.873 280.771 97.0547 280.32 97.418 280C97.7812 279.68 98.2578 279.482 98.8477 279.408L100.529 279.197ZM106.061 276.613C106.553 276.613 106.982 276.734 107.35 276.977C107.549 277.113 107.752 277.312 107.959 277.574V276.783H108.932V282.49C108.932 283.287 108.814 283.916 108.58 284.377C108.143 285.229 107.316 285.654 106.102 285.654C105.426 285.654 104.857 285.502 104.396 285.197C103.936 284.896 103.678 284.424 103.623 283.779H104.695C104.746 284.061 104.848 284.277 105 284.43C105.238 284.664 105.613 284.781 106.125 284.781C106.934 284.781 107.463 284.496 107.713 283.926C107.861 283.59 107.93 282.99 107.918 282.127C107.707 282.447 107.453 282.686 107.156 282.842C106.859 282.998 106.467 283.076 105.979 283.076C105.299 283.076 104.703 282.836 104.191 282.355C103.684 281.871 103.43 281.072 103.43 279.959C103.43 278.908 103.686 278.088 104.197 277.498C104.713 276.908 105.334 276.613 106.061 276.613ZM107.959 279.836C107.959 279.059 107.799 278.482 107.479 278.107C107.158 277.732 106.75 277.545 106.254 277.545C105.512 277.545 105.004 277.893 104.73 278.588C104.586 278.959 104.514 279.445 104.514 280.047C104.514 280.754 104.656 281.293 104.941 281.664C105.23 282.031 105.617 282.215 106.102 282.215C106.859 282.215 107.393 281.873 107.701 281.189C107.873 280.803 107.959 280.352 107.959 279.836ZM110.525 276.754H111.598V283H110.525V276.754ZM110.525 274.393H111.598V275.588H110.525V274.393ZM113.174 274.393H114.188V279.391L116.895 276.725H118.242L115.84 279.074L118.377 283H117.029L115.072 279.836L114.188 280.645V283H113.174V274.393ZM120.006 281.33C120.006 281.635 120.117 281.875 120.34 282.051C120.562 282.227 120.826 282.314 121.131 282.314C121.502 282.314 121.861 282.229 122.209 282.057C122.795 281.771 123.088 281.305 123.088 280.656V279.807C122.959 279.889 122.793 279.957 122.59 280.012C122.387 280.066 122.188 280.105 121.992 280.129L121.354 280.211C120.971 280.262 120.684 280.342 120.492 280.451C120.168 280.635 120.006 280.928 120.006 281.33ZM122.561 279.197C122.803 279.166 122.965 279.064 123.047 278.893C123.094 278.799 123.117 278.664 123.117 278.488C123.117 278.129 122.988 277.869 122.73 277.709C122.477 277.545 122.111 277.463 121.635 277.463C121.084 277.463 120.693 277.611 120.463 277.908C120.334 278.072 120.25 278.316 120.211 278.641H119.227C119.246 277.867 119.496 277.33 119.977 277.029C120.461 276.725 121.021 276.572 121.658 276.572C122.396 276.572 122.996 276.713 123.457 276.994C123.914 277.275 124.143 277.713 124.143 278.307V281.922C124.143 282.031 124.164 282.119 124.207 282.186C124.254 282.252 124.35 282.285 124.494 282.285C124.541 282.285 124.594 282.283 124.652 282.279C124.711 282.271 124.773 282.262 124.84 282.25V283.029C124.676 283.076 124.551 283.105 124.465 283.117C124.379 283.129 124.262 283.135 124.113 283.135C123.75 283.135 123.486 283.006 123.322 282.748C123.236 282.611 123.176 282.418 123.141 282.168C122.926 282.449 122.617 282.693 122.215 282.9C121.812 283.107 121.369 283.211 120.885 283.211C120.303 283.211 119.826 283.035 119.455 282.684C119.088 282.328 118.904 281.885 118.904 281.354C118.904 280.771 119.086 280.32 119.449 280C119.812 279.68 120.289 279.482 120.879 279.408L122.561 279.197ZM125.877 276.725H126.879V277.615C127.176 277.248 127.49 276.984 127.822 276.824C128.154 276.664 128.523 276.584 128.93 276.584C129.82 276.584 130.422 276.895 130.734 277.516C130.906 277.855 130.992 278.342 130.992 278.975V283H129.92V279.045C129.92 278.662 129.863 278.354 129.75 278.119C129.562 277.729 129.223 277.533 128.73 277.533C128.48 277.533 128.275 277.559 128.115 277.609C127.826 277.695 127.572 277.867 127.354 278.125C127.178 278.332 127.062 278.547 127.008 278.77C126.957 278.988 126.932 279.303 126.932 279.713V283H125.877V276.725ZM136.037 274.393H137.174V278.588L141.369 274.393H142.98L139.4 277.861L143.08 283H141.562L138.551 278.682L137.174 280V283H136.037V274.393ZM144.709 281.33C144.709 281.635 144.82 281.875 145.043 282.051C145.266 282.227 145.529 282.314 145.834 282.314C146.205 282.314 146.564 282.229 146.912 282.057C147.498 281.771 147.791 281.305 147.791 280.656V279.807C147.662 279.889 147.496 279.957 147.293 280.012C147.09 280.066 146.891 280.105 146.695 280.129L146.057 280.211C145.674 280.262 145.387 280.342 145.195 280.451C144.871 280.635 144.709 280.928 144.709 281.33ZM147.264 279.197C147.506 279.166 147.668 279.064 147.75 278.893C147.797 278.799 147.82 278.664 147.82 278.488C147.82 278.129 147.691 277.869 147.434 277.709C147.18 277.545 146.814 277.463 146.338 277.463C145.787 277.463 145.396 277.611 145.166 277.908C145.037 278.072 144.953 278.316 144.914 278.641H143.93C143.949 277.867 144.199 277.33 144.68 277.029C145.164 276.725 145.725 276.572 146.361 276.572C147.1 276.572 147.699 276.713 148.16 276.994C148.617 277.275 148.846 277.713 148.846 278.307V281.922C148.846 282.031 148.867 282.119 148.91 282.186C148.957 282.252 149.053 282.285 149.197 282.285C149.244 282.285 149.297 282.283 149.355 282.279C149.414 282.271 149.477 282.262 149.543 282.25V283.029C149.379 283.076 149.254 283.105 149.168 283.117C149.082 283.129 148.965 283.135 148.816 283.135C148.453 283.135 148.189 283.006 148.025 282.748C147.939 282.611 147.879 282.418 147.844 282.168C147.629 282.449 147.32 282.693 146.918 282.9C146.516 283.107 146.072 283.211 145.588 283.211C145.006 283.211 144.529 283.035 144.158 282.684C143.791 282.328 143.607 281.885 143.607 281.354C143.607 280.771 143.789 280.32 144.152 280C144.516 279.68 144.992 279.482 145.582 279.408L147.264 279.197ZM150.791 274.973H151.857V276.725H152.859V277.586H151.857V281.682C151.857 281.9 151.932 282.047 152.08 282.121C152.162 282.164 152.299 282.186 152.49 282.186C152.541 282.186 152.596 282.186 152.654 282.186C152.713 282.182 152.781 282.176 152.859 282.168V283C152.738 283.035 152.611 283.061 152.479 283.076C152.35 283.092 152.209 283.1 152.057 283.1C151.564 283.1 151.23 282.975 151.055 282.725C150.879 282.471 150.791 282.143 150.791 281.74V277.586H149.941V276.725H150.791V274.973ZM154.729 281.33C154.729 281.635 154.84 281.875 155.062 282.051C155.285 282.227 155.549 282.314 155.854 282.314C156.225 282.314 156.584 282.229 156.932 282.057C157.518 281.771 157.811 281.305 157.811 280.656V279.807C157.682 279.889 157.516 279.957 157.312 280.012C157.109 280.066 156.91 280.105 156.715 280.129L156.076 280.211C155.693 280.262 155.406 280.342 155.215 280.451C154.891 280.635 154.729 280.928 154.729 281.33ZM157.283 279.197C157.525 279.166 157.688 279.064 157.77 278.893C157.816 278.799 157.84 278.664 157.84 278.488C157.84 278.129 157.711 277.869 157.453 277.709C157.199 277.545 156.834 277.463 156.357 277.463C155.807 277.463 155.416 277.611 155.186 277.908C155.057 278.072 154.973 278.316 154.934 278.641H153.949C153.969 277.867 154.219 277.33 154.699 277.029C155.184 276.725 155.744 276.572 156.381 276.572C157.119 276.572 157.719 276.713 158.18 276.994C158.637 277.275 158.865 277.713 158.865 278.307V281.922C158.865 282.031 158.887 282.119 158.93 282.186C158.977 282.252 159.072 282.285 159.217 282.285C159.264 282.285 159.316 282.283 159.375 282.279C159.434 282.271 159.496 282.262 159.562 282.25V283.029C159.398 283.076 159.273 283.105 159.188 283.117C159.102 283.129 158.984 283.135 158.836 283.135C158.473 283.135 158.209 283.006 158.045 282.748C157.959 282.611 157.898 282.418 157.863 282.168C157.648 282.449 157.34 282.693 156.938 282.9C156.535 283.107 156.092 283.211 155.607 283.211C155.025 283.211 154.549 283.035 154.178 282.684C153.811 282.328 153.627 281.885 153.627 281.354C153.627 280.771 153.809 280.32 154.172 280C154.535 279.68 155.012 279.482 155.602 279.408L157.283 279.197ZM164.842 280.223C164.869 280.711 164.984 281.107 165.188 281.412C165.574 281.982 166.256 282.268 167.232 282.268C167.67 282.268 168.068 282.205 168.428 282.08C169.123 281.838 169.471 281.404 169.471 280.779C169.471 280.311 169.324 279.977 169.031 279.777C168.734 279.582 168.27 279.412 167.637 279.268L166.471 279.004C165.709 278.832 165.17 278.643 164.854 278.436C164.307 278.076 164.033 277.539 164.033 276.824C164.033 276.051 164.301 275.416 164.836 274.92C165.371 274.424 166.129 274.176 167.109 274.176C168.012 274.176 168.777 274.395 169.406 274.832C170.039 275.266 170.355 275.961 170.355 276.918H169.26C169.201 276.457 169.076 276.104 168.885 275.857C168.529 275.408 167.926 275.184 167.074 275.184C166.387 275.184 165.893 275.328 165.592 275.617C165.291 275.906 165.141 276.242 165.141 276.625C165.141 277.047 165.316 277.355 165.668 277.551C165.898 277.676 166.42 277.832 167.232 278.02L168.439 278.295C169.021 278.428 169.471 278.609 169.787 278.84C170.334 279.242 170.607 279.826 170.607 280.592C170.607 281.545 170.26 282.227 169.564 282.637C168.873 283.047 168.068 283.252 167.15 283.252C166.08 283.252 165.242 282.979 164.637 282.432C164.031 281.889 163.734 281.152 163.746 280.223H164.842ZM172.752 281.33C172.752 281.635 172.863 281.875 173.086 282.051C173.309 282.227 173.572 282.314 173.877 282.314C174.248 282.314 174.607 282.229 174.955 282.057C175.541 281.771 175.834 281.305 175.834 280.656V279.807C175.705 279.889 175.539 279.957 175.336 280.012C175.133 280.066 174.934 280.105 174.738 280.129L174.1 280.211C173.717 280.262 173.43 280.342 173.238 280.451C172.914 280.635 172.752 280.928 172.752 281.33ZM175.307 279.197C175.549 279.166 175.711 279.064 175.793 278.893C175.84 278.799 175.863 278.664 175.863 278.488C175.863 278.129 175.734 277.869 175.477 277.709C175.223 277.545 174.857 277.463 174.381 277.463C173.83 277.463 173.439 277.611 173.209 277.908C173.08 278.072 172.996 278.316 172.957 278.641H171.973C171.992 277.867 172.242 277.33 172.723 277.029C173.207 276.725 173.768 276.572 174.404 276.572C175.143 276.572 175.742 276.713 176.203 276.994C176.66 277.275 176.889 277.713 176.889 278.307V281.922C176.889 282.031 176.91 282.119 176.953 282.186C177 282.252 177.096 282.285 177.24 282.285C177.287 282.285 177.34 282.283 177.398 282.279C177.457 282.271 177.52 282.262 177.586 282.25V283.029C177.422 283.076 177.297 283.105 177.211 283.117C177.125 283.129 177.008 283.135 176.859 283.135C176.496 283.135 176.232 283.006 176.068 282.748C175.982 282.611 175.922 282.418 175.887 282.168C175.672 282.449 175.363 282.693 174.961 282.9C174.559 283.107 174.115 283.211 173.631 283.211C173.049 283.211 172.572 283.035 172.201 282.684C171.834 282.328 171.65 281.885 171.65 281.354C171.65 280.771 171.832 280.32 172.195 280C172.559 279.68 173.035 279.482 173.625 279.408L175.307 279.197ZM178.623 276.725H179.625V277.615C179.922 277.248 180.236 276.984 180.568 276.824C180.9 276.664 181.27 276.584 181.676 276.584C182.566 276.584 183.168 276.895 183.48 277.516C183.652 277.855 183.738 278.342 183.738 278.975V283H182.666V279.045C182.666 278.662 182.609 278.354 182.496 278.119C182.309 277.729 181.969 277.533 181.477 277.533C181.227 277.533 181.021 277.559 180.861 277.609C180.572 277.695 180.318 277.867 180.1 278.125C179.924 278.332 179.809 278.547 179.754 278.77C179.703 278.988 179.678 279.303 179.678 279.713V283H178.623V276.725ZM185.971 279.936C185.971 280.607 186.113 281.17 186.398 281.623C186.684 282.076 187.141 282.303 187.77 282.303C188.258 282.303 188.658 282.094 188.971 281.676C189.287 281.254 189.445 280.65 189.445 279.865C189.445 279.072 189.283 278.486 188.959 278.107C188.635 277.725 188.234 277.533 187.758 277.533C187.227 277.533 186.795 277.736 186.463 278.143C186.135 278.549 185.971 279.146 185.971 279.936ZM187.559 276.613C188.039 276.613 188.441 276.715 188.766 276.918C188.953 277.035 189.166 277.24 189.404 277.533V274.363H190.418V283H189.469V282.127C189.223 282.514 188.932 282.793 188.596 282.965C188.26 283.137 187.875 283.223 187.441 283.223C186.742 283.223 186.137 282.93 185.625 282.344C185.113 281.754 184.857 280.971 184.857 279.994C184.857 279.08 185.09 278.289 185.555 277.621C186.023 276.949 186.691 276.613 187.559 276.613ZM191.982 276.754H193.055V283H191.982V276.754ZM191.982 274.393H193.055V275.588H191.982V274.393ZM197.971 274.393H198.984V279.391L201.691 276.725H203.039L200.637 279.074L203.174 283H201.826L199.869 279.836L198.984 280.645V283H197.971V274.393ZM206.607 276.584C207.053 276.584 207.484 276.689 207.902 276.9C208.32 277.107 208.639 277.377 208.857 277.709C209.068 278.025 209.209 278.395 209.279 278.816C209.342 279.105 209.373 279.566 209.373 280.199H204.773C204.793 280.836 204.943 281.348 205.225 281.734C205.506 282.117 205.941 282.309 206.531 282.309C207.082 282.309 207.521 282.127 207.85 281.764C208.037 281.553 208.17 281.309 208.248 281.031H209.285C209.258 281.262 209.166 281.52 209.01 281.805C208.857 282.086 208.686 282.316 208.494 282.496C208.174 282.809 207.777 283.02 207.305 283.129C207.051 283.191 206.764 283.223 206.443 283.223C205.662 283.223 205 282.939 204.457 282.373C203.914 281.803 203.643 281.006 203.643 279.982C203.643 278.975 203.916 278.156 204.463 277.527C205.01 276.898 205.725 276.584 206.607 276.584ZM208.289 279.361C208.246 278.904 208.146 278.539 207.99 278.266C207.701 277.758 207.219 277.504 206.543 277.504C206.059 277.504 205.652 277.68 205.324 278.031C204.996 278.379 204.822 278.822 204.803 279.361H208.289ZM214.641 281.031C214.672 281.383 214.76 281.652 214.904 281.84C215.17 282.18 215.631 282.35 216.287 282.35C216.678 282.35 217.021 282.266 217.318 282.098C217.615 281.926 217.764 281.662 217.764 281.307C217.764 281.037 217.645 280.832 217.406 280.691C217.254 280.605 216.953 280.506 216.504 280.393L215.666 280.182C215.131 280.049 214.736 279.9 214.482 279.736C214.029 279.451 213.803 279.057 213.803 278.553C213.803 277.959 214.016 277.479 214.441 277.111C214.871 276.744 215.447 276.561 216.17 276.561C217.115 276.561 217.797 276.838 218.215 277.393C218.477 277.744 218.604 278.123 218.596 278.529H217.6C217.58 278.291 217.496 278.074 217.348 277.879C217.105 277.602 216.686 277.463 216.088 277.463C215.689 277.463 215.387 277.539 215.18 277.691C214.977 277.844 214.875 278.045 214.875 278.295C214.875 278.568 215.01 278.787 215.279 278.951C215.436 279.049 215.666 279.135 215.971 279.209L216.668 279.379C217.426 279.562 217.934 279.74 218.191 279.912C218.602 280.182 218.807 280.605 218.807 281.184C218.807 281.742 218.594 282.225 218.168 282.631C217.746 283.037 217.102 283.24 216.234 283.24C215.301 283.24 214.639 283.029 214.248 282.607C213.861 282.182 213.654 281.656 213.627 281.031H214.641ZM220.014 276.754H221.086V283H220.014V276.754ZM220.014 274.393H221.086V275.588H220.014V274.393ZM223.494 281.33C223.494 281.635 223.605 281.875 223.828 282.051C224.051 282.227 224.314 282.314 224.619 282.314C224.99 282.314 225.35 282.229 225.697 282.057C226.283 281.771 226.576 281.305 226.576 280.656V279.807C226.447 279.889 226.281 279.957 226.078 280.012C225.875 280.066 225.676 280.105 225.48 280.129L224.842 280.211C224.459 280.262 224.172 280.342 223.98 280.451C223.656 280.635 223.494 280.928 223.494 281.33ZM226.049 279.197C226.291 279.166 226.453 279.064 226.535 278.893C226.582 278.799 226.605 278.664 226.605 278.488C226.605 278.129 226.477 277.869 226.219 277.709C225.965 277.545 225.6 277.463 225.123 277.463C224.572 277.463 224.182 277.611 223.951 277.908C223.822 278.072 223.738 278.316 223.699 278.641H222.715C222.734 277.867 222.984 277.33 223.465 277.029C223.949 276.725 224.51 276.572 225.146 276.572C225.885 276.572 226.484 276.713 226.945 276.994C227.402 277.275 227.631 277.713 227.631 278.307V281.922C227.631 282.031 227.652 282.119 227.695 282.186C227.742 282.252 227.838 282.285 227.982 282.285C228.029 282.285 228.082 282.283 228.141 282.279C228.199 282.271 228.262 282.262 228.328 282.25V283.029C228.164 283.076 228.039 283.105 227.953 283.117C227.867 283.129 227.75 283.135 227.602 283.135C227.238 283.135 226.975 283.006 226.811 282.748C226.725 282.611 226.664 282.418 226.629 282.168C226.414 282.449 226.105 282.693 225.703 282.9C225.301 283.107 224.857 283.211 224.373 283.211C223.791 283.211 223.314 283.035 222.943 282.684C222.576 282.328 222.393 281.885 222.393 281.354C222.393 280.771 222.574 280.32 222.938 280C223.301 279.68 223.777 279.482 224.367 279.408L226.049 279.197ZM232.014 282.291C232.506 282.291 232.914 282.086 233.238 281.676C233.566 281.262 233.73 280.645 233.73 279.824C233.73 279.324 233.658 278.895 233.514 278.535C233.24 277.844 232.74 277.498 232.014 277.498C231.283 277.498 230.783 277.863 230.514 278.594C230.369 278.984 230.297 279.48 230.297 280.082C230.297 280.566 230.369 280.979 230.514 281.318C230.787 281.967 231.287 282.291 232.014 282.291ZM229.283 276.754H230.309V277.586C230.52 277.301 230.75 277.08 231 276.924C231.355 276.689 231.773 276.572 232.254 276.572C232.965 276.572 233.568 276.846 234.064 277.393C234.561 277.936 234.809 278.713 234.809 279.725C234.809 281.092 234.451 282.068 233.736 282.654C233.283 283.025 232.756 283.211 232.154 283.211C231.682 283.211 231.285 283.107 230.965 282.9C230.777 282.783 230.568 282.582 230.338 282.297V285.502H229.283V276.754ZM236.854 281.33C236.854 281.635 236.965 281.875 237.188 282.051C237.41 282.227 237.674 282.314 237.979 282.314C238.35 282.314 238.709 282.229 239.057 282.057C239.643 281.771 239.936 281.305 239.936 280.656V279.807C239.807 279.889 239.641 279.957 239.438 280.012C239.234 280.066 239.035 280.105 238.84 280.129L238.201 280.211C237.818 280.262 237.531 280.342 237.34 280.451C237.016 280.635 236.854 280.928 236.854 281.33ZM239.408 279.197C239.65 279.166 239.812 279.064 239.895 278.893C239.941 278.799 239.965 278.664 239.965 278.488C239.965 278.129 239.836 277.869 239.578 277.709C239.324 277.545 238.959 277.463 238.482 277.463C237.932 277.463 237.541 277.611 237.311 277.908C237.182 278.072 237.098 278.316 237.059 278.641H236.074C236.094 277.867 236.344 277.33 236.824 277.029C237.309 276.725 237.869 276.572 238.506 276.572C239.244 276.572 239.844 276.713 240.305 276.994C240.762 277.275 240.99 277.713 240.99 278.307V281.922C240.99 282.031 241.012 282.119 241.055 282.186C241.102 282.252 241.197 282.285 241.342 282.285C241.389 282.285 241.441 282.283 241.5 282.279C241.559 282.271 241.621 282.262 241.688 282.25V283.029C241.523 283.076 241.398 283.105 241.312 283.117C241.227 283.129 241.109 283.135 240.961 283.135C240.598 283.135 240.334 283.006 240.17 282.748C240.084 282.611 240.023 282.418 239.988 282.168C239.773 282.449 239.465 282.693 239.062 282.9C238.66 283.107 238.217 283.211 237.732 283.211C237.15 283.211 236.674 283.035 236.303 282.684C235.936 282.328 235.752 281.885 235.752 281.354C235.752 280.771 235.934 280.32 236.297 280C236.66 279.68 237.137 279.482 237.727 279.408L239.408 279.197ZM245.373 282.291C245.865 282.291 246.273 282.086 246.598 281.676C246.926 281.262 247.09 280.645 247.09 279.824C247.09 279.324 247.018 278.895 246.873 278.535C246.6 277.844 246.1 277.498 245.373 277.498C244.643 277.498 244.143 277.863 243.873 278.594C243.729 278.984 243.656 279.48 243.656 280.082C243.656 280.566 243.729 280.979 243.873 281.318C244.146 281.967 244.646 282.291 245.373 282.291ZM242.643 276.754H243.668V277.586C243.879 277.301 244.109 277.08 244.359 276.924C244.715 276.689 245.133 276.572 245.613 276.572C246.324 276.572 246.928 276.846 247.424 277.393C247.92 277.936 248.168 278.713 248.168 279.725C248.168 281.092 247.811 282.068 247.096 282.654C246.643 283.025 246.115 283.211 245.514 283.211C245.041 283.211 244.645 283.107 244.324 282.9C244.137 282.783 243.928 282.582 243.697 282.297V285.502H242.643V276.754ZM250.459 276.725V280.891C250.459 281.211 250.51 281.473 250.611 281.676C250.799 282.051 251.148 282.238 251.66 282.238C252.395 282.238 252.895 281.91 253.16 281.254C253.305 280.902 253.377 280.42 253.377 279.807V276.725H254.432V283H253.436L253.447 282.074C253.311 282.312 253.141 282.514 252.938 282.678C252.535 283.006 252.047 283.17 251.473 283.17C250.578 283.17 249.969 282.871 249.645 282.273C249.469 281.953 249.381 281.525 249.381 280.99V276.725H250.459ZM256.084 276.725H257.086V277.615C257.383 277.248 257.697 276.984 258.029 276.824C258.361 276.664 258.73 276.584 259.137 276.584C260.027 276.584 260.629 276.895 260.941 277.516C261.113 277.855 261.199 278.342 261.199 278.975V283H260.127V279.045C260.127 278.662 260.07 278.354 259.957 278.119C259.77 277.729 259.43 277.533 258.938 277.533C258.688 277.533 258.482 277.559 258.322 277.609C258.033 277.695 257.779 277.867 257.561 278.125C257.385 278.332 257.27 278.547 257.215 278.77C257.164 278.988 257.139 279.303 257.139 279.713V283H256.084V276.725ZM270.023 276.725H271.189C271.041 277.127 270.711 278.045 270.199 279.479C269.816 280.557 269.496 281.436 269.238 282.115C268.629 283.717 268.199 284.693 267.949 285.045C267.699 285.396 267.27 285.572 266.66 285.572C266.512 285.572 266.396 285.566 266.314 285.555C266.236 285.543 266.139 285.521 266.021 285.49V284.529C266.205 284.58 266.338 284.611 266.42 284.623C266.502 284.635 266.574 284.641 266.637 284.641C266.832 284.641 266.975 284.607 267.064 284.541C267.158 284.479 267.236 284.4 267.299 284.307C267.318 284.275 267.389 284.115 267.51 283.826C267.631 283.537 267.719 283.322 267.773 283.182L265.453 276.725H266.648L268.33 281.834L270.023 276.725ZM272.912 281.33C272.912 281.635 273.023 281.875 273.246 282.051C273.469 282.227 273.732 282.314 274.037 282.314C274.408 282.314 274.768 282.229 275.115 282.057C275.701 281.771 275.994 281.305 275.994 280.656V279.807C275.865 279.889 275.699 279.957 275.496 280.012C275.293 280.066 275.094 280.105 274.898 280.129L274.26 280.211C273.877 280.262 273.59 280.342 273.398 280.451C273.074 280.635 272.912 280.928 272.912 281.33ZM275.467 279.197C275.709 279.166 275.871 279.064 275.953 278.893C276 278.799 276.023 278.664 276.023 278.488C276.023 278.129 275.895 277.869 275.637 277.709C275.383 277.545 275.018 277.463 274.541 277.463C273.99 277.463 273.6 277.611 273.369 277.908C273.24 278.072 273.156 278.316 273.117 278.641H272.133C272.152 277.867 272.402 277.33 272.883 277.029C273.367 276.725 273.928 276.572 274.564 276.572C275.303 276.572 275.902 276.713 276.363 276.994C276.82 277.275 277.049 277.713 277.049 278.307V281.922C277.049 282.031 277.07 282.119 277.113 282.186C277.16 282.252 277.256 282.285 277.4 282.285C277.447 282.285 277.5 282.283 277.559 282.279C277.617 282.271 277.68 282.262 277.746 282.25V283.029C277.582 283.076 277.457 283.105 277.371 283.117C277.285 283.129 277.168 283.135 277.02 283.135C276.656 283.135 276.393 283.006 276.229 282.748C276.143 282.611 276.082 282.418 276.047 282.168C275.832 282.449 275.523 282.693 275.121 282.9C274.719 283.107 274.275 283.211 273.791 283.211C273.209 283.211 272.732 283.035 272.361 282.684C271.994 282.328 271.811 281.885 271.811 281.354C271.811 280.771 271.992 280.32 272.355 280C272.719 279.68 273.195 279.482 273.785 279.408L275.467 279.197ZM279.398 274.393H280.588V277.223L280.301 280.949H279.703L279.398 277.223V274.393ZM279.398 281.781H280.564V283H279.398V281.781Z" fill="#3B3E45"/>
<path d="M162.5 0C189.685 0 215.756 10.7991 234.978 30.0216C254.201 49.244 265 75.3153 265 102.5C265 129.685 254.201 155.756 234.978 174.978C215.756 194.201 189.685 205 162.5 205C135.315 205 109.244 194.201 90.0216 174.978C70.7991 155.756 60 129.685 60 102.5C60 75.3153 70.7991 49.244 90.0216 30.0216C109.244 10.7991 135.315 0 162.5 0ZM149.731 122.722L126.962 99.9375C126.146 99.1212 125.176 98.4737 124.11 98.0319C123.043 97.5902 121.9 97.3628 120.746 97.3628C119.591 97.3628 118.448 97.5902 117.382 98.0319C116.315 98.4737 115.346 99.1212 114.53 99.9375C112.881 101.586 111.955 103.822 111.955 106.153C111.955 108.485 112.881 110.721 114.53 112.369L143.523 141.362C144.337 142.183 145.305 142.834 146.372 143.278C147.439 143.722 148.583 143.951 149.739 143.951C150.894 143.951 152.039 143.722 153.105 143.278C154.172 142.834 155.141 142.183 155.955 141.362L215.99 81.3118C216.818 80.4989 217.476 79.5303 217.927 78.4618C218.378 77.3933 218.612 76.2461 218.618 75.0863C218.623 73.9266 218.399 72.7772 217.958 71.7046C217.517 70.632 216.868 69.6572 216.048 68.8367C215.229 68.0161 214.255 67.366 213.183 66.9237C212.111 66.4814 210.962 66.2558 209.802 66.2598C208.642 66.2638 207.495 66.4974 206.426 66.9471C205.356 67.3969 204.387 68.0538 203.573 68.88L149.731 122.722Z" fill="#293066"/>
</svg>
