<svg width="10" height="11" viewBox="0 0 10 11" fill="none" xmlns="http://www.w3.org/2000/svg">
<path d="M0.263672 8.82647C0.263672 9.63433 0.881446 10.2521 1.68931 10.2521H8.34226C9.15012 10.2521 9.76789 9.63433 9.76789 8.82647V5.02479H0.263672V8.82647ZM8.34226 1.69831H7.39184V1.2231C7.39184 0.937971 7.20175 0.747887 6.91663 0.747887C6.6315 0.747887 6.44142 0.937971 6.44142 1.2231V1.69831H3.59015V1.2231C3.59015 0.937971 3.40006 0.747887 3.11494 0.747887C2.82981 0.747887 2.63973 0.937971 2.63973 1.2231V1.69831H1.68931C0.881446 1.69831 0.263672 2.31608 0.263672 3.12394V4.07436H9.76789V3.12394C9.76789 2.31608 9.15012 1.69831 8.34226 1.69831Z" fill="#293066"/>
</svg>
