<svg width="8" height="8" viewBox="0 0 8 8" fill="none" xmlns="http://www.w3.org/2000/svg">
<path d="M3.689 4.30535C3.8521 4.30535 4.00851 4.24049 4.12383 4.12503C4.23915 4.00958 4.30394 3.85298 4.30394 3.68971C4.30394 3.52643 4.23915 3.36984 4.12383 3.25438C4.00851 3.13893 3.8521 3.07406 3.689 3.07406C3.52591 3.07406 3.3695 3.13893 3.25418 3.25438C3.13886 3.36984 3.07407 3.52643 3.07407 3.68971C3.07407 3.85298 3.13886 4.00958 3.25418 4.12503C3.3695 4.24049 3.52591 4.30535 3.689 4.30535ZM1.53673 3.68971C1.53643 3.17092 1.7231 2.66944 2.06245 2.27738C2.40181 1.88531 2.87105 1.62898 3.38402 1.55547C3.89698 1.48196 4.41922 1.59619 4.85481 1.8772C5.2904 2.1582 5.6101 2.58711 5.75519 3.08515L4.89121 3.95012C4.94747 3.69021 4.91817 3.41904 4.80767 3.17718C4.69718 2.93533 4.51144 2.73579 4.27824 2.60842C4.04503 2.48106 3.77691 2.43271 3.51397 2.47061C3.25104 2.50851 3.00743 2.63062 2.81959 2.81867C2.63175 3.00673 2.50977 3.25062 2.47192 3.51386C2.43406 3.7771 2.48236 4.04553 2.60958 4.279C2.7368 4.51247 2.93611 4.69842 3.17768 4.80904C3.41926 4.91966 3.69012 4.949 3.94974 4.89267L3.28499 5.55879C3.22038 5.6233 3.1596 5.69155 3.10297 5.76319C2.65212 5.63532 2.25528 5.36363 1.9727 4.9894C1.69013 4.61517 1.53666 4.15883 1.53673 3.68971ZM3.689 0.919318C4.24234 0.919151 4.78302 1.08507 5.24122 1.39564C5.69942 1.70621 6.05409 2.14717 6.25944 2.66158C6.53591 2.50515 6.85315 2.43605 7.16955 2.46335C6.87959 1.64201 6.30905 0.949662 5.5587 0.508584C4.80835 0.0675056 3.92645 -0.0939329 3.06874 0.0527785C2.21104 0.19949 1.4327 0.644913 0.871194 1.31039C0.309685 1.97586 0.00112302 2.81857 0 3.68971C3.94819e-05 4.46698 0.244906 5.22445 0.699765 5.85435C1.15462 6.48426 1.79631 6.95452 2.53354 7.19825L2.67374 6.63863C2.70203 6.52535 2.73893 6.41454 2.7832 6.30742C2.16613 6.09198 1.64509 5.66491 1.31235 5.10179C0.979615 4.53868 0.856633 3.87585 0.965181 3.23067C1.07373 2.58549 1.40681 1.99958 1.90544 1.57666C2.40408 1.15374 3.0361 0.921102 3.68962 0.919933L3.689 0.919318ZM5.83267 3.87809L3.87718 5.83583L3.71975 5.99405C3.50093 6.21311 3.34576 6.48764 3.27085 6.78823L3.13249 7.34108L3.08391 7.53316C3.06815 7.5961 3.06895 7.66206 3.08623 7.72459C3.10352 7.78713 3.13669 7.84412 3.18252 7.89001C3.22835 7.93589 3.28527 7.9691 3.34774 7.9864C3.41021 8.00371 3.47609 8.00451 3.53896 7.98873L4.28303 7.80219C4.58326 7.72714 4.85745 7.57179 5.0763 7.35278L7.71315 4.7129C7.88968 4.53919 7.99231 4.30389 7.99959 4.05618C8.00686 3.80848 7.91821 3.56755 7.75218 3.38375C7.58614 3.19996 7.35557 3.08753 7.10867 3.06998C6.86176 3.05242 6.61763 3.13109 6.42732 3.28954C6.40253 3.30994 6.37872 3.33151 6.35598 3.35418L5.83329 3.87748L5.83267 3.87809Z" fill="black"/>
</svg>
