<svg width="10" height="10" viewBox="0 0 10 10" fill="none" xmlns="http://www.w3.org/2000/svg">
<path d="M4.39064 5.35123C4.56674 5.35123 4.73564 5.28127 4.86016 5.15674C4.98469 5.03222 5.05465 4.86332 5.05465 4.68721C5.05465 4.51111 4.98469 4.34221 4.86016 4.21769C4.73564 4.09316 4.56674 4.0232 4.39064 4.0232C4.21453 4.0232 4.04564 4.09316 3.92111 4.21769C3.79658 4.34221 3.72662 4.51111 3.72662 4.68721C3.72662 4.86332 3.79658 5.03222 3.92111 5.15674C4.04564 5.28127 4.21453 5.35123 4.39064 5.35123ZM2.06659 4.68721C2.06627 4.12767 2.26784 3.58679 2.63428 3.16392C3.00071 2.74105 3.50741 2.46458 4.06131 2.38529C4.61521 2.306 5.17912 2.42922 5.64948 2.7323C6.11983 3.03538 6.46504 3.49799 6.62172 4.03515L5.68878 4.96809C5.74954 4.68775 5.71789 4.39528 5.59858 4.13442C5.47927 3.87356 5.27871 3.65835 5.02689 3.52098C4.77508 3.3836 4.48556 3.33145 4.20164 3.37233C3.91772 3.41321 3.65466 3.54491 3.45183 3.74775C3.249 3.95058 3.11729 4.21363 3.07642 4.49755C3.03554 4.78147 3.08769 5.07099 3.22506 5.32281C3.36244 5.57462 3.57765 5.77518 3.83851 5.8945C4.09936 6.01381 4.39184 6.04545 4.67218 5.98469L3.95438 6.70316C3.88461 6.77273 3.81898 6.84634 3.75783 6.92361C3.271 6.78569 2.84249 6.49266 2.53736 6.08903C2.23224 5.68539 2.06652 5.1932 2.06659 4.68721ZM4.39064 1.69916C4.98813 1.69898 5.57196 1.87793 6.06672 2.2129C6.56149 2.54788 6.94447 3.02349 7.16621 3.57831C7.46474 3.40959 7.8073 3.33506 8.14895 3.3645C7.83585 2.47863 7.21978 1.73189 6.40954 1.25615C5.59931 0.780421 4.64703 0.606298 3.72087 0.764536C2.79472 0.922775 1.95427 1.40319 1.34795 2.12095C0.741626 2.83871 0.408439 3.74764 0.407227 4.68721C0.407269 5.52556 0.671677 6.34254 1.16284 7.02194C1.654 7.70133 2.34689 8.20855 3.14296 8.47142L3.29435 7.86783C3.3249 7.74566 3.36474 7.62613 3.41255 7.5106C2.74622 7.27824 2.18361 6.8176 1.82432 6.21025C1.46502 5.60289 1.33222 4.88799 1.44943 4.19212C1.56665 3.49625 1.9263 2.86429 2.46473 2.40815C3.00316 1.952 3.68563 1.70108 4.3913 1.69982L4.39064 1.69916ZM6.70538 4.8904L4.59382 7.00196L4.42384 7.17261C4.18756 7.40889 4.02 7.70498 3.93911 8.02919L3.78971 8.62547L3.73725 8.83264C3.72023 8.90053 3.7211 8.97167 3.73976 9.03912C3.75842 9.10657 3.79424 9.16804 3.84373 9.21753C3.89322 9.26702 3.95469 9.30284 4.02214 9.3215C4.08959 9.34016 4.16073 9.34103 4.22862 9.32401L5.03207 9.12282C5.35625 9.04186 5.65233 8.87431 5.88865 8.63809L8.73593 5.7908C8.92655 5.60344 9.03737 5.34965 9.04523 5.08249C9.05308 4.81532 8.95736 4.55546 8.77808 4.35722C8.59879 4.15899 8.34982 4.03773 8.08321 4.01879C7.8166 3.99985 7.55299 4.08471 7.34748 4.25561C7.32071 4.27761 7.29501 4.30088 7.27046 4.32533L6.70605 4.88974L6.70538 4.8904Z" fill="#293066"/>
</svg>
