<svg width="23" height="23" viewBox="0 0 23 23" fill="none" xmlns="http://www.w3.org/2000/svg">
<path id="Vector" d="M10.4838 8.25065C10.7342 8.01077 11.0678 7.86801 11.421 7.84967C11.7741 7.83134 12.1219 7.93873 12.3977 8.15128L12.5138 8.25065L15.76 11.3641C15.9683 11.5623 16.0899 11.8295 16.0999 12.1111C16.1098 12.3926 16.0074 12.6671 15.8135 12.8784C15.6196 13.0897 15.3489 13.2219 15.0569 13.2479C14.7649 13.2738 14.4736 13.1916 14.2427 13.018L14.1346 12.9263L12.6483 11.4999V20.9772C12.648 21.2586 12.5358 21.5292 12.3347 21.7338C12.1335 21.9385 11.8586 22.0616 11.5662 22.0781C11.2737 22.0946 10.9857 22.0032 10.761 21.8226C10.5363 21.642 10.3919 21.3858 10.3573 21.1063L10.3493 20.9772V11.4999L8.86298 12.9263C8.6564 13.1261 8.37818 13.2425 8.08522 13.2517C7.79227 13.2609 7.5067 13.1623 7.28692 12.9761C7.06714 12.7898 6.92975 12.5299 6.90284 12.2496C6.87594 11.9692 6.96155 11.6896 7.14217 11.4679L7.23758 11.363L10.4838 8.25065ZM10.924 2.50568e-08C14.1243 2.50568e-08 16.8555 1.93211 17.9199 4.65031C19.5103 5.06744 20.8925 6.01793 21.8161 7.32955C22.7396 8.64118 23.1435 10.2272 22.9545 11.8002C22.7655 13.3731 21.9961 14.8291 20.7857 15.9042C19.5754 16.9792 18.0041 17.6023 16.3566 17.6606L16.0968 17.665H14.9473V15.4569C15.6103 15.4569 16.2593 15.2734 16.8165 14.9283C17.3737 14.5833 17.8155 14.0912 18.089 13.5112C18.3625 12.9311 18.4562 12.2876 18.3587 11.6577C18.2612 11.0278 17.9768 10.4383 17.5394 9.95974L17.3842 9.80075L14.138 6.6884C13.4654 6.0436 12.5622 5.66925 11.6123 5.64156C10.6624 5.61387 9.73718 5.93492 9.02506 6.53935L8.85953 6.6884L5.61334 9.80186C5.14528 10.251 4.8216 10.8199 4.68093 11.4408C4.54026 12.0618 4.58852 12.7084 4.81996 13.3038C5.0514 13.8991 5.45626 14.4179 5.98622 14.7982C6.51619 15.1786 7.1489 15.4046 7.80889 15.4491L8.05028 15.4569V17.665H5.75128C4.43017 17.6658 3.14909 17.2295 2.12367 16.4294C1.09825 15.6294 0.391086 14.5145 0.121209 13.2724C-0.148667 12.0302 0.0352177 10.7367 0.641915 9.60957C1.24861 8.4824 2.24108 7.59038 3.45227 7.08366C3.47767 5.19648 4.27606 3.39487 5.67455 2.06902C7.07303 0.743181 8.95902 -0.00015758 10.924 2.50568e-08Z" fill="#293066"/>
</svg>
