<svg width="28" height="28" viewBox="0 0 28 28" fill="none" xmlns="http://www.w3.org/2000/svg">
<g filter="url(#filter0_d_482_195)">
<path fill-rule="evenodd" clip-rule="evenodd" d="M7.25 8.48675V6.50602C7.25 4.78052 7.96116 3.12569 9.22703 1.90557C10.4929 0.685454 12.2098 0 14 0C15.7902 0 17.5071 0.685454 18.773 1.90557C20.0388 3.12569 20.75 4.78052 20.75 6.50602V8.48675C21.865 8.56675 22.59 8.76916 23.121 9.28096C24 10.1272 24 11.4911 24 14.2169C24 16.9427 24 18.3065 23.121 19.1528C22.243 20 20.828 20 18 20H10C7.172 20 5.757 20 4.879 19.1528C4 18.3065 4 16.9427 4 14.2169C4 11.4911 4 10.1272 4.879 9.28096C5.409 8.76916 6.135 8.56675 7.25 8.48675ZM8.75 6.50602C8.75 5.16396 9.30312 3.87687 10.2877 2.92789C11.2723 1.97891 12.6076 1.44578 14 1.44578C15.3924 1.44578 16.7277 1.97891 17.7123 2.92789C18.6969 3.87687 19.25 5.16396 19.25 6.50602V8.43759C18.867 8.43374 18.451 8.43373 18 8.43373H10C9.548 8.43373 9.133 8.43374 8.75 8.43759V6.50602ZM10 15.1807C10.2652 15.1807 10.5196 15.0792 10.7071 14.8984C10.8946 14.7177 11 14.4725 11 14.2169C11 13.9612 10.8946 13.7161 10.7071 13.5353C10.5196 13.3546 10.2652 13.253 10 13.253C9.73478 13.253 9.48043 13.3546 9.29289 13.5353C9.10536 13.7161 9 13.9612 9 14.2169C9 14.4725 9.10536 14.7177 9.29289 14.8984C9.48043 15.0792 9.73478 15.1807 10 15.1807ZM14 15.1807C14.2652 15.1807 14.5196 15.0792 14.7071 14.8984C14.8946 14.7177 15 14.4725 15 14.2169C15 13.9612 14.8946 13.7161 14.7071 13.5353C14.5196 13.3546 14.2652 13.253 14 13.253C13.7348 13.253 13.4804 13.3546 13.2929 13.5353C13.1054 13.7161 13 13.9612 13 14.2169C13 14.4725 13.1054 14.7177 13.2929 14.8984C13.4804 15.0792 13.7348 15.1807 14 15.1807ZM19 14.2169C19 14.4725 18.8946 14.7177 18.7071 14.8984C18.5196 15.0792 18.2652 15.1807 18 15.1807C17.7348 15.1807 17.4804 15.0792 17.2929 14.8984C17.1054 14.7177 17 14.4725 17 14.2169C17 13.9612 17.1054 13.7161 17.2929 13.5353C17.4804 13.3546 17.7348 13.253 18 13.253C18.2652 13.253 18.5196 13.3546 18.7071 13.5353C18.8946 13.7161 19 13.9612 19 14.2169Z" fill="#293066"/>
</g>
<defs>
<filter id="filter0_d_482_195" x="0" y="0" width="28" height="28" filterUnits="userSpaceOnUse" color-interpolation-filters="sRGB">
<feFlood flood-opacity="0" result="BackgroundImageFix"/>
<feColorMatrix in="SourceAlpha" type="matrix" values="0 0 0 0 0 0 0 0 0 0 0 0 0 0 0 0 0 0 127 0" result="hardAlpha"/>
<feOffset dy="4"/>
<feGaussianBlur stdDeviation="2"/>
<feComposite in2="hardAlpha" operator="out"/>
<feColorMatrix type="matrix" values="0 0 0 0 0 0 0 0 0 0 0 0 0 0 0 0 0 0 0.25 0"/>
<feBlend mode="normal" in2="BackgroundImageFix" result="effect1_dropShadow_482_195"/>
<feBlend mode="normal" in="SourceGraphic" in2="effect1_dropShadow_482_195" result="shape"/>
</filter>
</defs>
</svg>
