<svg width="13" height="12" viewBox="0 0 13 12" fill="none" xmlns="http://www.w3.org/2000/svg">
<path d="M11.746 9C12.1001 9 12.3987 9.12 12.6416 9.36C12.8846 9.6 13.004 9.88 12.9999 10.2L8.03985 12L3.71602 10.8V5.4H4.92052L9.41112 7.014C9.73232 7.138 9.89292 7.362 9.89292 7.686C9.89292 7.874 9.82291 8.038 9.6829 8.178C9.54289 8.318 9.36582 8.392 9.15169 8.4H7.42216L6.3412 7.998L6.13736 8.562L7.42216 9H11.746ZM9.27523 0.738C9.71173 0.246 10.2677 0 10.943 0C11.503 0 11.9766 0.2 12.3637 0.6C12.7508 1 12.9567 1.46 12.9814 1.98C12.9814 2.392 12.7755 2.884 12.3637 3.456C11.9519 4.028 11.5463 4.506 11.1468 4.89C10.7474 5.274 10.1235 5.844 9.27523 6.6C8.4187 5.844 7.78865 5.274 7.3851 4.89C6.98154 4.506 6.57592 4.028 6.16825 3.456C5.76057 2.884 5.56085 2.392 5.56909 1.98C5.56909 1.436 5.76881 0.976 6.16825 0.6C6.56769 0.224 7.04949 0.024 7.61364 0C8.27251 0 8.82637 0.246 9.27523 0.738ZM0 5.4H2.48064V12H0V5.4Z" fill="white"/>
</svg>
