<svg width="19" height="17" viewBox="0 0 19 17" fill="none" xmlns="http://www.w3.org/2000/svg">
<path d="M17.1672 12.75C17.6848 12.75 18.1211 12.92 18.4762 13.26C18.8313 13.6 19.0059 13.9967 18.9998 14.45L11.7505 17L5.43111 15.3V7.65H7.19152L13.7547 9.9365C14.2242 10.1122 14.4589 10.4295 14.4589 10.8885C14.4589 11.1548 14.3566 11.3872 14.1519 11.5855C13.9473 11.7838 13.6885 11.8887 13.3755 11.9H10.8478L9.26791 11.3305L8.96999 12.1295L10.8478 12.75H17.1672ZM13.5561 1.0455C14.1941 0.3485 15.0066 0 15.9936 0C16.8121 0 17.5042 0.283333 18.07 0.85C18.6357 1.41667 18.9367 2.06833 18.9728 2.805C18.9728 3.38867 18.6718 4.08567 18.07 4.896C17.4681 5.70633 16.8753 6.3835 16.2915 6.9275C15.7077 7.4715 14.7959 8.279 13.5561 9.35C12.3043 8.279 11.3834 7.4715 10.7936 6.9275C10.2038 6.3835 9.61097 5.70633 9.01513 4.896C8.4193 4.08567 8.1274 3.38867 8.13944 2.805C8.13944 2.03433 8.43134 1.38267 9.01513 0.85C9.59893 0.317333 10.3031 0.034 11.1276 0C12.0906 0 12.9001 0.3485 13.5561 1.0455ZM0 7.65H3.62555V17H0V7.65Z" fill="white"/>
</svg>
