<?xml version="1.0" encoding="utf-8"?>
<!-- Generator: Adobe Illustrator 27.6.1, SVG Export Plug-In . SVG Version: 6.00 Build 0)  -->
<svg version="1.1" id="Layer_1" xmlns="http://www.w3.org/2000/svg" xmlns:xlink="http://www.w3.org/1999/xlink" x="0px" y="0px"
	 viewBox="0 0 24 24" style="enable-background:new 0 0 24 24;" xml:space="preserve">
<style type="text/css">
	.st0{fill-rule:evenodd;clip-rule:evenodd;fill:#293066;}
</style>
<path class="st0" d="M5.3,21.7c-0.2,0-0.4,0-0.5-0.1c-0.3,0-0.5-0.2-0.6-0.5c-0.1-0.3,0-0.5,0.1-0.7c0.4-0.5,0.7-1.1,0.8-1.7
	c0-0.1,0-0.3-0.3-0.5c-1.6-1.6-2.7-3.8-2.7-6.2c0-5,4.4-9,9.8-9c5.3,0,9.8,4,9.8,9c0,5-4.4,9-9.8,9c-0.8,0-1.6-0.1-2.4-0.3
	c-1,0.7-2.3,1-3.6,1C5.8,21.8,5.6,21.7,5.3,21.7z"/>
</svg>
