<?xml version="1.0" encoding="UTF-8"?>
<!-- Generator: visioncortex VTracer 0.6.2 -->
<svg version="1.1" xmlns="http://www.w3.org/2000/svg" width="1280" height="1280">
<path d="M0 0 C422.4 0 844.8 0 1280 0 C1280 422.4 1280 844.8 1280 1280 C857.6 1280 435.2 1280 0 1280 C0 857.6 0 435.2 0 0 Z " fill="#FDFDFD" transform="translate(0,0)"/>
<path d="M0 0 C1.175625 0.1134375 2.35125 0.226875 3.5625 0.34375 C32.99996303 3.88714833 62.14569148 15.83246786 84.34277344 35.53222656 C85.81386388 36.83514285 87.31511758 38.10382445 88.8203125 39.3671875 C100.33827728 49.22425453 108.98087416 61.25373591 117 74 C117.63808594 74.99644531 118.27617188 75.99289063 118.93359375 77.01953125 C139.21104098 110.03247986 144.629073 153.23957319 135.9296875 190.7265625 C130.93251322 211.1836816 122.63794604 230.0320038 110.0625 247 C107.71673559 249.80525572 107.71673559 249.80525572 108 253 C108.90060433 252.99354745 109.80120867 252.9870949 110.72910404 252.98044682 C132.64594589 252.82583545 154.5626937 252.71000998 176.47996616 252.6373148 C187.07904715 252.60122514 197.67776404 252.55202499 208.27661133 252.47192383 C217.51493684 252.40213815 226.75299866 252.35698877 235.99158043 252.34138054 C240.88318807 252.33225706 245.77404139 252.31082711 250.66540718 252.2598896 C255.27108265 252.21231654 259.87569434 252.1977309 264.48159218 252.20824623 C266.17028335 252.20632307 267.8590107 252.19243265 269.54748917 252.16556168 C282.29498379 251.97267345 282.29498379 251.97267345 286.51527214 254.51553154 C288.28767158 256.2550898 289.64021907 257.93044849 291 260 C292.15628906 261.35544922 292.15628906 261.35544922 293.3359375 262.73828125 C294.00882813 263.58777344 294.68171875 264.43726563 295.375 265.3125 C298.32218494 268.97400265 301.33167812 272.52809327 304.5 276 C308.41891252 280.29991791 312.09170869 284.75919547 315.75 289.28125 C317.93501569 291.92147729 320.19171391 294.4672972 322.5 297 C326.41891252 301.29991791 330.09170869 305.75919547 333.75 310.28125 C335.93501569 312.92147729 338.19171391 315.4672972 340.5 318 C344.41523996 322.29588829 348.08560263 326.74989923 351.73828125 331.26953125 C354.63096556 334.76173563 357.67417173 338.09783815 360.76171875 341.41796875 C361.50035156 342.27003906 362.23898437 343.12210937 363 344 C363.49841967 344.54899963 363.99683933 345.09799927 364.51036263 345.66363525 C368.98414532 350.98919991 369.83567612 354.78186605 369.58935547 361.62890625 C369.58047806 362.55666367 369.57160065 363.48442108 369.56245422 364.44029236 C369.52622205 367.48223754 369.4470325 370.52141401 369.3671875 373.5625 C369.3335307 375.68094898 369.30257464 377.79944243 369.27420044 379.91796875 C369.19254818 385.47528606 369.07436135 391.0312409 368.94842529 396.58770752 C368.8262591 402.26513501 368.73883225 407.94308726 368.6484375 413.62109375 C368.46619289 424.74818072 368.24532787 435.87413758 368 447 C367.15703369 447.02505615 366.31406738 447.0501123 365.44555664 447.07592773 C362.32758326 447.17088155 359.20978497 447.27012448 356.09204102 447.37231445 C354.74085853 447.41571223 353.38961947 447.4573837 352.03833008 447.49731445 C350.09963299 447.55489952 348.16113724 447.61914298 346.22265625 447.68359375 C345.05484619 447.72025146 343.88703613 447.75690918 342.68383789 447.79467773 C340.08220205 447.70076188 340.08220205 447.70076188 339 449 C338.89721023 450.95980316 338.86598998 452.92336618 338.8613348 454.88585758 C338.85312313 456.81690361 338.85312313 456.81690361 338.84474558 458.78696066 C338.84366916 460.23428088 338.84268451 461.68160117 338.84178162 463.12892151 C338.83722009 464.65183724 338.83222068 466.1747517 338.82681805 467.69766468 C338.81318091 471.90258331 338.80580254 476.10749382 338.79939139 480.31242883 C338.79141181 484.83938899 338.7777057 489.36633209 338.76467896 493.89328003 C338.7428814 501.74318981 338.72474896 509.59310129 338.70907402 517.44302559 C338.68640516 528.79283535 338.65825826 540.14262626 338.62875474 551.49242007 C338.58104215 569.90468776 338.53778794 588.31696313 338.49731445 606.72924805 C338.45797816 624.61987914 338.41655644 642.51050339 338.37231445 660.40112305 C338.36822804 662.05403101 338.36822804 662.05403101 338.36405908 663.74033106 C338.35037991 669.26818281 338.33665958 674.79603445 338.32291877 680.32388604 C338.2088964 726.21590977 338.10209983 772.1079483 338 818 C270.61091675 818.01713046 203.22183325 818.03303117 135.83274841 818.04234314 C134.83620203 818.0424812 133.83965564 818.04261925 132.81291088 818.04276149 C111.15800736 818.04575404 89.50310381 818.04852427 67.84820024 818.05106533 C57.22944794 818.05231272 46.61069565 818.05360927 35.99194336 818.05493164 C34.40685882 818.05512778 34.40685882 818.05512778 32.78975237 818.05532788 C-1.494038 818.05959322 -35.77782673 818.06710749 -70.0616161 818.07629722 C-105.27724662 818.08571963 -140.49287623 818.09188308 -175.70850799 818.09391499 C-180.67648663 818.09420317 -185.64446528 818.0945288 -190.61244392 818.09487724 C-191.59026389 818.09494467 -192.56808386 818.09501209 -193.57553473 818.09508156 C-209.34902779 818.09626569 -225.12251805 818.10091023 -240.89600996 818.10683203 C-256.73352089 818.11270464 -272.57102903 818.11497167 -288.40854102 818.11350138 C-297.8309248 818.11273777 -307.2532984 818.11479544 -316.67568036 818.12079754 C-322.95765244 818.12452768 -329.23961779 818.1246777 -335.52159033 818.12183181 C-339.10875254 818.12031175 -342.6958954 818.12042849 -346.2830556 818.12488318 C-350.1338697 818.12962933 -353.98465537 818.12676654 -357.83547115 818.12304783 C-358.96711637 818.12567484 -360.09876158 818.12830186 -361.26469907 818.13100848 C-362.28037233 818.12876118 -363.29604558 818.12651389 -364.34249681 818.1241985 C-365.66560246 818.12443247 -365.66560246 818.12443247 -367.01543751 818.12467116 C-369 818 -369 818 -370 817 C-370.10278977 815.04019684 -370.13401002 813.07663382 -370.1386652 811.11414242 C-370.14413964 809.8267784 -370.14961409 808.53941439 -370.15525442 807.21303934 C-370.15633084 805.76571912 -370.15731549 804.31839883 -370.15821838 802.87107849 C-370.16277991 801.34816276 -370.16777932 799.8252483 -370.17318195 798.30233532 C-370.18681909 794.09741669 -370.19419746 789.89250618 -370.20060861 785.68757117 C-370.20858819 781.16061101 -370.2222943 776.63366791 -370.23532104 772.10671997 C-370.2571186 764.25681019 -370.27525104 756.40689871 -370.29092598 748.55697441 C-370.31359484 737.20716465 -370.34174174 725.85737374 -370.37124526 714.50757993 C-370.41895785 696.09531224 -370.46221206 677.68303687 -370.50268555 659.27075195 C-370.54202184 641.38012086 -370.58344356 623.48949661 -370.62768555 605.59887695 C-370.63040982 604.49693831 -370.63313409 603.39499966 -370.63594092 602.25966894 C-370.64962009 596.73181719 -370.66334042 591.20396555 -370.67708123 585.67611396 C-370.7911036 539.78409023 -370.89790017 493.8920517 -371 448 C-371.84296631 447.97494385 -372.68593262 447.9498877 -373.55444336 447.92407227 C-376.67241674 447.82911845 -379.79021503 447.72987552 -382.90795898 447.62768555 C-384.25914147 447.58428777 -385.61038053 447.5426163 -386.96166992 447.50268555 C-388.90036701 447.44510048 -390.83886276 447.38085702 -392.77734375 447.31640625 C-393.94515381 447.27974854 -395.11296387 447.24309082 -396.31616211 447.20532227 C-399 447 -399 447 -400 446 C-400.17320351 443.16827117 -400.28169158 440.35889842 -400.34814453 437.52392578 C-400.37250076 436.63436691 -400.39685699 435.74480804 -400.42195129 434.82829285 C-400.63861937 426.59016773 -400.79695122 418.35042721 -400.93959236 410.11071968 C-401.03553922 404.57572118 -401.14910464 399.04240683 -401.30664062 393.50878906 C-401.45866331 388.15866402 -401.56532076 382.80937416 -401.6406517 377.45763779 C-401.67681573 375.42330828 -401.72867056 373.38919145 -401.79693985 371.35568619 C-402.37777709 353.45599802 -402.37777709 353.45599802 -396.6628418 346.4050293 C-395.14366188 344.90039911 -393.59215806 343.42718336 -392 342 C-390.88080867 340.72865794 -389.77598535 339.44418713 -388.69921875 338.13671875 C-387.69678065 336.98569889 -386.69286992 335.83595993 -385.6875 334.6875 C-384.56738657 333.40132181 -383.44760251 332.11485672 -382.328125 330.828125 C-381.49571289 329.87196289 -381.49571289 329.87196289 -380.64648438 328.89648438 C-378.06362591 325.92144811 -375.49943086 322.9305594 -372.9375 319.9375 C-372.44660889 319.36410889 -371.95571777 318.79071777 -371.44995117 318.19995117 C-370.46114797 317.04469482 -369.47245951 315.88934024 -368.48388672 314.73388672 C-365.99104476 311.82105954 -363.49537234 308.91065939 -361 306 C-359.9999866 304.83334482 -358.99998659 303.66667816 -358 302.5 C-352 295.5 -346 288.5 -340 281.5 C-339.50443604 280.92169434 -339.00887207 280.34338867 -338.49829102 279.74755859 C-337.50457796 278.58852356 -336.51028046 277.42998933 -335.51538086 276.27197266 C-332.91401594 273.24252422 -330.3253117 270.20337479 -327.75390625 267.1484375 C-326.95243164 266.20097656 -326.95243164 266.20097656 -326.13476562 265.234375 C-325.11793241 264.0318592 -324.10465797 262.82632114 -323.09570312 261.6171875 C-322.63228516 261.070625 -322.16886719 260.5240625 -321.69140625 259.9609375 C-321.29123291 259.48446777 -320.89105957 259.00799805 -320.47875977 258.51708984 C-317.33409791 255.29091703 -315.21364308 253.17675459 -310.62048626 252.50780869 C-309.31983636 252.51149586 -308.01918646 252.51518303 -306.67912292 252.51898193 C-305.58853159 252.51385538 -305.58853159 252.51385538 -304.4759081 252.50862527 C-302.04497689 252.50204804 -299.61515527 252.52401852 -297.18432617 252.54589844 C-295.43976874 252.54702696 -293.6952094 252.54639297 -291.95065308 252.54412842 C-287.21746255 252.54298051 -282.48467728 252.56650229 -277.75158095 252.59442425 C-272.80416018 252.61942504 -267.85673018 252.62177886 -262.90925598 252.62652588 C-253.54180952 252.63895953 -244.17454973 252.67178646 -234.80718547 252.71192384 C-224.14224438 252.75662938 -213.47729438 252.77862554 -202.81228292 252.79870558 C-180.87475108 252.8405187 -158.9373873 252.91087839 -137 253 C-138.00994019 251.60261597 -138.00994019 251.60261597 -139.0402832 250.17700195 C-139.93973829 248.9266831 -140.83906406 247.67627121 -141.73828125 246.42578125 C-142.18014771 245.81512817 -142.62201416 245.2044751 -143.07727051 244.57531738 C-158.21221036 223.49226956 -166.12960538 199.47138079 -170 174 C-170.185625 172.89011719 -170.37125 171.78023437 -170.5625 170.63671875 C-173.8099249 143.64249925 -168.48094779 115.50988854 -157 91 C-156.72994141 90.40832031 -156.45988281 89.81664062 -156.18164062 89.20703125 C-138.98050084 51.76702279 -107.91560125 23.40243966 -69.32177734 8.95117188 C-46.87640891 1.00204353 -23.73824676 -2.40153469 0 0 Z " fill="#EFAE74" transform="translate(655,129)"/>
<path d="M0 0 C1.175625 0.1134375 2.35125 0.226875 3.5625 0.34375 C32.99996303 3.88714833 62.14569148 15.83246786 84.34277344 35.53222656 C85.81386388 36.83514285 87.31511758 38.10382445 88.8203125 39.3671875 C100.33827728 49.22425453 108.98087416 61.25373591 117 74 C117.63808594 74.99644531 118.27617188 75.99289063 118.93359375 77.01953125 C139.21104098 110.03247986 144.629073 153.23957319 135.9296875 190.7265625 C131.31860891 209.60310728 123.89608829 226.87574379 113 243 C112.44570313 243.83015625 111.89140625 244.6603125 111.3203125 245.515625 C103.02839702 257.66691129 93.37026243 269.75315838 81 278 C82.97577026 278.01401855 82.97577026 278.01401855 84.99145508 278.02832031 C89.87266008 278.06815514 94.75323046 278.13389573 99.6340332 278.20751953 C101.74755712 278.23576695 103.86118743 278.25696264 105.97485352 278.27099609 C109.011135 278.29237334 112.04613229 278.33899669 115.08203125 278.390625 C116.5024749 278.39246796 116.5024749 278.39246796 117.95161438 278.39434814 C124.45790501 278.54002442 124.45790501 278.54002442 126.98071289 280.68066406 C128.15101056 283.34361685 129.25372518 285.97555189 130.2265625 288.71875 C130.6184375 289.81574219 131.0103125 290.91273438 131.4140625 292.04296875 C131.81367187 293.18378906 132.21328125 294.32460938 132.625 295.5 C133.23601562 297.21123047 133.23601562 297.21123047 133.859375 298.95703125 C137.10352963 308.09867226 137.10352963 308.09867226 138 312 C137.34 311.67 136.68 311.34 136 311 C136 310.34 136 309.68 136 309 C135.42797852 308.8050293 134.85595703 308.61005859 134.26660156 308.40917969 C131.62493315 306.7668154 130.63296274 304.84745598 129.00006104 302.26312256 C125.75264125 297.61914158 122.4681337 294.5879791 116.8527832 293.25024414 C108.06815578 292.1970021 99.2658628 292.43902383 90.44067383 292.69934082 C87.53474799 292.76654015 84.63101148 292.7596594 81.72447109 292.75239944 C66.48960176 292.73542984 53.52278877 293.35229246 40 301 C4.75568168 315.42652972 -37.85237007 314.43673522 -72.76220703 299.8425293 C-74.42023969 299.13223865 -76.07388305 298.41158182 -77.72216797 297.67895508 C-78.46998535 297.34661865 -79.21780273 297.01428223 -79.98828125 296.671875 C-80.64352783 296.3737793 -81.29877441 296.07568359 -81.97387695 295.76855469 C-86.28607216 294.13284068 -90.53644115 293.8510212 -95.11621094 293.74365234 C-96.32807068 293.71467865 -97.53993042 293.68570496 -98.78851318 293.65585327 C-103.5907704 293.57076324 -108.39294718 293.49854129 -113.19573593 293.45155907 C-116.83372998 293.41581444 -120.46950927 293.36251006 -124.10644531 293.26611328 C-127.63973236 293.17278556 -131.17106334 293.12456474 -134.705513 293.10716629 C-136.68945147 293.08640755 -138.67276414 293.021055 -140.65570068 292.9546814 C-147.46317758 292.96884661 -151.29219719 293.48569677 -156.2409668 298.37915039 C-157.53100318 299.88855929 -158.78983312 301.4258319 -160 303 C-160.79535156 303.93972656 -161.59070313 304.87945312 -162.41015625 305.84765625 C-162.95542969 306.57855469 -163.50070312 307.30945313 -164.0625 308.0625 C-164.63097656 308.81660156 -165.19945312 309.57070313 -165.78515625 310.34765625 C-166.18605469 310.89292969 -166.58695312 311.43820312 -167 312 C-168.55269595 308.0453167 -167.37640873 305.40667877 -165.98046875 301.51953125 C-165.65252068 300.59934456 -165.65252068 300.59934456 -165.31794739 299.66056824 C-164.85474703 298.36860862 -164.38625768 297.07853458 -163.9128418 295.7902832 C-163.18784719 293.81344667 -162.48245056 291.83039923 -161.77929688 289.84570312 C-158.27845788 280.13922894 -158.27845788 280.13922894 -156 279 C-154.5505207 278.88232528 -153.09606004 278.82310732 -151.64208984 278.79467773 C-150.74130707 278.77473251 -149.84052429 278.75478729 -148.91244507 278.73423767 C-147.45144882 278.70916893 -147.45144882 278.70916893 -145.9609375 278.68359375 C-144.46694931 278.6524221 -144.46694931 278.6524221 -142.94277954 278.62062073 C-139.75359146 278.55510958 -136.56431942 278.49623296 -133.375 278.4375 C-131.21613707 278.39431627 -129.0572827 278.35070203 -126.8984375 278.30664062 C-121.5990477 278.19942664 -116.29957394 278.09766315 -111 278 C-111.94246582 277.20480957 -112.88493164 276.40961914 -113.85595703 275.59033203 C-115.11505495 274.52133091 -116.37399854 273.45214799 -117.6328125 272.3828125 C-118.2513208 271.86178955 -118.8698291 271.3407666 -119.50708008 270.80395508 C-125.14969699 265.99975462 -130.43873834 260.86447928 -135 255 C-135 254.34 -135 253.68 -135 253 C-135.60328125 252.74863281 -136.2065625 252.49726563 -136.828125 252.23828125 C-139.32546592 250.8144376 -140.22513719 249.60485604 -141.75 247.1875 C-142.51957031 245.96933594 -142.51957031 245.96933594 -143.3046875 244.7265625 C-143.86414063 243.82679688 -144.42359375 242.92703125 -145 242 C-145.93199219 240.58847656 -145.93199219 240.58847656 -146.8828125 239.1484375 C-158.05205186 221.84706673 -165.38530582 202.24228739 -169 182 C-169.309375 180.2984375 -169.309375 180.2984375 -169.625 178.5625 C-174.3040933 148.92824242 -169.70702351 118.12735357 -157 91 C-156.72994141 90.40832031 -156.45988281 89.81664062 -156.18164062 89.20703125 C-138.98050084 51.76702279 -107.91560125 23.40243966 -69.32177734 8.95117188 C-46.87640891 1.00204353 -23.73824676 -2.40153469 0 0 Z " fill="#FCEE23" transform="translate(655,129)"/>
<path d="M0 0 C2.40643519 2.13588922 4.66567568 4.33379295 6.890625 6.65625 C7.9319594 7.63577003 8.97355618 8.61501133 10.015625 9.59375 C11.890625 11.65625 11.890625 11.65625 11.890625 13.65625 C13.540625 13.98625 15.190625 14.31625 16.890625 14.65625 C17.303125 14.15996094 17.715625 13.66367187 18.140625 13.15234375 C30.40622477 -1.27616312 45.34630466 -9.62159251 63.890625 -13.34375 C64.85613281 -13.5396875 65.82164062 -13.735625 66.81640625 -13.9375 C83.1591357 -16.09714913 102.44969698 -10.80113735 115.78125 -1.078125 C129.52944919 10.22594989 137.80943937 23.84853993 139.890625 41.65625 C141.66011978 73.81741419 129.98419593 100.4530222 110.890625 125.65625 C110.45492187 126.23616699 110.01921875 126.81608398 109.5703125 127.41357422 C99.57684991 140.65418163 88.19697512 152.53693649 76.48120117 164.25097656 C74.81984792 165.91453808 73.1667181 167.58600104 71.51367188 169.2578125 C65.68102201 175.12031884 59.76346002 180.61804693 53.26928711 185.7512207 C50.9355266 187.62028909 48.71994883 189.57461182 46.515625 191.59375 C41.41608087 196.17423339 35.99903231 200.31071064 30.52050781 204.42041016 C28.92757963 205.62822958 27.35793988 206.86656936 25.7890625 208.10546875 C24.83257813 208.84410156 23.87609375 209.58273437 22.890625 210.34375 C22.045 211.00761719 21.199375 211.67148437 20.328125 212.35546875 C17.890625 213.65625 17.890625 213.65625 15.48046875 213.63671875 C12.08375101 212.35078187 9.34108205 210.43419431 6.453125 208.28125 C5.53950195 207.61295166 5.53950195 207.61295166 4.60742188 206.93115234 C-4.59408316 200.15296248 -13.54174068 193.07554922 -22.234375 185.65625 C-23.00394531 185.00003662 -23.00394531 185.00003662 -23.7890625 184.33056641 C-33.61871543 175.84823286 -43.0238203 166.92851656 -52.20141602 157.74951172 C-53.80142019 156.15171107 -55.40931115 154.56213449 -57.01757812 152.97265625 C-63.49873853 146.52668413 -69.46075946 139.85854526 -75.109375 132.65625 C-76.03768047 131.50253984 -76.96605208 130.34888288 -77.89453125 129.1953125 C-97.69542581 103.85831878 -113.32108233 72.90797658 -109.7109375 40.02734375 C-107.48786414 27.33850295 -101.53361043 14.57448621 -92.109375 5.65625 C-91.56410156 5.08003906 -91.01882813 4.50382813 -90.45703125 3.91015625 C-66.80653827 -19.32632373 -25.75443916 -19.41289384 0 0 Z " fill="#B61D33" transform="translate(624.109375,675.34375)"/>
<path d="M0 0 C1.175625 0.1134375 2.35125 0.226875 3.5625 0.34375 C32.99996303 3.88714833 62.14569148 15.83246786 84.34277344 35.53222656 C85.81386388 36.83514285 87.31511758 38.10382445 88.8203125 39.3671875 C100.33827728 49.22425453 108.98087416 61.25373591 117 74 C117.63808594 74.99644531 118.27617188 75.99289063 118.93359375 77.01953125 C139.21104098 110.03247986 144.629073 153.23957319 135.9296875 190.7265625 C131.31860891 209.60310728 123.89608829 226.87574379 113 243 C112.44570313 243.83015625 111.89140625 244.6603125 111.3203125 245.515625 C103.02839702 257.66691129 93.37026243 269.75315838 81 278 C82.97577026 278.01401855 82.97577026 278.01401855 84.99145508 278.02832031 C89.87266008 278.06815514 94.75323046 278.13389573 99.6340332 278.20751953 C101.74755712 278.23576695 103.86118743 278.25696264 105.97485352 278.27099609 C109.011135 278.29237334 112.04613229 278.33899669 115.08203125 278.390625 C116.5024749 278.39246796 116.5024749 278.39246796 117.95161438 278.39434814 C124.45790501 278.54002442 124.45790501 278.54002442 126.98071289 280.68066406 C128.15101056 283.34361685 129.25372518 285.97555189 130.2265625 288.71875 C130.6184375 289.81574219 131.0103125 290.91273438 131.4140625 292.04296875 C131.81367187 293.18378906 132.21328125 294.32460938 132.625 295.5 C133.23601562 297.21123047 133.23601562 297.21123047 133.859375 298.95703125 C137.10352963 308.09867226 137.10352963 308.09867226 138 312 C137.34 311.67 136.68 311.34 136 311 C136 310.34 136 309.68 136 309 C135.42797852 308.8050293 134.85595703 308.61005859 134.26660156 308.40917969 C131.62493315 306.7668154 130.63296274 304.84745598 129.00006104 302.26312256 C125.75264125 297.61914158 122.4681337 294.5879791 116.8527832 293.25024414 C108.06815578 292.1970021 99.2658628 292.43902383 90.44067383 292.69934082 C87.53474799 292.76654015 84.63101148 292.7596594 81.72447109 292.75239944 C66.48960176 292.73542984 53.52278877 293.35229246 40 301 C4.75568168 315.42652972 -37.85237007 314.43673522 -72.76220703 299.8425293 C-74.42023969 299.13223865 -76.07388305 298.41158182 -77.72216797 297.67895508 C-78.46998535 297.34661865 -79.21780273 297.01428223 -79.98828125 296.671875 C-80.64352783 296.3737793 -81.29877441 296.07568359 -81.97387695 295.76855469 C-86.28607216 294.13284068 -90.53644115 293.8510212 -95.11621094 293.74365234 C-96.32807068 293.71467865 -97.53993042 293.68570496 -98.78851318 293.65585327 C-103.5907704 293.57076324 -108.39294718 293.49854129 -113.19573593 293.45155907 C-116.83372998 293.41581444 -120.46950927 293.36251006 -124.10644531 293.26611328 C-127.63973236 293.17278556 -131.17106334 293.12456474 -134.705513 293.10716629 C-136.68945147 293.08640755 -138.67276414 293.021055 -140.65570068 292.9546814 C-147.46317758 292.96884661 -151.29219719 293.48569677 -156.2409668 298.37915039 C-157.53100318 299.88855929 -158.78983312 301.4258319 -160 303 C-160.79535156 303.93972656 -161.59070313 304.87945312 -162.41015625 305.84765625 C-162.95542969 306.57855469 -163.50070312 307.30945313 -164.0625 308.0625 C-164.63097656 308.81660156 -165.19945312 309.57070313 -165.78515625 310.34765625 C-166.18605469 310.89292969 -166.58695312 311.43820312 -167 312 C-168.55269595 308.0453167 -167.37640873 305.40667877 -165.98046875 301.51953125 C-165.65252068 300.59934456 -165.65252068 300.59934456 -165.31794739 299.66056824 C-164.85474703 298.36860862 -164.38625768 297.07853458 -163.9128418 295.7902832 C-163.18784719 293.81344667 -162.48245056 291.83039923 -161.77929688 289.84570312 C-158.27845788 280.13922894 -158.27845788 280.13922894 -156 279 C-154.5505207 278.88232528 -153.09606004 278.82310732 -151.64208984 278.79467773 C-150.74130707 278.77473251 -149.84052429 278.75478729 -148.91244507 278.73423767 C-147.45144882 278.70916893 -147.45144882 278.70916893 -145.9609375 278.68359375 C-144.46694931 278.6524221 -144.46694931 278.6524221 -142.94277954 278.62062073 C-139.75359146 278.55510958 -136.56431942 278.49623296 -133.375 278.4375 C-131.21613707 278.39431627 -129.0572827 278.35070203 -126.8984375 278.30664062 C-121.5990477 278.19942664 -116.29957394 278.09766315 -111 278 C-111.94246582 277.20480957 -112.88493164 276.40961914 -113.85595703 275.59033203 C-115.11505495 274.52133091 -116.37399854 273.45214799 -117.6328125 272.3828125 C-118.2513208 271.86178955 -118.8698291 271.3407666 -119.50708008 270.80395508 C-125.14969699 265.99975462 -130.43873834 260.86447928 -135 255 C-135 254.34 -135 253.68 -135 253 C-135.60328125 252.74863281 -136.2065625 252.49726563 -136.828125 252.23828125 C-139.32546592 250.8144376 -140.22513719 249.60485604 -141.75 247.1875 C-142.51957031 245.96933594 -142.51957031 245.96933594 -143.3046875 244.7265625 C-143.86414063 243.82679688 -144.42359375 242.92703125 -145 242 C-145.93199219 240.58847656 -145.93199219 240.58847656 -146.8828125 239.1484375 C-158.05205186 221.84706673 -165.38530582 202.24228739 -169 182 C-169.309375 180.2984375 -169.309375 180.2984375 -169.625 178.5625 C-174.3040933 148.92824242 -169.70702351 118.12735357 -157 91 C-156.72994141 90.40832031 -156.45988281 89.81664062 -156.18164062 89.20703125 C-138.98050084 51.76702279 -107.91560125 23.40243966 -69.32177734 8.95117188 C-46.87640891 1.00204353 -23.73824676 -2.40153469 0 0 Z M-93 62 C-94.00417969 62.84175781 -95.00835938 63.68351562 -96.04296875 64.55078125 C-119.29405421 84.62892446 -133.09630959 114.05994343 -136.75 144.3125 C-136.85902492 145.87341776 -136.94133235 147.43637959 -137 149 C-137.03996094 149.96550781 -137.07992187 150.93101562 -137.12109375 151.92578125 C-137.81004751 185.11714189 -124.9435289 216.32190204 -102.125 240.25 C-87.51875372 254.17204329 -69.75878423 264.95145351 -50.4375 270.75 C-49.4479834 271.04813599 -49.4479834 271.04813599 -48.43847656 271.35229492 C-18.09260991 279.97344773 14.87963475 275.96982241 42.75 261.6875 C71.53558063 245.46677207 92.17333485 219.16519545 101.25 187.5625 C108.63887902 157.97619692 106.41742703 123.57682821 90.75341797 96.875 C72.24479905 66.74864325 46.76635532 44.9737688 11.94335938 36.49951172 C-24.88147594 28.27937881 -64.13554938 37.62648229 -93 62 Z " fill="#E7B507" transform="translate(655,129)"/>
<path d="M0 0 C1.17477905 0.07504761 1.17477905 0.07504761 2.37329102 0.15161133 C16.51027182 1.25313858 32.91474339 4.77258336 42.78125 15.703125 C55.50723946 32.3909791 58.63016635 50.4744309 55.9765625 71.02734375 C53.43268057 85.52747075 47.587369 95.95077481 35.8359375 104.84375 C29.44203472 109.19234094 22.91546992 111.9578048 15.4375 113.875 C14.76678467 114.05377686 14.09606934 114.23255371 13.4050293 114.41674805 C6.13139464 116.13646863 -1.08099896 116.14745825 -8.5065918 116.08081055 C-10.65229883 116.06226404 -12.79757962 116.0603034 -14.94335938 116.06054688 C-25.41461814 116.02288186 -25.41461814 116.02288186 -26.5625 114.875 C-26.65815123 113.4075104 -26.68438309 111.93543116 -26.68275452 110.46482849 C-26.68412918 109.51265442 -26.68550385 108.56048035 -26.68692017 107.57945251 C-26.68332489 106.52641434 -26.67972961 105.47337616 -26.67602539 104.38842773 C-26.67617142 103.28612823 -26.67631744 102.18382874 -26.6764679 101.04812622 C-26.67576821 97.38492908 -26.66797324 93.72178206 -26.66015625 90.05859375 C-26.65829227 87.52653532 -26.65686827 84.99447652 -26.65586853 82.4624176 C-26.65243346 76.46651751 -26.64454269 70.47063911 -26.63451904 64.47474772 C-26.62335677 57.65018942 -26.61784717 50.82563028 -26.61282361 44.00106514 C-26.60236004 29.95903336 -26.5847613 15.91701767 -26.5625 1.875 C-23.83897046 1.54101318 -21.11508297 1.21064186 -18.39086914 0.88232422 C-17.62407082 0.7879155 -16.85727249 0.69350677 -16.06723785 0.59623718 C-10.66659485 -0.05075591 -5.43636561 -0.38282506 0 0 Z " fill="#FDFDFD" transform="translate(324.5625,1059.125)"/>
<path d="M0 0 C2.92109215 2.06571258 5.43575093 4.51267841 8 7 C9.95343755 8.85038924 11.81115523 10.40811289 14 12 C17.43504002 11.64143632 19.9363348 9.94581639 22.8125 8.125 C29.99949002 3.76034621 36.39103918 0.35019915 45 2 C48.15240061 4.92173715 49.80787736 7.55908019 50.375 11.8125 C50 15 50 15 48 17.75 C44.82255616 20.13308288 42.78755916 20.72661892 38.99609375 21.46484375 C35.90356452 22.29395628 33.57839803 24.15828712 31 26 C30.34 26 29.68 26 29 26 C31.39574307 30.46583101 34.43121264 33.78334448 37.953125 37.359375 C38.53157166 37.9492218 39.11001831 38.5390686 39.70599365 39.14678955 C40.92699317 40.38660971 42.15086995 41.62360212 43.37744141 42.85791016 C45.24429083 44.74423128 47.08872425 46.65080304 48.93359375 48.55859375 C50.1262777 49.76433438 51.32024663 50.96880558 52.515625 52.171875 C53.06067688 52.74162048 53.60572876 53.31136597 54.16729736 53.89837646 C57.90840143 57.59714075 60.54924712 58.83054867 66 59 C68.38301347 58.50379833 68.38301347 58.50379833 70.5625 57.5625 C79.87545566 54.50535954 89.52663224 54.95738426 98.54296875 58.74609375 C109.73705435 64.4588147 118.03312557 74.09937671 122 86 C122.68933271 95.85406762 122.15239004 103.87808293 118 113 C117.67 113.99 117.34 114.98 117 116 C117.84304688 116.83144531 118.68609375 117.66289062 119.5546875 118.51953125 C120.66159075 119.61705397 121.7683543 120.71471759 122.875 121.8125 C123.43058594 122.35970703 123.98617187 122.90691406 124.55859375 123.47070312 C125.09355469 124.00244141 125.62851562 124.53417969 126.1796875 125.08203125 C126.67194824 125.56905518 127.16420898 126.0560791 127.67138672 126.55786133 C130.07846486 129.17061594 130.97812836 130.8312759 131.4375 134.375 C131 138 131 138 128.9375 140.9375 C126 143 126 143 122.8125 143.8125 C116.56005773 142.4800123 111.55838464 138.01708492 107.453125 133.17578125 C106.06403873 131.78657684 106.06403873 131.78657684 104.09375 132.08203125 C101.45791113 133.23766956 99.6662654 134.79201778 97.5 136.6875 C88.60368622 144.03720351 79.43754998 148.36275726 67.89453125 148.29296875 C64.19449484 147.91847114 62.40384343 146.8182992 60 144 C58.57337781 141.14675563 58.68966132 139.16545451 59 136 C61.0124196 132.79450307 62.19439275 131.25416964 65.84765625 130.1015625 C66.90855469 129.94429687 67.96945312 129.78703125 69.0625 129.625 C77.66646416 127.92748734 84.82311438 124.18165084 90 117 C89.47937988 116.42169434 88.95875977 115.84338867 88.42236328 115.24755859 C87.68743652 114.43109863 86.95250977 113.61463867 86.1953125 112.7734375 C85.37063477 111.86045898 84.54595703 110.94748047 83.69628906 110.00683594 C81.89328472 108.00483176 80.11136612 105.98654705 78.34277344 103.95410156 C76.04792643 101.32429338 73.6996758 98.75085875 71.31835938 96.19921875 C70.34839494 95.14131437 69.39691612 94.06618777 68.46386719 92.97558594 C65.32661514 89.32524208 62.33348706 86.24432682 58 84 C52.5334407 84.3129656 48.08254131 86.0741678 43 88 C33.99820382 89.54121933 24.4340755 88.54763478 16.73828125 83.5234375 C14.39086452 81.77782031 12.19489047 79.93322203 10 78 C9.29617188 77.41347656 8.59234375 76.82695312 7.8671875 76.22265625 C0.98468007 70.03363341 -3.2113684 62.44666432 -4.54296875 53.25 C-4.84017639 45.41014429 -3.55983245 39.47089122 0.00390625 32.48828125 C1.13352742 30.13468974 1.13352742 30.13468974 0.9609375 27.984375 C-0.46394274 25.04193937 -2.57804746 23.18185729 -4.9375 20.9375 C-11.81968114 14.35239142 -11.81968114 14.35239142 -12.375 10.1875 C-11.90591849 6.20030718 -10.46785476 4.12111043 -8 1 C-4.98221063 -0.50889469 -3.37677363 -0.50026276 0 0 Z " fill="#E8B607" transform="translate(584,208)"/>
<path d="M0 0 C0.73089844 0.14050781 1.46179688 0.28101563 2.21484375 0.42578125 C12.8718304 3.17899221 21.15026571 13.10788158 27 22 C32.96483948 33.44814244 35.56277397 45.46841005 35.4375 58.3125 C35.43065186 59.40046875 35.42380371 60.4884375 35.41674805 61.609375 C35.07488095 78.83845234 29.53803914 93.46196086 17.2421875 105.7578125 C7.69156942 114.28056137 -1.43547861 115.69382325 -13.89941406 115.17041016 C-23.60208397 114.3832805 -31.98333749 106.48970703 -38.3125 99.625 C-49.06169486 86.15065715 -51.9422538 67.75498568 -51 51 C-48.92388774 35.01230088 -43.13466392 17.93767829 -30.1640625 7.49609375 C-20.82456734 1.03936695 -11.26406507 -2.29199237 0 0 Z " fill="#FDFDFD" transform="translate(484,1060)"/>
<path d="M0 0 C1.51741456 1.3346237 3.01914649 2.68742174 4.5 4.0625 C5.12132812 4.58199219 5.74265625 5.10148437 6.3828125 5.63671875 C19.70197457 17.49256481 25.28574503 37.03180707 26.67285156 54.20214844 C27.88094176 76.0594442 23.17206267 96.29102023 8.5 113.0625 C-6.29754775 128.86157383 -26.96035116 136.26529442 -48.30297852 137.23535156 C-51.61358176 137.28387062 -54.92016237 137.29930145 -58.23095703 137.26831055 C-60.26217104 137.24988962 -62.2929292 137.24780302 -64.32421875 137.24804688 C-84.3040368 137.1596406 -84.3040368 137.1596406 -91.5 132.0625 C-92.52264605 128.99456186 -92.6306031 126.89954932 -92.64044189 123.68618774 C-92.64615204 122.57020706 -92.65186218 121.45422638 -92.65774536 120.3044281 C-92.65886322 119.07942093 -92.65998108 117.85441376 -92.66113281 116.59228516 C-92.66609772 115.30265366 -92.67106262 114.01302216 -92.67617798 112.68431091 C-92.689294 109.14501003 -92.69574526 105.60572811 -92.70018864 102.06640673 C-92.70312037 99.85505322 -92.70722535 97.64370488 -92.71169281 95.43235397 C-92.72536503 88.51307786 -92.73503329 81.59381359 -92.7388947 74.6745249 C-92.74337632 66.68789894 -92.76093004 58.70144404 -92.7898953 50.7148701 C-92.81151016 44.54068133 -92.82159886 38.36654071 -92.82293582 32.19231451 C-92.8239839 28.50498018 -92.82989236 24.81780672 -92.84775543 21.13051224 C-92.86729405 17.01740378 -92.86294796 12.90465361 -92.85644531 8.79150391 C-92.8656601 7.5705452 -92.87487488 6.34958649 -92.8843689 5.09162903 C-92.87879974 3.9700087 -92.87323059 2.84838837 -92.86749268 1.69277954 C-92.86895924 0.72049723 -92.8704258 -0.25178509 -92.8719368 -1.2535305 C-92.42618892 -4.47013534 -91.41191392 -6.33064492 -89.5 -8.9375 C-66.93770308 -22.47487815 -20.40406116 -15.83918862 0 0 Z M-66.33496094 4.06762695 C-67.12160126 4.16264748 -67.90824158 4.257668 -68.71871948 4.35556793 C-70.64611352 4.58874109 -72.57309972 4.82528116 -74.5 5.0625 C-74.52332994 19.77859565 -74.54097964 34.49468885 -74.55181217 49.21079922 C-74.55697493 56.04328974 -74.56401723 62.87576879 -74.57543945 69.70825195 C-74.58644707 76.29585305 -74.59227623 82.88344531 -74.59487724 89.47105598 C-74.596732 91.99058279 -74.60035357 94.51010891 -74.60573006 97.02963066 C-74.61293676 100.54507765 -74.6139911 104.06047461 -74.61352539 107.57592773 C-74.61712067 108.62896591 -74.62071594 109.68200409 -74.62442017 110.76695251 C-74.6230455 111.71912659 -74.62167084 112.67130066 -74.62025452 113.65232849 C-74.62117631 114.48470756 -74.6220981 115.31708662 -74.62304783 116.17468929 C-74.70762214 118.07475044 -74.70762214 118.07475044 -73.5 119.0625 C-50.53069235 120.57418737 -27.26082584 120.27435338 -8.6640625 104.99609375 C2.08048676 95.39581959 7.32894066 84.45677101 8.5 70.0625 C9.6080392 50.34565737 7.01647764 33.30885221 -6.5 18.0625 C-16.75091435 6.92570416 -33.30406217 4.19766059 -47.75 3.25 C-48.46293213 3.19682617 -49.17586426 3.14365234 -49.91040039 3.08886719 C-55.46964235 2.81866429 -60.82826332 3.38673852 -66.33496094 4.06762695 Z " fill="#B61D33" transform="translate(372.5,1055.9375)"/>
<path d="M0 0 C1.87231445 1.8984375 1.87231445 1.8984375 3.55078125 4.375 C4.57292725 5.86580078 4.57292725 5.86580078 5.61572266 7.38671875 C6.41193959 8.5901826 7.2065744 9.79469403 8 11 C8.96258316 12.44410688 9.92532107 13.88811062 10.88818359 15.33203125 C13.72476146 19.60379406 16.53663324 23.89141261 19.34378052 28.18255615 C33.32538476 49.54827107 47.54418911 70.74909969 61.86593628 91.88790894 C62.81737349 93.29242458 63.76745457 94.69786033 64.71585083 96.10443115 C65.55038109 97.33630483 66.3920384 98.56339083 67.24191284 99.784729 C70 103.78635159 70 103.78635159 70 106 C71.485 106.495 71.485 106.495 73 107 C73.00364563 105.73323929 73.00729126 104.46647858 73.01104736 103.16133118 C73.04797579 91.22794071 73.10572511 79.29480881 73.18390274 67.36161518 C73.22342523 61.22649878 73.25559043 55.09152695 73.27099609 48.95629883 C73.28613103 43.03632486 73.32052082 37.11674821 73.36830902 31.19695091 C73.3831554 28.93754719 73.39104287 26.67808676 73.39188385 24.41863441 C73.39424539 21.25562722 73.4212607 18.09372528 73.45410156 14.9309082 C73.44655602 13.52720978 73.44655602 13.52720978 73.43885803 12.09515381 C73.50599938 7.92021615 73.63333576 5.59975829 75.8505249 1.97306824 C78.52788379 -0.4845605 80.40789456 -1.41353381 84 -2 C87.56446721 -0.46079825 88.82847773 0.74271659 91 4 C91.25726891 6.54440212 91.25726891 6.54440212 91.26742554 9.64878845 C91.27595551 10.82511337 91.28448547 12.00143829 91.29327393 13.21340942 C91.29236755 14.50544281 91.29146118 15.7974762 91.29052734 17.12866211 C91.2965111 18.50191107 91.30331629 19.87515667 91.31088257 21.24839783 C91.32856433 24.97979267 91.33323882 28.71109581 91.33451414 32.44252849 C91.33641245 35.55642816 91.3437691 38.67030643 91.35085833 41.78419787 C91.36714776 49.12982457 91.37202674 56.47540224 91.37060547 63.82104492 C91.36940351 71.40160362 91.39051462 78.98187783 91.4220928 86.56236452 C91.44823135 93.06860443 91.45897381 99.57475128 91.45769465 106.0810433 C91.45718434 109.96791268 91.46290503 113.85452923 91.48405075 117.74134636 C91.50339296 121.3964726 91.50358573 125.05110379 91.48901749 128.70624733 C91.48592424 130.68787654 91.50263344 132.66950559 91.51989746 134.65106201 C91.51150848 135.83020676 91.50311951 137.0093515 91.49447632 138.22422791 C91.49556585 139.24905242 91.49665539 140.27387693 91.49777794 141.32975674 C90.86307372 144.73451724 89.72579129 145.92020558 87 148 C81.90711617 148.64818522 79.05967663 148.07178195 75 145 C72.84416937 142.33743885 71.02717855 139.48062245 69.1875 136.59375 C68.62941147 135.73776215 68.07132294 134.88177429 67.49632263 133.99984741 C66.28790209 132.14427714 65.08421402 130.2856182 63.88473511 128.42425537 C60.66446423 123.42785329 57.40963156 118.45399881 54.16015625 113.4765625 C53.49017105 112.4481424 52.82018585 111.41972229 52.12989807 110.36013794 C45.01509619 99.45330035 37.73851478 88.65772647 30.4375 77.875 C28.68441237 75.28465243 26.93143396 72.69423107 25.17861938 70.10369873 C24.071658 68.46778196 22.96438707 66.83207459 21.85678101 65.19659424 C17.42532739 58.64685383 13.03614375 52.06942889 8.67027283 45.47579956 C8.20166336 44.76980621 7.73305389 44.06381287 7.25024414 43.33642578 C6.83827286 42.71406036 6.42630157 42.09169495 6.00184631 41.45046997 C5.07379732 40.01381322 5.07379732 40.01381322 4 39 C3.99635437 40.30656555 3.99270874 41.6131311 3.98895264 42.95928955 C3.95204226 55.26089095 3.89431286 67.5622411 3.81609726 79.86365128 C3.77655573 86.18824567 3.74439992 92.51269943 3.72900391 98.83740234 C3.71388145 104.93891439 3.6795141 111.04003998 3.63169098 117.14138031 C3.61683165 119.4713887 3.60895639 121.80145225 3.60811615 124.13150787 C3.60575849 127.39050198 3.57877461 130.64841761 3.54589844 133.90722656 C3.5509288 134.874673 3.55595917 135.84211945 3.56114197 136.83888245 C3.45935667 143.34264237 3.45935667 143.34264237 1.1807251 146.60345459 C-2.02897921 148.65896256 -4.26537956 148.4586376 -8 148 C-12.6 145.8 -12.6 145.8 -14 143 C-14.09981807 141.18684963 -14.13509013 139.37001093 -14.14044189 137.55412292 C-14.14615204 136.39744614 -14.15186218 135.24076935 -14.15774536 134.04904175 C-14.15886322 132.77368561 -14.15998108 131.49832947 -14.16113281 130.18432617 C-14.1657603 128.83255375 -14.17078486 127.48078264 -14.17617798 126.12901306 C-14.18931166 122.45122762 -14.19574894 118.77346044 -14.20018864 115.0956552 C-14.20311811 112.79837469 -14.2072227 110.50109918 -14.21169281 108.20382118 C-14.22537096 101.01757365 -14.23503577 93.83133754 -14.2388947 86.64507788 C-14.24337489 78.34715184 -14.26091954 70.04939056 -14.2898953 61.75151461 C-14.31150883 55.33955617 -14.32159882 48.9276441 -14.32293582 42.51564962 C-14.32398419 38.68522107 -14.32989848 34.85494734 -14.34775543 31.02455711 C-14.36423031 27.42040601 -14.36639462 23.81652618 -14.35761642 20.21235085 C-14.35647847 18.2607285 -14.37020082 16.30911519 -14.3843689 14.35754395 C-14.37879974 13.19240768 -14.37323059 12.02727142 -14.36749268 10.826828 C-14.36895924 9.81637515 -14.3704258 8.8059223 -14.3719368 7.76484966 C-13.93424332 4.51118758 -12.92313103 2.63958253 -11 0 C-6.8037241 -2.60849583 -4.40816709 -1.88886207 0 0 Z " fill="#B61D33" transform="translate(568,1045)"/>
<path d="M0 0 C1.86877441 2.30253601 1.86877441 2.30253601 3.32226562 5.5378418 C3.6025486 6.14935184 3.88283157 6.76086187 4.17160797 7.39090252 C5.15383452 9.57886087 6.08083733 11.78481868 7 14 C7.35609344 14.85102421 7.71218689 15.70204842 8.07907104 16.57886124 C11.08684886 23.81678689 13.96757332 31.10356174 16.84375 38.39453125 C17.7804731 40.75541051 18.71778057 43.11605798 19.65563965 45.47648621 C21.8615289 51.03200906 24.06207665 56.5896162 26.25979185 62.14837521 C29.46769891 70.26147142 32.6847932 78.3709225 35.90192413 86.4803648 C38.21387274 92.30819785 40.5244653 98.13655309 42.83044434 103.9667511 C43.2553138 105.03969768 43.68018326 106.11264425 44.11792755 107.21810436 C44.93947706 109.29301356 45.76000077 111.36832928 46.57939911 113.44408894 C48.39201566 118.02056458 50.23067981 122.58001811 52.16674805 127.10580444 C52.49788353 127.88467608 52.82901901 128.66354773 53.1701889 129.46602154 C53.77470919 130.8787648 54.38807268 132.28777732 55.01273346 133.69173145 C56.6891566 137.6110668 57.48381896 140.7410609 57 145 C54.9375 147.875 54.9375 147.875 52 150 C47.93688812 150.65300012 45.91928093 150.6005158 42.45336914 148.33642578 C39.67568609 145.69114498 38.63702365 143.61211601 37.24609375 140.0546875 C36.78396484 138.89453125 36.32183594 137.734375 35.84570312 136.5390625 C35.38099609 135.32992188 34.91628906 134.12078125 34.4375 132.875 C33.96892578 131.6890625 33.50035156 130.503125 33.01757812 129.28125 C32.09788587 126.95050543 31.18541967 124.61689452 30.28076172 122.28027344 C28.80272636 118.49474483 27.2556905 114.74012333 25.68383789 110.99267578 C25 109 25 109 25 106 C24.34 106 23.68 106 23 106 C23 105.34 23 104.68 23 104 C4.52 104.33 -13.96 104.66 -33 105 C-33.99 108.3 -34.98 111.6 -36 115 C-37.47617367 119.31821915 -39.05061454 123.59668659 -40.65136719 127.86987305 C-41.13628628 129.17166159 -41.61507528 130.47574907 -42.08789062 131.78198242 C-42.78221249 133.69973574 -43.49444153 135.6099683 -44.2109375 137.51953125 C-44.62649902 138.64464111 -45.04206055 139.76975098 -45.47021484 140.92895508 C-47.19759281 144.39666773 -49.0362617 146.51884315 -52 149 C-56.19688661 149.67449963 -58.20197931 149.46840345 -61.875 147.3125 C-64.33209469 144.63860284 -64.70253378 143.57431636 -65 140 C-64.17407227 136.88598633 -64.17407227 136.88598633 -62.81640625 133.33203125 C-62.57059814 132.67812408 -62.32479004 132.02421692 -62.0715332 131.35049438 C-61.24709463 129.16643916 -60.40481194 126.98971822 -59.5625 124.8125 C-58.96559862 123.24204189 -58.36984104 121.67114863 -57.77514648 120.09985352 C-56.18410266 115.90491086 -54.57813505 111.71583192 -52.96923828 107.52770996 C-51.41826843 103.48288217 -49.88116314 99.43280827 -48.34375 95.3828125 C-46.43638278 90.35968586 -44.52579752 85.33786773 -42.60253906 80.32080078 C-38.94290642 70.76832109 -35.32162576 61.20273761 -31.75611877 51.61473083 C-30.02154234 46.95058841 -28.27780385 42.28988496 -26.53240108 37.62978458 C-25.30253782 34.34400438 -24.07795935 31.05644289 -22.86502075 27.76437378 C-21.50401278 24.0704896 -20.12180459 20.3847325 -18.73828125 16.69921875 C-18.33365662 15.58967834 -17.92903198 14.48013794 -17.512146 13.3369751 C-14.1307561 4.41196147 -10.72370738 -2.71970341 0 0 Z " fill="#B61D33" transform="translate(741,1043)"/>
<path d="M0 0 C15.13066157 10.47295337 24.12571519 30.6490363 28 48 C32.34712954 72.14105936 27.59711742 96.58964015 14 117 C5.95521793 127.93557847 -6.21877132 136.93231487 -19.375 140.67578125 C-29.46278065 141.92174225 -40.61827688 142.24230268 -50 138 C-51.01191406 137.54753906 -52.02382813 137.09507812 -53.06640625 136.62890625 C-70.61499189 127.9892838 -80.96382125 114.05816973 -88 96 C-90.58589117 88.22228081 -92.6571238 80.2141212 -93 72 C-93.03996094 71.17628906 -93.07992188 70.35257813 -93.12109375 69.50390625 C-93.709346 45.66238879 -85.14477117 22.66298366 -68.75 5.375 C-49.16984322 -13.55465323 -22.45346504 -14.5224923 0 0 Z M-57.9609375 18.671875 C-66.35851936 27.2594474 -71.70884103 40.3861942 -74 52 C-74.226875 53.093125 -74.45375 54.18625 -74.6875 55.3125 C-76.13839449 72.43305496 -74.27176075 91.56428232 -63.75 105.8125 C-57.03688625 113.73426546 -49.93441657 119.68852781 -40 123 C-37.07039543 123.14935239 -34.18027379 123.2311558 -31.25 123.25 C-30.46367187 123.270625 -29.67734375 123.29125 -28.8671875 123.3125 C-18.58613675 123.38081263 -11.50679666 118.39260041 -4.3046875 111.33984375 C7.18995924 98.61147838 11.17121438 83.68929305 11.25 66.9375 C11.270625 65.86822266 11.29125 64.79894531 11.3125 63.69726562 C11.39254325 47.13831757 6.11843136 32.28991359 -5 20 C-5.88558594 18.99259766 -5.88558594 18.99259766 -6.7890625 17.96484375 C-12.97344983 11.31450942 -20.06370984 8.27661288 -29 7 C-40.29241232 7 -49.48116467 11.44210852 -57.9609375 18.671875 Z " fill="#B61D33" transform="translate(508,1052)"/>
<path d="M0 0 C0.71431686 -0.00832352 1.42863373 -0.01664703 2.16459656 -0.02522278 C4.52132648 -0.04928008 6.87777953 -0.05808877 9.23461914 -0.06469727 C10.87602317 -0.07366566 12.51742637 -0.08278755 14.15882874 -0.09205627 C17.597768 -0.10853635 21.03661001 -0.11624479 24.47558594 -0.11914062 C28.87866921 -0.12452871 33.28083692 -0.16222955 37.68366146 -0.20788479 C41.07319976 -0.23764752 44.46251714 -0.24486397 47.85217476 -0.24586678 C49.47528853 -0.25006937 51.09840294 -0.2625054 52.72138786 -0.28338432 C54.99332715 -0.31028956 57.26313819 -0.30547861 59.53515625 -0.29296875 C60.82659042 -0.2980394 62.1180246 -0.30311005 63.44859314 -0.30833435 C67.71496632 0.46675945 69.16080691 1.96285295 71.83227539 5.30639648 C72.95727539 8.24389648 72.95727539 8.24389648 72.83227539 11.30639648 C71.27811752 14.35314266 70.62982856 15.51518779 67.83227539 17.30639648 C63.02575992 18.22999298 58.22042616 18.14554097 53.34399414 18.11108398 C51.91622175 18.12233955 50.48846786 18.13622259 49.06074524 18.15261841 C45.31393033 18.18861723 41.567932 18.1890353 37.82098389 18.1819458 C33.31953441 18.18087127 28.81831755 18.22416056 24.31703949 18.25997925 C17.48836196 18.30936811 10.66181368 18.3025369 3.83227539 18.30639648 C4.16227539 32.16639648 4.49227539 46.02639648 4.83227539 60.30639648 C11.36782227 60.37987305 11.36782227 60.37987305 18.03540039 60.45483398 C21.51150715 60.4993773 24.98757562 60.54587265 28.46363831 60.59368896 C32.13189 60.64361334 35.80011139 60.69010487 39.46850586 60.72827148 C43.00237325 60.76517112 46.53600143 60.81154343 50.069664 60.86445999 C52.07258796 60.89198612 54.07563866 60.90972459 56.07867432 60.92733765 C57.29963806 60.94720734 58.52060181 60.96707703 59.77856445 60.98754883 C60.85334045 61.0008725 61.92811646 61.01419617 63.03546143 61.02792358 C65.85538985 61.30869794 67.48552541 61.74821229 69.83227539 63.30639648 C71.95497416 66.52704289 72.83227539 68.55812936 72.83227539 72.43139648 C71.54713429 76.12617716 70.08877113 77.18241732 66.83227539 79.30639648 C63.83927917 79.78741455 63.83927917 79.78741455 60.48144531 79.76049805 C58.59005074 79.76004486 58.59005074 79.76004486 56.66044617 79.75958252 C55.29453899 79.73915913 53.92863834 79.7182952 52.56274414 79.69702148 C51.15742296 79.68955533 49.75209132 79.68386416 48.34675598 79.67987061 C44.65905703 79.66464335 40.97199448 79.62538794 37.2845459 79.58105469 C33.51734175 79.5400384 29.75003107 79.52162652 25.98266602 79.50170898 C18.59864156 79.46101444 11.21636161 79.38271779 3.83227539 79.30639648 C4.16227539 96.13639648 4.49227539 112.96639648 4.83227539 130.30639648 C9.02172852 130.3437793 13.21118164 130.38116211 17.52758789 130.41967773 C20.87795121 130.45781117 24.22824995 130.49888375 27.57855225 130.54193878 C31.10971901 130.58651439 34.64076945 130.62596674 38.17211914 130.65283203 C42.2284025 130.68392996 46.28407079 130.73871611 50.34008789 130.79467773 C51.59967316 130.80106766 52.85925842 130.80745758 54.15701294 130.81404114 C55.33778412 130.8338353 56.5185553 130.85362946 57.73510742 130.87402344 C59.28731491 130.89067802 59.28731491 130.89067802 60.87088013 130.90766907 C65.44598155 131.52366869 68.79754126 133.07139123 71.76977539 136.61889648 C73.12778608 140.0538647 72.95079085 141.80171472 71.83227539 145.30639648 C69.53005253 148.40347178 68.3628972 149.22552298 64.49964905 149.81433105 C63.16029064 149.83801911 61.82043225 149.83972899 60.48095703 149.82397461 C59.38022102 149.83448853 59.38022102 149.83448853 58.25724792 149.84521484 C55.83525572 149.86279736 53.41443541 149.85117093 50.99243164 149.83764648 C49.30618567 149.84034164 47.61994122 149.84422426 45.93370056 149.84924316 C42.400474 149.85513877 38.86765214 149.84657461 35.33447266 149.82788086 C30.81038414 149.80510843 26.28724571 149.81820264 21.76319218 149.84217072 C18.28096898 149.85664214 14.79897008 149.85201631 11.31674004 149.84165955 C9.64901046 149.83899505 7.98126039 149.84225229 6.31355476 149.85157776 C3.97948619 149.86176398 1.64694352 149.84621478 -0.68701172 149.82397461 C-1.37340729 149.83207153 -2.05980286 149.84016846 -2.76699829 149.84851074 C-7.47753043 149.76556645 -9.85188194 148.61859232 -13.16772461 145.30639648 C-14.46318871 142.71546828 -14.29948565 140.83887532 -14.3081665 137.93644714 C-14.31387665 136.79659866 -14.31958679 135.65675018 -14.32546997 134.48236084 C-14.32658783 133.22570618 -14.32770569 131.96905151 -14.32885742 130.67431641 C-14.33382233 129.35557022 -14.33878723 128.03682404 -14.34390259 126.67811584 C-14.35703585 123.0540477 -14.36347347 119.4299981 -14.36791325 115.80590987 C-14.37084279 113.54213126 -14.3749474 111.27835774 -14.37941742 109.01458168 C-14.39309549 101.9329856 -14.40276033 94.85140111 -14.40661931 87.76979274 C-14.41109942 79.59298671 -14.42864373 71.41634791 -14.45761991 63.23959273 C-14.47923427 56.92105173 -14.48932348 50.60255777 -14.49066043 44.28398019 C-14.49170874 40.50944204 -14.49762184 36.73506101 -14.51548004 32.96056175 C-14.53195636 29.40893908 -14.53411854 25.8575917 -14.52534103 22.30594444 C-14.52420323 20.38294856 -14.53792449 18.45996184 -14.55209351 16.53701782 C-14.54652435 15.38870987 -14.5409552 14.24040192 -14.53521729 13.05729675 C-14.53668385 12.06159259 -14.53815041 11.06588842 -14.53966141 10.04001141 C-14.10130536 6.81823651 -13.04538957 4.9367271 -11.16772461 2.30639648 C-7.7303451 -0.24933307 -4.17208277 0.03439393 0 0 Z " fill="#B61D33" transform="translate(926.167724609375,1042.693603515625)"/>
<path d="M0 0 C0.88742386 -0.00571014 1.77484772 -0.01142029 2.68916321 -0.01730347 C4.15336197 -0.01898026 4.15336197 -0.01898026 5.6471405 -0.02069092 C6.67327957 -0.02565582 7.69941864 -0.03062073 8.75665283 -0.03573608 C12.16310793 -0.05038265 15.56951646 -0.05716403 18.97599792 -0.06268311 C21.33770754 -0.0684327 23.69941713 -0.07419045 26.06112671 -0.07995605 C31.01851113 -0.09047328 35.9758793 -0.09631116 40.93327332 -0.09979248 C47.28890358 -0.10527734 53.64431963 -0.12930235 59.9998827 -0.15776443 C64.88031646 -0.17637883 69.76069851 -0.18159579 74.64116478 -0.18312836 C76.98434813 -0.18615834 79.32753049 -0.19419844 81.67067909 -0.20731354 C84.94815532 -0.22434792 88.22510685 -0.22249989 91.50260925 -0.21600342 C92.47266907 -0.2252182 93.44272888 -0.23443298 94.44218445 -0.243927 C99.34267516 -0.21346368 102.84850041 -0.15118015 106.76896667 3.14044189 C109.26928322 6.89091671 109.30500222 8.69900455 108.76896667 13.14044189 C106.73453076 16.07682613 105.13930105 17.87460816 101.5381012 18.57321167 C98.75132101 18.72004871 96.007897 18.70215584 93.21818542 18.62872314 C92.2042421 18.62164841 91.19029877 18.61457367 90.14562988 18.60728455 C86.91515037 18.57935201 83.68642006 18.51661352 80.45646667 18.45294189 C78.26313237 18.42785765 76.06977084 18.4050447 73.87638855 18.38458252 C68.50665365 18.32952944 63.13793514 18.24591462 57.76896667 18.14044189 C57.76750011 18.79643246 57.76603355 19.45242302 57.76452255 20.12829208 C57.72747995 36.08586559 57.66849939 52.04318409 57.58506393 68.00057602 C57.54524491 75.71744895 57.51286705 83.43421948 57.49797058 91.15118408 C57.48496881 97.8768632 57.45804221 104.60231727 57.41435361 111.32786965 C57.3917052 114.88946078 57.37605799 118.45077401 57.37708282 122.01244354 C57.37796577 125.98730841 57.34776198 129.96160426 57.31486511 133.93634033 C57.32241066 135.71011047 57.32241066 135.71011047 57.33010864 137.51971436 C57.30923943 139.14347992 57.30923943 139.14347992 57.28794861 140.80004883 C57.28241785 142.21039209 57.28241785 142.21039209 57.27677536 143.64922714 C56.61058185 146.91744832 55.37601439 148.11734772 52.76896667 150.14044189 C47.79229134 150.77383694 44.76244846 150.19428091 40.76896667 147.14044189 C39.51309085 144.62869025 39.64591734 142.92807289 39.64871216 140.1164856 C39.64733749 139.05355286 39.64596283 137.99062012 39.64454651 136.89547729 C39.64993942 135.13897354 39.64993942 135.13897354 39.65544128 133.34698486 C39.65529526 132.11774292 39.65514923 130.88850098 39.65499878 129.62200928 C39.65557713 126.24617848 39.66060131 122.87040842 39.66757274 119.49458838 C39.67381309 115.96851117 39.67441062 112.4424332 39.67559814 108.91635132 C39.67870944 102.23695865 39.68692013 95.55758231 39.69694763 88.87819684 C39.70811501 81.27491165 39.7136208 73.67162569 39.71864307 66.06833434 C39.7291029 50.42569407 39.74669846 34.78307008 39.76896667 19.14044189 C39.20377823 19.13457565 38.63858978 19.12870941 38.05627441 19.12266541 C32.16728977 19.05867118 26.27884857 18.97423605 20.39030457 18.87799072 C18.1934374 18.84476134 15.99648527 18.81672324 13.79948425 18.79400635 C10.63920425 18.76042435 7.47970147 18.70810555 4.31974792 18.65216064 C3.3393605 18.64577072 2.35897308 18.6393808 1.34887695 18.63279724 C-7.28060493 18.44724693 -7.28060493 18.44724693 -11.23103333 15.14044189 C-12.9740882 11.65433215 -12.23697585 7.81989608 -11.23103333 4.14044189 C-8.79353333 2.14044189 -8.79353333 2.14044189 -6.23103333 1.14044189 C-3.91424222 -0.01795366 -2.57903787 0.00992027 0 0 Z " fill="#B61D33" transform="translate(784.2310333251953,1042.8595581054688)"/>
<path d="M0 0 C0.66 0 1.32 0 2 0 C4.83203125 7.08007812 7.6640625 14.16015625 10.49609375 21.24023438 C10.80287048 22.00693451 11.10964722 22.77363464 11.42572021 23.56356812 C12.04280822 25.1067763 12.65922303 26.65025385 13.27496338 28.19400024 C14.76760327 31.93394153 16.27052237 35.66891913 17.79980469 39.39404297 C18.22064835 40.42584938 18.22064835 40.42584938 18.6499939 41.47850037 C19.41205326 43.3451056 20.17924076 45.20961489 20.94677734 47.07397461 C22 50 22 50 22 53 C8.8 53 -4.4 53 -18 53 C-19.16820101 48.32719595 -18.17408493 45.96766381 -16.46484375 41.69921875 C-16.18911026 40.98578812 -15.91337677 40.27235748 -15.62928772 39.53730774 C-14.74230049 37.24988152 -13.84012528 34.96879431 -12.9375 32.6875 C-12.35642716 31.19504836 -11.77633932 29.70221282 -11.19726562 28.20898438 C-7.53078246 18.77994405 -3.77196366 9.38725158 0 0 Z " fill="#FCFCFC" transform="translate(735,1077)"/>
<path d="M0 0 C0.90466507 -0.00637985 1.80933014 -0.0127597 2.7414093 -0.01933289 C4.21168831 -0.02100212 4.21168831 -0.02100212 5.71166992 -0.02270508 C6.71799973 -0.02603348 7.72432953 -0.02936188 8.76115417 -0.03279114 C10.89382469 -0.03786084 13.02650315 -0.04019945 15.15917969 -0.04003906 C18.41834668 -0.0422204 21.67717247 -0.06036157 24.9362793 -0.0793457 C27.00724168 -0.08228065 29.07820567 -0.08426477 31.14916992 -0.08520508 C32.12328323 -0.09239059 33.09739655 -0.09957611 34.10102844 -0.10697937 C42.23360376 -0.07960782 47.1137788 2.24694365 53.81713867 6.58276367 C54.44555664 6.97786133 55.07397461 7.37295898 55.72143555 7.7800293 C58.73247148 9.71546523 60.6188031 11.12901031 62.62963867 14.14526367 C61.87288345 14.13780624 61.11612823 14.13034882 60.33644104 14.12266541 C53.17193967 14.06010258 46.00922903 14.04117026 38.84455967 14.07010555 C35.16173808 14.08347069 31.48049646 14.08051547 27.79785156 14.0390625 C24.23735547 13.99960492 20.67933737 14.00458549 17.11881828 14.03918648 C15.11317098 14.04743419 13.10749932 14.01076023 11.10218811 13.97312927 C4.26644371 14.07969804 0.34672884 14.6215216 -4.62231445 19.53588867 C-5.90873469 21.04144505 -7.16395573 22.57486163 -8.37036133 24.14526367 C-9.16571289 25.08499023 -9.96106445 26.0247168 -10.78051758 26.99291992 C-11.32579102 27.72381836 -11.87106445 28.4547168 -12.43286133 29.20776367 C-13.00133789 29.96186523 -13.56981445 30.7159668 -14.15551758 31.49291992 C-14.55641602 32.03819336 -14.95731445 32.5834668 -15.37036133 33.14526367 C-16.92305728 29.19058037 -15.74677005 26.55194244 -14.35083008 22.66479492 C-14.13219803 22.05133713 -13.91356598 21.43787933 -13.68830872 20.80583191 C-13.22510835 19.5138723 -12.75661901 18.22379826 -12.28320312 16.93554688 C-11.55820851 14.95871034 -10.85281189 12.9756629 -10.1496582 10.9909668 C-6.19622003 0.02960993 -6.19622003 0.02960993 0 0 Z " fill="#B61D33" transform="translate(503.370361328125,407.854736328125)"/>
<path d="M0 0 C0.89094864 -0.01283524 1.78189728 -0.02567047 2.69984436 -0.03889465 C3.65410812 -0.04628159 4.60837189 -0.05366852 5.59155273 -0.0612793 C6.57759995 -0.06935104 7.56364716 -0.07742279 8.57957458 -0.08573914 C10.66159316 -0.09955203 12.74363411 -0.11028665 14.82568359 -0.11816406 C18.0169495 -0.13545364 21.20719946 -0.17937327 24.39819336 -0.22338867 C26.4209722 -0.23350942 28.44375984 -0.24202745 30.46655273 -0.2487793 C31.42284073 -0.26628738 32.37912872 -0.28379547 33.36439514 -0.30183411 C34.69608986 -0.29744576 34.69608986 -0.29744576 36.0546875 -0.29296875 C36.83538101 -0.29883499 37.61607452 -0.30470123 38.42042542 -0.31074524 C40.46264648 0.17700195 40.46264648 0.17700195 42.16621399 2.03852844 C43.70835566 4.58230077 44.69469406 7.09142752 45.68920898 9.89575195 C46.27702148 11.54124023 46.27702148 11.54124023 46.87670898 13.2199707 C47.47612305 14.93120117 47.47612305 14.93120117 48.08764648 16.67700195 C48.49499023 17.81782227 48.90233398 18.95864258 49.32202148 20.1340332 C52.56617611 29.27567422 52.56617611 29.27567422 53.46264648 33.17700195 C52.80264648 32.84700195 52.14264648 32.51700195 51.46264648 32.17700195 C51.46264648 31.51700195 51.46264648 30.85700195 51.46264648 30.17700195 C50.89126953 29.98195068 50.31989258 29.78689941 49.73120117 29.5859375 C47.08966313 27.94535248 46.07931222 26.02168765 44.43670654 23.44352722 C41.18649472 18.81603756 37.9373704 15.76112728 32.32421875 14.43621826 C23.69709614 13.42203811 15.03014552 13.61054693 6.36138916 13.82080078 C2.76121657 13.89402116 -0.83889766 13.8924743 -4.43969727 13.89770508 C-11.47390781 13.91870073 -18.50472839 14.02120258 -25.53735352 14.17700195 C-24.19270466 10.14305538 -22.3985825 9.70266147 -18.72485352 7.67700195 C-14.42410579 5.31027837 -14.42410579 5.31027837 -10.40063477 2.52075195 C-7.17609697 0.19529912 -3.8914246 0.04901923 0 0 Z " fill="#B61D33" transform="translate(739.537353515625,407.822998046875)"/>
<path d="M0 0 C3.70654622 1.55339246 6.08370297 3.82562416 8.9140625 6.6484375 C9.83960938 7.57140625 10.76515625 8.494375 11.71875 9.4453125 C12.19570313 9.92645508 12.67265625 10.40759766 13.1640625 10.90332031 C14.62024027 12.37020527 16.08677484 13.8261189 17.5546875 15.28125 C18.47765625 16.20679688 19.400625 17.13234375 20.3515625 18.0859375 C21.61734131 19.3551001 21.61734131 19.3551001 22.90869141 20.64990234 C24.76207347 22.73263125 25.9308175 24.44882606 27 27 C21.85505745 28.71498085 18.13153516 28.97782312 13.20703125 26.71875 C7.06735174 23.07305636 3.06347039 19.46897873 0 13 C-0.33 12.34 -0.66 11.68 -1 11 C-1.1421988 7.16063232 -1.17754676 3.67983361 0 0 Z " fill="#FCEE23" transform="translate(599,250)"/>
<path d="M0 0 C4.4263201 3.12397639 8.66210404 7.60936433 11.09765625 12.48046875 C11.21880546 14.12302666 11.27306392 15.77099353 11.28515625 17.41796875 C11.29933594 18.29324219 11.31351563 19.16851562 11.328125 20.0703125 C11.09765625 22.48046875 11.09765625 22.48046875 9.09765625 25.48046875 C8.37296143 24.75432373 7.6482666 24.02817871 6.90161133 23.2800293 C4.3561005 20.73850795 1.79790142 18.21082422 -0.765625 15.6875 C-2.58216382 13.88945684 -4.39856632 12.09127595 -6.21484375 10.29296875 C-7.14619141 9.37837891 -8.07753906 8.46378906 -9.03710938 7.52148438 C-9.91689453 6.64814453 -10.79667969 5.77480469 -11.703125 4.875 C-12.50919189 4.07940674 -13.31525879 3.28381348 -14.14575195 2.46411133 C-15.90234375 0.48046875 -15.90234375 0.48046875 -15.90234375 -1.51953125 C-10.02018785 -3.32942537 -5.37544527 -2.86897561 0 0 Z " fill="#FCEE23" transform="translate(676.90234375,284.51953125)"/>
</svg>
