<svg width="22" height="22" viewBox="0 0 22 22" fill="none" xmlns="http://www.w3.org/2000/svg">
<g id="jam:filter">
<path id="Vector" d="M4.0701 4L9.74185 11.0884C9.99012 11.3988 10.1253 11.7846 10.1251 12.1821V18L11.8751 16.6875V12.1813C11.8751 11.784 12.0103 11.3986 12.2583 11.0884L17.9301 4H4.07097H4.0701ZM4.0701 2.25H17.9301C18.2598 2.25004 18.5827 2.34321 18.8618 2.51877C19.1408 2.69433 19.3646 2.94515 19.5074 3.24233C19.6501 3.53951 19.706 3.87096 19.6686 4.19851C19.6312 4.52607 19.502 4.83639 19.296 5.09375L13.6251 12.1813V16.6875C13.6251 16.9592 13.5618 17.2271 13.4403 17.4701C13.3188 17.7131 13.1424 17.9245 12.9251 18.0875L11.1751 19.4C10.9151 19.595 10.6059 19.7137 10.2823 19.7429C9.95857 19.7721 9.63316 19.7106 9.34247 19.5652C9.05179 19.4199 8.80732 19.1965 8.63646 18.92C8.4656 18.6436 8.3751 18.325 8.3751 18V12.1813L2.70422 5.09375C2.49817 4.83639 2.36901 4.52607 2.33161 4.19851C2.29421 3.87096 2.3501 3.53951 2.49284 3.24233C2.63558 2.94515 2.85936 2.69433 3.1384 2.51877C3.41745 2.34321 3.74041 2.25004 4.0701 2.25Z" fill="#262626"/>
</g>
</svg>
